<?xml version="1.0" encoding="utf-8"?>
<COLLADA xmlns="http://www.collada.org/2005/11/COLLADASchema" version="1.4.1" xmlns:xsi="http://www.w3.org/2001/XMLSchema-instance">
  <asset>
    <contributor>
      <author>Blender User</author>
      <authoring_tool>Blender 4.5.1 LTS commit date:2025-07-29, commit time:05:31, hash:b0a72b245dcf</authoring_tool>
    </contributor>
    <created>2025-08-11T11:19:48</created>
    <modified>2025-08-11T11:19:48</modified>
    <unit name="meter" meter="1"/>
    <up_axis>Z_UP</up_axis>
  </asset>
  <library_effects>
    <effect id="_54_254_255_006-effect">
      <profile_COMMON>
        <technique sid="common">
          <lambert>
            <emission>
              <color sid="emission">0 0 0 1</color>
            </emission>
            <diffuse>
              <color sid="diffuse">0.996078 0.996078 1 1</color>
            </diffuse>
            <index_of_refraction>
              <float sid="ior">1.5</float>
            </index_of_refraction>
          </lambert>
        </technique>
      </profile_COMMON>
    </effect>
    <effect id="_21_124_15_004-effect">
      <profile_COMMON>
        <technique sid="common">
          <lambert>
            <emission>
              <color sid="emission">0 0 0 1</color>
            </emission>
            <diffuse>
              <color sid="diffuse">0.866667 0.486275 0.058824 1</color>
            </diffuse>
            <index_of_refraction>
              <float sid="ior">1.5</float>
            </index_of_refraction>
          </lambert>
        </technique>
      </profile_COMMON>
    </effect>
  </library_effects>
  <library_images/>
  <library_materials>
    <material id="_54_254_255_006-material" name="254,254,255.006">
      <instance_effect url="#_54_254_255_006-effect"/>
    </material>
    <material id="_21_124_15_004-material" name="221,124,15.004">
      <instance_effect url="#_21_124_15_004-effect"/>
    </material>
  </library_materials>
  <library_geometries>
    <geometry id="EMROX-Argo_INESC_TEC_Plattform_Rad_V1_02_005-mesh" name="EMROX-Argo INESC TEC Plattform Rad V1.02.005">
      <mesh>
        <source id="EMROX-Argo_INESC_TEC_Plattform_Rad_V1_02_005-mesh-positions">
          <float_array id="EMROX-Argo_INESC_TEC_Plattform_Rad_V1_02_005-mesh-positions-array" count="870">-74.89001 -20 -43.56042 -74.89001 -20 -35.43958 -74.89001 20 -43.56042 -74.89001 20 -35.43958 -74.01199 -20 -51.63365 -74.01199 -20 -27.36635 -74.01199 20 -51.63365 -74.01199 20 -27.36635 -72.26625 -20 -59.56462 -72.26625 -20 -19.43538 -72.26625 20 -59.56462 -72.26625 20 -19.43538 -69.67325 -20 -67.26036 -69.67325 -20 -11.73964 -69.67325 20 -67.26036 -69.67325 20 -11.73964 -66.26341 -20 -74.63063 -66.26341 -20 -4.369367 -66.26341 20 -74.63063 -66.26341 20 -4.369367 -62.07667 -20 -81.58903 -62.07667 -20 2.58903 -62.07667 20 -81.58903 -62.07667 20 2.58903 -58.47225 -33 -41.30151 -58.47225 -20 -41.30151 -58.25045 -33 -34.1023 -58.25045 -20 -34.1023 -57.80768 -33 -48.47341 -57.80768 -20 -48.47341 -57.16215 -20 -88.05397 -57.16215 -20 9.053974 -57.16215 20 -88.05397 -57.16215 20 9.053974 -57.14563 -33 -26.98492 -57.14563 -20 -26.98492 -56.2668 -33 -55.50928 -56.2668 -20 -55.50928 -55.17454 -33 -20.05724 -55.17454 -20 -20.05724 -53.87297 -33 -62.30247 -53.87297 -20 -62.30247 -52.36705 -33 -13.42431 -52.36705 -20 -13.42431 -51.57746 -20 -93.94966 -51.57746 -20 14.94966 -51.57746 20 -93.94966 -51.57746 20 14.94966 -50.66248 -33 -68.75 -50.66248 -20 -68.75 -48.76574 -33 -7.186649 -48.76574 -20 -7.186649 -46.68401 -33 -74.75413 -46.68401 -20 -74.75413 -45.38806 -20 -99.20699 -45.38806 -20 20.20698 -45.38806 20 -99.20699 -45.38806 20 20.20698 -44.42518 -33 -1.438829 -44.42518 -20 -1.438829 -41.99785 -33 -80.22384 -41.99785 -20 -80.22384 -39.41119 -33 3.732022 -39.41119 -20 3.732022 -38.66654 -20 -103.7643 -38.66654 -20 24.76429 -38.66654 20 -103.7643 -38.66654 20 24.76429 -36.67504 -33 -85.07622 -36.67504 -20 -85.07622 -33.79977 -33 8.247519 -33.79977 -20 8.247519 -31.49168 -20 -107.5682 -31.49168 -20 28.56816 -31.49168 20 -107.5682 -31.49168 20 28.56816 -30.79628 -33 -89.2377 -30.79628 -20 -89.2377 -29 -55 -39.5 -29 -33 -39.5 -28.55943 -55 -44.5358 -28.55943 -55 -34.4642 -28.55943 -33 -44.5358 -28.55943 -33 -34.4642 -27.67597 -33 12.03921 -27.67597 -20 12.03921 -27.25109 -55 -49.41858 -27.25109 -55 -29.58142 -27.25109 -33 -49.41858 -27.25109 -33 -29.58142 -25.11474 -55 -54 -25.11474 -55 -25 -25.11474 -33 -54 -25.11474 -33 -25 -24.45068 -33 -92.64522 -24.45068 -20 -92.64522 -23.94762 -20 -110.574 -23.94762 -20 31.57399 -23.94762 20 -110.574 -23.94762 20 31.57399 -22.21529 -55 -58.14084 -22.21529 -55 -20.85916 -22.21529 -33 -58.14084 -22.21529 -33 -20.85916 -21.13264 -33 15.04963 -21.13264 -20 15.04963 -18.64084 -55 -61.71529 -18.64084 -55 -17.28471 -18.64084 -33 -61.71529 -18.64084 -33 -17.28471 -17.73443 -33 -95.24711 -17.73443 -20 -95.24711 -16.12278 -20 -112.7465 -16.12278 -20 33.74654 -16.12278 20 -112.7465 -16.12278 20 33.74654 -14.5 -55 -64.61474 -14.5 -55 -14.38526 -14.5 -33 -64.61474 -14.5 -33 -14.38526 -14.26895 -33 17.23312 -14.26895 -20 17.23312 -10.74935 -33 -97.00393 -10.74935 -20 -97.00393 -9.918584 -55 -66.75109 -9.918584 -55 -12.24891 -9.918584 -33 -66.75109 -9.918584 -33 -12.24891 -8.108926 -20 -114.0604 -8.108926 -20 35.06034 -8.108926 20 -114.0604 -8.108926 20 35.06034 -7.188965 -33 18.5566 -7.188965 -20 18.5566 -5.035797 -55 -68.05943 -5.035797 -55 -10.94058 -5.035797 -33 -68.05943 -5.035797 -33 -10.94058 -3.601313 -33 -97.88905 -3.601313 -20 -97.88905 0 -55 -68.5 0 -55 -10.5 0 -33 -68.5 0 -33 -10.5 0 -33 19 0 -20 -114.5 0 -20 19 0 -20 35.5 0 20 -114.5 0 20 35.5 3.601313 -33 -97.88905 3.601313 -20 -97.88905 5.035797 -55 -68.05943 5.035797 -55 -10.94058 5.035797 -33 -68.05943 5.035797 -33 -10.94058 7.188965 -33 18.5566 7.188965 -20 18.5566 8.108926 -20 -114.0604 8.108926 -20 35.06034 8.108926 20 -114.0604 8.108926 20 35.06034 9.918584 -55 -66.75109 9.918584 -55 -12.24891 9.918584 -33 -66.75109 9.918584 -33 -12.24891 10.74935 -33 -97.00393 10.74935 -20 -97.00393 14.26895 -33 17.23312 14.26895 -20 17.23312 14.5 -55 -64.61474 14.5 -55 -14.38526 14.5 -33 -64.61474 14.5 -33 -14.38526 16.12278 -20 -112.7465 16.12278 -20 33.74654 16.12278 20 -112.7465 16.12278 20 33.74654 17.73443 -33 -95.24711 17.73443 -20 -95.24711 18.64084 -55 -61.71529 18.64084 -55 -17.28471 18.64084 -33 -61.71529 18.64084 -33 -17.28471 21.13264 -33 15.04963 21.13264 -20 15.04963 22.21529 -55 -58.14084 22.21529 -55 -20.85916 22.21529 -33 -58.14084 22.21529 -33 -20.85916 23.94762 -20 -110.574 23.94762 -20 31.57399 23.94762 20 -110.574 23.94762 20 31.57399 24.45068 -33 -92.64522 24.45068 -20 -92.64522 25.11474 -55 -54 25.11474 -55 -25 25.11474 -33 -54 25.11474 -33 -25 27.25109 -55 -49.41858 27.25109 -55 -29.58142 27.25109 -33 -49.41858 27.25109 -33 -29.58142 27.67597 -33 12.03921 27.67597 -20 12.03921 28.55943 -55 -44.5358 28.55943 -55 -34.4642 28.55943 -33 -44.5358 28.55943 -33 -34.4642 29 -55 -39.5 29 -33 -39.5 30.79628 -33 -89.2377 30.79628 -20 -89.2377 31.49168 -20 -107.5682 31.49168 -20 28.56816 31.49168 20 -107.5682 31.49168 20 28.56816 33.79977 -33 8.247519 33.79977 -20 8.247519 36.67504 -33 -85.07622 36.67504 -20 -85.07622 38.66654 -20 -103.7643 38.66654 -20 24.76429 38.66654 20 -103.7643 38.66654 20 24.76429 39.41119 -33 3.732022 39.41119 -20 3.732022 41.99785 -33 -80.22384 41.99785 -20 -80.22384 44.42518 -33 -1.438829 44.42518 -20 -1.438829 45.38806 -20 -99.20699 45.38806 -20 20.20698 45.38806 20 -99.20699 45.38806 20 20.20698 46.68401 -33 -74.75413 46.68401 -20 -74.75413 48.76574 -33 -7.186649 48.76574 -20 -7.186649 50.66248 -33 -68.75 50.66248 -20 -68.75 51.57746 -20 -93.94966 51.57746 -20 14.94966 51.57746 20 -93.94966 51.57746 20 14.94966 52.36705 -33 -13.42431 52.36705 -20 -13.42431 53.87297 -33 -62.30247 53.87297 -20 -62.30247 55.17454 -33 -20.05724 55.17454 -20 -20.05724 56.2668 -33 -55.50928 56.2668 -20 -55.50928 57.14563 -33 -26.98492 57.14563 -20 -26.98492 57.16215 -20 -88.05397 57.16215 -20 9.053974 57.16215 20 -88.05397 57.16215 20 9.053974 57.80768 -33 -48.47341 57.80768 -20 -48.47341 58.25045 -33 -34.1023 58.25045 -20 -34.1023 58.47225 -33 -41.30151 58.47225 -20 -41.30151 62.07667 -20 -81.58903 62.07667 -20 2.58903 62.07667 20 -81.58903 62.07667 20 2.58903 66.26341 -20 -74.63063 66.26341 -20 -4.369367 66.26341 20 -74.63063 66.26341 20 -4.369367 69.67325 -20 -67.26036 69.67325 -20 -11.73964 69.67325 20 -67.26036 69.67325 20 -11.73964 72.26625 -20 -59.56462 72.26625 -20 -19.43538 72.26625 20 -59.56462 72.26625 20 -19.43538 74.01199 -20 -51.63365 74.01199 -20 -27.36635 74.01199 20 -51.63365 74.01199 20 -27.36635 74.89001 -20 -43.56042 74.89001 -20 -35.43958 74.89001 20 -43.56042 74.89001 20 -35.43958</float_array>
          <technique_common>
            <accessor source="#EMROX-Argo_INESC_TEC_Plattform_Rad_V1_02_005-mesh-positions-array" count="290" stride="3">
              <param name="X" type="float"/>
              <param name="Y" type="float"/>
              <param name="Z" type="float"/>
            </accessor>
          </technique_common>
        </source>
        <source id="EMROX-Argo_INESC_TEC_Plattform_Rad_V1_02_005-mesh-normals">
          <float_array id="EMROX-Argo_INESC_TEC_Plattform_Rad_V1_02_005-mesh-normals-array" count="1026">0.1736465 0 0.9848081 0.1736491 0 0.9848076 -1.20939e-6 0 1 1.20939e-6 0 1 -0.1736491 0 0.9848076 -0.1736465 0 0.9848081 -0.3420209 0 0.9396923 -0.3420179 0 0.9396935 -0.5000017 0 0.8660244 -0.4999988 0 0.8660261 -0.6427888 0 0.7660435 -0.6427867 0 0.7660452 -0.7660453 0 0.6427867 -0.7660434 0 0.6427889 -0.8660262 0 0.4999987 -0.8660246 0 0.5000015 -0.9396931 0 0.342019 -0.939692 0 0.3420218 -0.9848081 0 0.1736466 -0.9848076 0 0.1736493 -1 0 -1.44746e-6 -1 0 1.40937e-6 -0.9848076 0 -0.1736493 -0.9848081 0 -0.1736466 -0.9396922 0 -0.3420216 -0.9396932 0 -0.3420189 -0.8660247 0 -0.5000015 -0.8660261 0 -0.499999 -0.7660433 0 -0.642789 -0.7660452 0 -0.6427868 -0.6427873 0 -0.7660447 -0.6427889 0 -0.7660434 -0.4999997 0 -0.8660256 -0.5000016 0 -0.8660245 -0.342018 0 -0.9396934 -0.3420217 0 -0.9396922 -0.1736446 0 -0.9848084 -0.1736502 0 -0.9848074 3.32345e-6 0 -1 -3.32345e-6 0 -1 0.1736502 0 -0.9848074 0.1736446 0 -0.9848084 0.3420216 0 -0.9396922 0.342018 0 -0.9396934 0.5000016 0 -0.8660245 0.4999998 0 -0.8660256 0.6427889 0 -0.7660434 0.6427873 0 -0.7660447 0.7660452 0 -0.6427868 0.7660433 0 -0.642789 0.8660261 0 -0.499999 0.8660247 0 -0.5000015 0.9396932 0 -0.3420189 0.9396922 0 -0.3420216 0.9848081 0 -0.1736466 0.9848076 0 -0.1736493 1 0 1.40937e-6 1 0 -1.44746e-6 0.9848076 0 0.1736493 0.9848081 0 0.1736466 0.939692 0 0.3420218 0.9396931 0 0.342019 0.8660246 0 0.5000015 0.8660262 0 0.4999987 0.7660434 0 0.6427889 0.7660453 0 0.6427867 0.6427867 0 0.7660452 0.6427888 0 0.7660435 0.4999988 0 0.8660261 0.5000017 0 0.8660244 0.3420178 0 0.9396935 0.3420211 0 0.9396923 0 -1 0 0 -1 -2.881e-7 0 -1 -5.74766e-7 0 -1 4.09055e-7 0 -1 4.07778e-7 0 -1 -5.76559e-7 0 -1 6.12943e-7 0 -1 -4.08033e-7 0 -1 0 0 -1 5.76559e-7 0 -1 -5.60694e-7 0 -1 5.62451e-7 0 -1 -5.74767e-7 0 -1 5.762e-7 0 -1 -7.13761e-7 0 -1 4.08288e-7 0 -1 -5.76648e-7 0 -1 2.03931e-7 0 -1 2.87383e-7 0 -1 -4.09056e-7 0 -1 -1.43803e-7 0 -1 1.79978e-7 0 -1 1.43982e-7 0 -1 -2.87607e-7 0 -1 -5.76648e-7 0 -1 5.762e-7 0 -1 -5.74767e-7 0 -1 -2.8828e-7 0 -1 -2.87383e-7 0 -1 -1.4405e-7 0.1228888 0 0.9924205 -5.27499e-7 0 1 5.27499e-7 0 1 -0.1228888 0 0.9924205 -0.1228879 0 0.9924206 -0.2439138 0 0.969797 -0.2439129 0 0.9697971 -0.3612423 0 0.9324721 -0.3612415 0 0.9324724 -0.4730942 0 0.8810119 -0.4730934 0 0.8810124 -0.5777742 0 0.8161967 -0.5777734 0 0.8161973 -0.6736964 0 0.7390083 -0.6736956 0 0.7390091 -0.7594051 0 0.6506182 -0.7594045 0 0.6506189 -0.8336026 0 0.5523648 -0.833602 0 0.5523656 -0.8951634 0 0.4457382 -0.895163 0 0.445739 -0.9431545 0 0.3323547 -0.9431542 0 0.3323556 -0.9768486 0 0.2139322 -0.9768483 0 0.2139333 -0.9957343 0 0.09226721 -0.9957342 0 0.09226822 -0.9995258 0 -0.03079575 -0.9995258 0 -0.03079473 -0.9881655 0 -0.1533918 -0.9881656 0 -0.1533908 -0.9618256 0 -0.2736636 -0.9618257 0 -0.2736628 -0.9209052 0 -0.3897866 -0.9209057 0 -0.3897857 -0.8660255 0 -0.5000001 -0.8660261 0 -0.4999988 -0.7980174 0 -0.6026344 -0.798018 0 -0.6026337 -0.7179113 0 -0.6961347 -0.7179122 0 -0.6961337 -0.6269232 0 -0.7790811 -0.626924 0 -0.7790805 -0.5264322 0 -0.8502171 -0.5264319 0 -0.8502174 -0.4179609 0 -0.9084651 -0.4179604 0 -0.9084652 -0.3031524 0 -0.9529421 -0.3031527 0 -0.952942 -0.1837491 0 -0.9829732 -0.1837502 0 -0.982973 -0.06156063 0 -0.9981034 -0.06156164 0 -0.9981034 0.0615617 0 -0.9981034 0.06156057 0 -0.9981034 0.1837502 0 -0.982973 0.1837491 0 -0.9829732 0.3031526 0 -0.952942 0.3031525 0 -0.9529421 0.4179604 0 -0.9084652 0.4179609 0 -0.9084651 0.5264319 0 -0.8502175 0.5264323 0 -0.8502171 0.626924 0 -0.7790804 0.6269233 0 -0.7790811 0.7179122 0 -0.6961337 0.7179112 0 -0.6961348 0.798018 0 -0.6026337 0.7980174 0 -0.6026344 0.8660262 0 -0.4999988 0.8660255 0 -0.5000001 0.9209057 0 -0.3897856 0.9209052 0 -0.3897867 0.9618257 0 -0.2736628 0.9618256 0 -0.2736636 0.9881656 0 -0.1533908 0.9881655 0 -0.1533918 0.9995258 0 -0.03079473 0.9995258 0 -0.03079575 0.9957342 0 0.09226822 0.9957343 0 0.09226721 0.9768483 0 0.2139333 0.9768486 0 0.2139322 0.9431542 0 0.3323557 0.9431546 0 0.3323547 0.8951629 0 0.4457391 0.8951635 0 0.4457382 0.833602 0 0.5523656 0.8336027 0 0.5523647 0.7594045 0 0.6506189 0.7594051 0 0.6506182 0.6736956 0 0.7390091 0.6736964 0 0.7390083 0.5777734 0 0.8161972 0.5777742 0 0.8161967 0.4730934 0 0.8810123 0.4730941 0 0.8810119 0.3612415 0 0.9324724 0.3612422 0 0.932472 0.2439129 0 0.9697971 0.2439138 0 0.969797 0.1228879 0 0.9924206 0 -1 2.29038e-7 0 -1 2.55076e-7 0 -1 -1.27583e-7 0 -1 -2.55388e-7 0 -1 2.55917e-7 0 -1 -2.56014e-7 0 -1 2.2884e-7 0 -1 -2.55448e-7 0 -1 2.29149e-7 0 -1 -2.55138e-7 0 -1 2.29278e-7 0 -1 2.5574e-7 0 -1 -2.28582e-7 0 -1 0 0 -1 0 0 -1 0 0 -1 -2.29259e-7 0 -1 0 0 -1 0 0 -1 0 0 -1 0 0.1081188 0 0.994138 0.1081194 0 0.9941379 -6.60279e-7 0 1 6.60279e-7 0 1 -0.1081194 0 0.9941379 -0.1081188 0 0.994138 -0.2149704 0 0.9766206 -0.2149693 0 0.9766209 -0.319302 0 0.9476531 -0.3193007 0 0.9476535 -0.4198895 0 0.9075753 -0.4198889 0 0.9075755 -0.5155546 0 0.8568568 -0.5155538 0 0.8568572 -0.6051749 0 0.7960926 -0.6051738 0 0.7960934 -0.6876999 0 0.7259952 -0.6876989 0 0.725996 -0.7621627 0 0.6473857 -0.7621618 0 0.6473867 -0.8276892 0 0.5611869 -0.8276885 0 0.5611879 -0.8835124 0 0.4684079 -0.8835117 0 0.468409 -0.9289771 0 0.3701375 -0.9289765 0 0.3701387 -0.9635502 0 0.2675279 -0.9635498 0 0.267529 -0.9868267 0 0.1617814 -0.9868264 0 0.1617827 -0.9985334 0 0.05413854 -0.9985334 0 0.05413985 -0.9985334 0 -0.05413985 -0.9985334 0 -0.05413848 -0.9868264 0 -0.1617828 -0.9868267 0 -0.1617814 -0.9635498 0 -0.2675291 -0.9635502 0 -0.2675276 -0.9289765 0 -0.3701389 -0.9289771 0 -0.3701375 -0.8835119 0 -0.4684088 -0.8835121 0 -0.4684083 -0.8276889 0 -0.5611873 -0.8276888 0 -0.5611875 -0.7621625 0 -0.647386 -0.7621622 0 -0.6473863 -0.6876994 0 -0.7259956 -0.6876997 0 -0.7259952 -0.6051746 0 -0.7960928 -0.6051747 0 -0.7960927 -0.5155559 0 -0.856856 -0.515556 0 -0.856856 -0.4198894 0 -0.9075754 -0.4198895 0 -0.9075753 -0.3192971 0 -0.9476547 -0.3192961 0 -0.947655 -0.2149721 0 -0.9766203 -0.2149734 0 -0.97662 -0.1081205 0 -0.9941378 -0.1081231 0 -0.9941376 6.55529e-7 0 -1 -6.55529e-7 0 -1 0.1081231 0 -0.9941376 0.1081205 0 -0.9941378 0.2149734 0 -0.97662 0.2149721 0 -0.9766203 0.3192961 0 -0.947655 0.3192971 0 -0.9476547 0.4198895 0 -0.9075753 0.4198894 0 -0.9075754 0.515556 0 -0.856856 0.5155559 0 -0.856856 0.6051747 0 -0.7960927 0.6051746 0 -0.7960928 0.6876997 0 -0.7259952 0.6876994 0 -0.7259956 0.7621622 0 -0.6473863 0.7621625 0 -0.647386 0.8276888 0 -0.5611875 0.8276889 0 -0.5611873 0.8835121 0 -0.4684083 0.8835119 0 -0.4684088 0.9289771 0 -0.3701375 0.9289765 0 -0.3701389 0.9635502 0 -0.2675276 0.9635498 0 -0.2675291 0.9868267 0 -0.1617814 0.9868264 0 -0.1617828 0.9985334 0 -0.05413848 0.9985334 0 -0.05413985 0.9985334 0 0.05413985 0.9985334 0 0.05413854 0.9868264 0 0.1617827 0.9868267 0 0.1617814 0.9635498 0 0.267529 0.9635502 0 0.2675279 0.9289765 0 0.3701387 0.9289771 0 0.3701375 0.8835117 0 0.468409 0.8835124 0 0.4684079 0.8276885 0 0.5611879 0.8276892 0 0.5611869 0.7621618 0 0.6473867 0.7621627 0 0.6473857 0.6876989 0 0.725996 0.6876999 0 0.7259952 0.6051738 0 0.7960934 0.6051749 0 0.7960926 0.5155538 0 0.8568572 0.5155546 0 0.8568568 0.4198889 0 0.9075755 0.4198895 0 0.9075753 0.3193007 0 0.9476535 0.319302 0 0.9476531 0.2149693 0 0.9766209 0.2149704 0 0.9766206 0 1 0</float_array>
          <technique_common>
            <accessor source="#EMROX-Argo_INESC_TEC_Plattform_Rad_V1_02_005-mesh-normals-array" count="342" stride="3">
              <param name="X" type="float"/>
              <param name="Y" type="float"/>
              <param name="Z" type="float"/>
            </accessor>
          </technique_common>
        </source>
        <source id="EMROX-Argo_INESC_TEC_Plattform_Rad_V1_02_005-mesh-map-0">
          <float_array id="EMROX-Argo_INESC_TEC_Plattform_Rad_V1_02_005-mesh-map-0-array" count="3456">1.1 0.506145 -1.1 0.506145 1.1 0 1.1 0 -1.1 0.506145 -1.1 0 1.1 0 -1.1 0 1.1 -0.506145 1.1 -0.506145 -1.1 0 -1.1 -0.506145 1.1 -0.506145 -1.1 -0.506145 1.1 -1.012291 1.1 -1.012291 -1.1 -0.506145 -1.1 -1.012291 1.1 -1.012291 -1.1 -1.012291 1.1 -1.518437 1.1 -1.518437 -1.1 -1.012291 -1.1 -1.518437 1.1 -1.518437 -1.1 -1.518437 1.1 -2.024582 1.1 -2.024582 -1.1 -1.518437 -1.1 -2.024582 1.1 -2.024582 -1.1 -2.024582 1.1 -2.530728 1.1 -2.530728 -1.1 -2.024582 -1.1 -2.530728 1.1 -2.530728 -1.1 -2.530728 1.1 -3.036873 1.1 -3.036873 -1.1 -2.530728 -1.1 -3.036873 1.1 -3.036873 -1.1 -3.036873 1.1 -3.543019 1.1 -3.543019 -1.1 -3.036873 -1.1 -3.543019 1.1 -3.543019 -1.1 -3.543019 1.1 -4.049164 1.1 -4.049164 -1.1 -3.543019 -1.1 -4.049164 1.1 -4.049164 -1.1 -4.049164 1.1 -4.55531 1.1 -4.55531 -1.1 -4.049164 -1.1 -4.55531 1.1 -4.55531 -1.1 -4.55531 1.1 -5.061455 1.1 -5.061455 -1.1 -4.55531 -1.1 -5.061455 1.1 -5.061455 -1.1 -5.061455 1.1 -5.5676 1.1 -5.5676 -1.1 -5.061455 -1.1 -5.5676 1.1 -5.5676 -1.1 -5.5676 1.1 -6.073746 1.1 -6.073746 -1.1 -5.5676 -1.1 -6.073746 1.1 -6.073746 -1.1 -6.073746 1.1 -6.579892 1.1 -6.579892 -1.1 -6.073746 -1.1 -6.579892 1.1 -6.579892 -1.1 -6.579892 1.1 -7.086037 1.1 -7.086037 -1.1 -6.579892 -1.1 -7.086037 1.1 -7.086037 -1.1 -7.086037 1.1 -7.592182 1.1 -7.592182 -1.1 -7.086037 -1.1 -7.592182 1.1 -7.592182 -1.1 -7.592182 1.1 -8.098328 1.1 -8.098328 -1.1 -7.592182 -1.1 -8.098328 1.1 -8.098328 -1.1 -8.098328 1.1 -8.604475 1.1 -8.604475 -1.1 -8.098328 -1.1 -8.604475 1.1 -8.604475 -1.1 -8.604475 1.1 -9.11062 1.1 -9.11062 -1.1 -8.604475 -1.1 -9.11062 1.1 9.11062 -1.1 9.11062 1.1 8.604475 1.1 8.604475 -1.1 9.11062 -1.1 8.604475 1.1 8.604475 -1.1 8.604475 1.1 8.098328 1.1 8.098328 -1.1 8.604475 -1.1 8.098328 1.1 8.098328 -1.1 8.098328 1.1 7.592182 1.1 7.592182 -1.1 8.098328 -1.1 7.592182 1.1 7.592182 -1.1 7.592182 1.1 7.086037 1.1 7.086037 -1.1 7.592182 -1.1 7.086037 1.1 7.086037 -1.1 7.086037 1.1 6.579892 1.1 6.579892 -1.1 7.086037 -1.1 6.579892 1.1 6.579892 -1.1 6.579892 1.1 6.073746 1.1 6.073746 -1.1 6.579892 -1.1 6.073746 1.1 6.073746 -1.1 6.073746 1.1 5.5676 1.1 5.5676 -1.1 6.073746 -1.1 5.5676 1.1 5.5676 -1.1 5.5676 1.1 5.061455 1.1 5.061455 -1.1 5.5676 -1.1 5.061455 1.1 5.061455 -1.1 5.061455 1.1 4.55531 1.1 4.55531 -1.1 5.061455 -1.1 4.55531 1.1 4.55531 -1.1 4.55531 1.1 4.049164 1.1 4.049164 -1.1 4.55531 -1.1 4.049164 1.1 4.049164 -1.1 4.049164 1.1 3.543019 1.1 3.543019 -1.1 4.049164 -1.1 3.543019 1.1 3.543019 -1.1 3.543019 1.1 3.036873 1.1 3.036873 -1.1 3.543019 -1.1 3.036873 1.1 3.036873 -1.1 3.036873 1.1 2.530728 1.1 2.530728 -1.1 3.036873 -1.1 2.530728 1.1 2.530728 -1.1 2.530728 1.1 2.024582 1.1 2.024582 -1.1 2.530728 -1.1 2.024582 1.1 2.024582 -1.1 2.024582 1.1 1.518437 1.1 1.518437 -1.1 2.024582 -1.1 1.518437 1.1 1.518437 -1.1 1.518437 1.1 1.012291 1.1 1.012291 -1.1 1.518437 -1.1 1.012291 1.1 1.012291 -1.1 1.012291 1.1 0.506145 1.1 0.506145 -1.1 1.012291 -1.1 0.506145 2.994057 0.50358 0.04433995 0.718897 2.95 0 2.95 0 0.04433995 0.718897 0 0 2.95 0 0 0 0.04433995 -0.718897 0.04433995 0.718897 2.994057 0.50358 0.176688 1.426895 0.176688 1.426895 2.994057 0.50358 3.124891 0.991858 0.176688 1.426895 3.124891 0.991858 0.395037 2.113264 0.395037 2.113264 3.124891 0.991858 0.696079 2.767597 0.696079 2.767597 3.124891 0.991858 3.338526 1.45 0.696079 2.767597 3.338526 1.45 1.075248 3.379977 1.075248 3.379977 3.338526 1.45 3.628471 1.864084 1.075248 3.379977 3.628471 1.864084 1.526798 3.941119 1.526798 3.941119 3.628471 1.864084 3.985916 2.221529 1.526798 3.941119 3.985916 2.221529 2.043883 4.442519 2.043883 4.442519 3.985916 2.221529 2.618665 4.876574 2.618665 4.876574 3.985916 2.221529 4.4 2.511474 2.618665 4.876574 4.4 2.511474 3.242431 5.236705 3.242431 5.236705 4.4 2.511474 4.858141 2.725109 3.242431 5.236705 4.858141 2.725109 3.905725 5.517454 3.905725 5.517454 4.858141 2.725109 4.598492 5.714563 4.598492 5.714563 4.858141 2.725109 5.34642 2.855942 4.598492 5.714563 5.34642 2.855942 5.31023 5.825045 5.31023 5.825045 5.34642 2.855942 5.85 2.9 5.31023 5.825045 5.85 2.9 6.030151 5.847226 6.030151 5.847226 5.85 2.9 6.35358 2.855942 6.030151 5.847226 6.35358 2.855942 6.747341 5.780768 6.747341 5.780768 6.35358 2.855942 7.450929 5.62668 7.450929 5.62668 6.35358 2.855942 6.841858 2.725109 7.450929 5.62668 6.841858 2.725109 8.130249 5.387297 8.130249 5.387297 6.841858 2.725109 7.3 2.511474 8.130249 5.387297 7.3 2.511474 8.775001 5.066248 8.775001 5.066248 7.3 2.511474 9.375413 4.668401 9.375413 4.668401 7.3 2.511474 7.714084 2.221529 9.375413 4.668401 7.714084 2.221529 9.922386 4.199785 9.922386 4.199785 7.714084 2.221529 8.07153 1.864084 9.922386 4.199785 8.07153 1.864084 10.40762 3.667504 10.40762 3.667504 8.07153 1.864084 10.82377 3.079628 10.82377 3.079628 8.07153 1.864084 8.361474 1.45 10.82377 3.079628 8.361474 1.45 11.16452 2.445068 11.16452 2.445068 8.361474 1.45 8.575109 0.991858 11.16452 2.445068 8.575109 0.991858 11.42471 1.773443 11.42471 1.773443 8.575109 0.991858 8.705945 0.50358 11.42471 1.773443 8.705945 0.50358 11.60039 1.074935 11.60039 1.074935 8.705945 0.50358 11.6889 0.360131 11.6889 0.360131 8.705945 0.50358 8.75 0 11.6889 0.360131 8.75 0 11.6889 -0.360131 11.6889 -0.360131 8.75 0 8.705945 -0.50358 11.6889 -0.360131 8.705945 -0.50358 11.60039 -1.074935 11.60039 -1.074935 8.705945 -0.50358 11.42471 -1.773443 11.42471 -1.773443 8.705945 -0.50358 8.575109 -0.991858 11.42471 -1.773443 8.575109 -0.991858 11.16452 -2.445068 11.16452 -2.445068 8.575109 -0.991858 8.361474 -1.45 11.16452 -2.445068 8.361474 -1.45 10.82377 -3.079628 10.82377 -3.079628 8.361474 -1.45 8.07153 -1.864084 10.82377 -3.079628 8.07153 -1.864084 10.40762 -3.667504 10.40762 -3.667504 8.07153 -1.864084 9.922386 -4.199785 9.922386 -4.199785 8.07153 -1.864084 7.714084 -2.221529 9.922386 -4.199785 7.714084 -2.221529 9.375413 -4.668401 9.375413 -4.668401 7.714084 -2.221529 7.3 -2.511474 9.375413 -4.668401 7.3 -2.511474 8.775001 -5.066248 8.775001 -5.066248 7.3 -2.511474 8.130249 -5.387297 8.130249 -5.387297 7.3 -2.511474 6.841858 -2.725109 8.130249 -5.387297 6.841858 -2.725109 7.450929 -5.62668 7.450929 -5.62668 6.841858 -2.725109 6.35358 -2.855942 7.450929 -5.62668 6.35358 -2.855942 6.747341 -5.780768 6.747341 -5.780768 6.35358 -2.855942 6.030151 -5.847226 6.030151 -5.847226 6.35358 -2.855942 5.85 -2.9 6.030151 -5.847226 5.85 -2.9 5.31023 -5.825045 5.31023 -5.825045 5.85 -2.9 5.34642 -2.855942 5.31023 -5.825045 5.34642 -2.855942 4.598492 -5.714563 4.598492 -5.714563 5.34642 -2.855942 4.858141 -2.725109 4.598492 -5.714563 4.858141 -2.725109 3.905725 -5.517454 3.905725 -5.517454 4.858141 -2.725109 3.242431 -5.236705 3.242431 -5.236705 4.858141 -2.725109 4.4 -2.511474 3.242431 -5.236705 4.4 -2.511474 2.618665 -4.876574 2.618665 -4.876574 4.4 -2.511474 3.985916 -2.221529 2.618665 -4.876574 3.985916 -2.221529 2.043883 -4.442519 2.043883 -4.442519 3.985916 -2.221529 1.526798 -3.941119 1.526798 -3.941119 3.985916 -2.221529 3.628471 -1.864084 1.526798 -3.941119 3.628471 -1.864084 1.075248 -3.379977 1.075248 -3.379977 3.628471 -1.864084 3.338526 -1.45 1.075248 -3.379977 3.338526 -1.45 0.696079 -2.767597 0.696079 -2.767597 3.338526 -1.45 3.124891 -0.991858 0.696079 -2.767597 3.124891 -0.991858 0.395037 -2.113264 0.395037 -2.113264 3.124891 -0.991858 0.176688 -1.426895 0.176688 -1.426895 3.124891 -0.991858 2.994057 -0.50358 0.176688 -1.426895 2.994057 -0.50358 0.04433995 -0.718897 0.04433995 -0.718897 2.994057 -0.50358 2.95 0 0.65 0.720718 -0.65 0 0.65 0 0.65 0 -0.65 0 -0.65 -0.720718 0.65 0 -0.65 -0.720718 0.65 -0.720718 0.65 -0.720718 -0.65 -0.720718 -0.65 -1.441437 0.65 -0.720718 -0.65 -1.441437 0.65 -1.441437 0.65 -1.441437 -0.65 -1.441437 -0.65 -2.162155 0.65 -1.441437 -0.65 -2.162155 0.65 -2.162155 0.65 -2.162155 -0.65 -2.162155 -0.65 -2.882873 0.65 -2.162155 -0.65 -2.882873 0.65 -2.882873 0.65 -2.882873 -0.65 -2.882873 -0.65 -3.603591 0.65 -2.882873 -0.65 -3.603591 0.65 -3.603591 0.65 -3.603591 -0.65 -3.603591 -0.65 -4.32431 0.65 -3.603591 -0.65 -4.32431 0.65 -4.32431 0.65 -4.32431 -0.65 -4.32431 -0.65 -5.045028 0.65 -4.32431 -0.65 -5.045028 0.65 -5.045028 0.65 -5.045028 -0.65 -5.045028 -0.65 -5.765746 0.65 -5.045028 -0.65 -5.765746 0.65 -5.765746 0.65 -5.765746 -0.65 -5.765746 -0.65 -6.486465 0.65 -5.765746 -0.65 -6.486465 0.65 -6.486465 0.65 -6.486465 -0.65 -6.486465 -0.65 -7.207183 0.65 -6.486465 -0.65 -7.207183 0.65 -7.207183 0.65 -7.207183 -0.65 -7.207183 -0.65 -7.927901 0.65 -7.207183 -0.65 -7.927901 0.65 -7.927901 0.65 -7.927901 -0.65 -7.927901 -0.65 -8.64862 0.65 -7.927901 -0.65 -8.64862 0.65 -8.64862 0.65 -8.64862 -0.65 -8.64862 -0.65 -9.369338 0.65 -8.64862 -0.65 -9.369338 0.65 -9.369338 0.65 -9.369338 -0.65 -9.369338 -0.65 -10.09006 0.65 -9.369338 -0.65 -10.09006 0.65 -10.09006 0.65 -10.09006 -0.65 -10.09006 -0.65 -10.81077 0.65 -10.09006 -0.65 -10.81077 0.65 -10.81077 0.65 -10.81077 -0.65 -10.81077 -0.65 -11.53149 0.65 -10.81077 -0.65 -11.53149 0.65 -11.53149 0.65 -11.53149 -0.65 -11.53149 -0.65 -12.25221 0.65 -11.53149 -0.65 -12.25221 0.65 -12.25221 0.65 -12.25221 -0.65 -12.25221 -0.65 -12.97293 0.65 -12.25221 -0.65 -12.97293 0.65 -12.97293 0.65 -12.97293 -0.65 -12.97293 -0.65 -13.69365 0.65 -12.97293 -0.65 -13.69365 0.65 -13.69365 0.65 -13.69365 -0.65 -13.69365 -0.65 -14.41437 0.65 -13.69365 -0.65 -14.41437 0.65 -14.41437 0.65 -14.41437 -0.65 -14.41437 -0.65 -15.13508 0.65 -14.41437 -0.65 -15.13508 0.65 -15.13508 0.65 -15.13508 -0.65 -15.13508 -0.65 -15.8558 0.65 -15.13508 -0.65 -15.8558 0.65 -15.8558 0.65 -15.8558 -0.65 -15.8558 -0.65 -16.57652 0.65 -15.8558 -0.65 -16.57652 0.65 -16.57652 0.65 -16.57652 -0.65 -16.57652 -0.65 -17.29724 0.65 -16.57652 -0.65 -17.29724 0.65 -17.29724 0.65 -17.29724 -0.65 -17.29724 -0.65 -18.01796 0.65 -17.29724 -0.65 -18.01796 0.65 -18.01796 0.65 18.73868 -0.65 18.73868 -0.65 18.01796 0.65 18.73868 -0.65 18.01796 0.65 18.01796 0.65 18.01796 -0.65 18.01796 -0.65 17.29724 0.65 18.01796 -0.65 17.29724 0.65 17.29724 0.65 17.29724 -0.65 17.29724 -0.65 16.57652 0.65 17.29724 -0.65 16.57652 0.65 16.57652 0.65 16.57652 -0.65 16.57652 -0.65 15.8558 0.65 16.57652 -0.65 15.8558 0.65 15.8558 0.65 15.8558 -0.65 15.8558 -0.65 15.13508 0.65 15.8558 -0.65 15.13508 0.65 15.13508 0.65 15.13508 -0.65 15.13508 -0.65 14.41437 0.65 15.13508 -0.65 14.41437 0.65 14.41437 0.65 14.41437 -0.65 14.41437 -0.65 13.69365 0.65 14.41437 -0.65 13.69365 0.65 13.69365 0.65 13.69365 -0.65 13.69365 -0.65 12.97293 0.65 13.69365 -0.65 12.97293 0.65 12.97293 0.65 12.97293 -0.65 12.97293 -0.65 12.25221 0.65 12.97293 -0.65 12.25221 0.65 12.25221 0.65 12.25221 -0.65 12.25221 -0.65 11.53149 0.65 12.25221 -0.65 11.53149 0.65 11.53149 0.65 11.53149 -0.65 11.53149 -0.65 10.81077 0.65 11.53149 -0.65 10.81077 0.65 10.81077 0.65 10.81077 -0.65 10.81077 -0.65 10.09006 0.65 10.81077 -0.65 10.09006 0.65 10.09006 0.65 10.09006 -0.65 10.09006 -0.65 9.369338 0.65 10.09006 -0.65 9.369338 0.65 9.369338 0.65 9.369338 -0.65 9.369338 -0.65 8.64862 0.65 9.369338 -0.65 8.64862 0.65 8.64862 0.65 8.64862 -0.65 8.64862 -0.65 7.927901 0.65 8.64862 -0.65 7.927901 0.65 7.927901 0.65 7.927901 -0.65 7.927901 -0.65 7.207183 0.65 7.927901 -0.65 7.207183 0.65 7.207183 0.65 7.207183 -0.65 7.207183 -0.65 6.486465 0.65 7.207183 -0.65 6.486465 0.65 6.486465 0.65 6.486465 -0.65 6.486465 -0.65 5.765746 0.65 6.486465 -0.65 5.765746 0.65 5.765746 0.65 5.765746 -0.65 5.765746 -0.65 5.045028 0.65 5.765746 -0.65 5.045028 0.65 5.045028 0.65 5.045028 -0.65 5.045028 -0.65 4.32431 0.65 5.045028 -0.65 4.32431 0.65 4.32431 0.65 4.32431 -0.65 4.32431 -0.65 3.603591 0.65 4.32431 -0.65 3.603591 0.65 3.603591 0.65 3.603591 -0.65 3.603591 -0.65 2.882873 0.65 3.603591 -0.65 2.882873 0.65 2.882873 0.65 2.882873 -0.65 2.882873 -0.65 2.162155 0.65 2.882873 -0.65 2.162155 0.65 2.162155 0.65 2.162155 -0.65 2.162155 -0.65 1.441437 0.65 2.162155 -0.65 1.441437 0.65 1.441437 0.65 1.441437 -0.65 1.441437 -0.65 0.720718 0.65 1.441437 -0.65 0.720718 0.65 0.720718 0.65 0.720718 -0.65 0.720718 -0.65 0 0.04405796 -0.50358 5.755942 -0.50358 0 0 0 0 5.755942 -0.50358 5.8 0 0 0 5.8 0 0.04405796 0.50358 0.04405796 0.50358 5.8 0 5.755942 0.50358 0.04405796 0.50358 5.755942 0.50358 0.1748909 0.991858 0.1748909 0.991858 5.755942 0.50358 5.625109 0.991858 0.1748909 0.991858 5.625109 0.991858 0.388526 1.45 0.388526 1.45 5.625109 0.991858 5.411474 1.45 0.388526 1.45 5.411474 1.45 0.678471 1.864084 0.678471 1.864084 5.411474 1.45 5.121529 1.864084 0.678471 1.864084 5.121529 1.864084 1.035916 2.221529 1.035916 2.221529 5.121529 1.864084 4.764084 2.221529 1.035916 2.221529 4.764084 2.221529 1.45 2.511474 1.45 2.511474 4.764084 2.221529 4.35 2.511474 1.45 2.511474 4.35 2.511474 1.908142 2.725109 1.908142 2.725109 4.35 2.511474 3.891858 2.725109 1.908142 2.725109 3.891858 2.725109 2.39642 2.855942 2.39642 2.855942 3.891858 2.725109 3.40358 2.855942 2.39642 2.855942 3.40358 2.855942 2.9 2.9 5.755942 -0.50358 0.04405796 -0.50358 5.625109 -0.991858 5.625109 -0.991858 0.04405796 -0.50358 0.1748909 -0.991858 5.625109 -0.991858 0.1748909 -0.991858 5.411474 -1.45 5.411474 -1.45 0.1748909 -0.991858 0.388526 -1.45 5.411474 -1.45 0.388526 -1.45 5.121529 -1.864084 5.121529 -1.864084 0.388526 -1.45 0.678471 -1.864084 5.121529 -1.864084 0.678471 -1.864084 4.764084 -2.221529 4.764084 -2.221529 0.678471 -1.864084 1.035916 -2.221529 4.764084 -2.221529 1.035916 -2.221529 4.35 -2.511474 4.35 -2.511474 1.035916 -2.221529 1.45 -2.511474 4.35 -2.511474 1.45 -2.511474 3.891858 -2.725109 3.891858 -2.725109 1.45 -2.511474 1.908142 -2.725109 3.891858 -2.725109 1.908142 -2.725109 3.40358 -2.855942 3.40358 -2.855942 1.908142 -2.725109 2.39642 -2.855942 3.40358 -2.855942 2.39642 -2.855942 2.9 -2.9 1.69434 0.718897 0.04396498 0.810893 1.65 0 1.65 0 0.04396498 0.810893 0 0 1.65 0 0 0 0.04396498 -0.810893 0.04396498 0.810893 1.69434 0.718897 0.175346 1.612278 0.175346 1.612278 1.69434 0.718897 1.826688 1.426895 0.175346 1.612278 1.826688 1.426895 0.392601 2.394762 0.392601 2.394762 1.826688 1.426895 2.045038 2.113264 0.392601 2.394762 2.045038 2.113264 0.693184 3.149168 0.693184 3.149168 2.045038 2.113264 2.346079 2.767597 0.693184 3.149168 2.346079 2.767597 1.073571 3.866654 1.073571 3.866654 2.346079 2.767597 2.725248 3.379977 1.073571 3.866654 2.725248 3.379977 1.529302 4.538806 1.529302 4.538806 2.725248 3.379977 3.176798 3.941119 1.529302 4.538806 3.176798 3.941119 2.055034 5.157746 2.055034 5.157746 3.176798 3.941119 3.693883 4.442519 2.055034 5.157746 3.693883 4.442519 2.644603 5.716216 2.644603 5.716216 3.693883 4.442519 3.291097 6.207667 3.291097 6.207667 3.693883 4.442519 4.268665 4.876574 3.291097 6.207667 4.268665 4.876574 3.986937 6.62634 3.986937 6.62634 4.268665 4.876574 4.892431 5.236705 3.986937 6.62634 4.892431 5.236705 4.723964 6.967325 4.723964 6.967325 4.892431 5.236705 5.555725 5.517454 4.723964 6.967325 5.555725 5.517454 5.493537 7.226625 5.493537 7.226625 5.555725 5.517454 6.248491 5.714563 5.493537 7.226625 6.248491 5.714563 6.286635 7.401199 6.286635 7.401199 6.248491 5.714563 6.96023 5.825045 6.286635 7.401199 6.96023 5.825045 7.093958 7.489001 7.093958 7.489001 6.96023 5.825045 7.680151 5.847226 7.093958 7.489001 7.680151 5.847226 7.906042 7.489001 7.906042 7.489001 7.680151 5.847226 8.397341 5.780768 7.906042 7.489001 8.397341 5.780768 8.713365 7.401199 8.713365 7.401199 8.397341 5.780768 9.100931 5.62668 8.713365 7.401199 9.100931 5.62668 9.506464 7.226625 9.506464 7.226625 9.100931 5.62668 10.27604 6.967325 10.27604 6.967325 9.100931 5.62668 9.780248 5.387297 10.27604 6.967325 9.780248 5.387297 11.01306 6.62634 11.01306 6.62634 9.780248 5.387297 10.425 5.066248 11.01306 6.62634 10.425 5.066248 11.7089 6.207667 11.7089 6.207667 10.425 5.066248 11.02541 4.668401 11.7089 6.207667 11.02541 4.668401 12.3554 5.716216 12.3554 5.716216 11.02541 4.668401 11.57238 4.199785 12.3554 5.716216 11.57238 4.199785 12.94497 5.157746 12.94497 5.157746 11.57238 4.199785 12.05762 3.667504 12.94497 5.157746 12.05762 3.667504 13.4707 4.538806 13.4707 4.538806 12.05762 3.667504 12.47377 3.079628 13.4707 4.538806 12.47377 3.079628 13.92643 3.866654 13.92643 3.866654 12.47377 3.079628 12.81452 2.445068 13.92643 3.866654 12.81452 2.445068 14.30682 3.149168 14.30682 3.149168 12.81452 2.445068 14.6074 2.394762 14.6074 2.394762 12.81452 2.445068 13.07471 1.773443 14.6074 2.394762 13.07471 1.773443 14.82465 1.612278 14.82465 1.612278 13.07471 1.773443 13.25039 1.074935 14.82465 1.612278 13.25039 1.074935 14.95603 0.810893 14.95603 0.810893 13.25039 1.074935 13.3389 0.360131 14.95603 0.810893 13.3389 0.360131 15 0 15 0 13.3389 0.360131 13.3389 -0.360131 15 0 13.3389 -0.360131 14.95603 -0.810893 14.95603 -0.810893 13.3389 -0.360131 13.25039 -1.074935 14.95603 -0.810893 13.25039 -1.074935 14.82465 -1.612278 14.82465 -1.612278 13.25039 -1.074935 13.07471 -1.773443 14.82465 -1.612278 13.07471 -1.773443 14.6074 -2.394762 14.6074 -2.394762 13.07471 -1.773443 12.81452 -2.445068 14.6074 -2.394762 12.81452 -2.445068 14.30682 -3.149168 14.30682 -3.149168 12.81452 -2.445068 13.92643 -3.866654 13.92643 -3.866654 12.81452 -2.445068 12.47377 -3.079628 13.92643 -3.866654 12.47377 -3.079628 13.4707 -4.538806 13.4707 -4.538806 12.47377 -3.079628 12.05762 -3.667504 13.4707 -4.538806 12.05762 -3.667504 12.94497 -5.157746 12.94497 -5.157746 12.05762 -3.667504 11.57238 -4.199785 12.94497 -5.157746 11.57238 -4.199785 12.3554 -5.716216 12.3554 -5.716216 11.57238 -4.199785 11.02541 -4.668401 12.3554 -5.716216 11.02541 -4.668401 11.7089 -6.207667 11.7089 -6.207667 11.02541 -4.668401 10.425 -5.066248 11.7089 -6.207667 10.425 -5.066248 11.01306 -6.62634 11.01306 -6.62634 10.425 -5.066248 9.780248 -5.387297 11.01306 -6.62634 9.780248 -5.387297 10.27604 -6.967325 10.27604 -6.967325 9.780248 -5.387297 9.100931 -5.62668 10.27604 -6.967325 9.100931 -5.62668 9.506464 -7.226625 9.506464 -7.226625 9.100931 -5.62668 8.713365 -7.401199 8.713365 -7.401199 9.100931 -5.62668 8.397341 -5.780768 8.713365 -7.401199 8.397341 -5.780768 7.906042 -7.489001 7.906042 -7.489001 8.397341 -5.780768 7.680151 -5.847226 7.906042 -7.489001 7.680151 -5.847226 7.093958 -7.489001 7.093958 -7.489001 7.680151 -5.847226 6.96023 -5.825045 7.093958 -7.489001 6.96023 -5.825045 6.286635 -7.401199 6.286635 -7.401199 6.96023 -5.825045 6.248491 -5.714563 6.286635 -7.401199 6.248491 -5.714563 5.493537 -7.226625 5.493537 -7.226625 6.248491 -5.714563 5.555725 -5.517454 5.493537 -7.226625 5.555725 -5.517454 4.723964 -6.967325 4.723964 -6.967325 5.555725 -5.517454 4.892431 -5.236705 4.723964 -6.967325 4.892431 -5.236705 3.986937 -6.62634 3.986937 -6.62634 4.892431 -5.236705 4.268665 -4.876574 3.986937 -6.62634 4.268665 -4.876574 3.291097 -6.207667 3.291097 -6.207667 4.268665 -4.876574 3.693883 -4.442519 3.291097 -6.207667 3.693883 -4.442519 2.644603 -5.716216 2.644603 -5.716216 3.693883 -4.442519 2.055034 -5.157746 2.055034 -5.157746 3.693883 -4.442519 3.176798 -3.941119 2.055034 -5.157746 3.176798 -3.941119 1.529302 -4.538806 1.529302 -4.538806 3.176798 -3.941119 2.725248 -3.379977 1.529302 -4.538806 2.725248 -3.379977 1.073571 -3.866654 1.073571 -3.866654 2.725248 -3.379977 2.346079 -2.767597 1.073571 -3.866654 2.346079 -2.767597 0.693184 -3.149168 0.693184 -3.149168 2.346079 -2.767597 2.045038 -2.113264 0.693184 -3.149168 2.045038 -2.113264 0.392601 -2.394762 0.392601 -2.394762 2.045038 -2.113264 1.826688 -1.426895 0.392601 -2.394762 1.826688 -1.426895 0.175346 -1.612278 0.175346 -1.612278 1.826688 -1.426895 1.69434 -0.718897 0.175346 -1.612278 1.69434 -0.718897 0.04396498 -0.810893 0.04396498 -0.810893 1.69434 -0.718897 1.65 0 2 0.812481 -2 0.812481 2 0 2 0 -2 0.812481 -2 0 2 0 -2 0 2 -0.812481 2 -0.812481 -2 0 -2 -0.812481 2 -0.812481 -2 -0.812481 2 -1.624962 2 -1.624962 -2 -0.812481 -2 -1.624962 2 -1.624962 -2 -1.624962 2 -2.437443 2 -2.437443 -2 -1.624962 -2 -2.437443 2 -2.437443 -2 -2.437443 2 -3.249923 2 -3.249923 -2 -2.437443 -2 -3.249923 2 -3.249923 -2 -3.249923 2 -4.062405 2 -4.062405 -2 -3.249923 -2 -4.062405 2 -4.062405 -2 -4.062405 2 -4.874885 2 -4.874885 -2 -4.062405 -2 -4.874885 2 -4.874885 -2 -4.874885 2 -5.687366 2 -5.687366 -2 -4.874885 -2 -5.687366 2 -5.687366 -2 -5.687366 2 -6.499847 2 -6.499847 -2 -5.687366 -2 -6.499847 2 -6.499847 -2 -6.499847 2 -7.312327 2 -7.312327 -2 -6.499847 -2 -7.312327 2 -7.312327 -2 -7.312327 2 -8.124812 2 -8.124812 -2 -7.312327 -2 -8.124812 2 -8.124812 -2 -8.124812 2 -8.937292 2 -8.937292 -2 -8.124812 -2 -8.937292 2 -8.937292 -2 -8.937292 2 -9.749773 2 -9.749773 -2 -8.937292 -2 -9.749773 2 -9.749773 -2 -9.749773 2 -10.56225 2 -10.56225 -2 -9.749773 -2 -10.56225 2 -10.56225 -2 -10.56225 2 -11.37473 2 -11.37473 -2 -10.56225 -2 -11.37473 2 -11.37473 -2 -11.37473 2 -12.18721 2 -12.18721 -2 -11.37473 -2 -12.18721 2 -12.18721 -2 -12.18721 2 -12.99969 2 -12.99969 -2 -12.18721 -2 -12.99969 2 -12.99969 -2 -12.99969 2 -13.81217 2 -13.81217 -2 -12.99969 -2 -13.81217 2 -13.81217 -2 -13.81217 2 -14.62465 2 -14.62465 -2 -13.81217 -2 -14.62465 2 -14.62465 -2 -14.62465 2 -15.43714 2 -15.43714 -2 -14.62465 -2 -15.43714 2 -15.43714 -2 -15.43714 2 -16.24962 2 -16.24962 -2 -15.43714 -2 -16.24962 2 -16.24962 -2 -16.24962 2 -17.0621 2 -17.0621 -2 -16.24962 -2 -17.0621 2 -17.0621 -2 -17.0621 2 -17.87458 2 -17.87458 -2 -17.0621 -2 -17.87458 2 -17.87458 -2 -17.87458 2 -18.68706 2 -18.68706 -2 -17.87458 -2 -18.68706 2 -18.68706 -2 -18.68706 2 -19.49954 2 -19.49954 -2 -18.68706 -2 -19.49954 2 -19.49954 -2 -19.49954 2 -20.31202 2 -20.31202 -2 -19.49954 -2 -20.31202 2 -20.31202 -2 -20.31202 2 -21.1245 2 -21.1245 -2 -20.31202 -2 -21.1245 2 -21.1245 -2 -21.1245 2 -21.93698 2 -21.93698 -2 -21.1245 -2 -21.93698 2 -21.93698 -2 -21.93698 2 -22.74946 2 -22.74946 -2 -21.93698 -2 -22.74946 2 -22.74946 -2 -22.74946 2 -23.56195 2 -23.56195 -2 -22.74946 -2 -23.56195 2 23.56195 -2 23.56195 2 22.74946 2 22.74946 -2 23.56195 -2 22.74946 2 22.74946 -2 22.74946 2 21.93698 2 21.93698 -2 22.74946 -2 21.93698 2 21.93698 -2 21.93698 2 21.1245 2 21.1245 -2 21.93698 -2 21.1245 2 21.1245 -2 21.1245 2 20.31202 2 20.31202 -2 21.1245 -2 20.31202 2 20.31202 -2 20.31202 2 19.49954 2 19.49954 -2 20.31202 -2 19.49954 2 19.49954 -2 19.49954 2 18.68706 2 18.68706 -2 19.49954 -2 18.68706 2 18.68706 -2 18.68706 2 17.87458 2 17.87458 -2 18.68706 -2 17.87458 2 17.87458 -2 17.87458 2 17.0621 2 17.0621 -2 17.87458 -2 17.0621 2 17.0621 -2 17.0621 2 16.24962 2 16.24962 -2 17.0621 -2 16.24962 2 16.24962 -2 16.24962 2 15.43714 2 15.43714 -2 16.24962 -2 15.43714 2 15.43714 -2 15.43714 2 14.62465 2 14.62465 -2 15.43714 -2 14.62465 2 14.62465 -2 14.62465 2 13.81217 2 13.81217 -2 14.62465 -2 13.81217 2 13.81217 -2 13.81217 2 12.99969 2 12.99969 -2 13.81217 -2 12.99969 2 12.99969 -2 12.99969 2 12.18721 2 12.18721 -2 12.99969 -2 12.18721 2 12.18721 -2 12.18721 2 11.37473 2 11.37473 -2 12.18721 -2 11.37473 2 11.37473 -2 11.37473 2 10.56225 2 10.56225 -2 11.37473 -2 10.56225 2 10.56225 -2 10.56225 2 9.749773 2 9.749773 -2 10.56225 -2 9.749773 2 9.749773 -2 9.749773 2 8.937292 2 8.937292 -2 9.749773 -2 8.937292 2 8.937292 -2 8.937292 2 8.124812 2 8.124812 -2 8.937292 -2 8.124812 2 8.124812 -2 8.124812 2 7.312327 2 7.312327 -2 8.124812 -2 7.312327 2 7.312327 -2 7.312327 2 6.499847 2 6.499847 -2 7.312327 -2 6.499847 2 6.499847 -2 6.499847 2 5.687366 2 5.687366 -2 6.499847 -2 5.687366 2 5.687366 -2 5.687366 2 4.874885 2 4.874885 -2 5.687366 -2 4.874885 2 4.874885 -2 4.874885 2 4.062405 2 4.062405 -2 4.874885 -2 4.062405 2 4.062405 -2 4.062405 2 3.249923 2 3.249923 -2 4.062405 -2 3.249923 2 3.249923 -2 3.249923 2 2.437443 2 2.437443 -2 3.249923 -2 2.437443 2 2.437443 -2 2.437443 2 1.624962 2 1.624962 -2 2.437443 -2 1.624962 2 1.624962 -2 1.624962 2 0.812481 2 0.812481 -2 1.624962 -2 0.812481 7.456035 0.810893 -7.456035 0.810893 7.5 0 7.5 0 -7.456035 0.810893 -7.5 0 7.5 0 -7.5 0 7.456035 -0.810893 7.456035 -0.810893 -7.5 0 -7.456035 -0.810893 7.456035 -0.810893 -7.456035 -0.810893 7.324654 -1.612278 7.324654 -1.612278 -7.456035 -0.810893 -7.324654 -1.612278 7.324654 -1.612278 -7.324654 -1.612278 7.107399 -2.394762 7.107399 -2.394762 -7.324654 -1.612278 -7.107399 -2.394762 7.107399 -2.394762 -7.107399 -2.394762 6.806816 -3.149168 6.806816 -3.149168 -7.107399 -2.394762 -6.806816 -3.149168 6.806816 -3.149168 -6.806816 -3.149168 6.426429 -3.866654 6.426429 -3.866654 -6.806816 -3.149168 -6.426429 -3.866654 6.426429 -3.866654 -6.426429 -3.866654 5.970698 -4.538806 5.970698 -4.538806 -6.426429 -3.866654 -5.970698 -4.538806 5.970698 -4.538806 -5.970698 -4.538806 5.444966 -5.157746 5.444966 -5.157746 -5.970698 -4.538806 -5.444966 -5.157746 5.444966 -5.157746 -5.444966 -5.157746 4.855397 -5.716216 4.855397 -5.716216 -5.444966 -5.157746 -4.855397 -5.716216 4.855397 -5.716216 -4.855397 -5.716216 4.208903 -6.207667 4.208903 -6.207667 -4.855397 -5.716216 -4.208903 -6.207667 4.208903 -6.207667 -4.208903 -6.207667 3.513063 -6.62634 3.513063 -6.62634 -4.208903 -6.207667 -3.513063 -6.62634 3.513063 -6.62634 -3.513063 -6.62634 2.776036 -6.967325 2.776036 -6.967325 -3.513063 -6.62634 -2.776036 -6.967325 2.776036 -6.967325 -2.776036 -6.967325 2.006463 -7.226625 2.006463 -7.226625 -2.776036 -6.967325 -2.006463 -7.226625 2.006463 -7.226625 -2.006463 -7.226625 1.213365 -7.401199 1.213365 -7.401199 -2.006463 -7.226625 -1.213365 -7.401199 1.213365 -7.401199 -1.213365 -7.401199 0.406042 -7.489001 0.406042 -7.489001 -1.213365 -7.401199 -0.406042 -7.489001 -7.456035 0.810893 7.456035 0.810893 -7.324654 1.612278 -7.324654 1.612278 7.456035 0.810893 7.324654 1.612278 -7.324654 1.612278 7.324654 1.612278 -7.107399 2.394762 -7.107399 2.394762 7.324654 1.612278 7.107399 2.394762 -7.107399 2.394762 7.107399 2.394762 -6.806816 3.149168 -6.806816 3.149168 7.107399 2.394762 6.806816 3.149168 -6.806816 3.149168 6.806816 3.149168 -6.426429 3.866654 -6.426429 3.866654 6.806816 3.149168 6.426429 3.866654 -6.426429 3.866654 6.426429 3.866654 -5.970698 4.538806 -5.970698 4.538806 6.426429 3.866654 5.970698 4.538806 -5.970698 4.538806 5.970698 4.538806 -5.444966 5.157746 -5.444966 5.157746 5.970698 4.538806 5.444966 5.157746 -5.444966 5.157746 5.444966 5.157746 -4.855397 5.716216 -4.855397 5.716216 5.444966 5.157746 4.855397 5.716216 -4.855397 5.716216 4.855397 5.716216 -4.208903 6.207667 -4.208903 6.207667 4.855397 5.716216 4.208903 6.207667 -4.208903 6.207667 4.208903 6.207667 -3.513063 6.62634 -3.513063 6.62634 4.208903 6.207667 3.513063 6.62634 -3.513063 6.62634 3.513063 6.62634 -2.776036 6.967325 -2.776036 6.967325 3.513063 6.62634 2.776036 6.967325 -2.776036 6.967325 2.776036 6.967325 -2.006463 7.226625 -2.006463 7.226625 2.776036 6.967325 2.006463 7.226625 -2.006463 7.226625 2.006463 7.226625 -1.213365 7.401199 -1.213365 7.401199 2.006463 7.226625 1.213365 7.401199 -1.213365 7.401199 1.213365 7.401199 -0.406042 7.489001 -0.406042 7.489001 1.213365 7.401199 0.406042 7.489001</float_array>
          <technique_common>
            <accessor source="#EMROX-Argo_INESC_TEC_Plattform_Rad_V1_02_005-mesh-map-0-array" count="1728" stride="2">
              <param name="S" type="float"/>
              <param name="T" type="float"/>
            </accessor>
          </technique_common>
        </source>
        <vertices id="EMROX-Argo_INESC_TEC_Plattform_Rad_V1_02_005-mesh-vertices">
          <input semantic="POSITION" source="#EMROX-Argo_INESC_TEC_Plattform_Rad_V1_02_005-mesh-positions"/>
        </vertices>
        <triangles material="_54_254_255_006-material" count="295">
          <input semantic="VERTEX" source="#EMROX-Argo_INESC_TEC_Plattform_Rad_V1_02_005-mesh-vertices" offset="0"/>
          <input semantic="NORMAL" source="#EMROX-Argo_INESC_TEC_Plattform_Rad_V1_02_005-mesh-normals" offset="1"/>
          <input semantic="TEXCOORD" source="#EMROX-Argo_INESC_TEC_Plattform_Rad_V1_02_005-mesh-map-0" offset="2" set="0"/>
          <p>153 0 0 155 1 1 141 2 2 141 2 3 155 1 4 143 3 5 141 2 6 143 3 7 135 4 8 135 4 9 143 3 10 137 5 11 135 4 12 137 5 13 125 6 14 125 6 15 137 5 16 127 7 17 125 6 18 127 7 19 117 8 20 117 8 21 127 7 22 119 9 23 117 8 24 119 9 25 107 10 26 107 10 27 119 9 28 109 11 29 107 10 30 109 11 31 101 12 32 101 12 33 109 11 34 103 13 35 101 12 36 103 13 37 91 14 38 91 14 39 103 13 40 93 15 41 91 14 42 93 15 43 87 16 44 87 16 45 93 15 46 89 17 47 87 16 48 89 17 49 81 18 50 81 18 51 89 17 52 83 19 53 81 18 54 83 19 55 78 20 56 78 20 57 83 19 58 79 21 59 78 20 60 79 21 61 80 22 62 80 22 63 79 21 64 82 23 65 80 22 66 82 23 67 86 24 68 86 24 69 82 23 70 88 25 71 86 24 72 88 25 73 90 26 74 90 26 75 88 25 76 92 27 77 90 26 78 92 27 79 100 28 80 100 28 81 92 27 82 102 29 83 100 28 84 102 29 85 106 30 86 106 30 87 102 29 88 108 31 89 106 30 90 108 31 91 116 32 92 116 32 93 108 31 94 118 33 95 116 32 96 118 33 97 124 34 98 124 34 99 118 33 100 126 35 101 124 34 102 126 35 103 134 36 104 134 36 105 126 35 106 136 37 107 134 36 108 136 37 109 140 38 110 140 38 111 136 37 112 142 39 113 140 38 114 142 39 115 152 40 116 152 40 117 142 39 118 154 41 119 152 40 120 154 41 121 162 42 122 162 42 123 154 41 124 164 43 125 162 42 126 164 43 127 170 44 128 170 44 129 164 43 130 172 45 131 170 44 132 172 45 133 180 46 134 180 46 135 172 45 136 182 47 137 180 46 138 182 47 139 186 48 140 186 48 141 182 47 142 188 49 143 186 48 144 188 49 145 196 50 146 196 50 147 188 49 148 198 51 149 196 50 150 198 51 151 200 52 152 200 52 153 198 51 154 202 53 155 200 52 156 202 53 157 206 54 158 206 54 159 202 53 160 208 55 161 206 54 162 208 55 163 210 56 164 210 56 165 208 55 166 211 57 167 210 56 168 211 57 169 207 58 170 207 58 171 211 57 172 209 59 173 207 58 174 209 59 175 201 60 176 201 60 177 209 59 178 203 61 179 201 60 180 203 61 181 197 62 182 197 62 183 203 61 184 199 63 185 197 62 186 199 63 187 187 64 188 187 64 189 199 63 190 189 65 191 187 64 192 189 65 193 181 66 194 181 66 195 189 65 196 183 67 197 181 66 198 183 67 199 171 68 200 171 68 201 183 67 202 173 69 203 171 68 204 173 69 205 163 70 206 163 70 207 173 69 208 165 71 209 163 70 210 165 71 211 153 0 212 153 0 213 165 71 214 155 1 215 155 72 216 156 72 217 143 72 218 143 72 219 156 72 220 144 72 221 143 72 222 144 72 223 132 72 224 156 72 225 155 72 226 168 72 227 168 72 228 155 72 229 165 72 230 168 73 231 165 73 232 184 73 233 184 74 234 165 74 235 204 74 236 204 75 237 165 75 238 173 75 239 204 72 240 173 72 241 218 72 242 218 76 243 173 76 244 183 76 245 218 77 246 183 77 247 226 77 248 226 78 249 183 78 250 189 78 251 226 72 252 189 72 253 230 72 254 230 72 255 189 72 256 238 72 257 238 79 258 189 79 259 199 79 260 238 72 261 199 72 262 246 72 263 246 72 264 199 72 265 203 72 266 246 72 267 203 72 268 250 72 269 250 72 270 203 72 271 254 72 272 254 80 273 203 80 274 209 80 275 254 81 276 209 81 277 262 81 278 262 82 279 209 82 280 211 82 281 262 72 282 211 72 283 264 72 284 264 83 285 211 83 286 208 83 287 264 84 288 208 84 289 260 84 290 260 85 291 208 85 292 252 85 293 252 86 294 208 86 295 202 86 296 252 72 297 202 72 298 248 72 299 248 72 300 202 72 301 198 72 302 248 72 303 198 72 304 240 72 305 240 72 306 198 72 307 236 72 308 236 87 309 198 87 310 188 87 311 236 88 312 188 88 313 228 88 314 228 89 315 188 89 316 182 89 317 228 72 318 182 72 319 220 72 320 220 90 321 182 90 322 212 90 323 212 91 324 182 91 325 172 91 326 212 72 327 172 72 328 194 72 329 194 72 330 172 72 331 164 72 332 194 72 333 164 72 334 178 72 335 178 72 336 164 72 337 154 72 338 178 92 339 154 92 340 166 92 341 166 93 342 154 93 343 150 93 344 150 72 345 154 72 346 142 72 347 150 72 348 142 72 349 138 72 350 138 72 351 142 72 352 136 72 353 138 94 354 136 94 355 122 94 356 122 95 357 136 95 358 110 95 359 110 72 360 136 72 361 126 72 362 110 72 363 126 72 364 94 72 365 94 72 366 126 72 367 118 72 368 94 72 369 118 72 370 76 72 371 76 91 372 118 91 373 108 91 374 76 72 375 108 72 376 68 72 377 68 72 378 108 72 379 60 72 380 60 89 381 108 89 382 102 89 383 60 96 384 102 96 385 52 96 386 52 87 387 102 87 388 92 87 389 52 72 390 92 72 391 48 72 392 48 72 393 92 72 394 40 72 395 40 72 396 92 72 397 88 72 398 40 72 399 88 72 400 36 72 401 36 86 402 88 86 403 82 86 404 36 97 405 82 97 406 28 97 407 28 98 408 82 98 409 24 98 410 24 83 411 82 83 412 79 83 413 24 72 414 79 72 415 26 72 416 26 82 417 79 82 418 83 82 419 26 81 420 83 81 421 34 81 422 34 80 423 83 80 424 89 80 425 34 72 426 89 72 427 38 72 428 38 72 429 89 72 430 42 72 431 42 72 432 89 72 433 93 72 434 42 72 435 93 72 436 50 72 437 50 79 438 93 79 439 103 79 440 50 72 441 103 72 442 58 72 443 58 72 444 103 72 445 62 72 446 62 78 447 103 78 448 109 78 449 62 99 450 109 99 451 70 99 452 70 76 453 109 76 454 119 76 455 70 72 456 119 72 457 84 72 458 84 75 459 119 75 460 127 75 461 84 100 462 127 100 463 104 100 464 104 101 465 127 101 466 120 101 467 120 72 468 127 72 469 137 72 470 120 72 471 137 72 472 132 72 473 132 72 474 137 72 475 143 72 476 156 102 477 146 103 478 144 104 479 144 104 480 146 103 481 133 105 482 144 104 483 133 105 484 132 106 485 132 106 486 133 105 487 121 107 488 132 106 489 121 107 490 120 108 491 120 108 492 121 107 493 105 109 494 120 108 495 105 109 496 104 110 497 104 110 498 105 109 499 85 111 500 104 110 501 85 111 502 84 112 503 84 112 504 85 111 505 71 113 506 84 112 507 71 113 508 70 114 509 70 114 510 71 113 511 63 115 512 70 114 513 63 115 514 62 116 515 62 116 516 63 115 517 59 117 518 62 116 519 59 117 520 58 118 521 58 118 522 59 117 523 51 119 524 58 118 525 51 119 526 50 120 527 50 120 528 51 119 529 43 121 530 50 120 531 43 121 532 42 122 533 42 122 534 43 121 535 39 123 536 42 122 537 39 123 538 38 124 539 38 124 540 39 123 541 35 125 542 38 124 543 35 125 544 34 126 545 34 126 546 35 125 547 27 127 548 34 126 549 27 127 550 26 128 551 26 128 552 27 127 553 25 129 554 26 128 555 25 129 556 24 130 557 24 130 558 25 129 559 29 131 560 24 130 561 29 131 562 28 132 563 28 132 564 29 131 565 37 133 566 28 132 567 37 133 568 36 134 569 36 134 570 37 133 571 41 135 572 36 134 573 41 135 574 40 136 575 40 136 576 41 135 577 49 137 578 40 136 579 49 137 580 48 138 581 48 138 582 49 137 583 53 139 584 48 138 585 53 139 586 52 140 587 52 140 588 53 139 589 61 141 590 52 140 591 61 141 592 60 142 593 60 142 594 61 141 595 69 143 596 60 142 597 69 143 598 68 144 599 68 144 600 69 143 601 77 145 602 68 144 603 77 145 604 76 146 605 76 146 606 77 145 607 95 147 608 76 146 609 95 147 610 94 148 611 94 148 612 95 147 613 111 149 614 94 148 615 111 149 616 110 150 617 110 150 618 111 149 619 123 151 620 110 150 621 123 151 622 122 152 623 122 152 624 123 151 625 139 153 626 122 152 627 139 153 628 138 154 629 138 154 630 139 153 631 151 155 632 138 154 633 151 155 634 150 156 635 150 156 636 151 155 637 167 157 638 150 156 639 167 157 640 166 158 641 166 158 642 167 157 643 179 159 644 166 158 645 179 159 646 178 160 647 178 160 648 179 159 649 195 161 650 178 160 651 195 161 652 194 162 653 194 162 654 195 161 655 213 163 656 194 162 657 213 163 658 212 164 659 212 164 660 213 163 661 221 165 662 212 164 663 221 165 664 220 166 665 220 166 666 221 165 667 229 167 668 220 166 669 229 167 670 228 168 671 228 168 672 229 167 673 237 169 674 228 168 675 237 169 676 236 170 677 236 170 678 237 169 679 241 171 680 236 170 681 241 171 682 240 172 683 240 172 684 241 171 685 249 173 686 240 172 687 249 173 688 248 174 689 248 174 690 249 173 691 253 175 692 248 174 693 253 175 694 252 176 695 252 176 696 253 175 697 261 177 698 252 176 699 261 177 700 260 178 701 260 178 702 261 177 703 265 179 704 260 178 705 265 179 706 264 180 707 264 180 708 265 179 709 263 181 710 264 180 711 263 181 712 262 182 713 262 182 714 263 181 715 255 183 716 262 182 717 255 183 718 254 184 719 254 184 720 255 183 721 251 185 722 254 184 723 251 185 724 250 186 725 250 186 726 251 185 727 247 187 728 250 186 729 247 187 730 246 188 731 246 188 732 247 187 733 239 189 734 246 188 735 239 189 736 238 190 737 238 190 738 239 189 739 231 191 740 238 190 741 231 191 742 230 192 743 230 192 744 231 191 745 227 193 746 230 192 747 227 193 748 226 194 749 226 194 750 227 193 751 219 195 752 226 194 753 219 195 754 218 196 755 218 196 756 219 195 757 205 197 758 218 196 759 205 197 760 204 198 761 204 198 762 205 197 763 185 199 764 204 198 765 185 199 766 184 200 767 184 200 768 185 199 769 169 201 770 184 200 771 169 201 772 168 202 773 168 202 774 169 201 775 157 203 776 168 202 777 157 203 778 156 102 779 156 102 780 157 203 781 146 103 782 135 72 783 134 72 784 141 72 785 141 72 786 134 72 787 140 72 788 141 72 789 140 72 790 153 72 791 153 72 792 140 72 793 152 72 794 153 72 795 152 72 796 163 72 797 163 72 798 152 72 799 162 72 800 163 72 801 162 72 802 171 72 803 171 72 804 162 72 805 170 72 806 171 72 807 170 72 808 181 72 809 181 72 810 170 72 811 180 72 812 181 72 813 180 72 814 187 72 815 187 72 816 180 72 817 186 72 818 187 72 819 186 72 820 197 72 821 197 72 822 186 72 823 196 72 824 197 72 825 196 72 826 201 72 827 201 72 828 196 72 829 200 72 830 201 72 831 200 72 832 207 72 833 207 72 834 200 72 835 206 72 836 207 72 837 206 72 838 210 72 839 134 72 840 135 72 841 124 72 842 124 72 843 135 72 844 125 72 845 124 72 846 125 72 847 116 72 848 116 72 849 125 72 850 117 72 851 116 72 852 117 72 853 106 72 854 106 72 855 117 72 856 107 72 857 106 72 858 107 72 859 100 72 860 100 72 861 107 72 862 101 72 863 100 72 864 101 72 865 90 72 866 90 72 867 101 72 868 91 72 869 90 72 870 91 72 871 86 72 872 86 72 873 91 72 874 87 72 875 86 72 876 87 72 877 80 72 878 80 72 879 87 72 880 81 72 881 80 72 882 81 72 883 78 72 884</p>
        </triangles>
        <triangles material="_21_124_15_004-material" count="281">
          <input semantic="VERTEX" source="#EMROX-Argo_INESC_TEC_Plattform_Rad_V1_02_005-mesh-vertices" offset="0"/>
          <input semantic="NORMAL" source="#EMROX-Argo_INESC_TEC_Plattform_Rad_V1_02_005-mesh-normals" offset="1"/>
          <input semantic="TEXCOORD" source="#EMROX-Argo_INESC_TEC_Plattform_Rad_V1_02_005-mesh-map-0" offset="2" set="0"/>
          <p>157 72 885 159 72 886 146 72 887 146 72 888 159 72 889 147 72 890 146 72 891 147 72 892 129 72 893 159 72 894 157 72 895 175 72 896 175 72 897 157 72 898 169 72 899 175 204 900 169 204 901 191 204 902 191 72 903 169 72 904 185 72 905 191 72 906 185 72 907 215 72 908 215 205 909 185 205 910 205 205 911 215 72 912 205 72 913 223 72 914 223 206 915 205 206 916 219 206 917 223 72 918 219 72 919 233 72 920 233 72 921 219 72 922 227 72 923 233 72 924 227 72 925 243 72 926 243 72 927 227 72 928 231 72 929 243 72 930 231 72 931 257 72 932 257 72 933 231 72 934 267 72 935 267 72 936 231 72 937 239 72 938 267 72 939 239 72 940 271 72 941 271 72 942 239 72 943 247 72 944 271 72 945 247 72 946 275 72 947 275 72 948 247 72 949 251 72 950 275 72 951 251 72 952 279 72 953 279 72 954 251 72 955 255 72 956 279 72 957 255 72 958 283 72 959 283 72 960 255 72 961 263 72 962 283 72 963 263 72 964 287 72 965 287 207 966 263 207 967 265 207 968 287 72 969 265 72 970 286 72 971 286 208 972 265 208 973 261 208 974 286 72 975 261 72 976 282 72 977 282 72 978 261 72 979 253 72 980 282 72 981 253 72 982 278 72 983 278 72 984 253 72 985 274 72 986 274 209 987 253 209 988 249 209 989 274 210 990 249 210 991 270 210 992 270 211 993 249 211 994 241 211 995 270 212 996 241 212 997 266 212 998 266 213 999 241 213 1000 237 213 1001 266 214 1002 237 214 1003 256 214 1004 256 72 1005 237 72 1006 229 72 1007 256 72 1008 229 72 1009 242 72 1010 242 72 1011 229 72 1012 221 72 1013 242 72 1014 221 72 1015 232 72 1016 232 215 1017 221 215 1018 213 215 1019 232 216 1020 213 216 1021 222 216 1022 222 72 1023 213 72 1024 195 72 1025 222 72 1026 195 72 1027 214 72 1028 214 217 1029 195 217 1030 190 217 1031 190 72 1032 195 72 1033 179 72 1034 190 218 1035 179 218 1036 174 218 1037 174 72 1038 179 72 1039 167 72 1040 174 219 1041 167 219 1042 158 219 1043 158 72 1044 167 72 1045 151 72 1046 158 220 1047 151 220 1048 145 220 1049 145 72 1050 151 72 1051 139 72 1052 145 220 1053 139 220 1054 128 220 1055 128 72 1056 139 72 1057 123 72 1058 128 221 1059 123 221 1060 112 221 1061 112 72 1062 123 72 1063 111 72 1064 112 218 1065 111 218 1066 96 218 1067 96 72 1068 111 72 1069 95 72 1070 96 72 1071 95 72 1072 72 72 1073 72 72 1074 95 72 1075 64 72 1076 64 72 1077 95 72 1078 77 72 1079 64 72 1080 77 72 1081 54 72 1082 54 215 1083 77 215 1084 69 215 1085 54 72 1086 69 72 1087 44 72 1088 44 72 1089 69 72 1090 61 72 1091 44 72 1092 61 72 1093 30 72 1094 30 72 1095 61 72 1096 53 72 1097 30 72 1098 53 72 1099 20 72 1100 20 213 1101 53 213 1102 49 213 1103 20 72 1104 49 72 1105 16 72 1106 16 211 1107 49 211 1108 41 211 1109 16 72 1110 41 72 1111 12 72 1112 12 209 1113 41 209 1114 37 209 1115 12 72 1116 37 72 1117 8 72 1118 8 72 1119 37 72 1120 4 72 1121 4 72 1122 37 72 1123 29 72 1124 4 72 1125 29 72 1126 0 72 1127 0 208 1128 29 208 1129 25 208 1130 0 72 1131 25 72 1132 1 72 1133 1 207 1134 25 207 1135 27 207 1136 1 72 1137 27 72 1138 5 72 1139 5 72 1140 27 72 1141 35 72 1142 5 72 1143 35 72 1144 9 72 1145 9 72 1146 35 72 1147 39 72 1148 9 72 1149 39 72 1150 13 72 1151 13 72 1152 39 72 1153 43 72 1154 13 72 1155 43 72 1156 17 72 1157 17 72 1158 43 72 1159 51 72 1160 17 72 1161 51 72 1162 21 72 1163 21 72 1164 51 72 1165 59 72 1166 21 72 1167 59 72 1168 31 72 1169 31 72 1170 59 72 1171 45 72 1172 45 72 1173 59 72 1174 63 72 1175 45 72 1176 63 72 1177 55 72 1178 55 72 1179 63 72 1180 71 72 1181 55 72 1182 71 72 1183 65 72 1184 65 206 1185 71 206 1186 85 206 1187 65 222 1188 85 222 1189 73 222 1190 73 205 1191 85 205 1192 105 205 1193 73 72 1194 105 72 1195 97 72 1196 97 72 1197 105 72 1198 121 72 1199 97 223 1200 121 223 1201 113 223 1202 113 72 1203 121 72 1204 133 72 1205 113 224 1206 133 224 1207 129 224 1208 129 72 1209 133 72 1210 146 72 1211 159 225 1212 161 226 1213 147 227 1214 147 227 1215 161 226 1216 149 228 1217 147 227 1218 149 228 1219 129 229 1220 129 229 1221 149 228 1222 131 230 1223 129 229 1224 131 230 1225 113 231 1226 113 231 1227 131 230 1228 115 232 1229 113 231 1230 115 232 1231 97 233 1232 97 233 1233 115 232 1234 99 234 1235 97 233 1236 99 234 1237 73 235 1238 73 235 1239 99 234 1240 75 236 1241 73 235 1242 75 236 1243 65 237 1244 65 237 1245 75 236 1246 67 238 1247 65 237 1248 67 238 1249 55 239 1250 55 239 1251 67 238 1252 57 240 1253 55 239 1254 57 240 1255 45 241 1256 45 241 1257 57 240 1258 47 242 1259 45 241 1260 47 242 1261 31 243 1262 31 243 1263 47 242 1264 33 244 1265 31 243 1266 33 244 1267 21 245 1268 21 245 1269 33 244 1270 23 246 1271 21 245 1272 23 246 1273 17 247 1274 17 247 1275 23 246 1276 19 248 1277 17 247 1278 19 248 1279 13 249 1280 13 249 1281 19 248 1282 15 250 1283 13 249 1284 15 250 1285 9 251 1286 9 251 1287 15 250 1288 11 252 1289 9 251 1290 11 252 1291 5 253 1292 5 253 1293 11 252 1294 7 254 1295 5 253 1296 7 254 1297 1 255 1298 1 255 1299 7 254 1300 3 256 1301 1 255 1302 3 256 1303 0 257 1304 0 257 1305 3 256 1306 2 258 1307 0 257 1308 2 258 1309 4 259 1310 4 259 1311 2 258 1312 6 260 1313 4 259 1314 6 260 1315 8 261 1316 8 261 1317 6 260 1318 10 262 1319 8 261 1320 10 262 1321 12 263 1322 12 263 1323 10 262 1324 14 264 1325 12 263 1326 14 264 1327 16 265 1328 16 265 1329 14 264 1330 18 266 1331 16 265 1332 18 266 1333 20 267 1334 20 267 1335 18 266 1336 22 268 1337 20 267 1338 22 268 1339 30 269 1340 30 269 1341 22 268 1342 32 270 1343 30 269 1344 32 270 1345 44 271 1346 44 271 1347 32 270 1348 46 272 1349 44 271 1350 46 272 1351 54 273 1352 54 273 1353 46 272 1354 56 274 1355 54 273 1356 56 274 1357 64 275 1358 64 275 1359 56 274 1360 66 276 1361 64 275 1362 66 276 1363 72 277 1364 72 277 1365 66 276 1366 74 278 1367 72 277 1368 74 278 1369 96 279 1370 96 279 1371 74 278 1372 98 280 1373 96 279 1374 98 280 1375 112 281 1376 112 281 1377 98 280 1378 114 282 1379 112 281 1380 114 282 1381 128 283 1382 128 283 1383 114 282 1384 130 284 1385 128 283 1386 130 284 1387 145 285 1388 145 285 1389 130 284 1390 148 286 1391 145 285 1392 148 286 1393 158 287 1394 158 287 1395 148 286 1396 160 288 1397 158 287 1398 160 288 1399 174 289 1400 174 289 1401 160 288 1402 176 290 1403 174 289 1404 176 290 1405 190 291 1406 190 291 1407 176 290 1408 192 292 1409 190 291 1410 192 292 1411 214 293 1412 214 293 1413 192 292 1414 216 294 1415 214 293 1416 216 294 1417 222 295 1418 222 295 1419 216 294 1420 224 296 1421 222 295 1422 224 296 1423 232 297 1424 232 297 1425 224 296 1426 234 298 1427 232 297 1428 234 298 1429 242 299 1430 242 299 1431 234 298 1432 244 300 1433 242 299 1434 244 300 1435 256 301 1436 256 301 1437 244 300 1438 258 302 1439 256 301 1440 258 302 1441 266 303 1442 266 303 1443 258 302 1444 268 304 1445 266 303 1446 268 304 1447 270 305 1448 270 305 1449 268 304 1450 272 306 1451 270 305 1452 272 306 1453 274 307 1454 274 307 1455 272 306 1456 276 308 1457 274 307 1458 276 308 1459 278 309 1460 278 309 1461 276 308 1462 280 310 1463 278 309 1464 280 310 1465 282 311 1466 282 311 1467 280 310 1468 284 312 1469 282 311 1470 284 312 1471 286 313 1472 286 313 1473 284 312 1474 288 314 1475 286 313 1476 288 314 1477 287 315 1478 287 315 1479 288 314 1480 289 316 1481 287 315 1482 289 316 1483 283 317 1484 283 317 1485 289 316 1486 285 318 1487 283 317 1488 285 318 1489 279 319 1490 279 319 1491 285 318 1492 281 320 1493 279 319 1494 281 320 1495 275 321 1496 275 321 1497 281 320 1498 277 322 1499 275 321 1500 277 322 1501 271 323 1502 271 323 1503 277 322 1504 273 324 1505 271 323 1506 273 324 1507 267 325 1508 267 325 1509 273 324 1510 269 326 1511 267 325 1512 269 326 1513 257 327 1514 257 327 1515 269 326 1516 259 328 1517 257 327 1518 259 328 1519 243 329 1520 243 329 1521 259 328 1522 245 330 1523 243 329 1524 245 330 1525 233 331 1526 233 331 1527 245 330 1528 235 332 1529 233 331 1530 235 332 1531 223 333 1532 223 333 1533 235 332 1534 225 334 1535 223 333 1536 225 334 1537 215 335 1538 215 335 1539 225 334 1540 217 336 1541 215 335 1542 217 336 1543 191 337 1544 191 337 1545 217 336 1546 193 338 1547 191 337 1548 193 338 1549 175 339 1550 175 339 1551 193 338 1552 177 340 1553 175 339 1554 177 340 1555 159 225 1556 159 225 1557 177 340 1558 161 226 1559 161 341 1560 160 341 1561 149 341 1562 149 341 1563 160 341 1564 148 341 1565 149 341 1566 148 341 1567 131 341 1568 131 341 1569 148 341 1570 130 341 1571 131 341 1572 130 341 1573 115 341 1574 115 341 1575 130 341 1576 114 341 1577 115 341 1578 114 341 1579 99 341 1580 99 341 1581 114 341 1582 98 341 1583 99 341 1584 98 341 1585 75 341 1586 75 341 1587 98 341 1588 74 341 1589 75 341 1590 74 341 1591 67 341 1592 67 341 1593 74 341 1594 66 341 1595 67 341 1596 66 341 1597 57 341 1598 57 341 1599 66 341 1600 56 341 1601 57 341 1602 56 341 1603 47 341 1604 47 341 1605 56 341 1606 46 341 1607 47 341 1608 46 341 1609 33 341 1610 33 341 1611 46 341 1612 32 341 1613 33 341 1614 32 341 1615 23 341 1616 23 341 1617 32 341 1618 22 341 1619 23 341 1620 22 341 1621 19 341 1622 19 341 1623 22 341 1624 18 341 1625 19 341 1626 18 341 1627 15 341 1628 15 341 1629 18 341 1630 14 341 1631 15 341 1632 14 341 1633 11 341 1634 11 341 1635 14 341 1636 10 341 1637 11 341 1638 10 341 1639 7 341 1640 7 341 1641 10 341 1642 6 341 1643 7 341 1644 6 341 1645 3 341 1646 3 341 1647 6 341 1648 2 341 1649 160 341 1650 161 341 1651 176 341 1652 176 341 1653 161 341 1654 177 341 1655 176 341 1656 177 341 1657 192 341 1658 192 341 1659 177 341 1660 193 341 1661 192 341 1662 193 341 1663 216 341 1664 216 341 1665 193 341 1666 217 341 1667 216 341 1668 217 341 1669 224 341 1670 224 341 1671 217 341 1672 225 341 1673 224 341 1674 225 341 1675 234 341 1676 234 341 1677 225 341 1678 235 341 1679 234 341 1680 235 341 1681 244 341 1682 244 341 1683 235 341 1684 245 341 1685 244 341 1686 245 341 1687 258 341 1688 258 341 1689 245 341 1690 259 341 1691 258 341 1692 259 341 1693 268 341 1694 268 341 1695 259 341 1696 269 341 1697 268 341 1698 269 341 1699 272 341 1700 272 341 1701 269 341 1702 273 341 1703 272 341 1704 273 341 1705 276 341 1706 276 341 1707 273 341 1708 277 341 1709 276 341 1710 277 341 1711 280 341 1712 280 341 1713 277 341 1714 281 341 1715 280 341 1716 281 341 1717 284 341 1718 284 341 1719 281 341 1720 285 341 1721 284 341 1722 285 341 1723 288 341 1724 288 341 1725 285 341 1726 289 341 1727</p>
        </triangles>
      </mesh>
    </geometry>
  </library_geometries>
  <library_visual_scenes>
    <visual_scene id="Scene" name="Scene">
      <node id="EMROX-Argo_INESC_TEC_Plattform_Rad_V1_02_001" name="EMROX-Argo INESC TEC Plattform Rad V1.02.001" type="NODE">
        <matrix sid="transform">0.01 0 0 0 0 0.01 0 0 0 0 0.01 0 0 0 0 1</matrix>
        <instance_geometry url="#EMROX-Argo_INESC_TEC_Plattform_Rad_V1_02_005-mesh" name="EMROX-Argo INESC TEC Plattform Rad V1.02.001">
          <bind_material>
            <technique_common>
              <instance_material symbol="_54_254_255_006-material" target="#_54_254_255_006-material">
                <bind_vertex_input semantic="EMROX-Argo_INESC_TEC_Plattform_Rad_V1_02_004-mesh-map-0" input_semantic="TEXCOORD" input_set="0"/>
              </instance_material>
              <instance_material symbol="_21_124_15_004-material" target="#_21_124_15_004-material">
                <bind_vertex_input semantic="EMROX-Argo_INESC_TEC_Plattform_Rad_V1_02_004-mesh-map-0" input_semantic="TEXCOORD" input_set="0"/>
              </instance_material>
            </technique_common>
          </bind_material>
        </instance_geometry>
      </node>
    </visual_scene>
  </library_visual_scenes>
  <scene>
    <instance_visual_scene url="#Scene"/>
  </scene>
</COLLADA>