<?xml version="1.0" encoding="utf-8"?>
<COLLADA xmlns="http://www.collada.org/2005/11/COLLADASchema" version="1.4.1" xmlns:xsi="http://www.w3.org/2001/XMLSchema-instance">
  <asset>
    <contributor>
      <author>Blender User</author>
      <authoring_tool>Blender 4.5.1 LTS commit date:2025-07-29, commit time:05:31, hash:b0a72b245dcf</authoring_tool>
    </contributor>
    <created>2025-08-11T11:17:30</created>
    <modified>2025-08-11T11:17:30</modified>
    <unit name="meter" meter="1"/>
    <up_axis>Z_UP</up_axis>
  </asset>
  <library_effects>
    <effect id="_53_153_153_003-effect">
      <profile_COMMON>
        <technique sid="common">
          <lambert>
            <emission>
              <color sid="emission">0 0 0 1</color>
            </emission>
            <diffuse>
              <color sid="diffuse">0.6 0.6 0.6 1</color>
            </diffuse>
            <index_of_refraction>
              <float sid="ior">1.5</float>
            </index_of_refraction>
          </lambert>
        </technique>
      </profile_COMMON>
    </effect>
    <effect id="_91_191_191_007-effect">
      <profile_COMMON>
        <technique sid="common">
          <lambert>
            <emission>
              <color sid="emission">0 0 0 1</color>
            </emission>
            <diffuse>
              <color sid="diffuse">0.74902 0.74902 0.74902 1</color>
            </diffuse>
            <index_of_refraction>
              <float sid="ior">1.5</float>
            </index_of_refraction>
          </lambert>
        </technique>
      </profile_COMMON>
    </effect>
    <effect id="_54_254_255_004-effect">
      <profile_COMMON>
        <technique sid="common">
          <lambert>
            <emission>
              <color sid="emission">0 0 0 1</color>
            </emission>
            <diffuse>
              <color sid="diffuse">0.996078 0.996078 1 1</color>
            </diffuse>
            <index_of_refraction>
              <float sid="ior">1.5</float>
            </index_of_refraction>
          </lambert>
        </technique>
      </profile_COMMON>
    </effect>
  </library_effects>
  <library_images/>
  <library_materials>
    <material id="_53_153_153_003-material" name="153,153,153.003">
      <instance_effect url="#_53_153_153_003-effect"/>
    </material>
    <material id="_91_191_191_007-material" name="191,191,191.007">
      <instance_effect url="#_91_191_191_007-effect"/>
    </material>
    <material id="_54_254_255_004-material" name="254,254,255.004">
      <instance_effect url="#_54_254_255_004-effect"/>
    </material>
  </library_materials>
  <library_geometries>
    <geometry id="EMROX-Argo_INESC_TEC_Plattform_Radträger_V1_02_001-mesh" name="EMROX-Argo INESC TEC Plattform Radträger V1.02.001">
      <mesh>
        <source id="EMROX-Argo_INESC_TEC_Plattform_Radträger_V1_02_001-mesh-positions">
          <float_array id="EMROX-Argo_INESC_TEC_Plattform_Radträger_V1_02_001-mesh-positions-array" count="660">-75 0 10 -74.98688 -1.402877 0 -74.68174 6.902031 0 -74.52842 -8.397336 10 -74.52842 8.397336 10 -74.37133 -9.690562 0 -73.45964 15.12219 0 -73.11959 -16.68907 10 -73.11959 16.68907 10 -72.84262 -17.85926 0 -71.3356 23.15669 0 -70.79125 -24.77093 10 -70.79125 24.77093 10 -70.41954 -25.80868 0 -68.3357 30.90686 0 -67.57266 -32.54128 10 -67.57266 32.54128 10 -67.13185 -33.44122 0 -64.49674 38.27754 0 -63.50431 -39.9024 10 -63.50431 39.9024 10 -63.0199 -40.66316 0 -59.86589 45.17826 0 -58.63736 -46.76174 10 -58.63736 46.76174 10 -58.13417 -47.38584 0 -54.5 20 -61.5 -54.5 20 0 -54.5 51.52426 0 -54.5 63.5 -61.5 -54.5 63.5 0 -54.15084 20 -66.0637 -54.15084 63.5 -66.0637 -53.11151 20 -70.52117 -53.11151 63.5 -70.52117 -53.03301 -53.03301 10 -53.03301 53.03301 10 -52.53467 -53.5267 0 -51.40618 20 -74.76866 -51.40618 63.5 -74.76866 -49.97835 55.92105 0 -49.07456 20 -78.70729 -49.07456 63.5 -78.70729 -46.76174 -58.63736 10 -46.76174 58.63736 10 -46.29014 -59.01036 0 -45.10329 59.92239 0 -40.20952 20 -91.36788 -40.20952 63.5 -91.36788 -39.90927 63.5 0 -39.9024 -63.50431 10 -39.9024 63.50431 10 -39.47726 -63.76947 0 -39.09955 20 -92.51062 -39.09955 63.5 -92.51062 -37.68648 20 -93.24621 -37.68648 63.5 -93.24621 -36.11376 20 -93.50001 -36.11376 63.5 -93.50001 -32.54713 67.56986 0 -32.54128 -67.57266 10 -32.54128 67.57266 10 -32.17967 -67.74562 0 -24.97168 76 -38.31045 -24.8868 63.5 -41.8764 -24.8868 63.5 -37.1236 -24.77552 70.78964 0 -24.77093 -70.79125 10 -24.77093 70.79125 10 -24.74554 76 -43.05787 -24.48697 -70.88998 0 -24.29529 76 -33.60602 -23.98732 63.5 -46.54331 -23.98732 63.5 -32.45668 -23.62502 76 -47.6767 -22.7408 76 -29.11463 -22.22089 63.5 -50.95566 -22.22089 63.5 -28.04434 -21.65064 76 -52 -20.3644 76 -24.99858 -19.65133 63.5 -54.95397 -19.65133 63.5 -24.04603 -18.89374 76 -55.87152 -17.25198 76 -21.40665 -16.69223 73.11888 0 -16.68907 -73.11959 10 -16.68907 73.11959 10 -16.49361 -73.16394 0 -16.37152 63.5 -58.39374 -16.37152 63.5 -20.60626 -15.45397 76 -59.15132 -13.51602 76 -18.46866 -12.5 63.5 -61.15064 -12.5 63.5 -17.84937 -11.45566 76 -61.72089 -9.291563 76 -16.2908 -8.398948 74.52824 0 -8.397336 -74.52842 10 -8.397336 74.52842 10 -8.297747 -74.53958 0 -8.176699 63.5 -63.12502 -8.176699 63.5 -15.87498 -7.043314 76 -63.48732 -4.731281 76 -14.95178 -3.557871 63.5 -64.24554 -3.557871 63.5 -14.75446 -2.376401 76 -64.3868 0 -75 0 0 -75 10 0 75 0 0 75 10 0 76 -14.5 1.189548 63.5 -64.47169 1.189548 63.5 -14.52832 2.376401 76 -64.3868 4.731281 76 -14.95178 5.893973 63.5 -63.79529 5.893973 63.5 -15.20471 7.043314 76 -63.48732 8.297747 -74.53958 0 8.397336 -74.52842 10 8.397336 74.52842 10 8.398948 74.52824 0 9.291563 76 -16.2908 10.38537 63.5 -62.2408 10.38537 63.5 -16.7592 11.45566 76 -61.72089 13.51602 76 -18.46866 14.50142 63.5 -59.86439 14.50142 63.5 -19.1356 15.45397 76 -59.15132 16.49361 -73.16394 0 16.68907 -73.11959 10 16.68907 73.11959 10 16.69223 73.11888 0 17.25198 76 -21.40665 18.09335 63.5 -56.75197 18.09335 63.5 -22.24803 18.89374 76 -55.87152 20.3644 76 -24.99858 21.03134 63.5 -53.01602 21.03134 63.5 -25.98398 21.65064 76 -52 22.7408 76 -29.11463 23.2092 63.5 -48.79156 23.2092 63.5 -30.20844 23.62502 76 -47.6767 24.29529 76 -33.60602 24.48697 -70.88998 0 24.54822 63.5 -44.23128 24.54822 63.5 -34.76872 24.74554 76 -43.05787 24.77093 -70.79125 10 24.77093 70.79125 10 24.77552 70.78964 0 24.97168 76 -38.31045 25 63.5 -39.5 32.17967 -67.74562 0 32.54128 -67.57266 10 32.54128 67.57266 10 32.54713 67.56986 0 36.11376 20 -93.50001 36.11376 63.5 -93.50001 37.68648 20 -93.24621 37.68648 63.5 -93.24621 39.09955 20 -92.51062 39.09955 63.5 -92.51062 39.47726 -63.76947 0 39.9024 -63.50431 10 39.9024 63.50431 10 39.90927 63.5 0 40.20952 20 -91.36788 40.20952 63.5 -91.36788 45.10329 59.92239 0 46.29014 -59.01036 0 46.76174 -58.63736 10 46.76174 58.63736 10 49.07456 20 -78.70729 49.07456 63.5 -78.70729 49.97835 55.92105 0 51.40618 20 -74.76866 51.40618 63.5 -74.76866 52.53467 -53.5267 0 53.03301 -53.03301 10 53.03301 53.03301 10 53.11151 20 -70.52117 53.11151 63.5 -70.52117 54.15084 20 -66.0637 54.15084 63.5 -66.0637 54.5 20 -61.5 54.5 20 0 54.5 51.52426 0 54.5 63.5 -61.5 54.5 63.5 0 58.13417 -47.38584 0 58.63736 -46.76174 10 58.63736 46.76174 10 59.86589 45.17826 0 63.0199 -40.66316 0 63.50431 -39.9024 10 63.50431 39.9024 10 64.49674 38.27754 0 67.13185 -33.44122 0 67.57266 -32.54128 10 67.57266 32.54128 10 68.3357 30.90686 0 70.41954 -25.80868 0 70.79125 -24.77093 10 70.79125 24.77093 10 71.3356 23.15669 0 72.84262 -17.85926 0 73.11959 -16.68907 10 73.11959 16.68907 10 73.45964 15.12219 0 74.37133 -9.690562 0 74.52842 -8.397336 10 74.52842 8.397336 10 74.68174 6.902031 0 74.98688 -1.402877 0 75 0 10</float_array>
          <technique_common>
            <accessor source="#EMROX-Argo_INESC_TEC_Plattform_Radträger_V1_02_001-mesh-positions-array" count="220" stride="3">
              <param name="X" type="float"/>
              <param name="Y" type="float"/>
              <param name="Z" type="float"/>
            </accessor>
          </technique_common>
        </source>
        <source id="EMROX-Argo_INESC_TEC_Plattform_Radträger_V1_02_001-mesh-normals">
          <float_array id="EMROX-Argo_INESC_TEC_Plattform_Radträger_V1_02_001-mesh-normals-array" count="825">0 1 0 0 1 4.99894e-7 0 1 8.95347e-7 0 1 3.13598e-6 0 1 -2.29077e-6 0 1 -5.73237e-7 0 1 1.25363e-6 0 1 -1.41761e-6 0 1 1.40947e-6 0 1 4.03699e-7 0 1 -3.31995e-7 0 1 6.59463e-6 0 1 -1.91155e-5 0 1 -1.90515e-6 0 1 -6.76695e-7 0 1 3.94605e-7 0 1 -2.89261e-6 0 1 -3.46459e-7 0 1 1.40135e-6 0 1 -1.44746e-6 0 1 1.29212e-6 0 1 -1.51591e-6 0 1 -2.98324e-7 0 1 -1.68759e-6 0 1 1.85963e-6 0 1 4.48455e-6 0 1 -6.23873e-6 0 1 -9.41657e-7 0 1 -3.55681e-7 0 1 8.34693e-7 1 0 0 1 -3.65952e-6 -4.21032e-5 1 3.64225e-6 -4.22895e-5 0.9883616 0 -0.1521229 0.9883614 0 -0.152124 0.9537173 0 -0.300705 0.9537171 0 -0.3007055 0.8968729 0 -0.4422885 0.8968725 0 -0.4422894 0.8191754 -3.64225e-6 -0.5735432 0.8191472 3.66182e-6 -0.5735834 0.819152 0 -0.5735766 0.819152 0 -0.5735767 0.8191166 -7.64322e-6 -0.5736271 0.8191166 7.60715e-6 -0.5736271 0.5971615 0 -0.8021212 0.5971546 0 -0.8021262 0.3145516 0 -0.9492404 0.3145402 0 -0.9492442 2.9996e-5 -7.60941e-6 -1 2.2918e-5 7.6455e-6 -1 0 0 -1 -2.2918e-5 -7.6455e-6 -1 -2.9996e-5 7.60941e-6 -1 -0.3145402 0 -0.9492442 -0.3145516 0 -0.9492404 -0.5971546 0 -0.8021262 -0.5971615 0 -0.8021212 -0.8191166 -7.60715e-6 -0.5736271 -0.8191166 7.64322e-6 -0.5736271 -0.819152 0 -0.5735766 -0.819152 0 -0.5735767 -0.8191472 -3.66182e-6 -0.5735834 -0.8191754 3.64225e-6 -0.5735432 -0.8968725 0 -0.4422894 -0.8968729 0 -0.4422885 -0.9537171 0 -0.3007055 -0.9537173 0 -0.300705 -0.9883614 0 -0.152124 -0.9883616 0 -0.1521229 -1 -2.5583e-5 -4.22969e-5 -1 3.66182e-6 5.84125e-6 -1 0 0 0 0 1 0.9819291 8.81124e-6 -0.1892495 0.9898221 -8.81869e-6 -0.1423102 1 8.97376e-6 3.70764e-7 0.9988674 -8.52672e-6 0.0475803 0.981929 9.12836e-6 0.1892497 0.9718113 -8.59797e-6 0.2357603 0.9283693 9.14838e-6 0.3716592 0.9096295 4.0872e-5 0.4154205 0.8412532 -4.06438e-5 0.5406414 0.8145757 -9.05152e-6 0.5800572 0.7237316 8.44197e-6 0.6900816 0.6900816 -9.2471e-6 0.7237316 0.5800572 8.59657e-6 0.8145759 0.5406419 -9.11718e-6 0.8412529 0.4154199 8.83732e-6 0.9096298 0.3716589 4.04133e-5 0.9283694 0.2357605 8.72975e-6 0.9718112 0.1892496 -9.15956e-6 0.981929 0.04757958 8.68319e-6 0.9988675 0 -8.98773e-6 1 -0.1423101 8.99239e-6 0.9898222 -0.1892501 -8.8946e-6 0.981929 -0.3270699 8.79029e-6 0.9450002 -0.3716594 -9.16887e-6 0.9283692 -0.4999974 -4.08944e-5 0.8660269 -0.5406419 -9.26014e-6 0.8412529 -0.6548603 8.72323e-6 0.75575 -0.6900816 -9.18657e-6 0.7237316 -0.7860513 8.85455e-6 0.6181612 -0.8145763 4.06969e-5 0.5800564 -0.8888351 9.09995e-6 0.4582272 -0.9096297 -8.77352e-6 0.4154202 -0.959493 -9.05269e-5 0.2817328 -0.9718114 -8.88761e-6 0.23576 -0.9954716 8.9719e-6 0.0950604 -0.9988675 -8.59564e-6 0.04757988 -0.9954716 8.98913e-6 -0.09506034 -0.9898222 -9.04501e-6 -0.1423102 -0.9594938 -4.08832e-5 -0.2817301 -0.9450001 -9.37237e-6 -0.3270704 -0.8888355 -4.08902e-5 -0.4582266 -0.8660265 -9.02684e-6 -0.4999984 -0.7860516 8.80239e-6 -0.6181609 -0.7557488 9.04757e-5 -0.6548618 -0.6548603 9.42452e-6 -0.7557499 -0.6181609 -8.33953e-6 -0.7860517 -0.4999982 9.29274e-6 -0.8660264 -0.4582267 4.09251e-5 -0.8888354 -0.3270705 9.07946e-6 -0.945 -0.2817304 -8.70554e-6 -0.9594936 -0.1423107 9.11299e-6 -0.9898221 -0.09506016 -8.40565e-6 -0.9954715 0.04758018 9.36911e-6 -0.9988675 0.09506034 -8.58959e-6 -0.9954716 0.2357603 9.20659e-6 -0.9718113 0.281733 9.03569e-5 -0.9594929 0.4154196 8.57841e-6 -0.90963 0.4582284 4.0425e-5 -0.8888346 0.580057 8.64128e-6 -0.8145759 0.6181613 -9.13115e-6 -0.7860514 0.7237315 8.68924e-6 -0.6900817 0.755751 4.03658e-5 -0.6548591 0.8412529 8.59611e-6 -0.5406421 0.8660265 -9.01381e-6 -0.4999982 0.9283691 8.82195e-6 -0.3716598 0.9450001 -8.66177e-6 -0.32707 0 -1 0 0 -1 5.5214e-7 0 -1 -9.98425e-7 0 -1 3.87555e-7 0 -1 -2.7244e-7 0 -1 0 0 -1 0 0.9937132 -0.1119557 3.96953e-5 0.999825 -0.01871186 -1.11652e-5 1 -1.59357e-6 -1.74125e-5 0.9957571 0.09202212 -4.10837e-5 0.9937126 0.1119623 1.53184e-5 0.9794639 0.2016198 -6.11674e-5 0.9749262 0.2225289 8.81183e-5 0.9511413 0.3087559 -2.52996e-5 0.9438823 0.3302821 7.21682e-6 0.9111414 0.4120939 2.04991e-5 0.9009676 0.4338865 6.49206e-5 0.8599547 0.5103705 2.25254e-5 0.8467256 0.5320301 -3.44119e-5 0.7982071 0.6023832 3.13236e-5 0.7818272 0.6234952 5.52875e-5 0.7266827 0.6869733 -1.08462e-5 0.7071073 0.7071063 -9.62987e-7 0.6663808 0.7456116 -9.40304e-5 0.6234865 0.7818343 4.28166e-5 0.60137 0.7989708 -1.66893e-6 0.5320243 0.8467292 1.04879e-5 0.5321214 0.8466681 -8.54485e-7 0.4339638 0.9009304 -2.08799e-5 0.9916168 -0.1292141 -2.27818e-5 0.9749292 -0.2225152 3.97633e-5 0.9712365 -0.2381171 2.04516e-5 0.9438838 -0.3302777 3.05823e-5 0.9389212 -0.3441326 -6.95903e-5 0.9009757 -0.4338697 1.10218e-4 0.8950961 -0.4458733 3.93817e-5 0.8467233 -0.5320336 -1.38402e-5 0.8402484 -0.5422018 -1.29785e-4 0.7818338 -0.6234869 4.64963e-5 0.7751066 -0.6318305 -9.98374e-5 0.7071104 -0.7071033 4.96486e-5 0.7004499 -0.7137016 -5.95391e-5 0.6234971 -0.7818256 9.23029e-5 0.6171903 -0.786814 -5.88186e-5 0.5320343 -0.8467228 2.87339e-5 0.5263367 -0.8502763 -9.31628e-5 0.4338884 -0.9009668 1.52326e-4 0.429039 -0.903286 -7.45056e-5 0.3302853 -0.9438812 2.15373e-4 0.3264542 -0.9452131 -9.2094e-5 0.2225047 -0.9749315 4.19198e-4 0.2196652 -0.9755753 -4.40294e-4 0.1118789 -0.9937218 4.65225e-4 0.1104326 -0.9938837 -1.46915e-4 0 -1 -3.1621e-5 -0.1104326 -0.9938837 -1.46898e-4 -0.1118789 -0.9937219 4.65233e-4 -0.2196653 -0.9755753 -4.40534e-4 -0.2225047 -0.9749315 4.19085e-4 -0.3264898 -0.9452009 -1.38785e-6 -0.3302851 -0.9438812 2.15467e-4 -0.4290244 -0.903293 -1.20706e-4 -0.4338883 -0.9009667 1.52323e-4 -0.5263367 -0.8502764 -9.29735e-5 -0.5320283 -0.8467266 -6.90429e-5 -0.6171901 -0.786814 -5.86158e-5 -0.6234938 -0.7818283 4.34555e-5 -0.7004499 -0.7137017 -5.9475e-5 -0.7071103 -0.7071033 4.96693e-5 -0.7751066 -0.6318305 -9.97881e-5 -0.7818341 -0.6234866 4.64676e-5 -0.8402544 -0.5421925 -8.19489e-5 -0.8467232 -0.5320336 -1.38301e-5 -0.8950961 -0.4458733 3.94182e-5 -0.9009758 -0.4338696 1.10227e-4 -0.9389212 -0.3441323 -6.95961e-5 -0.9438839 -0.3302776 3.0577e-5 -0.9712342 -0.2381267 -2.75697e-5 -0.9749293 -0.2225149 3.97186e-5 -0.9916167 -0.1292142 -2.27513e-5 -0.9937132 -0.1119557 3.96986e-5 -0.999825 -0.0187121 -1.11281e-5 -1 -1.8999e-6 -1.73803e-5 -0.9957571 0.09202218 -4.11002e-5 -0.9937126 0.1119623 1.53154e-5 -0.9794656 0.2016116 -1.0948e-4 -0.9749274 0.2225238 3.93707e-5 -0.9511439 0.3087482 -7.36429e-5 -0.9438807 0.3302866 5.60521e-5 -0.9111413 0.4120941 2.04644e-5 -0.9009676 0.4338864 6.49309e-5 -0.8599545 0.5103708 2.2471e-5 -0.8467257 0.53203 -3.43942e-5 -0.7982114 0.6023774 -1.71768e-5 -0.7818304 0.6234913 6.49365e-6 -0.7266827 0.6869732 -1.07542e-5 -0.7071074 0.7071062 -1.11107e-6 -0.6663808 0.7456116 -9.4123e-5 -0.6234866 0.7818341 4.26932e-5 -0.60137 0.7989706 -1.76052e-6 -0.5320242 0.8467292 1.03954e-5 -0.5321214 0.8466681 -4.24982e-6 -0.4339638 0.9009304 -2.05933e-5 -0.4338768 0.9009722 1.95129e-5 -0.3303427 0.9438611 -1.66057e-5 -0.3302736 0.9438853 1.36262e-5 -0.2225641 0.9749181 -1.14469e-5 -0.2225156 0.9749292 8.7101e-6 -0.1119856 0.9937098 -6.53001e-6 -0.1119599 0.9937127 3.14566e-6 0 1 -4.84377e-6 0.11196 0.9937127 3.14124e-6 0.1119856 0.9937098 -6.62274e-6 0.2225156 0.9749292 8.64365e-6 0.2225641 0.9749181 -1.15025e-5 0.3302736 0.9438853 1.37013e-5 0.3303427 0.9438611 -1.65964e-5 0.4338768 0.9009722 1.93852e-5 0 1 1.30414e-6 0 1 5.97575e-7 0 1 2.67006e-7 0 1 -5.19548e-7 0 1 -1.29887e-6 0 1 2.53656e-6 0 1 1.41924e-6 0 1 -3.17884e-6 0 1 -2.91265e-6 0 1 2.50324e-6 0 1 2.46237e-6 0 1 2.45288e-6 0 1 1.42771e-5 0 1 1.92128e-7 0 1 4.92473e-7 0 1 -1.09224e-6</float_array>
          <technique_common>
            <accessor source="#EMROX-Argo_INESC_TEC_Plattform_Radträger_V1_02_001-mesh-normals-array" count="275" stride="3">
              <param name="X" type="float"/>
              <param name="Y" type="float"/>
              <param name="Z" type="float"/>
            </accessor>
          </technique_common>
        </source>
        <source id="EMROX-Argo_INESC_TEC_Plattform_Radträger_V1_02_001-mesh-map-0">
          <float_array id="EMROX-Argo_INESC_TEC_Plattform_Radträger_V1_02_001-mesh-map-0-array" count="2616">-1.475 5.45 1.198128 2.454822 4.675 5.45 4.675 5.45 1.198128 2.454822 1.654156 2.32092 4.675 5.45 1.654156 2.32092 4.675 3.990927 4.675 3.990927 1.654156 2.32092 2.076602 2.103134 4.675 3.990927 2.076602 2.103134 2.450197 1.809335 -1.93137 5.415084 -0.626602 2.103134 -1.475 5.45 -1.475 5.45 -0.626602 2.103134 -0.204156 2.32092 -1.475 5.45 -0.204156 2.32092 0.251872 2.454822 -0.626602 2.103134 -1.93137 5.415084 -1.000198 1.809335 -1.000198 1.809335 -1.93137 5.415084 -2.377117 5.311151 -1.000198 1.809335 -2.377117 5.311151 -2.801866 5.140618 -2.801866 5.140618 -3.195729 4.907456 -1.000198 1.809335 -1.000198 1.809335 -3.195729 4.907456 -1.31144 1.450142 -1.31144 1.450142 -3.195729 4.907456 -4.461788 4.020952 -1.31144 1.450142 -4.461788 4.020952 -4.675 3.611376 -4.675 3.611376 -4.461788 4.020952 -4.576062 3.909956 -4.675 3.611376 -4.576062 3.909956 -4.649621 3.768648 -4.675 -3.611376 -1.772168 0.118955 -4.675 3.611376 -4.675 3.611376 -1.772168 0.118955 -1.704529 0.589397 -4.675 3.611376 -1.704529 0.589397 -1.54908 1.038538 -4.649621 -3.768648 -4.576062 -3.909956 -4.675 -3.611376 -4.675 -3.611376 -4.576062 -3.909956 -4.461788 -4.020952 -4.675 -3.611376 -4.461788 -4.020952 -1.440063 -1.25 -1.440063 -1.25 -4.461788 -4.020952 -3.195729 -4.907456 -1.440063 -1.25 -3.195729 -4.907456 -1.164374 -1.637152 -1.164374 -1.637152 -3.195729 -4.907456 -2.801866 -5.140618 -1.164374 -1.637152 -2.801866 -5.140618 -0.820397 -1.965133 -0.820397 -1.965133 -2.801866 -5.140618 -2.377117 -5.311151 -0.820397 -1.965133 -2.377117 -5.311151 -1.93137 -5.415084 -1.93137 -5.415084 -1.475 -5.45 -0.820397 -1.965133 -0.820397 -1.965133 -1.475 -5.45 -0.420566 -2.222089 -0.420566 -2.222089 -1.475 -5.45 0.02066898 -2.398732 0.02066898 -2.398732 -1.475 -5.45 0.48736 -2.48868 0.48736 -2.48868 -1.475 -5.45 0.96264 -2.48868 0.96264 -2.48868 -1.475 -5.45 4.675 -5.45 0.96264 -2.48868 4.675 -5.45 1.429331 -2.398732 1.429331 -2.398732 4.675 -5.45 1.870566 -2.222089 1.870566 -2.222089 4.675 -5.45 4.675 -3.990927 1.870566 -2.222089 4.675 -3.990927 2.270397 -1.965133 2.270397 -1.965133 4.675 -3.990927 2.614374 -1.637152 2.614374 -1.637152 4.675 -3.990927 2.890064 -1.25 2.890064 -1.25 4.675 -3.990927 3.087502 -0.81767 3.087502 -0.81767 4.675 -3.990927 3.199553 -0.355787 3.199553 -0.355787 4.675 -3.990927 3.222168 0.118955 3.222168 0.118955 4.675 -3.990927 4.675 3.990927 3.222168 0.118955 4.675 3.990927 3.154529 0.589397 3.154529 0.589397 4.675 3.990927 2.99908 1.038538 2.99908 1.038538 4.675 3.990927 2.76144 1.450142 2.76144 1.450142 4.675 3.990927 2.450197 1.809335 0.251872 2.454822 0.725 2.5 -1.475 5.45 -1.475 5.45 0.725 2.5 1.198128 2.454822 -1.440063 -1.25 -1.637502 -0.81767 -4.675 -3.611376 -4.675 -3.611376 -1.637502 -0.81767 -1.749554 -0.355787 -4.675 -3.611376 -1.749554 -0.355787 -1.772168 0.118955 -1.54908 1.038538 -1.31144 1.450142 -4.675 3.611376 0 0 6.15 0 0 3.152427 0 3.152427 6.15 0 6.15 4.35 0 3.152427 6.15 4.35 0 4.35 -4.35 -1.832596 0 -1.832596 -4.35 -1.374447 -4.35 -1.374447 0 -1.832596 0 -1.374447 -4.35 -1.374447 0 -1.374447 -4.35 -0.916298 -4.35 -0.916298 0 -1.374447 0 -0.916298 -4.35 -0.916298 0 -0.916298 -4.35 -0.458149 -4.35 -0.458149 0 -0.916298 0 -0.458149 -4.35 -0.458149 0 -0.458149 -4.35 0 -4.35 0 0 -0.458149 0 0 0 0 1.545573 0 0 4.35 0 4.35 1.545573 0 1.545573 4.35 -4.35 -0.479966 0 -0.479966 -4.35 -0.319977 -4.35 -0.319977 0 -0.479966 0 -0.319977 -4.35 -0.319977 0 -0.319977 -4.35 -0.1599889 -4.35 -0.1599889 0 -0.319977 0 -0.1599889 -4.35 -0.1599889 0 -0.1599889 -4.35 0 -4.35 0 0 -0.1599889 0 0 0 0 7.222752 0 0 4.35 0 4.35 7.222752 0 7.222752 4.35 -4.35 -0.479966 0 -0.479966 -4.35 -0.319977 -4.35 -0.319977 0 -0.479966 0 -0.319977 -4.35 -0.319977 0 -0.319977 -4.35 -0.1599889 -4.35 -0.1599889 0 -0.319977 0 -0.1599889 -4.35 -0.1599889 0 -0.1599889 -4.35 0 -4.35 0 0 -0.1599889 0 0 0 0 1.545573 0 0 4.35 0 4.35 1.545573 0 1.545573 4.35 -4.35 -1.832596 0 -1.832596 -4.35 -1.374447 -4.35 -1.374447 0 -1.832596 0 -1.374447 -4.35 -1.374447 0 -1.374447 -4.35 -0.916298 -4.35 -0.916298 0 -1.374447 0 -0.916298 -4.35 -0.916298 0 -0.916298 -4.35 -0.458149 -4.35 -0.458149 0 -0.916298 0 -0.458149 -4.35 -0.458149 0 -0.458149 -4.35 0 -4.35 0 0 -0.458149 0 0 6.15 0 6.15 3.152427 0 0 0 0 6.15 3.152427 0 4.35 0 4.35 6.15 3.152427 6.15 4.35 9.44093 4.35 9.96033 3.99224 10.9 4.35 10.9 4.35 9.96033 3.99224 10.44783 3.592105 10.9 4.35 10.44783 3.592105 10.9 3.152427 0 3.152427 0.452165 3.592105 0 4.35 0 4.35 0.452165 3.592105 0.939671 3.99224 0 4.35 0.939671 3.99224 1.459073 4.35 -1.55 4.40299 -2.8 4.28399 -1.55 3.926991 -1.55 3.926991 -2.8 4.28399 -2.8 3.807991 -1.55 3.926991 -2.8 3.807991 -1.55 3.450992 -1.55 3.450992 -2.8 3.807991 -2.8 3.331992 -1.55 3.450992 -2.8 3.331992 -1.55 2.974993 -1.55 2.974993 -2.8 3.331992 -2.8 2.855993 -1.55 2.974993 -2.8 2.855993 -1.55 2.498994 -1.55 2.498994 -2.8 2.855993 -2.8 2.379994 -1.55 2.498994 -2.8 2.379994 -1.55 2.022995 -1.55 2.022995 -2.8 2.379994 -2.8 1.903996 -1.55 2.022995 -2.8 1.903996 -1.55 1.546996 -1.55 1.546996 -2.8 1.903996 -2.8 1.427997 -1.55 1.546996 -2.8 1.427997 -1.55 1.070997 -1.55 1.070997 -2.8 1.427997 -2.8 0.951998 -1.55 1.070997 -2.8 0.951998 -1.55 0.594999 -1.55 0.594999 -2.8 0.951998 -2.8 0.475999 -1.55 0.594999 -2.8 0.475999 -1.55 0.119 -1.55 0.119 -2.8 0.475999 -2.8 0 -1.55 0.119 -2.8 0 -1.55 -0.356999 -1.55 -0.356999 -2.8 0 -2.8 -0.475999 -1.55 -0.356999 -2.8 -0.475999 -1.55 -0.832998 -1.55 -0.832998 -2.8 -0.475999 -2.8 -0.951998 -1.55 -0.832998 -2.8 -0.951998 -1.55 -1.308997 -1.55 -1.308997 -2.8 -0.951998 -2.8 -1.427997 -1.55 -1.308997 -2.8 -1.427997 -1.55 -1.784996 -1.55 -1.784996 -2.8 -1.427997 -2.8 -1.903996 -1.55 -1.784996 -2.8 -1.903996 -1.55 -2.260995 -1.55 -2.260995 -2.8 -1.903996 -2.8 -2.379994 -1.55 -2.260995 -2.8 -2.379994 -1.55 -2.736994 -1.55 -2.736994 -2.8 -2.379994 -2.8 -2.855993 -1.55 -2.736994 -2.8 -2.855993 -1.55 -3.212993 -1.55 -3.212993 -2.8 -2.855993 -2.8 -3.331992 -1.55 -3.212993 -2.8 -3.331992 -1.55 -3.688991 -1.55 -3.688991 -2.8 -3.331992 -2.8 -3.807991 -1.55 -3.688991 -2.8 -3.807991 -1.55 -4.16499 -1.55 -4.16499 -2.8 -3.807991 -2.8 -4.28399 -1.55 -4.16499 -2.8 -4.28399 -1.55 -4.640989 -1.55 -4.640989 -2.8 -4.28399 -2.8 -4.759989 -1.55 -4.640989 -2.8 -4.759989 -1.55 -5.116988 -1.55 -5.116988 -2.8 -4.759989 -2.8 -5.235988 -1.55 -5.116988 -2.8 -5.235988 -1.55 -5.592987 -1.55 -5.592987 -2.8 -5.235988 -2.8 -5.711987 -1.55 -5.592987 -2.8 -5.711987 -1.55 -6.068986 -1.55 -6.068986 -2.8 -5.711987 -2.8 -6.187985 -1.55 -6.068986 -2.8 -6.187985 -1.55 -6.544985 -1.55 -6.544985 -2.8 -6.187985 -2.8 -6.663985 -1.55 -6.544985 -2.8 -6.663985 -1.55 -7.020984 -1.55 -7.020984 -2.8 -6.663985 -2.8 -7.139983 -1.55 -7.020984 -2.8 -7.139983 -1.55 -7.496982 -1.55 -7.496982 -2.8 -7.139983 -2.8 -7.615983 -1.55 8.210983 -2.8 8.091981 -1.55 7.734982 -1.55 7.734982 -2.8 8.091981 -2.8 7.615982 -1.55 7.734982 -2.8 7.615982 -1.55 7.258983 -1.55 7.258983 -2.8 7.615982 -2.8 7.139983 -1.55 7.258983 -2.8 7.139983 -1.55 6.782984 -1.55 6.782984 -2.8 7.139983 -2.8 6.663985 -1.55 6.782984 -2.8 6.663985 -1.55 6.306985 -1.55 6.306985 -2.8 6.663985 -2.8 6.187985 -1.55 6.306985 -2.8 6.187985 -1.55 5.830986 -1.55 5.830986 -2.8 6.187985 -2.8 5.711987 -1.55 5.830986 -2.8 5.711987 -1.55 5.354987 -1.55 5.354987 -2.8 5.711987 -2.8 5.235988 -1.55 5.354987 -2.8 5.235988 -1.55 4.878989 -1.55 4.878989 -2.8 5.235988 -2.8 4.759989 -1.55 4.878989 -2.8 4.759989 -1.55 4.40299 -1.55 4.40299 -2.8 4.759989 -2.8 4.28399 -1.45 5.45 -1.45 -5.45 4.7 5.45 4.7 5.45 -1.45 -5.45 4.7 -5.45 4.7 5.45 4.7 -5.45 5.15637 -5.415084 5.15637 -5.415084 5.602118 -5.311151 4.7 5.45 4.7 5.45 5.602118 -5.311151 6.026866 -5.140618 4.7 5.45 6.026866 -5.140618 6.420729 -4.907456 7.686788 -4.020952 7.9 -3.611376 6.420729 -4.907456 6.420729 -4.907456 7.9 -3.611376 6.420729 4.907456 6.420729 -4.907456 6.420729 4.907456 4.7 5.45 4.7 5.45 6.420729 4.907456 5.15637 5.415084 5.15637 5.415084 6.420729 4.907456 5.602118 5.311151 5.602118 5.311151 6.420729 4.907456 6.026866 5.140618 7.686788 -4.020952 7.801062 -3.909956 7.9 -3.611376 7.9 -3.611376 7.801062 -3.909956 7.874621 -3.768648 7.9 -3.611376 7.9 3.611376 6.420729 4.907456 6.420729 4.907456 7.9 3.611376 7.686788 4.020952 7.686788 4.020952 7.9 3.611376 7.801062 3.909956 7.801062 3.909956 7.9 3.611376 7.874621 3.768648 -3.990927 6.35 3.990927 6.35 -3.254713 6.756985 -3.254713 6.756985 3.990927 6.35 3.254713 6.756985 -3.254713 6.756985 3.254713 6.756985 -2.477552 7.078964 -2.477552 7.078964 3.254713 6.756985 2.477552 7.078964 -2.477552 7.078964 2.477552 7.078964 -1.669223 7.311887 -1.669223 7.311887 2.477552 7.078964 1.669223 7.311887 -1.669223 7.311887 1.669223 7.311887 -0.839895 7.452824 -0.839895 7.452824 1.669223 7.311887 0.839895 7.452824 -0.839895 7.452824 0.839895 7.452824 0 7.5 -1 -0.841498 0 -0.140296 -1 0 -1 0 0 -0.140296 0 0.691181 -1 0 0 0.691181 -1 0.841498 -1 0.841498 0 0.691181 0 1.522658 -1 0.841498 0 1.522658 -1 1.682996 -1 1.682996 0 1.522658 0 2.354135 -1 1.682996 0 2.354135 -1 2.524494 -1 2.524494 0 2.354135 0 3.185612 -1 2.524494 0 3.185612 -1 3.365992 -1 3.365992 0 3.185612 0 4.017088 -1 3.365992 0 4.017088 -1 4.20749 -1 4.20749 0 4.017088 0 4.848566 -1 4.20749 0 4.848566 -1 5.048988 -1 5.048988 0 4.848566 0 5.680042 -1 5.048988 0 5.680042 -1 5.890486 -1 5.890486 0 5.680042 0 6.310919 -1 5.890486 0 6.310919 -1 6.731984 -1 6.731984 0 6.310919 0 6.941795 -1 6.731984 0 6.941795 -1 7.573483 -1 7.573483 0 6.941795 0 7.572672 -1 7.573483 0 7.572672 0 8.414334 0 -0.140296 -1 -0.841498 0 -0.971773 0 -0.971773 -1 -0.841498 -1 -1.682996 0 -0.971773 -1 -1.682996 0 -1.80325 0 -1.80325 -1 -1.682996 -1 -2.524494 0 -1.80325 -1 -2.524494 0 -2.634727 0 -2.634727 -1 -2.524494 -1 -3.365992 0 -2.634727 -1 -3.365992 0 -3.466203 0 -3.466203 -1 -3.365992 -1 -4.20749 0 -3.466203 -1 -4.20749 0 -4.29768 0 -4.29768 -1 -4.20749 -1 -5.048988 0 -4.29768 -1 -5.048988 0 -5.129158 0 -5.129158 -1 -5.048988 -1 -5.890486 0 -5.129158 -1 -5.890486 0 -5.960634 0 -5.960634 -1 -5.890486 -1 -6.731984 0 -5.960634 -1 -6.731984 0 -6.792111 0 -6.792111 -1 -6.731984 -1 -7.573483 0 -6.792111 -1 -7.573483 0 -7.623588 0 -7.623588 -1 -7.573483 -1 -8.41498 0 -7.623588 -1 -8.41498 0 -8.455065 0 -8.455065 -1 -8.41498 -1 -9.25648 0 -8.455065 -1 -9.25648 0 -9.286542 0 -9.286542 -1 -9.25648 -1 -10.09798 0 -9.286542 -1 -10.09798 0 -10.11802 0 -10.11802 -1 -10.09798 -1 -10.93947 0 -10.11802 -1 -10.93947 0 -10.9495 0 -10.9495 -1 -10.93947 -1 -11.78097 0 -10.9495 -1 -11.78097 0 -11.78097 0 -11.78097 -1 -11.78097 0 -12.61245 0 -12.61245 -1 -11.78097 -1 -12.62247 0 -12.61245 -1 -12.62247 0 -13.44393 0 -13.44393 -1 -12.62247 -1 -13.46397 0 -13.44393 -1 -13.46397 0 -14.2754 0 -14.2754 -1 -13.46397 -1 -14.30547 0 -14.2754 -1 -14.30547 0 -15.10688 0 -15.10688 -1 -14.30547 -1 -15.14696 0 -15.10688 -1 -15.14696 0 -15.93836 0 -15.93836 -1 -15.14696 -1 -15.98846 0 -15.93836 -1 -15.98846 0 -16.76984 0 -16.76984 -1 -15.98846 -1 -16.82996 0 -16.76984 -1 -16.82996 0 -17.60131 0 -17.60131 -1 -16.82996 -1 -17.67146 0 -17.60131 -1 -17.67146 0 -18.43279 0 -18.43279 -1 -17.67146 -1 -18.51296 0 -18.43279 -1 -18.51296 0 -19.26427 0 -19.26427 -1 -18.51296 -1 -19.35446 0 -19.26427 -1 -19.35446 0 -20.09574 0 -20.09574 -1 -19.35446 -1 -20.19595 0 -20.09574 -1 -20.19595 0 -20.92722 0 -20.92722 -1 -20.19595 -1 -21.03745 0 -20.92722 -1 -21.03745 0 -21.75869 0 -21.75869 -1 -21.03745 -1 -21.87895 0 -21.75869 -1 -21.87895 0 -22.59017 0 -22.59017 -1 -21.87895 -1 -22.72045 0 -22.59017 -1 -22.72045 0 -23.42165 0 -23.42165 -1 -22.72045 -1 -23.56195 0 -23.42165 -1 -23.56195 0 -24.25313 0 22.87077 -1 23.56195 -1 22.72045 0 22.87077 -1 22.72045 0 22.03929 0 22.03929 -1 22.72045 -1 21.87895 0 22.03929 -1 21.87895 0 21.20781 0 21.20781 -1 21.87895 -1 21.03745 0 21.20781 -1 21.03745 0 20.37633 0 20.37633 -1 21.03745 -1 20.19595 0 20.37633 -1 20.19595 0 19.54486 0 19.54486 -1 20.19595 -1 19.35446 0 19.54486 -1 19.35446 0 18.71338 0 18.71338 -1 19.35446 -1 18.51296 0 18.71338 -1 18.51296 0 17.8819 0 17.8819 -1 18.51296 -1 17.67146 0 17.8819 -1 17.67146 0 17.25103 0 17.25103 -1 17.67146 -1 16.82996 0 17.25103 -1 16.82996 0 16.62015 0 16.62015 -1 16.82996 -1 15.98846 0 16.62015 -1 15.98846 0 15.98927 0 15.98927 -1 15.98846 0 15.14761 0 15.14761 -1 15.98846 -1 15.14696 0 15.14761 -1 15.14696 0 14.30595 0 14.30595 -1 15.14696 -1 14.30547 0 14.30595 -1 14.30547 0 13.46429 0 13.46429 -1 14.30547 -1 13.46397 0 13.46429 -1 13.46397 0 12.62263 0 12.62263 -1 13.46397 -1 12.62247 0 12.62263 -1 12.62247 0 11.78097 0 11.78097 -1 12.62247 -1 11.78097 0 11.78097 -1 11.78097 -1 10.93947 0 11.78097 -1 10.93947 0 10.93931 0 10.93931 -1 10.93947 -1 10.09798 0 10.93931 -1 10.09798 0 10.09765 0 10.09765 -1 10.09798 -1 9.25648 0 10.09765 -1 9.25648 0 9.255992 0 9.255992 -1 9.25648 -1 8.41498 0 9.255992 -1 8.41498 0 8.414334 0 8.414334 -1 8.41498 -1 7.573483 7.452842 0.839734 -7.452842 0.839734 7.5 0 7.5 0 -7.452842 0.839734 -7.5 0 7.5 0 -7.5 0 7.452842 -0.839734 7.452842 -0.839734 -7.5 0 -7.452842 -0.839734 7.452842 -0.839734 -7.452842 -0.839734 7.311959 -1.668907 7.311959 -1.668907 -7.452842 -0.839734 -7.311959 -1.668907 7.311959 -1.668907 -7.311959 -1.668907 7.079125 -2.477093 7.079125 -2.477093 -7.311959 -1.668907 -7.079125 -2.477093 7.079125 -2.477093 -7.079125 -2.477093 6.757267 -3.254128 6.757267 -3.254128 -7.079125 -2.477093 -6.757267 -3.254128 6.757267 -3.254128 -6.757267 -3.254128 6.350431 -3.990241 6.350431 -3.990241 -6.757267 -3.254128 -6.350431 -3.990241 6.350431 -3.990241 -6.350431 -3.990241 5.863736 -4.676174 5.863736 -4.676174 -6.350431 -3.990241 -5.863736 -4.676174 5.863736 -4.676174 -5.863736 -4.676174 5.303301 -5.303301 5.303301 -5.303301 -5.863736 -4.676174 -5.303301 -5.303301 5.303301 -5.303301 -5.303301 -5.303301 4.676174 -5.863736 4.676174 -5.863736 -5.303301 -5.303301 -4.676174 -5.863736 4.676174 -5.863736 -4.676174 -5.863736 3.990241 -6.350431 3.990241 -6.350431 -4.676174 -5.863736 -3.990241 -6.350431 3.990241 -6.350431 -3.990241 -6.350431 3.254128 -6.757267 3.254128 -6.757267 -3.990241 -6.350431 -3.254128 -6.757267 3.254128 -6.757267 -3.254128 -6.757267 2.477093 -7.079125 2.477093 -7.079125 -3.254128 -6.757267 -2.477093 -7.079125 2.477093 -7.079125 -2.477093 -7.079125 1.668907 -7.311959 1.668907 -7.311959 -2.477093 -7.079125 -1.668907 -7.311959 1.668907 -7.311959 -1.668907 -7.311959 0.839734 -7.452842 0.839734 -7.452842 -1.668907 -7.311959 -0.839734 -7.452842 0.839734 -7.452842 -0.839734 -7.452842 0 -7.5 -7.452842 0.839734 7.452842 0.839734 -7.311959 1.668907 -7.311959 1.668907 7.452842 0.839734 7.311959 1.668907 -7.311959 1.668907 7.311959 1.668907 -7.079125 2.477093 -7.079125 2.477093 7.311959 1.668907 7.079125 2.477093 -7.079125 2.477093 7.079125 2.477093 -6.757267 3.254128 -6.757267 3.254128 7.079125 2.477093 6.757267 3.254128 -6.757267 3.254128 6.757267 3.254128 -6.350431 3.990241 -6.350431 3.990241 6.757267 3.254128 6.350431 3.990241 -6.350431 3.990241 6.350431 3.990241 -5.863736 4.676174 -5.863736 4.676174 6.350431 3.990241 5.863736 4.676174 -5.863736 4.676174 5.863736 4.676174 -5.303301 5.303301 -5.303301 5.303301 5.863736 4.676174 5.303301 5.303301 -5.303301 5.303301 5.303301 5.303301 -4.676174 5.863736 -4.676174 5.863736 5.303301 5.303301 4.676174 5.863736 -4.676174 5.863736 4.676174 5.863736 -3.990241 6.350431 -3.990241 6.350431 4.676174 5.863736 3.990241 6.350431 -3.990241 6.350431 3.990241 6.350431 -3.254128 6.757267 -3.254128 6.757267 3.990241 6.350431 3.254128 6.757267 -3.254128 6.757267 3.254128 6.757267 -2.477093 7.079125 -2.477093 7.079125 3.254128 6.757267 2.477093 7.079125 -2.477093 7.079125 2.477093 7.079125 -1.668907 7.311959 -1.668907 7.311959 2.477093 7.079125 1.668907 7.311959 -1.668907 7.311959 1.668907 7.311959 -0.839734 7.452842 -0.839734 7.452842 1.668907 7.311959 0.839734 7.452842 -0.839734 7.452842 0.839734 7.452842 0 7.5 -5.45 5.152427 -5.986589 4.517826 -5.45 2 -5.45 2 -5.986589 4.517826 -6.449674 3.827754 -5.45 2 -6.449674 3.827754 -6.833569 3.090686 -6.833569 3.090686 -7.13356 2.315669 -5.45 2 -5.45 2 -7.13356 2.315669 -7.345964 1.512219 -5.45 2 -7.345964 1.512219 -7.468174 0.690203 -7.468174 0.690203 -7.498688 -0.1402879 -5.45 2 -5.45 2 -7.498688 -0.1402879 -7.437132 -0.969056 -5.45 2 -7.437132 -0.969056 -7.284262 -1.785926 -7.284262 -1.785926 -7.041954 -2.580868 -5.45 2 -5.45 2 -7.041954 -2.580868 -6.713184 -3.344122 -5.45 2 -6.713184 -3.344122 -6.30199 -4.066317 -6.30199 -4.066317 -5.813417 -4.738584 -5.45 2 -5.45 2 -5.813417 -4.738584 -5.253468 -5.35267 -5.45 2 -5.253468 -5.35267 5.253468 -5.35267 5.253468 -5.35267 -5.253468 -5.35267 4.629014 -5.901036 4.629014 -5.901036 -5.253468 -5.35267 -4.629014 -5.901036 4.629014 -5.901036 -4.629014 -5.901036 3.947726 -6.376947 3.947726 -6.376947 -4.629014 -5.901036 -3.947726 -6.376947 3.947726 -6.376947 -3.947726 -6.376947 3.217967 -6.774562 3.217967 -6.774562 -3.947726 -6.376947 -3.217967 -6.774562 3.217967 -6.774562 -3.217967 -6.774562 2.448697 -7.088997 2.448697 -7.088997 -3.217967 -6.774562 -2.448697 -7.088997 2.448697 -7.088997 -2.448697 -7.088997 1.649361 -7.316393 1.649361 -7.316393 -2.448697 -7.088997 -1.649361 -7.316393 1.649361 -7.316393 -1.649361 -7.316393 0.829775 -7.453957 0.829775 -7.453957 -1.649361 -7.316393 -0.829775 -7.453957 0.829775 -7.453957 -0.829775 -7.453957 0 -7.5 -5.45 2 5.253468 -5.35267 5.45 2 5.45 2 5.253468 -5.35267 5.813417 -4.738584 5.45 2 5.813417 -4.738584 6.30199 -4.066317 6.30199 -4.066317 6.713184 -3.344122 5.45 2 5.45 2 6.713184 -3.344122 7.041954 -2.580868 5.45 2 7.041954 -2.580868 7.284262 -1.785926 7.284262 -1.785926 7.437132 -0.969056 5.45 2 5.45 2 7.437132 -0.969056 7.498688 -0.1402879 5.45 2 7.498688 -0.1402879 7.468174 0.690203 7.468174 0.690203 7.345964 1.512219 5.45 2 5.45 2 7.345964 1.512219 7.13356 2.315669 5.45 2 7.13356 2.315669 6.833569 3.090686 6.833569 3.090686 6.449674 3.827754 5.45 2 5.45 2 6.449674 3.827754 5.986589 4.517826 5.45 2 5.986589 4.517826 5.45 5.152427 2.454822 -0.473128 2.5 0 -1.637152 -1.889374 -1.637152 -1.889374 2.5 0 2.454822 0.473128 -1.637152 -1.889374 2.454822 0.473128 -1.965133 -1.545398 -1.965133 -1.545398 2.454822 0.473128 2.32092 0.929156 -1.965133 -1.545398 2.32092 0.929156 2.103134 1.351602 2.103134 1.351602 1.809335 1.725198 -1.965133 -1.545398 -1.965133 -1.545398 1.809335 1.725198 1.450142 2.03644 -1.965133 -1.545398 1.450142 2.03644 1.038538 2.27408 1.038538 2.27408 0.589397 2.429529 -1.965133 -1.545398 -1.965133 -1.545398 0.589397 2.429529 0.118955 2.497168 -1.965133 -1.545398 0.118955 2.497168 -0.355787 2.474554 -0.355787 2.474554 -0.81767 2.362502 -1.965133 -1.545398 -1.965133 -1.545398 -0.81767 2.362502 -1.25 2.165064 -1.965133 -1.545398 -1.25 2.165064 -1.637152 1.889374 -1.637152 1.889374 -1.965133 1.545398 -1.965133 -1.545398 -1.965133 -1.545398 -1.965133 1.545398 -2.222089 -1.145566 -2.222089 -1.145566 -1.965133 1.545398 -2.222089 1.145566 -2.222089 -1.145566 -2.222089 1.145566 -2.398732 -0.704331 -2.398732 -0.704331 -2.222089 1.145566 -2.398732 0.704331 -2.398732 -0.704331 -2.398732 0.704331 -2.48868 -0.23764 -2.48868 -0.23764 -2.398732 0.704331 -2.48868 0.23764 -1.25 -2.165064 1.450142 -2.03644 -1.637152 -1.889374 -1.637152 -1.889374 1.450142 -2.03644 1.809335 -1.725198 -1.637152 -1.889374 1.809335 -1.725198 2.103134 -1.351602 1.450142 -2.03644 -1.25 -2.165064 1.038538 -2.27408 1.038538 -2.27408 -1.25 -2.165064 -0.81767 -2.362502 1.038538 -2.27408 -0.81767 -2.362502 0.589397 -2.429529 0.589397 -2.429529 -0.81767 -2.362502 -0.355787 -2.474554 0.589397 -2.429529 -0.355787 -2.474554 0.118955 -2.497168 2.103134 -1.351602 2.32092 -0.929156 -1.637152 -1.889374 -1.637152 -1.889374 2.32092 -0.929156 2.454822 -0.473128</float_array>
          <technique_common>
            <accessor source="#EMROX-Argo_INESC_TEC_Plattform_Radträger_V1_02_001-mesh-map-0-array" count="1308" stride="2">
              <param name="S" type="float"/>
              <param name="T" type="float"/>
            </accessor>
          </technique_common>
        </source>
        <vertices id="EMROX-Argo_INESC_TEC_Plattform_Radträger_V1_02_001-mesh-vertices">
          <input semantic="POSITION" source="#EMROX-Argo_INESC_TEC_Plattform_Radträger_V1_02_001-mesh-positions"/>
        </vertices>
        <triangles material="_53_153_153_003-material" count="101">
          <input semantic="VERTEX" source="#EMROX-Argo_INESC_TEC_Plattform_Radträger_V1_02_001-mesh-vertices" offset="0"/>
          <input semantic="NORMAL" source="#EMROX-Argo_INESC_TEC_Plattform_Radträger_V1_02_001-mesh-normals" offset="1"/>
          <input semantic="TEXCOORD" source="#EMROX-Argo_INESC_TEC_Plattform_Radträger_V1_02_001-mesh-map-0" offset="2" set="0"/>
          <p>192 0 0 150 0 1 193 0 2 193 1 3 150 1 4 145 1 5 193 0 6 145 0 7 170 0 8 170 2 9 145 2 10 141 2 11 170 0 12 141 0 13 137 0 14 188 3 15 140 3 16 192 3 17 192 4 18 140 4 19 144 4 20 192 5 21 144 5 22 149 5 23 140 0 24 188 0 25 136 0 26 136 6 27 188 6 28 186 6 29 136 7 30 186 7 31 181 7 32 181 8 33 178 8 34 136 8 35 136 0 36 178 0 37 128 0 38 128 9 39 178 9 40 172 9 41 128 10 42 172 10 43 162 10 44 162 11 45 172 11 46 166 11 47 162 12 48 166 12 49 164 12 50 58 0 51 112 0 52 162 0 53 162 13 54 112 13 55 116 13 56 162 14 57 116 14 58 124 14 59 56 0 60 54 0 61 58 0 62 58 11 63 54 11 64 48 11 65 58 0 66 48 0 67 92 0 68 92 15 69 48 15 70 42 15 71 92 16 72 42 16 73 88 16 74 88 17 75 42 17 76 39 17 77 88 18 78 39 18 79 80 18 80 80 19 81 39 19 82 34 19 83 80 20 84 34 20 85 32 20 86 32 0 87 29 0 88 80 0 89 80 0 90 29 0 91 76 0 92 76 21 93 29 21 94 72 21 95 72 0 96 29 0 97 64 0 98 64 0 99 29 0 100 65 0 101 65 0 102 29 0 103 30 0 104 65 0 105 30 0 106 73 0 107 73 0 108 30 0 109 77 0 110 77 22 111 30 22 112 49 22 113 77 0 114 49 0 115 81 0 116 81 0 117 49 0 118 89 0 119 89 23 120 49 23 121 93 23 122 93 24 123 49 24 124 101 24 125 101 25 126 49 25 127 105 25 128 105 26 129 49 26 130 113 26 131 113 0 132 49 0 133 170 0 134 113 0 135 170 0 136 117 0 137 117 0 138 170 0 139 125 0 140 125 0 141 170 0 142 129 0 143 129 0 144 170 0 145 137 0 146 149 0 147 156 0 148 192 0 149 192 27 150 156 27 151 150 27 152 92 0 153 100 0 154 58 0 155 58 28 156 100 28 157 104 28 158 58 29 159 104 29 160 112 29 161 124 0 162 128 0 163 162 0 164 190 30 165 189 30 166 191 30 167 191 30 168 189 30 169 192 30 170 191 30 171 192 30 172 193 30 173 192 31 174 189 32 175 188 33 176 188 33 177 189 32 178 187 34 179 188 33 180 187 34 181 186 35 182 186 35 183 187 34 184 185 36 185 186 35 186 185 36 187 181 37 188 181 37 189 185 36 190 180 38 191 181 37 192 180 38 193 178 39 194 178 39 195 180 38 196 177 40 197 177 41 198 171 41 199 178 41 200 178 42 201 171 42 202 172 42 203 172 43 204 171 44 205 166 45 206 166 45 207 171 44 208 165 46 209 166 45 210 165 46 211 164 47 212 164 47 213 165 46 214 163 48 215 164 47 216 163 48 217 162 49 218 162 49 219 163 48 220 161 50 221 161 51 222 57 51 223 162 51 224 162 51 225 57 51 226 58 51 227 58 52 228 57 53 229 56 54 230 56 54 231 57 53 232 55 55 233 56 54 234 55 55 235 54 56 236 54 56 237 55 55 238 53 57 239 54 56 240 53 57 241 48 58 242 48 58 243 53 57 244 47 59 245 47 60 246 41 60 247 48 60 248 48 61 249 41 61 250 42 61 251 42 62 252 41 63 253 39 64 254 39 64 255 41 63 256 38 65 257 39 64 258 38 65 259 34 66 260 34 66 261 38 65 262 33 67 263 34 66 264 33 67 265 32 68 266 32 68 267 33 67 268 31 69 269 32 68 270 31 69 271 29 70 272 29 70 273 31 69 274 26 71 275 27 72 276 28 72 277 26 72 278 26 72 279 28 72 280 29 72 281 29 72 282 28 72 283 30 72 284 170 73 285 173 73 286 193 73 287 193 73 288 173 73 289 179 73 290 193 73 291 179 73 292 191 73 293 28 73 294 40 73 295 30 73 296 30 73 297 40 73 298 46 73 299 30 73 300 46 73 301 49 73 302</p>
        </triangles>
        <triangles material="_91_191_191_007-material" count="304">
          <input semantic="VERTEX" source="#EMROX-Argo_INESC_TEC_Plattform_Radträger_V1_02_001-mesh-vertices" offset="0"/>
          <input semantic="NORMAL" source="#EMROX-Argo_INESC_TEC_Plattform_Radträger_V1_02_001-mesh-normals" offset="1"/>
          <input semantic="TEXCOORD" source="#EMROX-Argo_INESC_TEC_Plattform_Radträger_V1_02_001-mesh-map-0" offset="2" set="0"/>
          <p>149 74 303 151 75 304 156 76 305 156 76 306 151 75 307 155 77 308 156 76 309 155 77 310 150 78 311 150 78 312 155 77 313 147 79 314 150 78 315 147 79 316 145 80 317 145 80 318 147 79 319 143 81 320 145 80 321 143 81 322 141 82 323 141 82 324 143 81 325 139 83 326 141 82 327 139 83 328 137 84 329 137 84 330 139 83 331 135 85 332 137 84 333 135 85 334 129 86 335 129 86 336 135 85 337 127 87 338 129 86 339 127 87 340 125 88 341 125 88 342 127 87 343 123 89 344 125 88 345 123 89 346 117 90 347 117 90 348 123 89 349 115 91 350 117 90 351 115 91 352 113 92 353 113 92 354 115 91 355 111 93 356 113 92 357 111 93 358 105 94 359 105 94 360 111 93 361 103 95 362 105 94 363 103 95 364 101 96 365 101 96 366 103 95 367 95 97 368 101 96 369 95 97 370 93 98 371 93 98 372 95 97 373 91 99 374 93 98 375 91 99 376 89 100 377 89 100 378 91 99 379 83 101 380 89 100 381 83 101 382 81 102 383 81 102 384 83 101 385 79 103 386 81 102 387 79 103 388 77 104 389 77 104 390 79 103 391 75 105 392 77 104 393 75 105 394 73 106 395 73 106 396 75 105 397 71 107 398 73 106 399 71 107 400 65 108 401 65 108 402 71 107 403 63 109 404 65 108 405 63 109 406 64 110 407 64 110 408 63 109 409 69 111 410 64 110 411 69 111 412 72 112 413 72 112 414 69 111 415 74 113 416 72 112 417 74 113 418 76 114 419 76 114 420 74 113 421 78 115 422 76 114 423 78 115 424 80 116 425 80 116 426 78 115 427 82 117 428 80 116 429 82 117 430 88 118 431 88 118 432 82 117 433 90 119 434 88 118 435 90 119 436 92 120 437 92 120 438 90 119 439 94 121 440 92 120 441 94 121 442 100 122 443 100 122 444 94 121 445 102 123 446 100 122 447 102 123 448 104 124 449 104 124 450 102 123 451 106 125 452 104 124 453 106 125 454 112 126 455 112 126 456 106 125 457 114 127 458 112 126 459 114 127 460 116 128 461 116 128 462 114 127 463 118 129 464 116 128 465 118 129 466 124 130 467 124 130 468 118 129 469 126 131 470 124 130 471 126 131 472 128 132 473 128 132 474 126 131 475 130 133 476 128 132 477 130 133 478 136 134 479 136 134 480 130 133 481 138 135 482 136 134 483 138 135 484 140 136 485 140 136 486 138 135 487 142 137 488 140 136 489 142 137 490 144 138 491 144 138 492 142 137 493 146 139 494 144 138 495 146 139 496 149 74 497 149 74 498 146 139 499 151 75 500 190 140 501 27 140 502 189 140 503 189 140 504 27 140 505 26 140 506 189 141 507 26 141 508 31 141 509 31 142 510 33 142 511 189 142 512 189 143 513 33 143 514 38 143 515 189 144 516 38 144 517 41 144 518 47 140 519 57 140 520 41 140 521 41 140 522 57 140 523 177 140 524 41 145 525 177 145 526 189 145 527 189 140 528 177 140 529 187 140 530 187 140 531 177 140 532 185 140 533 185 140 534 177 140 535 180 140 536 47 140 537 53 140 538 57 140 539 57 140 540 53 140 541 55 140 542 57 146 543 161 146 544 177 146 545 177 140 546 161 140 547 171 140 548 171 140 549 161 140 550 165 140 551 165 140 552 161 140 553 163 140 554 170 51 555 49 51 556 160 51 557 160 51 558 49 51 559 59 51 560 160 51 561 59 51 562 154 51 563 154 51 564 59 51 565 66 51 566 154 51 567 66 51 568 134 51 569 134 51 570 66 51 571 84 51 572 134 51 573 84 51 574 122 51 575 122 51 576 84 51 577 96 51 578 122 51 579 96 51 580 109 51 581 215 147 582 218 148 583 219 149 584 219 149 585 218 148 586 217 150 587 219 149 588 217 150 589 216 151 590 216 151 591 217 150 592 213 152 593 216 151 594 213 152 595 212 153 596 212 153 597 213 152 598 209 154 599 212 153 600 209 154 601 208 155 602 208 155 603 209 154 604 205 156 605 208 155 606 205 156 607 204 157 608 204 157 609 205 156 610 201 158 611 204 157 612 201 158 613 200 159 614 200 159 615 201 158 616 197 160 617 200 159 618 197 160 619 196 161 620 196 161 621 197 160 622 191 162 623 196 161 624 191 162 625 184 163 626 184 163 627 191 162 628 179 164 629 184 163 630 179 164 631 176 165 632 176 165 633 179 164 634 173 166 635 176 165 636 173 166 637 169 167 638 169 167 639 173 166 640 170 168 641 169 167 642 170 168 643 160 169 644 218 148 645 215 147 646 214 170 647 214 170 648 215 147 649 211 171 650 214 170 651 211 171 652 210 172 653 210 172 654 211 171 655 207 173 656 210 172 657 207 173 658 206 174 659 206 174 660 207 173 661 203 175 662 206 174 663 203 175 664 202 176 665 202 176 666 203 175 667 199 177 668 202 176 669 199 177 670 198 178 671 198 178 672 199 177 673 195 179 674 198 178 675 195 179 676 194 180 677 194 180 678 195 179 679 183 181 680 194 180 681 183 181 682 182 182 683 182 182 684 183 181 685 175 183 686 182 182 687 175 183 688 174 184 689 174 184 690 175 183 691 168 185 692 174 184 693 168 185 694 167 186 695 167 186 696 168 185 697 158 187 698 167 186 699 158 187 700 157 188 701 157 188 702 158 187 703 152 189 704 157 188 705 152 189 706 148 190 707 148 190 708 152 189 709 132 191 710 148 190 711 132 191 712 131 192 713 131 192 714 132 191 715 120 193 716 131 192 717 120 193 718 119 194 719 119 194 720 120 193 721 108 195 722 119 194 723 108 195 724 107 140 725 107 140 726 108 195 727 99 196 728 99 196 729 108 195 730 97 197 731 99 196 732 97 197 733 87 198 734 87 198 735 97 197 736 85 199 737 87 198 738 85 199 739 70 200 740 70 200 741 85 199 742 67 201 743 70 200 744 67 201 745 62 202 746 62 202 747 67 201 748 60 203 749 62 202 750 60 203 751 52 204 752 52 204 753 60 203 754 50 205 755 52 204 756 50 205 757 45 206 758 45 206 759 50 205 760 43 207 761 45 206 762 43 207 763 37 208 764 37 208 765 43 207 766 35 209 767 37 208 768 35 209 769 25 210 770 25 210 771 35 209 772 23 211 773 25 210 774 23 211 775 21 212 776 21 212 777 23 211 778 19 213 779 21 212 780 19 213 781 17 214 782 17 214 783 19 213 784 15 215 785 17 214 786 15 215 787 13 216 788 13 216 789 15 215 790 11 217 791 13 216 792 11 217 793 9 218 794 9 218 795 11 217 796 7 219 797 9 218 798 7 219 799 5 220 800 5 220 801 7 219 802 3 221 803 5 220 804 3 221 805 1 222 806 1 222 807 3 221 808 0 223 809 1 222 810 0 223 811 2 224 812 2 224 813 0 223 814 4 225 815 2 224 816 4 225 817 6 226 818 6 226 819 4 225 820 8 227 821 6 226 822 8 227 823 10 228 824 10 228 825 8 227 826 12 229 827 10 228 828 12 229 829 14 230 830 14 230 831 12 229 832 16 231 833 14 230 834 16 231 835 18 232 836 18 232 837 16 231 838 20 233 839 18 232 840 20 233 841 22 234 842 22 234 843 20 233 844 24 235 845 22 234 846 24 235 847 28 236 848 28 236 849 24 235 850 36 237 851 28 236 852 36 237 853 40 238 854 40 238 855 36 237 856 44 239 857 40 238 858 44 239 859 46 240 860 46 240 861 44 239 862 51 241 863 46 240 864 51 241 865 49 242 866 49 242 867 51 241 868 59 243 869 59 243 870 51 241 871 61 244 872 59 243 873 61 244 874 66 245 875 66 245 876 61 244 877 68 246 878 66 245 879 68 246 880 84 247 881 84 247 882 68 246 883 86 248 884 84 247 885 86 248 886 96 249 887 96 249 888 86 248 889 98 250 890 96 249 891 98 250 892 109 251 893 109 251 894 98 250 895 110 0 896 109 251 897 110 0 898 121 252 899 109 251 900 121 252 901 122 253 902 122 253 903 121 252 904 133 254 905 122 253 906 133 254 907 134 255 908 134 255 909 133 254 910 153 256 911 134 255 912 153 256 913 154 257 914 154 257 915 153 256 916 159 258 917 154 257 918 159 258 919 160 169 920 160 169 921 159 258 922 169 167 923 216 73 924 4 73 925 219 73 926 219 73 927 4 73 928 0 73 929 219 73 930 0 73 931 215 73 932 215 73 933 0 73 934 3 73 935 215 73 936 3 73 937 211 73 938 211 73 939 3 73 940 7 73 941 211 73 942 7 73 943 207 73 944 207 73 945 7 73 946 11 73 947 207 73 948 11 73 949 203 73 950 203 73 951 11 73 952 15 73 953 203 73 954 15 73 955 199 73 956 199 73 957 15 73 958 19 73 959 199 73 960 19 73 961 195 73 962 195 73 963 19 73 964 23 73 965 195 73 966 23 73 967 183 73 968 183 73 969 23 73 970 35 73 971 183 73 972 35 73 973 175 73 974 175 73 975 35 73 976 43 73 977 175 73 978 43 73 979 168 73 980 168 73 981 43 73 982 50 73 983 168 73 984 50 73 985 158 73 986 158 73 987 50 73 988 60 73 989 158 73 990 60 73 991 152 73 992 152 73 993 60 73 994 67 73 995 152 73 996 67 73 997 132 73 998 132 73 999 67 73 1000 85 73 1001 132 73 1002 85 73 1003 120 73 1004 120 73 1005 85 73 1006 97 73 1007 120 73 1008 97 73 1009 108 73 1010 4 73 1011 216 73 1012 8 73 1013 8 73 1014 216 73 1015 212 73 1016 8 73 1017 212 73 1018 12 73 1019 12 73 1020 212 73 1021 208 73 1022 12 73 1023 208 73 1024 16 73 1025 16 73 1026 208 73 1027 204 73 1028 16 73 1029 204 73 1030 20 73 1031 20 73 1032 204 73 1033 200 73 1034 20 73 1035 200 73 1036 24 73 1037 24 73 1038 200 73 1039 196 73 1040 24 73 1041 196 73 1042 36 73 1043 36 73 1044 196 73 1045 184 73 1046 36 73 1047 184 73 1048 44 73 1049 44 73 1050 184 73 1051 176 73 1052 44 73 1053 176 73 1054 51 73 1055 51 73 1056 176 73 1057 169 73 1058 51 73 1059 169 73 1060 61 73 1061 61 73 1062 169 73 1063 159 73 1064 61 73 1065 159 73 1066 68 73 1067 68 73 1068 159 73 1069 153 73 1070 68 73 1071 153 73 1072 86 73 1073 86 73 1074 153 73 1075 133 73 1076 86 73 1077 133 73 1078 98 73 1079 98 73 1080 133 73 1081 121 73 1082 98 73 1083 121 73 1084 110 73 1085 191 51 1086 197 51 1087 190 51 1088 190 51 1089 197 51 1090 201 51 1091 190 51 1092 201 51 1093 205 51 1094 205 51 1095 209 51 1096 190 51 1097 190 51 1098 209 51 1099 213 51 1100 190 51 1101 213 51 1102 217 51 1103 217 51 1104 218 51 1105 190 51 1106 190 51 1107 218 51 1108 214 51 1109 190 51 1110 214 51 1111 210 51 1112 210 51 1113 206 51 1114 190 51 1115 190 51 1116 206 51 1117 202 51 1118 190 51 1119 202 51 1120 198 51 1121 198 51 1122 194 51 1123 190 51 1124 190 51 1125 194 51 1126 182 51 1127 190 51 1128 182 51 1129 37 51 1130 37 51 1131 182 51 1132 45 51 1133 45 51 1134 182 51 1135 174 51 1136 45 51 1137 174 51 1138 52 51 1139 52 51 1140 174 51 1141 167 51 1142 52 51 1143 167 51 1144 62 51 1145 62 51 1146 167 51 1147 157 51 1148 62 51 1149 157 51 1150 70 51 1151 70 51 1152 157 51 1153 148 51 1154 70 51 1155 148 51 1156 87 51 1157 87 51 1158 148 51 1159 131 51 1160 87 51 1161 131 51 1162 99 51 1163 99 51 1164 131 51 1165 119 51 1166 99 51 1167 119 51 1168 107 51 1169 190 51 1170 37 51 1171 27 51 1172 27 51 1173 37 51 1174 25 51 1175 27 51 1176 25 51 1177 21 51 1178 21 51 1179 17 51 1180 27 51 1181 27 51 1182 17 51 1183 13 51 1184 27 51 1185 13 51 1186 9 51 1187 9 51 1188 5 51 1189 27 51 1190 27 51 1191 5 51 1192 1 51 1193 27 51 1194 1 51 1195 2 51 1196 2 51 1197 6 51 1198 27 51 1199 27 51 1200 6 51 1201 10 51 1202 27 51 1203 10 51 1204 14 51 1205 14 51 1206 18 51 1207 27 51 1208 27 51 1209 18 51 1210 22 51 1211 27 51 1212 22 51 1213 28 51 1214</p>
        </triangles>
        <triangles material="_54_254_255_004-material" count="31">
          <input semantic="VERTEX" source="#EMROX-Argo_INESC_TEC_Plattform_Radträger_V1_02_001-mesh-vertices" offset="0"/>
          <input semantic="NORMAL" source="#EMROX-Argo_INESC_TEC_Plattform_Radträger_V1_02_001-mesh-normals" offset="1"/>
          <input semantic="TEXCOORD" source="#EMROX-Argo_INESC_TEC_Plattform_Radträger_V1_02_001-mesh-map-0" offset="2" set="0"/>
          <p>103 259 1215 111 259 1216 82 259 1217 82 260 1218 111 260 1219 115 260 1220 82 0 1221 115 0 1222 90 0 1223 90 261 1224 115 261 1225 123 261 1226 90 262 1227 123 262 1228 127 262 1229 127 0 1230 135 0 1231 90 0 1232 90 263 1233 135 263 1234 139 263 1235 90 264 1236 139 264 1237 143 264 1238 143 0 1239 147 0 1240 90 0 1241 90 265 1242 147 265 1243 155 265 1244 90 266 1245 155 266 1246 151 266 1247 151 267 1248 146 267 1249 90 267 1250 90 268 1251 146 268 1252 142 268 1253 90 269 1254 142 269 1255 138 269 1256 138 0 1257 130 0 1258 90 0 1259 90 0 1260 130 0 1261 94 0 1262 94 0 1263 130 0 1264 126 0 1265 94 0 1266 126 0 1267 102 0 1268 102 270 1269 126 270 1270 118 270 1271 102 0 1272 118 0 1273 106 0 1274 106 271 1275 118 271 1276 114 271 1277 78 272 1278 79 272 1279 82 272 1280 82 0 1281 79 0 1282 83 0 1283 82 273 1284 83 273 1285 91 273 1286 79 0 1287 78 0 1288 75 0 1289 75 0 1290 78 0 1291 74 0 1292 75 0 1293 74 0 1294 71 0 1295 71 0 1296 74 0 1297 69 0 1298 71 0 1299 69 0 1300 63 0 1301 91 0 1302 95 0 1303 82 0 1304 82 274 1305 95 274 1306 103 274 1307</p>
        </triangles>
      </mesh>
    </geometry>
  </library_geometries>
  <library_visual_scenes>
    <visual_scene id="Scene" name="Scene">
      <node id="EMROX-Argo_INESC_TEC_Plattform_Radträger_V1_02_03" name="EMROX-Argo INESC TEC Plattform Radträger V1.02.03" type="NODE">
        <matrix sid="transform">-0.01 8.74228e-10 0 0 -8.74228e-10 -0.01 0 0 0 0 0.01 0 0 0 0 1</matrix>
        <instance_geometry url="#EMROX-Argo_INESC_TEC_Plattform_Radträger_V1_02_001-mesh" name="EMROX-Argo INESC TEC Plattform Radträger V1.02.03">
          <bind_material>
            <technique_common>
              <instance_material symbol="_53_153_153_003-material" target="#_53_153_153_003-material">
                <bind_vertex_input semantic="EMROX-Argo_INESC_TEC_Plattform_Radträger_V1_02_03-mesh-map-0" input_semantic="TEXCOORD" input_set="0"/>
              </instance_material>
              <instance_material symbol="_91_191_191_007-material" target="#_91_191_191_007-material">
                <bind_vertex_input semantic="EMROX-Argo_INESC_TEC_Plattform_Radträger_V1_02_03-mesh-map-0" input_semantic="TEXCOORD" input_set="0"/>
              </instance_material>
              <instance_material symbol="_54_254_255_004-material" target="#_54_254_255_004-material">
                <bind_vertex_input semantic="EMROX-Argo_INESC_TEC_Plattform_Radträger_V1_02_03-mesh-map-0" input_semantic="TEXCOORD" input_set="0"/>
              </instance_material>
            </technique_common>
          </bind_material>
        </instance_geometry>
      </node>
    </visual_scene>
  </library_visual_scenes>
  <scene>
    <instance_visual_scene url="#Scene"/>
  </scene>
</COLLADA>