<?xml version="1.0" encoding="utf-8"?>
<COLLADA xmlns="http://www.collada.org/2005/11/COLLADASchema" version="1.4.1" xmlns:xsi="http://www.w3.org/2001/XMLSchema-instance">
  <asset>
    <contributor>
      <author>Blender User</author>
      <authoring_tool>Blender 4.2.18 LTS commit date:2026-02-16, commit time:13:37, hash:d71e3422e438</authoring_tool>
    </contributor>
    <created>2026-02-25T22:38:46</created>
    <modified>2026-02-25T22:38:46</modified>
    <unit name="meter" meter="1"/>
    <up_axis>Z_UP</up_axis>
  </asset>
  <library_effects>
    <effect id="_78_0_0-effect">
      <profile_COMMON>
        <technique sid="common">
          <lambert>
            <emission>
              <color sid="emission">0 0 0 1</color>
            </emission>
            <diffuse>
              <color sid="diffuse">0.698039 0 0 1</color>
            </diffuse>
            <index_of_refraction>
              <float sid="ior">1.5</float>
            </index_of_refraction>
          </lambert>
        </technique>
      </profile_COMMON>
    </effect>
    <effect id="__0_0_001-effect">
      <profile_COMMON>
        <technique sid="common">
          <lambert>
            <emission>
              <color sid="emission">0 0 0 1</color>
            </emission>
            <diffuse>
              <color sid="diffuse">0 0 0 1</color>
            </diffuse>
            <index_of_refraction>
              <float sid="ior">1.5</float>
            </index_of_refraction>
          </lambert>
        </technique>
      </profile_COMMON>
    </effect>
    <effect id="_29_229_229-effect">
      <profile_COMMON>
        <technique sid="common">
          <lambert>
            <emission>
              <color sid="emission">0 0 0 1</color>
            </emission>
            <diffuse>
              <color sid="diffuse">0.898039 0.898039 0.898039 1</color>
            </diffuse>
            <index_of_refraction>
              <float sid="ior">1.5</float>
            </index_of_refraction>
          </lambert>
        </technique>
      </profile_COMMON>
    </effect>
    <effect id="_45_245_245-effect">
      <profile_COMMON>
        <technique sid="common">
          <lambert>
            <emission>
              <color sid="emission">0 0 0 1</color>
            </emission>
            <diffuse>
              <color sid="diffuse">0.960784 0.960784 0.960784 1</color>
            </diffuse>
            <index_of_refraction>
              <float sid="ior">1.5</float>
            </index_of_refraction>
          </lambert>
        </technique>
      </profile_COMMON>
    </effect>
    <effect id="_53_153_153-effect">
      <profile_COMMON>
        <technique sid="common">
          <lambert>
            <emission>
              <color sid="emission">0 0 0 1</color>
            </emission>
            <diffuse>
              <color sid="diffuse">0.6 0.6 0.6 1</color>
            </diffuse>
            <index_of_refraction>
              <float sid="ior">1.5</float>
            </index_of_refraction>
          </lambert>
        </technique>
      </profile_COMMON>
    </effect>
  </library_effects>
  <library_images/>
  <library_materials>
    <material id="_78_0_0-material" name="178,0,0">
      <instance_effect url="#_78_0_0-effect"/>
    </material>
    <material id="__0_0_001-material" name="0,0,0.001">
      <instance_effect url="#__0_0_001-effect"/>
    </material>
    <material id="_29_229_229-material" name="229,229,229">
      <instance_effect url="#_29_229_229-effect"/>
    </material>
    <material id="_45_245_245-material" name="245,245,245">
      <instance_effect url="#_45_245_245-effect"/>
    </material>
    <material id="_53_153_153-material" name="153,153,153">
      <instance_effect url="#_53_153_153-effect"/>
    </material>
  </library_materials>
  <library_geometries>
    <geometry id="EMROX-Argo_IPA-HN_V1_02_03_Simu_EMROX_IPA-HN_Aufbau_Dummy_V1_02-mesh" name="EMROX-Argo IPA-HN V1.02.03 Simu_EMROX IPA-HN Aufbau_Dummy V1.02">
      <mesh>
        <source id="EMROX-Argo_IPA-HN_V1_02_03_Simu_EMROX_IPA-HN_Aufbau_Dummy_V1_02-mesh-positions">
          <float_array id="EMROX-Argo_IPA-HN_V1_02_03_Simu_EMROX_IPA-HN_Aufbau_Dummy_V1_02-mesh-positions-array" count="1050">-297 397 327 -297 397 335 297 397 327 297 397 335 -307 394.3205 327 -307 394.3205 335 307 394.3205 327 307 394.3205 335 -314.3205 387 327 -314.3205 387 335 314.3205 387 327 314.3205 387 335 -317 377 327 -317 377 335 317 377 327 317 377 335 -87.5 306 791 -87.5 306 1041 -85 306 335 -85 306 791 -85 306 1041 -85 306 1538 -55 306 335 -55 306 1538 55 306 335 55 306 1538 85 306 335 85 306 791 85 306 1041 85 306 1538 87.5 306 791 87.5 306 1041 -143 276 335 -143 276 788 -140 276 788 -140 276 791 -87.5 276 791 -85 276 335 -85 276 791 -85 276 1041 -85 276 1538 -82.5 276 821 -82.5 276 1041 -74 276 1161 -74 276 1281 -55 276 335 -55 276 791 -55 276 821 -55 276 1161 -55 276 1281 -55 276 1538 55 276 335 55 276 791 55 276 821 55 276 1161 55 276 1281 55 276 1538 74 276 1161 74 276 1281 82.5 276 821 82.5 276 1041 85 276 335 85 276 791 85 276 1041 85 276 1538 87.5 276 791 140 276 788 140 276 791 143 276 335 143 276 788 -87.5 273 1041 -82.5 273 1041 82.5 273 1041 87.5 273 1041 -74 223 1161 -74 223 1281 74 223 1161 74 223 1281 -87.5 56 791 -87.5 56 824 -85 56 791 -85 56 821 -82.5 56 821 -82.5 56 824 82.5 56 821 82.5 56 824 85 56 791 85 56 821 87.5 56 791 87.5 56 824 -199 -31 941 -199 -31 961 -105 -31 791 -105 -31 941 -85 -31 791 -85 -31 821 -85 -31 941 85 -31 791 85 -31 821 85 -31 941 105 -31 791 105 -31 941 199 -31 941 199 -31 961 -301 -48 335 -301 -48 788 -143 -48 335 -143 -48 788 143 -48 335 143 -48 788 277.6033 -48 335 277.6033 -48 788 -302 -51 335 -302 -51 791 -301 -51 335 -301 -51 788 -199 -51 941 -199 -51 961 -140 -51 788 -140 -51 791 -105 -51 791 -105 -51 941 -85 -51 791 -85 -51 821 -85 -51 941 85 -51 791 85 -51 821 85 -51 941 105 -51 791 105 -51 941 140 -51 788 140 -51 791 199 -51 941 199 -51 961 277.6033 -51 335 277.6033 -51 788 302 -51 335 302 -51 791 -317 -51.63508 327 -317 -51.63508 335 317 -51.63508 327 317 -51.63508 335 -308.9545 -52.24808 335 308.9545 -52.24808 335 -312 -53.67948 791 312 -53.67948 791 -317.2831 -54.98824 327 -317.2831 -54.98824 335 317.2831 -54.98824 327 317.2831 -54.98824 335 -315.0411 -55.83655 335 315.0411 -55.83655 335 -318.1244 -58.24647 327 -318.1244 -58.24647 335 318.1244 -58.24647 327 318.1244 -58.24647 335 -319.3205 -61 791 319.3205 -61 791 -319.5 -61.31754 327 -319.5 -61.31754 335 319.5 -61.31754 327 319.5 -61.31754 335 -320.8757 -64.38861 327 320.8757 -64.38861 327 -305 -67 791 -305 -67 821 -275 -67 791 -275 -67 821 275 -67 791 275 -67 821 305 -67 791 305 -67 821 -321.7169 -67.64684 327 321.7169 -67.64684 327 -322 -71 327 -322 -71 791 322 -71 327 322 -71 791 -326 -72 327 -326 -72 788 -322 -72 327 -322 -72 788 322 -72 327 322 -72 788 326 -72 327 326 -72 788 -341 -111 760 -326 -111 760 326 -111 760 341 -111 760 -341 -113.8647 751.1832 -341 -113.8647 768.8168 -326 -113.8647 751.1832 -326 -113.8647 768.8168 326 -113.8647 751.1832 326 -113.8647 768.8168 341 -113.8647 751.1832 341 -113.8647 768.8168 -341 -121.3647 745.7342 -341 -121.3647 774.2659 -326 -121.3647 745.7342 -326 -121.3647 774.2659 326 -121.3647 745.7342 326 -121.3647 774.2659 341 -121.3647 745.7342 341 -121.3647 774.2659 -341 -130.6352 745.7342 -341 -130.6352 774.2659 -326 -130.6352 745.7342 -326 -130.6352 774.2659 326 -130.6352 745.7342 326 -130.6352 774.2659 341 -130.6352 745.7342 341 -130.6352 774.2659 -341 -138.1352 751.1832 -341 -138.1352 768.8168 -326 -138.1352 751.1832 -326 -138.1352 768.8168 326 -138.1352 751.1832 326 -138.1352 768.8168 341 -138.1352 751.1832 341 -138.1352 768.8168 -341 -141 760 -326 -141 760 326 -141 760 341 -141 760 -341 -155.6634 756.2378 -341 -155.6634 763.7623 -326 -155.6634 756.2378 -326 -155.6634 763.7623 326 -155.6634 756.2378 326 -155.6634 763.7623 341 -155.6634 756.2378 341 -155.6634 763.7623 -341 -160.5 750.4738 -341 -160.5 769.5263 -326 -160.5 750.4738 -326 -160.5 769.5263 326 -160.5 750.4738 326 -160.5 769.5263 341 -160.5 750.4738 341 -160.5 769.5263 -341 -167.9101 749.1671 -341 -167.9101 770.8329 -326 -167.9101 749.1671 -326 -167.9101 770.8329 326 -167.9101 749.1671 326 -167.9101 770.8329 341 -167.9101 749.1671 341 -167.9101 770.8329 -341 -174.4265 752.9293 -341 -174.4265 767.0706 -326 -174.4265 752.9293 -326 -174.4265 767.0706 326 -174.4265 752.9293 326 -174.4265 767.0706 341 -174.4265 752.9293 341 -174.4265 767.0706 -341 -177 760 -326 -177 760 326 -177 760 341 -177 760 -341 -183 760 -326 -183 760 326 -183 760 341 -183 760 -341 -185.8647 751.1832 -341 -185.8647 768.8168 -326 -185.8647 751.1832 -326 -185.8647 768.8168 326 -185.8647 751.1832 326 -185.8647 768.8168 341 -185.8647 751.1832 341 -185.8647 768.8168 -341 -193.3647 745.7342 -341 -193.3647 774.2659 -326 -193.3647 745.7342 -326 -193.3647 774.2659 326 -193.3647 745.7342 326 -193.3647 774.2659 341 -193.3647 745.7342 341 -193.3647 774.2659 -341 -202.6353 745.7342 -341 -202.6353 774.2659 -326 -202.6353 745.7342 -326 -202.6353 774.2659 326 -202.6353 745.7342 326 -202.6353 774.2659 341 -202.6353 745.7342 341 -202.6353 774.2659 -341 -210.1353 751.1832 -341 -210.1353 768.8168 -326 -210.1353 751.1832 -326 -210.1353 768.8168 326 -210.1353 751.1832 326 -210.1353 768.8168 341 -210.1353 751.1832 341 -210.1353 768.8168 -341 -213 760 -326 -213 760 326 -213 760 341 -213 760 -326 -380 327 -326 -380 788 -322 -380 327 -322 -380 788 322 -380 327 322 -380 788 326 -380 327 326 -380 788 -322 -382 327 -322 -382 791 322 -382 327 322 -382 791 -319.9904 -389.5 327 -319.9904 -389.5 791 319.9904 -389.5 327 319.9904 -389.5 791 -314.5 -394.9904 327 -314.5 -394.9904 791 314.5 -394.9904 327 314.5 -394.9904 791 -307 -397 327 -307 -397 791 -306 -397 327 -306 -397 788 -305 -397 791 -305 -397 821 -275 -397 791 -275 -397 821 -85 -397 791 -85 -397 821 -55 -397 791 -55 -397 821 55 -397 791 55 -397 821 85 -397 791 85 -397 821 275 -397 791 275 -397 821 305 -397 791 305 -397 821 306 -397 327 306 -397 788 307 -397 327 307 -397 791 -306 -402 327 -306 -402 788 306 -402 327 306 -402 788</float_array>
          <technique_common>
            <accessor source="#EMROX-Argo_IPA-HN_V1_02_03_Simu_EMROX_IPA-HN_Aufbau_Dummy_V1_02-mesh-positions-array" count="350" stride="3">
              <param name="X" type="float"/>
              <param name="Y" type="float"/>
              <param name="Z" type="float"/>
            </accessor>
          </technique_common>
        </source>
        <source id="EMROX-Argo_IPA-HN_V1_02_03_Simu_EMROX_IPA-HN_Aufbau_Dummy_V1_02-mesh-normals">
          <float_array id="EMROX-Argo_IPA-HN_V1_02_03_Simu_EMROX_IPA-HN_Aufbau_Dummy_V1_02-mesh-normals-array" count="1191">-1.48312e-5 -0.8090296 0.587768 9.23872e-6 -0.8090296 0.587768 1.28635e-5 -1 6.47902e-5 -9.19402e-6 -1 6.57141e-5 -1.28654e-5 -0.8090291 0.5877687 1.4829e-5 -1 6.57141e-5 -1.4829e-5 -1 -6.47902e-5 9.23872e-6 -1 -6.48498e-5 -1.36097e-4 -0.8090297 -0.5877679 -9.20892e-6 -0.809029 -0.5877687 -1.28635e-5 -1 -6.57141e-5 1.48312e-5 -0.8090291 -0.5877687 -1.48312e-5 -0.8089997 -0.5878091 9.07481e-6 -0.8089999 -0.5878089 1.29372e-5 -0.3090706 -0.9510392 -9.07481e-6 -0.309037 -0.9510501 -1.29372e-5 -0.808979 -0.5878376 1.48312e-5 -0.3090372 -0.9510501 -1.48312e-5 -0.3089988 -0.9510625 9.11951e-6 -0.3089988 -0.9510625 1.27181e-5 0.3089988 -0.9510625 -9.11951e-6 0.3089988 -0.9510625 -1.27181e-5 -0.3089988 -0.9510625 1.48312e-5 0.3089988 -0.9510625 -1.48312e-5 0.3090372 -0.9510501 9.07481e-6 0.309037 -0.9510501 1.29372e-5 0.808979 -0.5878376 -9.07481e-6 0.8089999 -0.5878089 -1.29372e-5 0.3090706 -0.9510392 1.48312e-5 0.8089997 -0.5878091 -1.48312e-5 0.8090286 -0.5877694 9.13441e-6 0.8090285 -0.5877694 1.28635e-5 1 -6.6489e-5 -9.16421e-6 1 -6.65486e-5 8.64431e-5 0.8090286 -0.5877693 1.4829e-5 1 -6.65188e-5 -1.4829e-5 1 6.65188e-5 9.16421e-6 1 6.65486e-5 -8.64431e-5 0.8090286 0.5877693 -9.13441e-6 0.8090285 0.5877694 -1.28635e-5 1 6.6489e-5 1.48312e-5 0.8090286 0.5877694 -1.4829e-5 0.8089785 0.5878382 9.17912e-6 0.8089787 0.5878382 1.26444e-5 0.3090367 0.9510501 -9.16421e-6 0.3090368 0.9510501 -1.26425e-5 0.8089786 0.5878383 1.48312e-5 0.3090368 0.9510501 -1.48312e-5 0.3089988 0.9510625 9.11951e-6 0.3089988 0.9510625 1.27181e-5 -0.3089988 0.9510625 -9.11951e-6 -0.3089988 0.9510625 -1.27181e-5 0.3089988 0.9510625 1.48312e-5 -0.3089988 0.9510625 -1.48312e-5 -0.3090368 0.9510501 9.16421e-6 -0.3090368 0.9510501 1.26425e-5 -0.8089786 0.5878383 -9.17912e-6 -0.8089787 0.5878382 -1.26444e-5 -0.3090367 0.9510501 1.4829e-5 -0.8089785 0.5878382 1 0 0 1 0 3.69206e-6 1 0 -7.38409e-6 1 0 9.66585e-6 1 0 7.38416e-6 1 0 -9.66599e-6 2.38419e-7 -0.7660595 0.6427699 2.11034e-5 -1 2.98023e-5 -1.63375e-5 -1 2.98917e-5 -2.13888e-5 -1 -2.262e-5 1.63375e-5 -1 -2.25008e-5 4.61936e-7 -0.7660643 -0.642764 -4.76837e-7 -1 -2.35736e-5 2.13888e-5 -0.7660635 -0.642765 -1.63375e-5 -0.7660635 -0.642765 -2.13887e-5 -0.766018 -0.6428191 1.63374e-5 -0.7660176 -0.6428197 3.72529e-7 -0.1737061 -0.9847975 -3.72529e-7 -0.7660285 -0.6428067 2.13888e-5 -0.1736756 -0.9848029 -1.63375e-5 -0.1736758 -0.984803 -2.1348e-5 -0.1736173 -0.9848132 1.63375e-5 -0.1736173 -0.9848132 3.27826e-7 0.4999811 -0.8660364 -3.12924e-7 -0.1736173 -0.9848132 2.1348e-5 0.499981 -0.8660364 -1.63375e-5 0.4999811 -0.8660364 -2.12665e-5 0.5000248 -0.8660112 1.63375e-5 0.5000249 -0.866011 0 0.9396844 -0.3420431 0 0.5000121 -0.8660184 2.12664e-5 0.9396796 -0.342056 -1.63374e-5 0.9396794 -0.3420566 -2.15111e-5 0.9397018 -0.3419951 1.63375e-5 0.9397018 -0.3419951 6.4075e-7 0.9397018 0.3419951 -6.4075e-7 0.9397018 -0.3419951 2.15111e-5 0.9397018 0.3419951 -1.63375e-5 0.9397018 0.3419951 -2.12665e-5 0.9396843 0.3420433 1.63375e-5 0.9396843 0.3420432 0 0.500025 0.866011 0 0.9396836 0.342045 2.12665e-5 0.5000233 0.866012 -1.63375e-5 0.5000233 0.866012 -2.13072e-5 0.4999659 0.8660451 1.63375e-5 0.4999654 0.8660455 2.08616e-7 -0.1735883 0.9848183 -2.08616e-7 0.4999822 0.8660357 2.13072e-5 -0.173617 0.9848133 -1.63375e-5 -0.1736165 0.9848134 -2.15111e-5 -0.1736752 0.984803 1.63375e-5 -0.1736751 0.9848031 7.00355e-7 -0.7660277 0.6428076 -7.00355e-7 -0.1736749 0.9848031 2.15111e-5 -0.7660279 0.6428073 -1.63375e-5 -0.7660278 0.6428074 -2.11034e-5 -0.7660642 0.6427641 1.14754e-4 -0.7660644 0.6427638 -2.38419e-7 -1 2.19345e-5 -1.48312e-5 -0.8090286 0.5877694 9.13441e-6 -0.8090285 0.5877694 1.28635e-5 -1 6.6489e-5 -9.16421e-6 -1 6.65486e-5 8.64431e-5 -0.8090286 0.5877693 1.4829e-5 -1 6.65188e-5 -1.4829e-5 -1 -6.65188e-5 9.16421e-6 -1 -6.65486e-5 -8.64431e-5 -0.8090286 -0.5877693 -9.13441e-6 -0.8090285 -0.5877694 -1.28635e-5 -1 -6.6489e-5 1.48312e-5 -0.8090286 -0.5877694 9.16421e-6 -0.3089988 -0.9510625 -9.16421e-6 0.3089988 -0.9510625 9.16421e-6 0.3089988 0.9510625 -9.16421e-6 -0.3089988 0.9510625 1 0 -7.38413e-6 1 0 3.69206e-6 1 0 7.38409e-6 1 0 -9.66588e-6 1 0 -7.38417e-6 1 0 9.66599e-6 0 0 1 0 0 -1 0 -0.7071068 0.7071068 0 -1 0 -1 0 0 0 1 0 1.48312e-5 -0.8090296 -0.587768 -9.23872e-6 -0.8090296 -0.587768 -1.28635e-5 -1 -6.47902e-5 9.19402e-6 -1 -6.57141e-5 1.28654e-5 -0.8090291 -0.5877687 -1.4829e-5 -1 -6.57141e-5 1.4829e-5 -1 6.47902e-5 -9.23872e-6 -1 6.48498e-5 1.36097e-4 -0.8090297 0.5877679 9.20892e-6 -0.809029 0.5877687 1.28635e-5 -1 6.57141e-5 -1.48312e-5 -0.8090291 0.5877687 -1 0 -3.69206e-6 -1 0 7.38417e-6 -1 0 -9.66594e-6 -1 0 -7.38408e-6 -1 0 9.6659e-6 4.76837e-7 -0.7660635 -0.6427649 -2.13888e-5 -1 -2.36929e-5 1.63375e-5 -1 -2.36034e-5 2.11034e-5 -1 2.8789e-5 -1.63375e-5 -1 2.8789e-5 2.38419e-7 -0.7660601 0.6427689 -2.38419e-7 -1 2.31266e-5 -2.11034e-5 -0.7660635 0.642765 1.63375e-5 -0.7660636 0.6427648 2.12665e-5 0.5000248 0.8660112 -1.63375e-5 0.5000249 0.866011 0 0.9396844 0.3420431 0 0.5000233 0.8660119 -2.12665e-5 0.9396836 0.342045 1.63375e-5 0.9396837 0.342045 2.12664e-5 0.9396802 -0.3420543 -1.63375e-5 0.9396801 -0.3420548 0 0.5000138 -0.8660175 0 0.9396836 -0.342045 -2.12665e-5 0.5000233 -0.866012 1.63375e-5 0.5000233 -0.866012 2.13888e-5 -0.7660642 -0.6427642 -1.14754e-4 -0.7660643 -0.6427641 -4.76837e-7 -1 -2.24113e-5 -1 0 7.38413e-6 -1 0 -3.69206e-6 -1 0 -7.38416e-6 -1 0 9.66601e-6 -1 0 7.38409e-6 -1 0 -9.66588e-6 0 -6.56487e-6 1 0 -8.099e-6 1 1 0 -1.94566e-6 1 0 6.58565e-6 1 0 -2.53538e-7 1 0 -1.76349e-7 1 0 5.03139e-7 1 0 4.53406e-6 1 0 -2.301e-5 1 0 7.54708e-7 1 0 -2.85981e-6 1 0 -1.57245e-7 1 0 -1.534e-5 -1 0 1.75365e-7 -1 0 5.03139e-7 -1 0 -1.76349e-7 -1 0 2.85982e-6 -1 0 4.53406e-6 -1 0 1.00628e-6 -1 0 -2.301e-5 0 1 0 5.76377e-5 -1 -1.24201e-5 5.74738e-5 -1 -1.73408e-5 0.499953 -0.8660526 1.71901e-5 0.4999456 -0.8660569 1.73403e-5 4.84884e-5 -1 -1.71901e-5 0.4999452 -0.8660571 1.24201e-5 0.5000527 -0.865995 -1.24201e-5 0.5000524 -0.8659953 -1.73342e-5 0.866 -0.5000442 -9.47854e-5 0.8659967 -0.5000498 1.73342e-5 0.500047 -0.8659983 -1.71901e-5 0.8659966 -0.50005 1.24201e-5 0.8660538 -0.499951 -1.24201e-5 0.8660538 -0.499951 -1.73408e-5 1 -5.5179e-5 1.71901e-5 1 -5.51641e-5 1.73408e-5 0.8660538 -0.499951 -1.71901e-5 1 -5.5179e-5 1.24201e-5 -1 -5.5179e-5 -1.24201e-5 -1 -5.51641e-5 -1.73408e-5 -0.8660538 -0.499951 1.71901e-5 -0.8660538 -0.499951 1.73408e-5 -1 -5.5179e-5 -1.71901e-5 -0.8660538 -0.499951 1.24201e-5 -0.8659966 -0.50005 -1.24201e-5 -0.8659967 -0.5000498 -1.73352e-5 -0.5000469 -0.8659984 1.71901e-5 -0.5000524 -0.8659953 1.73347e-5 -0.866 -0.5000442 -1.71901e-5 -0.5000528 -0.8659951 1.24201e-5 -0.4999452 -0.8660571 -1.24201e-5 -0.4999456 -0.8660569 -1.73403e-5 -4.84884e-5 -1 1.71901e-5 -5.74738e-5 -1 1.73408e-5 -0.499953 -0.8660526 -1.71901e-5 -5.76377e-5 -1 1.24201e-5 -0.8750218 0.4840837 4.01662e-6 -0.9437812 0.3305707 2.19047e-6 -0.8750218 0.4840837 8.65667e-7 -0.8750154 0.4840949 4.66779e-6 -0.943777 0.3305829 -5.80907e-6 -0.8660283 0.499995 -2.50617e-6 -0.8749722 0.4841732 -5.17291e-6 -0.8660075 0.500031 -8.14442e-6 -0.6520968 0.7581358 8.21412e-7 -0.6520553 0.7581715 9.10321e-6 -0.8659963 0.5000505 2.06205e-5 -0.5000524 0.8659953 -5.03729e-6 -0.6520103 0.7582102 1.12409e-5 -0.4999908 0.8660308 5.18412e-7 -0.3477815 0.9375756 -8.15571e-6 -0.347708 0.9376029 5.65389e-6 -0.499948 0.8660556 -4.75044e-6 -5.80847e-5 1 6.89179e-7 -0.3476746 0.9376153 -1.02888e-6 -5.82486e-5 1 3.23477e-7 -5.82933e-5 1 8.43566e-6 -0.8660545 0.4999496 -3.88245e-6 -0.9437813 0.3305705 2.90934e-6 -1 6.04892e-5 3.95789e-6 -1 5.1558e-5 -1.36849e-5 -0.9437831 0.3305655 -4.10061e-6 -0.9858434 0.1676691 5.14765e-6 -1 4.26471e-5 6.93015e-6 -0.9858458 0.1676546 3.46671e-5 -1 4.26397e-5 4.03566e-6 -0.8750218 0.4840837 0 -0.8750218 0.4840837 0 -0.9437812 0.3305707 0 -0.9437812 0.3305707 0 -0.8750218 0.4840837 0 -0.9437812 0.3305707 0 -0.9437808 0.3305721 0 -0.9437807 0.3305721 0 -0.9858451 0.1676588 0 -0.985845 0.1676592 0 -0.9437806 0.3305727 0 -0.985845 0.1676593 0 -0.9858459 0.1676547 0 -0.9858459 0.1676547 0 -1 4.27663e-5 0 -1 4.27663e-5 0 -0.9858459 0.1676547 0 -1 4.27663e-5 0 -1 5.71012e-5 1.24201e-5 -1 5.70938e-5 -7.09295e-6 -0.8660529 0.4999526 1.01387e-4 -0.8660528 0.4999526 7.09295e-6 -1 5.71012e-5 -1.25466e-5 -0.8660529 0.4999526 -1.24201e-5 -0.8659976 0.5000485 1.24201e-5 -0.8659976 0.5000485 -7.16746e-6 -0.5000485 0.8659976 1.23615e-5 -0.5000485 0.8659976 7.16746e-6 -0.8659976 0.5000485 -1.23615e-5 -0.5000485 0.8659976 -1.24201e-5 -0.4999526 0.8660529 1.24201e-5 -0.4999526 0.8660528 -7.09295e-6 -5.71012e-5 1 1.25466e-5 -5.70938e-5 1 7.09295e-6 -0.4999526 0.8660529 -1.01387e-4 -5.71012e-5 1 -1.24201e-5 5.71012e-5 1 1.24201e-5 5.70938e-5 1 -7.09295e-6 0.4999526 0.8660529 1.01387e-4 0.4999526 0.8660528 7.09295e-6 5.71012e-5 1 -1.25466e-5 0.4999526 0.8660529 -1.24201e-5 0.5000485 0.8659976 1.24201e-5 0.5000485 0.8659976 -7.16746e-6 0.8659976 0.5000485 1.23615e-5 0.8659976 0.5000485 7.16746e-6 0.5000485 0.8659976 -1.23615e-5 0.8659976 0.5000485 -1.24201e-5 0.8660529 0.4999526 1.24201e-5 0.8660528 0.4999526 -7.09295e-6 1 5.71012e-5 1.25466e-5 1 5.70938e-5 7.09295e-6 0.8660529 0.4999526 -1.01387e-4 1 5.71012e-5 -1.24201e-5 1 4.27663e-5 0 1 4.27663e-5 0 0.9858459 0.1676547 0 0.9858459 0.1676547 0 1 4.27663e-5 0 0.9858459 0.1676547 0 0.985845 0.1676593 0 0.985845 0.1676592 0 0.9437806 0.3305727 0 0.9437807 0.3305721 0 0.9858451 0.1676588 0 0.9437808 0.3305721 0 0.9437812 0.3305707 0 0.9437812 0.3305707 0 0.8750218 0.4840837 0 0.8750218 0.4840837 0 0.9437812 0.3305707 0 0.8750218 0.4840837 0 1 4.26471e-5 2.82125e-5 0.9858458 0.1676546 -9.66887e-7 1 4.26471e-5 4.00826e-6 1 5.15878e-5 -2.25306e-5 0.9858434 0.1676691 5.88817e-6 0.9437831 0.3305655 -2.75439e-6 1 6.05434e-5 -3.85568e-7 0.9437814 0.3305705 2.30339e-6 0.8660545 0.4999496 -1.45833e-6 0.8660282 0.4999952 2.46352e-6 0.943777 0.330583 -3.0417e-6 0.8750154 0.4840951 -1.84562e-6 0.8660075 0.5000311 -6.96327e-6 0.8749722 0.4841733 -5.36737e-6 0.6520969 0.7581358 3.75882e-6 0.9437812 0.3305707 5.90432e-6 0.8750218 0.4840837 4.03566e-6 0.8750218 0.4840837 -1.71363e-6 0.8659961 0.5000508 -2.10358e-5 0.6520554 0.7581713 -5.77193e-6 0.5000523 0.8659953 -2.53948e-6 0.4999908 0.8660308 4.86049e-7 0.6520103 0.7582101 -1.58606e-5 0.3477815 0.9375757 -6.62613e-6 0.4999479 0.8660554 -7.05698e-6 0.3477081 0.9376029 6.26559e-6 5.81204e-5 1 5.11971e-6 5.82188e-5 1 -9.59728e-7 0.3476746 0.9376153 -4.11047e-6 5.82933e-5 1 8.47566e-6 0 -2.50127e-6 1 0 9.11145e-6 1 0 -7.48856e-6 1 0 -3.96747e-5 1 0 -3.74428e-6 1 0 7.61151e-6 1 0 -2.09247e-6 -1 0 1.50745e-5 -1 0 -1.10701e-5 -1 0 -1.46865e-5 -1 0 4.70848e-6 -1 0 -2.27786e-6 -1 0 -1 0</float_array>
          <technique_common>
            <accessor source="#EMROX-Argo_IPA-HN_V1_02_03_Simu_EMROX_IPA-HN_Aufbau_Dummy_V1_02-mesh-normals-array" count="397" stride="3">
              <param name="X" type="float"/>
              <param name="Y" type="float"/>
              <param name="Z" type="float"/>
            </accessor>
          </technique_common>
        </source>
        <source id="EMROX-Argo_IPA-HN_V1_02_03_Simu_EMROX_IPA-HN_Aufbau_Dummy_V1_02-mesh-map-0">
          <float_array id="EMROX-Argo_IPA-HN_V1_02_03_Simu_EMROX_IPA-HN_Aufbau_Dummy_V1_02-mesh-map-0-array" count="4224">1.5 0.942478 0 0.942478 1.5 0 1.5 0 0 0.942478 0 0 1.5 0 0 0 1.5 -0.942478 1.5 -0.942478 0 0 0 -0.942478 1.5 -0.942478 0 -0.942478 1.5 -1.884956 1.5 -1.884956 0 -0.942478 0 -1.884956 1.5 -1.884956 0 -1.884956 1.5 -2.827434 1.5 -2.827434 0 -1.884956 0 -2.827434 1.5 -2.827434 0 -2.827434 1.5 -3.769911 1.5 -3.769911 0 -2.827434 0 -3.769911 1.5 -3.769911 0 -3.769911 1.5 -4.712389 1.5 -4.712389 0 -3.769911 0 -4.712389 1.5 4.712389 0 4.712389 1.5 3.769911 1.5 3.769911 0 4.712389 0 3.769911 1.5 3.769911 0 3.769911 1.5 2.827434 1.5 2.827434 0 3.769911 0 2.827434 1.5 2.827434 0 2.827434 1.5 1.884956 1.5 1.884956 0 2.827434 0 1.884956 1.5 1.884956 0 1.884956 1.5 0.942478 1.5 0.942478 0 1.884956 0 0.942478 -0.881678 1.213526 0 -1.5 0 1.5 0 1.5 0 -1.5 0.881678 -1.213526 0 1.5 0.881678 -1.213526 0.881678 1.213526 0.881678 1.213526 0.881678 -1.213526 1.426585 -0.463526 0.881678 1.213526 1.426585 -0.463526 1.426585 0.463526 0 -1.5 -0.881678 1.213526 -0.881678 -1.213526 -0.881678 -1.213526 -0.881678 1.213526 -1.426585 0.463526 -0.881678 -1.213526 -1.426585 0.463526 -1.426585 -0.463526 1.5 0.767945 0 0 1.5 0 1.5 0 0 0 0 -0.767945 1.5 0 0 -0.767945 1.5 -0.767945 1.5 -0.767945 0 -0.767945 0 -1.53589 1.5 -0.767945 0 -1.53589 1.5 -1.53589 1.5 -1.53589 0 -1.53589 0 -2.303835 1.5 -1.53589 0 -2.303835 1.5 -2.303835 1.5 -2.303835 0 -2.303835 0 -3.07178 1.5 -2.303835 0 -3.07178 1.5 -3.071779 1.5 3.839725 0 3.839725 0 3.071779 1.5 3.839725 0 3.071779 1.5 3.071779 1.5 3.071779 0 3.071779 0 2.303835 1.5 3.071779 0 2.303835 1.5 2.303835 1.5 2.303835 0 2.303835 0 1.53589 1.5 2.303835 0 1.53589 1.5 1.53589 1.5 1.53589 0 1.53589 0 0.767945 1.5 1.53589 0 0.767945 1.5 0.767945 1.5 0.767945 0 0.767945 0 0 0 1.1 -0.707066 0.842649 0.707066 0.842649 0.707066 0.842649 -0.707066 0.842649 1.083289 0.191013 1.083289 0.191013 -0.707066 0.842649 -1.083289 0.191013 1.083289 0.191013 -1.083289 0.191013 0.952628 -0.55 0.952628 -0.55 -1.083289 0.191013 -0.952628 -0.55 0.952628 -0.55 -0.952628 -0.55 0.376222 -1.033662 0.376222 -1.033662 -0.952628 -0.55 -0.376222 -1.033662 1.5 0.942478 0 0.942478 1.5 0 1.5 0 0 0.942478 0 0 1.5 0 0 0 1.5 -0.942478 1.5 -0.942478 0 0 0 -0.942478 1.5 -0.942478 0 -0.942478 1.5 -1.884956 1.5 -1.884956 0 -0.942478 0 -1.884956 1.5 -1.884956 0 -1.884956 1.5 -2.827434 1.5 -2.827434 0 -1.884956 0 -2.827434 1.5 -2.827434 0 -2.827434 1.5 -3.769911 1.5 -3.769911 0 -2.827434 0 -3.769911 1.5 -3.769911 0 -3.769911 1.5 -4.712389 1.5 -4.712389 0 -3.769911 0 -4.712389 1.5 4.712389 0 4.712389 1.5 3.769911 1.5 3.769911 0 4.712389 0 3.769911 1.5 3.769911 0 3.769911 1.5 2.827434 1.5 2.827434 0 3.769911 0 2.827434 1.5 2.827434 0 2.827434 1.5 1.884956 1.5 1.884956 0 2.827434 0 1.884956 1.5 1.884956 0 1.884956 1.5 0.942478 1.5 0.942478 0 1.884956 0 0.942478 -0.881678 1.213526 0 -1.5 0 1.5 0 1.5 0 -1.5 0.881678 -1.213526 0 1.5 0.881678 -1.213526 0.881678 1.213526 0.881678 1.213526 0.881678 -1.213526 1.426585 -0.463526 0.881678 1.213526 1.426585 -0.463526 1.426585 0.463526 0 -1.5 -0.881678 1.213526 -0.881678 -1.213526 -0.881678 -1.213526 -0.881678 1.213526 -1.426585 0.463526 -0.881678 -1.213526 -1.426585 0.463526 -1.426585 -0.463526 -12.5 -12.5 12.5 -12.5 -12.5 -9.5 -12.5 -9.5 12.5 -12.5 12.5 -9.2 -12.5 -9.5 12.5 -9.2 -9.2 12.5 -9.2 12.5 -12.5 12.5 -12.5 -9.5 -0.3 -0.25 0 -0.25 -0.3 0 -0.3 0 0 -0.25 0 0.25 -0.3 0 0 0.25 -3.3 0.25 -3.3 0.25 -3.3 0 -0.3 0 -3 0 0 0 -3 0.25 -3 0.25 0 0 0 0.25 -30.68844 -0.25 0 -0.25 -30.68844 0.25 -30.68844 0.25 0 -0.25 0 0.25 -3 -0.25 -3 0 -3.3 -0.25 -3.3 -0.25 -3 0 -3.3 0.25 -3.3 0.25 -3 0 0 0.25 0 0.25 -3 0 0 0 -12.5 -9.5 9.5 -9.5 -12.5 -9.2 -12.5 -9.2 9.5 -9.5 9.2 12.5 9.2 12.5 9.5 -9.5 9.5 12.5 0 0 3 0 0 45.6 0 45.6 3 0 0 70.6 0 45.6 0 70.6 -0.25 70.6 3 0 3 120.3 0 70.6 0 70.6 3 120.3 0 120.3 -0.25 70.6 -0.25 45.6 0 45.6 3 45.6 0 45.6 3 0 3 0 0 45.6 0 0 -33.65 1.25 -33.65 -1.5 -11.65 1.25 -11.65 1.25 -33.65 -1.5 33.65 -1.5 -11.65 1.25 33.65 -1.5 -0.95 1.5 -0.95 1.5 33.65 -1.5 33.65 1.5 -0.95 1.5 -2.95 1.5 -11.65 1.25 -11.65 1.25 -2.95 1.5 -11.65 1.5 0 70.6 3 70.6 0 120.3 0 120.3 3 70.6 3 120.3 -33.65 -1.25 -11.65 -1.25 -33.65 1.5 -33.65 1.5 -11.65 -1.25 33.65 1.5 33.65 1.5 -11.65 -1.25 -0.95 -1.5 33.65 1.5 -0.95 -1.5 33.65 -1.5 -11.65 -1.5 -2.95 -1.5 -11.65 -1.25 -11.65 -1.25 -2.95 -1.5 -0.95 -1.5 -1.5 -0.942478 0 -0.942478 -1.5 0 -1.5 0 0 -0.942478 0 0 -1.5 0 0 0 -1.5 0.942478 -1.5 0.942478 0 0 0 0.942478 -1.5 0.942478 0 0.942478 -1.5 1.884956 -1.5 1.884956 0 0.942478 0 1.884956 -1.5 1.884956 0 1.884956 -1.5 2.827434 -1.5 2.827434 0 1.884956 0 2.827434 -1.5 2.827434 0 2.827434 -1.5 3.769911 -1.5 3.769911 0 2.827434 0 3.769911 -1.5 3.769911 0 3.769911 -1.5 4.712389 -1.5 4.712389 0 3.769911 0 4.712389 -1.5 -4.712389 0 -4.712389 -1.5 -3.769911 -1.5 -3.769911 0 -4.712389 0 -3.769911 -1.5 -3.769911 0 -3.769911 -1.5 -2.827434 -1.5 -2.827434 0 -3.769911 0 -2.827434 -1.5 -2.827434 0 -2.827434 -1.5 -1.884956 -1.5 -1.884956 0 -2.827434 0 -1.884956 -1.5 -1.884956 0 -1.884956 -1.5 -0.942478 -1.5 -0.942478 0 -1.884956 0 -0.942478 -0.881678 1.213526 0 -1.5 0 1.5 0 1.5 0 -1.5 0.881678 -1.213526 0 1.5 0.881678 -1.213526 0.881678 1.213526 0.881678 1.213526 0.881678 -1.213526 1.426585 -0.463526 0.881678 1.213526 1.426585 -0.463526 1.426585 0.463526 0 -1.5 -0.881678 1.213526 -0.881678 -1.213526 -0.881678 -1.213526 -0.881678 1.213526 -1.426585 0.463526 -0.881678 -1.213526 -1.426585 0.463526 -1.426585 -0.463526 -1.5 -0.767945 0 0 -1.5 0 -1.5 0 0 0 0 0.767945 -1.5 0 0 0.767945 -1.5 0.767945 -1.5 0.767945 0 0.767945 0 1.53589 -1.5 0.767945 0 1.53589 -1.5 1.53589 -1.5 1.53589 0 1.53589 0 2.303835 -1.5 1.53589 0 2.303835 -1.5 2.303835 -1.5 2.303835 0 2.303835 0 3.07178 -1.5 2.303835 0 3.07178 -1.5 3.071779 -1.5 -3.839725 0 -3.839725 0 -3.071779 -1.5 -3.839725 0 -3.071779 -1.5 -3.071779 -1.5 -3.071779 0 -3.071779 0 -2.303835 -1.5 -3.071779 0 -2.303835 -1.5 -2.303835 -1.5 -2.303835 0 -2.303835 0 -1.53589 -1.5 -2.303835 0 -1.53589 -1.5 -1.53589 -1.5 -1.53589 0 -1.53589 0 -0.767945 -1.5 -1.53589 0 -0.767945 -1.5 -0.767945 -1.5 -0.767945 0 -0.767945 0 0 0 1.1 -0.707066 0.842649 0.707066 0.842649 0.707066 0.842649 -0.707066 0.842649 1.083289 0.191013 1.083289 0.191013 -0.707066 0.842649 -1.083289 0.191013 1.083289 0.191013 -1.083289 0.191013 0.952628 -0.55 0.952628 -0.55 -1.083289 0.191013 -0.952628 -0.55 0.952628 -0.55 -0.952628 -0.55 0.376222 -1.033662 0.376222 -1.033662 -0.952628 -0.55 -0.376222 -1.033662 -1.5 -0.942478 0 -0.942478 -1.5 0 -1.5 0 0 -0.942478 0 0 -1.5 0 0 0 -1.5 0.942478 -1.5 0.942478 0 0 0 0.942478 -1.5 0.942478 0 0.942478 -1.5 1.884956 -1.5 1.884956 0 0.942478 0 1.884956 -1.5 1.884956 0 1.884956 -1.5 2.827434 -1.5 2.827434 0 1.884956 0 2.827434 -1.5 2.827434 0 2.827434 -1.5 3.769911 -1.5 3.769911 0 2.827434 0 3.769911 -1.5 3.769911 0 3.769911 -1.5 4.712389 -1.5 4.712389 0 3.769911 0 4.712389 -1.5 -4.712389 0 -4.712389 -1.5 -3.769911 -1.5 -3.769911 0 -4.712389 0 -3.769911 -1.5 -3.769911 0 -3.769911 -1.5 -2.827434 -1.5 -2.827434 0 -3.769911 0 -2.827434 -1.5 -2.827434 0 -2.827434 -1.5 -1.884956 -1.5 -1.884956 0 -2.827434 0 -1.884956 -1.5 -1.884956 0 -1.884956 -1.5 -0.942478 -1.5 -0.942478 0 -1.884956 0 -0.942478 -0.881678 1.213526 0 -1.5 0 1.5 0 1.5 0 -1.5 0.881678 -1.213526 0 1.5 0.881678 -1.213526 0.881678 1.213526 0.881678 1.213526 0.881678 -1.213526 1.426585 -0.463526 0.881678 1.213526 1.426585 -0.463526 1.426585 0.463526 0 -1.5 -0.881678 1.213526 -0.881678 -1.213526 -0.881678 -1.213526 -0.881678 1.213526 -1.426585 0.463526 -0.881678 -1.213526 -1.426585 0.463526 -1.426585 -0.463526 0.3 -0.25 0.3 0 0 -0.25 0 -0.25 0.3 0 0 0.25 0 0.25 0.3 0 3.3 0.25 3.3 0.25 0.3 0 3.3 0 0 0 3 0 0 0.25 0 0.25 3 0 3 0.25 12.5 -9.5 12.5 -9.2 -9.5 -9.5 -9.5 -9.5 12.5 -9.2 -9.2 12.5 -9.5 -9.5 -9.2 12.5 -9.5 12.5 30.68844 0.25 0 0.25 30.68844 -0.25 30.68844 -0.25 0 0.25 0 -0.25 3 -0.25 3.3 -0.25 3 0 3 0 3.3 -0.25 3.3 0.25 3 0 3.3 0.25 0 0.25 0 0.25 0 0 3 0 9.2 12.5 -12.5 -9.2 12.5 -9.5 12.5 -9.5 -12.5 -9.2 -12.5 -12.5 12.5 -9.5 -12.5 -12.5 12.5 -12.5 12.5 -9.5 12.5 12.5 9.2 12.5 -32.7 48.6 -67.30001 48.6 -32.7 45.6 -32.7 45.6 -67.30001 48.6 -67.30001 45.6 0.55 8.5 35.15 8.5 0.55 10.5 0.55 10.5 35.15 8.5 0.55 14 0.55 10.5 0.55 14 -1.45 10.5 -1.45 10.5 0.55 14 -10.15 8.75 -1.45 10.5 -10.15 8.75 -1.45 8.5 -1.45 8.5 -10.15 8.75 -10.15 8.5 35.15 8.5 35.15 27.5 0.55 14 0.55 14 35.15 27.5 2.15 27.5 0.55 14 2.15 27.5 0.55 30.2 0.55 30.2 2.15 27.5 2.15 30.5 0.55 30.2 2.15 30.5 0.817949 31.2 0.817949 31.2 2.15 30.5 1.55 31.93205 1.55 31.93205 2.15 30.5 2.55 32.2 2.55 32.2 2.15 30.5 33.65 32.2 33.65 32.2 2.15 30.5 35.15 30.5 33.65 32.2 35.15 30.5 35.15 30.7 35.15 30.7 34.94904 31.45 33.65 32.2 33.65 32.2 34.94904 31.45 34.4 31.99904 0.55 14 -32.15 14 -10.15 8.75 -10.15 8.75 -32.15 14 -32.15 8.75 -1.45 -8.5 -10.15 -8.75 -1.45 -10.5 -1.45 -10.5 -10.15 -8.75 0.55 -14 -1.45 -10.5 0.55 -14 0.55 -10.5 0.55 -10.5 0.55 -14 35.15 -8.5 0.55 -10.5 35.15 -8.5 0.55 -8.5 -1.45 -8.5 -10.15 -8.5 -10.15 -8.75 -32.15 -8.75 -32.15 -14 -10.15 -8.75 -10.15 -8.75 -32.15 -14 0.55 -14 0.55 -30.2 2.15 -27.5 0.55 -14 0.55 -14 2.15 -27.5 35.15 -27.5 0.55 -14 35.15 -27.5 35.15 -8.5 2.15 -27.5 0.55 -30.2 2.15 -30.5 2.15 -30.5 0.55 -30.2 0.817949 -31.2 2.15 -30.5 0.817949 -31.2 1.55 -31.93205 1.55 -31.93205 2.55 -32.2 2.15 -30.5 2.15 -30.5 2.55 -32.2 33.65 -32.2 2.15 -30.5 33.65 -32.2 35.15 -30.5 35.15 -30.5 33.65 -32.2 35.15 -30.7 35.15 -30.7 33.65 -32.2 34.94904 -31.45 34.94904 -31.45 33.65 -32.2 34.4 -31.99904 3 45.6 0 45.6 3 0 3 0 0 45.6 0 0 33.7 48.6 25 48.6 33.7 45.6 33.7 45.6 25 48.6 25 45.6 0 0 3 0 0 3 0 3 3 0 3 3 0 0 33 0 0 3 0 3 33 0 33 3 0 0 33 0 0 3 0 3 33 0 33 3 -16.5 -1.5 16.5 -1.5 -16.5 1.5 -16.5 1.5 16.5 -1.5 16.5 1.5 0 0 3 0 0 3 0 3 3 0 3 3 0 0 33 0 0 3 0 3 33 0 33 3 0 0 33 0 0 3 0 3 33 0 33 3 -16.5 -1.5 16.5 -1.5 -16.5 1.5 -16.5 1.5 16.5 -1.5 16.5 1.5 3 0 3 45.6 0 0 0 0 3 45.6 3 48.6 0 0 3 48.6 0 120.3 0 120.3 3 48.6 3 82.6 0 120.3 3 82.6 3 94.6 3 45.6 70.30001 45.6 3 48.6 3 48.6 70.30001 45.6 70.30001 48.6 3 94.6 3 120.3 0 120.3 0 0 3 0 0 45.6 0 45.6 3 0 0 48.6 0 45.6 0 48.6 -67.30001 48.6 3 0 3 120.3 0 48.6 0 48.6 3 120.3 0 82.6 0 82.6 3 120.3 0 94.6 0 94.6 3 120.3 0 120.3 -67.30001 48.6 -67.30001 45.6 0 45.6 -32.15 -5.5 35.15 -5.5 -32.15 5.5 -32.15 5.5 35.15 -5.5 35.15 5.5 1.5 1.5 -1.5 1.5 1.5 -1.5 1.5 -1.5 -1.5 1.5 -1.5 -1.5 -1.5 -1.5 1.5 -1.5 -1.5 1.5 -1.5 1.5 1.5 -1.5 1.5 1.5 0 0 0.5 0 0 46.1 0 46.1 0.5 0 0.5 46.1 0 0 61.2 0 0 46.1 0 46.1 61.2 0 61.2 46.1 0 0 0.5 0 0 46.1 0 46.1 0.5 0 0.5 46.1 -0.25 -30.6 0.25 -30.6 -0.25 30.6 -0.25 30.6 0.25 -30.6 0.25 30.6 0 0 0.4 0 0 46.1 0 46.1 0.4 0 0.4 46.1 24.18647 44.18168 22.43366 43.67622 23.9 43.3 23.9 43.3 22.43366 43.67622 22.43366 42.92378 23.9 43.3 22.43366 42.92378 24.18647 42.41832 24.18647 42.41832 22.43366 42.92378 21.95 42.34737 24.18647 42.41832 21.95 42.34737 24.93647 41.87342 24.93647 41.87342 21.95 42.34737 21.20899 42.21671 24.93647 41.87342 21.20899 42.21671 30.8 0 30.8 0 21.20899 42.21671 18.66353 41.87342 30.8 0 18.66353 41.87342 17.73648 41.87342 22.43366 43.67622 24.18647 44.18168 21.95 44.25263 21.95 44.25263 24.18647 44.18168 24.93647 44.72658 21.95 44.25263 24.93647 44.72658 21.20899 44.38329 21.20899 44.38329 24.93647 44.72658 18.66353 44.72658 21.20899 44.38329 18.66353 44.72658 19.41353 44.18168 18.66353 44.72658 24.93647 44.72658 30.8 46.1 30.8 46.1 24.93647 44.72658 25.86353 44.72658 30.8 46.1 25.86353 44.72658 26.61353 44.18168 26.61353 44.18168 26.9 43.3 30.8 46.1 30.8 46.1 26.9 43.3 26.61353 42.41832 30.8 46.1 26.61353 42.41832 30.8 0 30.8 0 26.61353 42.41832 25.86353 41.87342 30.8 0 25.86353 41.87342 24.93647 41.87342 20.55735 44.00706 19.41353 44.18168 20.3 43.3 20.3 43.3 19.41353 44.18168 19.7 43.3 20.3 43.3 19.7 43.3 19.41353 42.41832 20.55735 44.00706 21.20899 44.38329 19.41353 44.18168 18.66353 41.87342 21.20899 42.21671 19.41353 42.41832 19.41353 42.41832 21.20899 42.21671 20.55735 42.59293 19.41353 42.41832 20.55735 42.59293 20.3 43.3 16.98648 42.41832 16.7 43.3 0 46.1 0 46.1 16.7 43.3 16.98648 44.18168 0 46.1 16.98648 44.18168 17.73648 44.72658 0 46.1 17.73648 44.72658 30.8 46.1 30.8 46.1 17.73648 44.72658 18.66353 44.72658 30.8 0 17.73648 41.87342 0 0 0 0 17.73648 41.87342 16.98648 42.41832 0 0 16.98648 42.41832 0 46.1 0 0 0.4 0 0 46.1 0 46.1 0.4 0 0.4 46.1 15.4 0.2 -15.4 0.2 15.4 -0.2 15.4 -0.2 -15.4 0.2 -15.4 -0.2 0 0 0.4 0 0 46.1 0 46.1 0.4 0 0.4 46.1 13.81352 44.18168 14.1 43.3 30.8 46.1 30.8 46.1 14.1 43.3 13.81352 42.41832 30.8 46.1 13.81352 42.41832 30.8 0 30.8 0 13.81352 42.41832 13.06352 41.87342 30.8 0 13.06352 41.87342 0 0 0 0 13.06352 41.87342 12.13647 41.87342 0 0 12.13647 41.87342 9.591013 42.21671 9.591013 42.21671 12.13647 41.87342 11.38647 42.41832 9.591013 42.21671 11.38647 42.41832 10.24265 42.59293 10.24265 42.59293 11.38647 42.41832 10.5 43.3 10.5 43.3 11.38647 42.41832 11.1 43.3 10.5 43.3 11.1 43.3 11.38647 44.18168 12.13647 44.72658 9.591013 44.38329 11.38647 44.18168 11.38647 44.18168 9.591013 44.38329 10.24265 44.00706 11.38647 44.18168 10.24265 44.00706 10.5 43.3 13.06352 44.72658 0 46.1 12.13647 44.72658 12.13647 44.72658 0 46.1 5.863525 44.72658 12.13647 44.72658 5.863525 44.72658 9.591013 44.38329 9.591013 44.38329 5.863525 44.72658 8.850001 44.25263 8.850001 44.25263 5.863525 44.72658 6.613525 44.18168 8.850001 44.25263 6.613525 44.18168 8.366338 43.67622 8.366338 43.67622 6.613525 44.18168 6.9 43.3 8.366338 43.67622 6.9 43.3 8.366338 42.92378 8.366338 42.92378 6.9 43.3 6.613525 42.41832 8.366338 42.92378 6.613525 42.41832 8.850001 42.34737 8.850001 42.34737 6.613525 42.41832 5.863525 41.87342 8.850001 42.34737 5.863525 41.87342 9.591013 42.21671 9.591013 42.21671 5.863525 41.87342 0 0 0 46.1 13.06352 44.72658 30.8 46.1 30.8 46.1 13.06352 44.72658 13.81352 44.18168 5.863525 41.87342 4.936474 41.87342 0 0 0 0 4.936474 41.87342 4.186474 42.41832 0 0 4.186474 42.41832 0 46.1 0 46.1 4.186474 42.41832 3.9 43.3 0 46.1 3.9 43.3 4.186474 44.18168 4.186474 44.18168 4.936474 44.72658 0 46.1 0 46.1 4.936474 44.72658 5.863525 44.72658 0 0 0.4 0 0 46.1 0 46.1 0.4 0 0.4 46.1 -15.4 -0.2 15.4 -0.2 -15.4 0.2 -15.4 0.2 15.4 -0.2 15.4 0.2 0 0.8 13.46032 0.8 0 46.1 0 46.1 13.46032 0.8 13.46032 46.1 0 0.8 32.4 0.8 0 46.1 0 46.1 32.4 0.8 32.4 46.1 0 0.8 0.3 0.8 0 46.1 0 46.1 0.3 0.8 0.3 46.1 16.05 6.880161 16.05 -6.580162 16.35 6.880161 16.35 6.880161 16.05 -6.580162 16.35 -6.880161 16.35 -6.880161 16.05 -6.580162 -16.35 -6.880161 -16.35 -6.880161 16.05 -6.580162 -16.35 -6.580162 0 0.8 0.3 0.8 0 46.1 0 46.1 0.3 0.8 0.3 46.1 0 0.8 15.8 0.8 0 46.1 0 46.1 15.8 0.8 15.8 46.1 0 0.8 32.4 0.8 0 46.1 0 46.1 32.4 0.8 32.4 46.1 16.35 -8.050001 16.35 8.050001 16.05 7.75 16.05 7.75 16.35 8.050001 -16.35 8.050001 16.05 7.75 -16.35 8.050001 -16.35 7.75 16.05 7.75 16.05 -8.050001 16.35 -8.050001 0 -61.3 -46.1 -61.3 0 -61.4 0 -61.4 -46.1 -61.3 -46.4 -61.4 -46.4 -61.4 -46.1 -61.3 -46.4 -61.2 -46.4 -61.2 -46.1 -61.3 -46.4 -58.2 -46.4 -61.2 -46.4 -58.2 -49.4 -58.2 -46.1 -0.1 -46.4 -25.2 -46.1 -61.3 -46.1 -61.3 -46.4 -25.2 -46.4 -36.2 -46.1 -61.3 -46.4 -36.2 -46.4 -39.2 -46.4 -39.2 -46.4 -36.2 -49.4 -36.2 -46.4 -39.2 -49.4 -36.2 -49.4 -39.2 0 -0.1 0 0 -46.1 -0.1 -46.1 -0.1 0 0 -46.4 0 -46.1 -0.1 -46.4 0 -46.4 -0.2 -46.1 -0.1 -46.4 -0.2 -46.4 -3.2 -46.4 -3.2 -46.4 -0.2 -49.4 -0.2 -46.4 -3.2 -49.4 -0.2 -49.4 -3.2 -46.4 -3.2 -46.4 -22.2 -46.1 -0.1 -46.1 -0.1 -46.4 -22.2 -46.4 -25.2 -46.4 -22.2 -49.4 -22.2 -46.4 -25.2 -46.4 -25.2 -49.4 -22.2 -49.4 -25.2 -46.4 -39.2 -46.4 -58.2 -46.1 -61.3 -49.4 -58.2 -49.4 -61.2 -46.4 -61.2 0 30.9 46.1 30.9 0 31.1 0 31.1 46.1 30.9 46.4 31.1 46.4 31.1 46.1 30.9 46.4 0 46.4 0 46.1 30.9 46.1 0.1 46.4 0 46.1 0.1 0 0 0 0 46.1 0.1 0 0.1 0 -31 -46.1 -31 0 -31.1 0 -31.1 -46.1 -31 -46.4 -31.1 -46.4 -31.1 -46.1 -31 -46.1 -0.2 -46.4 -31.1 -46.1 -0.2 -46.4 0 -46.4 0 -46.1 -0.2 0 0 0 0 -46.1 -0.2 0 -0.2 2.439677 0 2.439677 45.3 0 0 0 0 2.439677 45.3 0 45.6 0 45.6 2.439677 45.3 16.2 45.6 16.2 45.6 2.439677 45.3 16.2 45.3 0 45.3 32.7 45.3 0 45.6 0 45.6 32.7 45.3 32.7 45.6 3 120.3 0 120.3 3 70.6 3 70.6 0 120.3 0 0 3 70.6 0 0 3 45.6 3 45.6 0 0 3 0 3 45.6 3.25 45.6 3 70.6 3 70.6 3.25 45.6 3.25 70.6 0 37 0 3 1.9 37 1.9 37 0 3 2.75 3 1.9 37 2.75 3 2.75 25 1.9 37 2.75 25 1.9 49 1.9 49 2.75 25 3 25 1.9 49 3 25 3 74.7 3 74.7 0 74.7 1.9 49 1.9 49 0 74.7 0 49 0 0 11 0 0 45.6 0 45.6 11 0 11 45.6 3 49 3 74.7 1.1 49 1.1 49 3 74.7 0 74.7 1.1 49 0 74.7 0 25 0 25 0.25 25 1.1 49 1.1 49 0.25 25 1.1 37 1.1 37 0.25 25 0.25 3 1.1 37 0.25 3 3 3 3 3 3 37 1.1 37 -0.3 45.3 -0.3 0 0 45.3 0 45.3 -0.3 0 5.5 0 0 45.3 5.5 0 5.25 45.6 5.25 45.6 5.5 0 5.5 45.6 5.25 45.6 0 45.6 0 45.3 16.1 0 16.2 0 16.1 45.3 16.1 45.3 16.2 0 16.2 45.6 16.1 45.3 16.2 45.6 0 45.6 0 45.6 0 45.3 16.1 45.3 0 45.3 32.7 45.3 0 45.6 0 45.6 32.7 45.3 32.7 45.6 5.8 0 5.5 45.3 0 0 0 0 5.5 45.3 0.25 45.6 0 0 0.25 45.6 0 45.6 5.8 0 5.8 45.3 5.5 45.3 5.5 45.3 5.5 45.6 0.25 45.6 0 70.6 3 70.6 0 120.3 0 120.3 3 70.6 3 120.3 -46.4 -4.712389 0 -4.712389 -46.4 -3.926991 -46.4 -3.926991 0 -4.712389 0 -3.926991 -46.4 -3.926991 0 -3.926991 -46.4 -3.141593 -46.4 -3.141593 0 -3.926991 0 -3.141593 -46.4 -3.141593 0 -3.141593 -46.4 -2.356194 -46.4 -2.356194 0 -3.141593 0 -2.356194 -46.4 -4.712389 0 -4.712389 -46.4 -3.926991 -46.4 -3.926991 0 -4.712389 0 -3.926991 -46.4 -3.926991 0 -3.926991 -46.4 -3.141593 -46.4 -3.141593 0 -3.926991 0 -3.141593 -46.4 -3.141593 0 -3.141593 -46.4 -2.356194 -46.4 -2.356194 0 -3.141593 0 -2.356194 0 -6.283185 0 -5.946278 -0.8 -6.283185 -0.8 -6.283185 0 -5.946278 -46.4 -6.319662 -0.8 -6.283185 -46.4 -6.319662 -0.8 -6.993476 -0.8 -6.993476 -46.4 -6.319662 -46.4 -7.366859 -0.8 -6.993476 -46.4 -7.366859 -0.8 -7.703766 -0.8 -7.703766 -46.4 -7.366859 -46.4 -8.414057 -0.8 -7.703766 -46.4 -8.414057 -0.8 -8.414057 -46.4 -6.319662 0 -5.946278 -46.4 -5.272464 -46.4 -5.272464 0 -5.946278 0 -5.609371 -46.4 -5.272464 0 -5.609371 0 -5.272464 0 0 0.8 0 0 0.336907 0 0.336907 0.8 0 0.8 0.336907 0 0.336907 0.8 0.336907 0 0.673814 0 0.673814 0.8 0.336907 0.8 0.673814 0 0.673814 0.8 0.673814 0 1.010721 0 1.010721 0.8 0.673814 0.8 1.010721 -0.8 -42.86351 0 -42.86351 -0.8 0 -0.8 0 0 -42.86351 0 0 0 -3.141593 -0.8 -3.141593 0 -4.18879 0 -4.18879 -0.8 -3.141593 -0.8 -4.18879 0 -4.18879 -0.8 -4.18879 0 -5.235988 0 -5.235988 -0.8 -4.18879 -0.8 -5.235988 0 -5.235988 -0.8 -5.235988 0 -6.283185 0 -6.283185 -0.8 -5.235988 -0.8 -6.283185 0.8 59.4 0 59.4 0.8 0 0.8 0 0 59.4 0 0 0 -3.141593 -0.8 -3.141593 0 -4.18879 0 -4.18879 -0.8 -3.141593 -0.8 -4.18879 0 -4.18879 -0.8 -4.18879 0 -5.235988 0 -5.235988 -0.8 -4.18879 -0.8 -5.235988 0 -5.235988 -0.8 -5.235988 0 -6.283185 0 -6.283185 -0.8 -5.235988 -0.8 -6.283185 0.8 42.86351 0 42.86351 0.8 0 0.8 0 0 42.86351 0 0 0 0 0.8 0 0 0.336907 0 0.336907 0.8 0 0.8 0.336907 0 0.336907 0.8 0.336907 0 0.673814 0 0.673814 0.8 0.336907 0.8 0.673814 0 0.673814 0.8 0.673814 0 1.010721 0 1.010721 0.8 0.673814 0.8 1.010721 0 -6.283185 0 -5.946278 -46.4 -6.283185 -46.4 -6.283185 0 -5.946278 0 -5.609371 -46.4 -6.283185 0 -5.609371 -46.4 -5.235988 -46.4 -5.235988 0 -5.609371 -0.8 -5.272464 -46.4 -5.235988 -0.8 -5.272464 -0.8 -4.562174 0 -5.609371 0 -5.272464 -0.8 -5.272464 -46.4 -5.235988 -0.8 -4.562174 -46.4 -4.18879 -46.4 -4.18879 -0.8 -4.562174 -0.8 -3.851883 -46.4 -4.18879 -0.8 -3.851883 -46.4 -3.141593 -46.4 -3.141593 -0.8 -3.851883 -0.8 -3.141593 4.89524 27.76032 4.89524 30.2 4.59524 27.76032 4.59524 27.76032 4.89524 30.2 4.958748 31.7 4.59524 27.76032 4.958748 31.7 -27.80476 14.3 -27.80476 14.3 4.958748 31.7 -37.90476 31.7 -27.80476 14.3 -37.90476 31.7 -39.90476 29.7 -39.90476 29.7 -37.90476 31.7 -38.90476 31.43205 -39.90476 29.7 -38.90476 31.43205 -39.63681 30.7 4.89524 30.2 5.020048 30.89545 4.958748 31.7 4.958748 31.7 5.020048 30.89545 5.378895 31.50411 4.958748 31.7 5.378895 31.50411 5.294065 31.72831 5.294065 31.72831 5.378895 31.50411 5.619887 31.81244 5.619887 31.81244 5.378895 31.50411 5.926994 31.95 -39.90476 -29.7 -30.80476 5.5 -39.90476 29.7 -39.90476 29.7 -30.80476 5.5 -30.80476 8.5 -39.90476 29.7 -30.80476 8.5 -27.80476 14.3 -27.80476 14.3 -30.80476 8.5 -27.80476 8.5 -39.63681 -30.7 -38.90476 -31.43205 -39.90476 -29.7 -39.90476 -29.7 -38.90476 -31.43205 -37.90476 -31.7 -39.90476 -29.7 -37.90476 -31.7 -27.80476 -14.3 -27.80476 -14.3 -37.90476 -31.7 4.958748 -31.7 -27.80476 -14.3 4.958748 -31.7 4.59524 -30.1 4.59524 -30.1 4.958748 -31.7 5.020048 -30.89545 4.59524 -30.1 5.020048 -30.89545 4.89524 -30.2 5.020048 -30.89545 4.958748 -31.7 5.378895 -31.50411 5.378895 -31.50411 4.958748 -31.7 5.294065 -31.72831 5.378895 -31.50411 5.294065 -31.72831 5.619887 -31.81244 5.619887 -31.81244 5.926994 -31.95 5.378895 -31.50411 4.89524 -30.2 4.89524 -30.1 4.59524 -30.1 4.59524 -30.1 4.59524 -14.3 -27.80476 -14.3 -27.80476 -8.5 -30.80476 -8.5 -27.80476 -14.3 -27.80476 -14.3 -30.80476 -8.5 -39.90476 -29.7 -30.80476 -8.5 -30.80476 -5.5 -39.90476 -29.7 -39.90476 -29.7 -30.80476 -5.5 -30.80476 5.5 -30.80476 -5.5 -27.80476 -5.5 -30.80476 5.5 -30.80476 5.5 -27.80476 -5.5 -27.80476 5.5 -27.80476 14.3 4.59524 14.3 4.59524 27.76032 -6.99524 32.2 -5.926994 31.95 -6.89524 32.2 -6.89524 32.2 -5.926994 31.95 -6.234101 32.08756 -6.89524 32.2 -6.234101 32.08756 -6.559924 32.17169 -6.99524 32.6 -37.79524 32.6 -6.99524 32.2 -6.99524 32.2 -37.79524 32.6 -37.79524 32.2 -6.99524 32.2 -37.79524 32.2 -39.49524 30.6 -39.49524 30.6 -37.79524 32.2 -39.49524 30.7 -39.49524 30.7 -37.79524 32.2 -39.29428 31.45 -39.29428 31.45 -37.79524 32.2 -37.99524 32.2 -39.29428 31.45 -37.99524 32.2 -38.74524 31.99904 -39.99524 30.6 -39.99524 -30.6 -39.49524 30.6 -39.49524 30.6 -39.99524 -30.6 -39.49524 -30.6 -39.49524 30.6 -39.49524 -30.6 -6.99524 32.2 -6.99524 32.2 -39.49524 -30.6 -6.99524 -32.2 -6.99524 32.2 -6.99524 -32.2 -5.619887 31.81244 -5.619887 31.81244 -6.99524 -32.2 -5.619887 -31.81244 -5.619887 31.81244 -5.619887 -31.81244 -5.294065 31.72831 -5.294065 31.72831 -5.619887 -31.81244 -5.294065 -31.72831 -5.294065 31.72831 -5.294065 -31.72831 -4.958748 31.7 -4.958748 31.7 -5.294065 -31.72831 -4.958748 -31.7 -4.958748 31.7 -4.958748 -31.7 39.90476 -29.7 39.90476 -29.7 -4.958748 -31.7 37.90476 -31.7 39.90476 -29.7 37.90476 -31.7 39.63681 -30.7 39.63681 -30.7 37.90476 -31.7 38.90476 -31.43205 -6.99524 -32.2 -39.49524 -30.6 -37.79524 -32.2 -37.79524 -32.2 -39.49524 -30.6 -39.49524 -30.7 -37.79524 -32.2 -39.49524 -30.7 -39.29428 -31.45 -38.74524 -31.99904 -37.99524 -32.2 -39.29428 -31.45 -39.29428 -31.45 -37.99524 -32.2 -37.79524 -32.2 -37.79524 -32.6 -6.99524 -32.6 -37.79524 -32.2 -37.79524 -32.2 -6.99524 -32.6 -6.99524 -32.2 -5.619887 -31.81244 -6.99524 -32.2 -5.926994 -31.95 -5.926994 -31.95 -6.99524 -32.2 -6.89524 -32.2 -5.926994 -31.95 -6.89524 -32.2 -6.234101 -32.08756 -6.234101 -32.08756 -6.89524 -32.2 -6.559924 -32.17169 39.90476 -29.7 39.90476 29.7 -4.958748 31.7 -4.958748 31.7 39.90476 29.7 37.90476 31.7 37.90476 31.7 39.90476 29.7 39.63681 30.7 37.90476 31.7 39.63681 30.7 38.90476 31.43205 -5.619887 31.81244 -5.926994 31.95 -6.99524 32.2 8.5 -10.5 5.5 -8.5 -6.5 -10.5 -6.5 -10.5 5.5 -8.5 -6.5 -8.5 -6.5 -10.5 -6.5 -8.5 -8.5 -19.9 -8.5 -19.9 -6.5 -8.5 -6.5 8.5 -8.5 -19.9 -6.5 8.5 -8.5 19.9 -8.5 19.9 -6.5 8.5 -6.5 10.5 -8.5 19.9 -6.5 10.5 -6.5 19.9 8.5 -10.5 8.5 -8.5 5.5 -8.5 -6.5 8.5 5.5 8.5 -6.5 10.5 -6.5 10.5 5.5 8.5 8.5 10.5 8.5 10.5 5.5 8.5 8.5 8.5 -8.5 -19.9 -6.5 -19.9 -6.5 -10.5 -8.5 -8.5 -8.5 -10.5 -5.5 -8.5 -5.5 -8.5 -8.5 -10.5 6.5 -10.5 -5.5 -8.5 6.5 -10.5 6.5 -8.5 6.5 -8.5 6.5 -10.5 8.5 -19.9 6.5 -8.5 8.5 -19.9 6.5 8.5 6.5 8.5 8.5 -19.9 8.5 19.9 6.5 8.5 8.5 19.9 6.5 10.5 6.5 10.5 8.5 19.9 6.5 19.9 6.5 -10.5 6.5 -19.9 8.5 -19.9 6.5 8.5 6.5 10.5 -5.5 8.5 -5.5 8.5 6.5 10.5 -8.5 10.5 -5.5 8.5 -8.5 10.5 -8.5 8.5 0 0 15 0 0 2 0 2 15 0 15 2 0 0 9.4 0 0 2 0 2 9.4 0 9.4 2 0 0 2 0 0 2 0 2 2 0 2 2 0 0 39.8 0 0 2 0 2 39.8 0 39.8 2 0 0 2 0 0 2 0 2 2 0 2 2 0 0 9.4 0 0 2 0 2 9.4 0 9.4 2 0 0 15 0 0 2 0 2 15 0 15 2 3 0 15 0 3 2 3 2 15 0 15 2 0 0 17 0 0 2 0 2 17 0 17 2 12 2 0 2 12 0 12 0 0 2 0 0 35.7 45.6 70.30001 45.6 35.7 48.6 35.7 48.6 70.30001 45.6 70.30001 48.6 -30.7 45.6 -22 45.6 -30.7 48.6 -30.7 48.6 -22 45.6 -22 48.6 -6 -5.5 6 -5.5 -6 5.5 -6 5.5 6 -5.5 6 5.5 6 7.4 -6 7.4 6 -7.4 6 -7.4 -6 7.4 -6 -7.4 0 0 1.9 0 0 5.3 0 5.3 1.9 0 12.9 0 0 5.3 12.9 0 14.8 5.3 14.8 5.3 12.9 0 14.8 0 0 0 12 0 0 5.3 0 5.3 12 0 12 5.3 0 0 1.9 0 0 5.3 0 5.3 1.9 0 12.9 0 0 5.3 12.9 0 14.8 5.3 14.8 5.3 12.9 0 14.8 0 0 0 12 0 0 5.3 0 5.3 12 0 12 5.3</float_array>
          <technique_common>
            <accessor source="#EMROX-Argo_IPA-HN_V1_02_03_Simu_EMROX_IPA-HN_Aufbau_Dummy_V1_02-mesh-map-0-array" count="2112" stride="2">
              <param name="S" type="float"/>
              <param name="T" type="float"/>
            </accessor>
          </technique_common>
        </source>
        <vertices id="EMROX-Argo_IPA-HN_V1_02_03_Simu_EMROX_IPA-HN_Aufbau_Dummy_V1_02-mesh-vertices">
          <input semantic="POSITION" source="#EMROX-Argo_IPA-HN_V1_02_03_Simu_EMROX_IPA-HN_Aufbau_Dummy_V1_02-mesh-positions"/>
        </vertices>
        <triangles material="_78_0_0-material" count="112">
          <input semantic="VERTEX" source="#EMROX-Argo_IPA-HN_V1_02_03_Simu_EMROX_IPA-HN_Aufbau_Dummy_V1_02-mesh-vertices" offset="0"/>
          <input semantic="NORMAL" source="#EMROX-Argo_IPA-HN_V1_02_03_Simu_EMROX_IPA-HN_Aufbau_Dummy_V1_02-mesh-normals" offset="1"/>
          <input semantic="TEXCOORD" source="#EMROX-Argo_IPA-HN_V1_02_03_Simu_EMROX_IPA-HN_Aufbau_Dummy_V1_02-mesh-map-0" offset="2" set="0"/>
          <p>297 0 0 295 1 1 301 2 2 301 3 3 295 4 4 300 5 5 301 6 6 300 7 7 296 8 8 296 9 9 300 10 10 294 11 11 296 12 12 294 13 13 288 14 14 288 15 15 294 16 16 286 17 17 288 18 18 286 19 19 280 20 20 280 21 21 286 22 22 278 23 23 280 24 24 278 25 25 272 26 26 272 27 27 278 28 28 270 29 29 272 30 30 270 31 31 265 32 32 265 33 33 270 34 34 264 35 35 265 36 36 264 37 37 273 38 38 273 39 39 264 40 40 271 41 41 273 42 42 271 43 43 281 44 44 281 45 45 271 46 46 279 47 47 281 48 48 279 49 49 289 50 50 289 51 51 279 52 52 287 53 53 289 54 54 287 55 55 297 56 56 297 57 57 287 58 58 295 59 59 296 60 60 265 60 61 301 60 62 301 61 63 265 61 64 273 61 65 301 60 66 273 60 67 297 60 68 297 62 69 273 62 70 281 62 71 297 63 72 281 63 73 289 63 74 265 60 75 296 60 76 272 60 77 272 64 78 296 64 79 288 64 80 272 65 81 288 65 82 280 65 83 221 120 159 219 121 160 225 122 161 225 123 162 219 124 163 224 125 164 225 126 165 224 127 166 220 128 167 220 129 168 224 130 169 218 131 170 220 12 171 218 13 172 212 14 173 212 15 174 218 16 175 210 17 176 212 18 177 210 132 178 204 20 179 204 133 180 210 22 181 202 23 182 204 24 183 202 25 184 196 26 185 196 27 186 202 28 187 194 29 188 196 30 189 194 31 190 189 32 191 189 33 192 194 34 193 188 35 194 189 36 195 188 37 196 197 38 197 197 39 198 188 40 199 195 41 200 197 42 201 195 43 202 205 44 203 205 45 204 195 46 205 203 47 206 205 48 207 203 134 208 213 50 209 213 135 210 203 52 211 211 53 212 213 54 213 211 55 214 221 56 215 221 57 216 211 58 217 219 59 218 220 136 219 189 136 220 225 136 221 225 137 222 189 137 223 197 137 224 225 60 225 197 60 226 221 60 227 221 138 228 197 138 229 205 138 230 221 139 231 205 139 232 213 139 233 189 60 234 220 60 235 196 60 236 196 140 237 220 140 238 212 140 239 196 141 240 212 141 241 204 141 242 290 148 366 292 149 367 298 150 368 298 151 369 292 152 370 299 153 371 298 154 372 299 155 373 291 156 374 291 157 375 299 158 376 293 159 377 291 59 378 293 57 379 283 58 380 283 55 381 293 56 382 285 54 383 283 53 384 285 51 385 275 52 386 275 49 387 285 50 388 277 48 389 275 47 390 277 45 391 267 46 392 267 43 393 277 44 394 269 42 395 267 41 396 269 39 397 262 40 398 262 37 399 269 38 400 263 36 401 262 35 402 263 33 403 266 34 404 266 31 405 263 32 406 268 30 407 266 29 408 268 27 409 274 28 410 274 25 411 268 26 412 276 24 413 274 23 414 276 21 415 282 22 416 282 19 417 276 20 418 284 18 419 282 17 420 284 15 421 290 16 422 290 13 423 284 14 424 292 12 425 291 146 426 262 146 427 298 146 428 298 160 429 262 160 430 266 160 431 298 146 432 266 146 433 290 146 434 290 161 435 266 161 436 274 161 437 290 162 438 274 162 439 282 162 440 262 146 441 291 146 442 267 146 443 267 163 444 291 163 445 283 163 446 267 164 447 283 164 448 275 164 449 214 131 525 216 129 526 222 130 527 222 127 528 216 128 529 223 126 530 222 125 531 223 123 532 215 124 533 215 121 534 223 122 535 217 120 536 215 59 537 217 57 538 207 58 539 207 55 540 217 56 541 209 54 542 207 53 543 209 135 544 199 52 545 199 134 546 209 50 547 201 48 548 199 47 549 201 45 550 191 46 551 191 43 552 201 44 553 193 42 554 191 41 555 193 39 556 186 40 557 186 37 558 193 38 559 187 36 560 186 35 561 187 33 562 190 34 563 190 31 564 187 32 565 192 30 566 190 29 567 192 27 568 198 28 569 198 25 570 192 26 571 200 24 572 198 23 573 200 133 574 206 22 575 206 132 576 200 20 577 208 18 578 206 17 579 208 15 580 214 16 581 214 13 582 208 14 583 216 12 584 215 189 585 186 189 586 222 189 587 222 190 588 186 190 589 190 190 590 222 146 591 190 146 592 214 146 593 214 191 594 190 191 595 198 191 596 214 192 597 198 192 598 206 192 599 186 146 600 215 146 601 191 146 602 191 193 603 215 193 604 207 193 605 191 194 606 207 194 607 199 194 608</p>
        </triangles>
        <triangles material="__0_0_001-material" count="50">
          <input semantic="VERTEX" source="#EMROX-Argo_IPA-HN_V1_02_03_Simu_EMROX_IPA-HN_Aufbau_Dummy_V1_02-mesh-vertices" offset="0"/>
          <input semantic="NORMAL" source="#EMROX-Argo_IPA-HN_V1_02_03_Simu_EMROX_IPA-HN_Aufbau_Dummy_V1_02-mesh-normals" offset="1"/>
          <input semantic="TEXCOORD" source="#EMROX-Argo_IPA-HN_V1_02_03_Simu_EMROX_IPA-HN_Aufbau_Dummy_V1_02-mesh-map-0" offset="2" set="0"/>
          <p>257 66 84 260 67 85 261 68 86 261 69 87 260 70 88 254 71 89 261 72 90 254 73 91 256 74 92 256 75 93 254 76 94 246 77 95 256 78 96 246 79 97 248 80 98 248 81 99 246 82 100 238 83 101 248 84 102 238 85 103 240 86 104 240 87 105 238 88 106 230 89 107 240 90 108 230 91 109 232 92 110 232 93 111 230 94 112 231 95 113 232 96 114 231 97 115 233 98 116 233 99 117 231 100 118 239 101 119 233 102 120 239 103 121 241 104 122 241 105 123 239 106 124 247 107 125 241 108 126 247 109 127 249 110 128 249 111 129 247 112 130 255 113 131 249 114 132 255 115 133 257 116 134 257 117 135 255 118 136 260 119 137 261 60 138 256 60 139 257 60 140 257 60 141 256 60 142 249 60 143 249 60 144 256 60 145 248 60 146 249 60 147 248 60 148 241 60 149 241 60 150 248 60 151 240 60 152 241 60 153 240 60 154 233 60 155 233 60 156 240 60 157 232 60 158 250 165 450 259 166 451 258 167 452 258 168 453 259 169 454 253 170 455 258 171 456 253 172 457 251 173 458 251 115 459 253 116 460 245 114 461 251 113 462 245 111 463 243 112 464 243 109 465 245 110 466 237 108 467 243 107 468 237 105 469 235 106 470 235 174 471 237 175 472 229 176 473 235 177 474 229 178 475 227 179 476 227 97 477 229 98 478 228 96 479 227 95 480 228 93 481 226 94 482 226 180 483 228 181 484 236 182 485 226 183 486 236 184 487 234 185 488 234 85 489 236 86 490 244 84 491 234 83 492 244 81 493 242 82 494 242 79 495 244 80 496 252 78 497 242 77 498 252 75 499 250 76 500 250 186 501 252 187 502 259 188 503 258 146 504 251 146 505 250 146 506 250 146 507 251 146 508 242 146 509 242 146 510 251 146 511 243 146 512 242 146 513 243 146 514 234 146 515 234 146 516 243 146 517 235 146 518 234 146 519 235 146 520 226 146 521 226 146 522 235 146 523 227 146 524</p>
        </triangles>
        <triangles material="_29_229_229-material" count="432">
          <input semantic="VERTEX" source="#EMROX-Argo_IPA-HN_V1_02_03_Simu_EMROX_IPA-HN_Aufbau_Dummy_V1_02-mesh-vertices" offset="0"/>
          <input semantic="NORMAL" source="#EMROX-Argo_IPA-HN_V1_02_03_Simu_EMROX_IPA-HN_Aufbau_Dummy_V1_02-mesh-normals" offset="1"/>
          <input semantic="TEXCOORD" source="#EMROX-Argo_IPA-HN_V1_02_03_Simu_EMROX_IPA-HN_Aufbau_Dummy_V1_02-mesh-map-0" offset="2" set="0"/>
          <p>30 60 243 31 60 244 65 60 245 65 60 246 31 60 247 73 60 248 65 60 249 73 60 250 89 60 251 89 60 252 88 60 253 65 60 254 60 142 255 72 142 256 63 142 257 63 142 258 72 142 259 73 142 260 63 142 261 73 142 262 31 142 263 31 142 264 28 142 265 63 142 266 62 143 267 27 143 268 65 143 269 65 143 270 27 143 271 30 143 272 72 144 273 85 144 274 73 144 275 73 144 276 85 144 277 89 144 278 84 145 279 87 145 280 85 145 281 85 145 282 87 145 283 89 145 284 89 145 285 87 145 286 88 145 287 88 145 288 87 145 289 86 145 290 60 146 291 59 146 292 72 146 293 72 146 294 59 146 295 85 146 296 85 146 297 59 146 298 84 146 299 26 147 300 24 147 301 27 147 302 27 147 303 24 147 304 28 147 305 27 147 306 28 147 307 31 147 308 24 147 309 25 147 310 28 147 311 28 147 312 25 147 313 29 147 314 31 147 315 30 147 316 27 147 317 27 60 318 62 60 319 26 60 320 26 60 321 62 60 322 61 60 323 59 142 324 53 142 325 84 142 326 84 142 327 53 142 328 335 142 329 84 142 330 335 142 331 126 142 332 126 142 333 335 142 334 337 142 335 126 142 336 98 142 337 84 142 338 84 142 339 98 142 340 87 142 341 63 60 342 28 60 343 64 60 344 64 60 345 28 60 346 29 60 347 41 142 348 82 142 349 47 142 350 47 142 351 82 142 352 333 142 353 333 142 354 82 142 355 123 142 356 333 142 357 123 142 358 331 142 359 81 142 360 95 142 361 82 142 362 82 142 363 95 142 364 123 142 365 42 142 609 39 142 610 71 142 611 71 142 612 39 142 613 70 142 614 70 142 615 39 142 616 17 142 617 17 142 618 39 142 619 20 142 620 19 143 621 38 143 622 16 143 623 16 143 624 38 143 625 36 143 626 42 60 627 71 60 628 41 60 629 41 60 630 71 60 631 83 60 632 41 60 633 83 60 634 82 60 635 70 144 636 79 144 637 71 144 638 71 144 639 79 144 640 83 144 641 82 145 642 83 145 643 81 145 644 81 145 645 83 145 646 79 145 647 81 145 648 79 145 649 78 145 650 78 145 651 80 145 652 81 145 653 79 146 654 70 146 655 36 146 656 36 146 657 70 146 658 17 146 659 36 146 660 17 146 661 16 146 662 36 146 663 78 146 664 79 146 665 126 60 666 337 60 667 125 60 668 125 60 669 337 60 670 336 60 671 125 142 672 336 142 673 128 142 674 128 142 675 336 142 676 131 142 677 128 142 678 131 142 679 100 142 680 100 142 681 131 142 682 88 142 683 100 142 684 88 142 685 97 142 686 97 142 687 88 142 688 86 142 689 336 142 690 338 142 691 131 142 692 131 142 693 338 142 694 168 142 695 131 142 696 168 142 697 137 142 698 137 142 699 168 142 700 170 142 701 137 142 702 170 142 703 145 142 704 145 142 705 170 142 706 157 142 707 157 142 708 170 142 709 177 142 710 177 142 711 170 142 712 313 142 713 313 142 714 170 142 715 340 142 716 313 142 717 340 142 718 345 142 719 345 142 720 321 142 721 313 142 722 313 142 723 321 142 724 317 142 725 131 142 726 67 142 727 88 142 728 88 142 729 67 142 730 65 142 731 94 142 732 78 142 733 92 142 734 92 142 735 78 142 736 119 142 737 92 142 738 119 142 739 120 142 740 120 142 741 119 142 742 330 142 743 120 142 744 330 142 745 122 142 746 94 142 747 80 142 748 78 142 749 36 142 750 35 142 751 78 142 752 78 142 753 35 142 754 119 142 755 113 142 756 166 142 757 119 142 758 119 142 759 166 142 760 328 142 761 119 142 762 328 142 763 330 142 764 166 142 765 113 142 766 164 142 767 164 142 768 113 142 769 144 142 770 164 195 771 144 195 772 156 195 773 156 142 774 175 142 775 164 142 776 164 142 777 175 142 778 311 142 779 164 142 780 311 142 781 326 142 782 326 142 783 311 142 784 323 142 785 323 142 786 311 142 787 319 142 788 319 196 789 311 196 790 315 196 791 38 146 792 19 146 793 37 146 794 37 146 795 19 146 796 18 146 797 95 146 798 81 146 799 94 146 800 94 146 801 81 146 802 80 146 803 166 147 804 164 147 805 167 147 806 167 147 807 164 147 808 165 147 809 328 60 810 166 60 811 329 60 812 329 60 813 166 60 814 167 60 815 164 146 816 326 146 817 165 146 818 165 146 819 326 146 820 327 146 821 165 142 822 327 142 823 167 142 824 167 142 825 327 142 826 329 142 827 170 147 828 168 147 829 171 147 830 171 147 831 168 147 832 169 147 833 340 60 834 170 60 835 341 60 836 341 60 837 170 60 838 171 60 839 168 146 840 338 146 841 169 146 842 169 146 843 338 146 844 339 146 845 169 142 846 339 142 847 171 142 848 171 142 849 339 142 850 341 142 851 51 146 852 52 146 853 24 146 854 24 146 855 52 146 856 53 146 857 24 146 858 53 146 859 25 146 860 25 146 861 53 146 862 54 146 863 25 146 864 54 146 865 55 146 866 52 146 867 334 146 868 53 146 869 53 146 870 334 146 871 335 146 872 55 146 873 56 146 874 25 146 875 45 60 876 22 60 877 46 60 878 46 60 879 22 60 880 47 60 881 46 60 882 47 60 883 333 60 884 22 60 885 23 60 886 47 60 887 47 60 888 23 60 889 48 60 890 48 60 891 23 60 892 49 60 893 49 60 894 23 60 895 50 60 896 333 60 897 332 60 898 46 60 899 46 142 900 332 142 901 52 142 902 52 142 903 332 142 904 334 142 905 64 142 906 29 142 907 56 142 908 56 142 909 29 142 910 25 142 911 21 142 912 40 142 913 23 142 914 23 142 915 40 142 916 50 142 917 110 147 1200 108 147 1201 111 147 1202 111 147 1203 108 147 1204 109 147 1205 108 60 1206 68 60 1207 109 60 1208 109 60 1209 68 60 1210 69 60 1211 134 60 1212 110 60 1213 135 60 1214 135 60 1215 110 60 1216 111 60 1217 111 142 1218 109 142 1219 135 142 1220 135 142 1221 109 142 1222 130 142 1223 130 142 1224 109 142 1225 66 142 1226 66 142 1227 109 142 1228 69 142 1229 104 146 1230 114 146 1231 105 146 1232 105 146 1233 114 146 1234 115 146 1235 106 147 1236 104 147 1237 107 147 1238 107 147 1239 104 147 1240 105 147 1241 32 146 1242 106 146 1243 33 146 1244 33 146 1245 106 146 1246 107 146 1247 115 142 1248 118 142 1249 107 142 1250 107 142 1251 118 142 1252 34 142 1253 107 142 1254 34 142 1255 33 142 1256 107 142 1257 105 142 1258 115 142 1259 324 145 1260 325 145 1261 322 145 1262 322 145 1263 325 145 1264 323 145 1265 323 145 1266 325 145 1267 326 145 1268 326 145 1269 325 145 1270 328 145 1271 326 145 1272 328 145 1273 329 145 1274 343 145 1275 334 145 1276 325 145 1277 325 145 1278 334 145 1279 332 145 1280 325 145 1281 332 145 1282 330 145 1283 330 145 1284 332 145 1285 333 145 1286 330 145 1287 333 145 1288 331 145 1289 342 145 1290 344 145 1291 343 145 1292 343 145 1293 344 145 1294 345 145 1295 343 145 1296 345 145 1297 340 145 1298 343 145 1299 340 145 1300 338 145 1301 338 145 1302 340 145 1303 341 145 1304 338 145 1305 341 145 1306 339 145 1307 338 145 1308 336 145 1309 343 145 1310 343 145 1311 336 145 1312 334 145 1313 336 145 1314 337 145 1315 334 145 1316 334 145 1317 337 145 1318 335 145 1319 330 145 1320 328 145 1321 325 145 1322 329 145 1323 327 145 1324 326 145 1325 306 60 1326 307 60 1327 312 60 1328 312 60 1329 307 60 1330 313 60 1331 313 60 1332 307 60 1333 177 60 1334 177 60 1335 307 60 1336 183 60 1337 177 60 1338 183 60 1339 176 60 1340 176 60 1341 183 60 1342 182 60 1343 180 146 1344 181 146 1345 174 146 1346 174 146 1347 181 146 1348 175 146 1349 175 146 1350 181 146 1351 305 146 1352 175 146 1353 305 146 1354 311 146 1355 311 146 1356 305 146 1357 310 146 1358 310 146 1359 305 146 1360 304 146 1361 134 147 1362 135 147 1363 136 147 1364 136 215 1365 135 215 1366 137 215 1367 137 147 1368 135 147 1369 131 147 1370 131 147 1371 135 147 1372 130 147 1373 130 60 1374 66 60 1375 131 60 1376 131 60 1377 66 60 1378 67 60 1379 21 147 1380 23 147 1381 20 147 1382 20 147 1383 23 147 1384 22 147 1385 20 147 1386 22 147 1387 19 147 1388 19 147 1389 22 147 1390 18 147 1391 19 147 1392 16 147 1393 20 147 1394 20 147 1395 16 147 1396 17 147 1397 54 145 1398 53 145 1399 57 145 1400 57 145 1401 53 145 1402 59 145 1403 57 145 1404 59 145 1405 60 145 1406 57 145 1407 60 145 1408 58 145 1409 58 145 1410 60 145 1411 63 145 1412 58 145 1413 63 145 1414 64 145 1415 64 145 1416 56 145 1417 58 145 1418 58 145 1419 56 145 1420 55 145 1421 51 147 1422 45 147 1423 52 147 1424 52 147 1425 45 147 1426 46 147 1427 49 145 1428 50 145 1429 44 145 1430 44 145 1431 50 145 1432 40 145 1433 44 145 1434 40 145 1435 39 145 1436 39 145 1437 42 145 1438 44 145 1439 44 145 1440 42 145 1441 43 145 1442 43 145 1443 42 145 1444 41 145 1445 43 145 1446 41 145 1447 47 145 1448 47 145 1449 48 145 1450 43 145 1451 69 147 1452 68 147 1453 66 147 1454 66 147 1455 68 147 1456 61 147 1457 66 147 1458 61 147 1459 65 147 1460 65 147 1461 61 147 1462 62 147 1463 65 147 1464 67 147 1465 66 147 1466 114 147 1467 112 147 1468 115 147 1469 115 147 1470 112 147 1471 113 147 1472 115 147 1473 113 147 1474 119 147 1475 119 147 1476 118 147 1477 115 147 1478 34 146 1479 118 146 1480 35 146 1481 35 146 1482 118 146 1483 119 146 1484 32 147 1485 34 147 1486 37 147 1487 37 147 1488 34 147 1489 36 147 1490 37 147 1491 36 147 1492 38 147 1493 32 147 1494 33 147 1495 34 147 1496 34 147 1497 35 147 1498 36 147 1499 20 146 1500 39 146 1501 21 146 1502 21 146 1503 39 146 1504 40 146 1505 345 216 1506 344 217 1507 321 218 1508 321 219 1509 344 220 1510 320 221 1511 321 222 1512 320 223 1513 317 224 1514 317 225 1515 320 226 1516 316 227 1517 317 228 1518 316 229 1519 313 230 1520 313 231 1521 316 232 1522 312 233 1523 311 234 1524 310 235 1525 315 236 1526 315 237 1527 310 238 1528 314 239 1529 315 240 1530 314 241 1531 319 242 1532 319 243 1533 314 244 1534 318 245 1535 319 246 1536 318 247 1537 323 248 1538 323 249 1539 318 250 1540 322 251 1541 158 252 1542 162 253 1543 159 254 1544 159 255 1545 162 256 1546 156 257 1547 159 258 1548 156 259 1549 150 260 1550 150 261 1551 156 262 1552 144 263 1553 150 264 1554 144 265 1555 142 266 1556 142 267 1557 144 268 1558 113 269 1559 142 270 1560 113 271 1561 112 272 1562 156 273 1563 162 274 1564 175 275 1565 175 276 1566 162 277 1567 172 278 1568 175 279 1569 172 280 1570 174 281 1571 158 282 1572 159 283 1573 152 284 1574 152 285 1575 159 286 1576 153 287 1577 152 288 1578 153 289 1579 146 290 1580 146 291 1581 153 292 1582 147 293 1583 146 294 1584 147 295 1585 138 296 1586 138 297 1587 147 298 1588 139 299 1589 13 146 1590 12 146 1591 139 146 1592 139 146 1593 12 146 1594 138 146 1595 12 300 1596 13 301 1597 8 302 1598 8 303 1599 13 304 1600 9 305 1601 8 306 1602 9 307 1603 4 308 1604 4 309 1605 9 310 1606 5 311 1607 4 312 1608 5 313 1609 0 314 1610 0 315 1611 5 316 1612 1 317 1613 3 147 1614 2 147 1615 1 147 1616 1 147 1617 2 147 1618 0 147 1619 2 318 1620 3 319 1621 6 320 1622 6 321 1623 3 322 1624 7 323 1625 6 324 1626 7 325 1627 10 326 1628 10 327 1629 7 328 1630 11 329 1631 10 330 1632 11 331 1633 14 332 1634 14 333 1635 11 334 1636 15 335 1637 141 60 1638 140 60 1639 15 60 1640 15 60 1641 140 60 1642 14 60 1643 140 336 1644 141 337 1645 148 338 1646 148 339 1647 141 340 1648 149 341 1649 148 342 1650 149 343 1651 154 344 1652 154 345 1653 149 346 1654 155 347 1655 154 348 1656 155 349 1657 160 350 1658 160 351 1659 155 352 1660 161 353 1661 176 354 1662 173 355 1663 177 356 1664 177 357 1665 173 358 1666 163 359 1667 177 360 1668 163 361 1669 157 362 1670 157 363 1671 163 364 1672 161 365 1673 157 366 1674 161 367 1675 151 368 1676 163 369 1677 160 370 1678 161 371 1679 157 372 1680 151 373 1681 145 374 1682 145 375 1683 151 376 1684 143 377 1685 145 378 1686 143 379 1687 137 380 1688 137 381 1689 143 382 1690 136 383 1691 134 142 1692 136 142 1693 110 142 1694 110 142 1695 136 142 1696 141 142 1697 110 142 1698 141 142 1699 68 142 1700 68 142 1701 141 142 1702 15 142 1703 68 142 1704 15 142 1705 3 142 1706 3 384 1707 15 384 1708 11 384 1709 3 385 1710 11 385 1711 7 385 1712 136 142 1713 143 142 1714 141 142 1715 141 386 1716 143 386 1717 151 386 1718 141 142 1719 151 142 1720 149 142 1721 149 142 1722 151 142 1723 155 142 1724 155 387 1725 151 387 1726 161 387 1727 1 142 1728 24 142 1729 3 142 1730 3 142 1731 24 142 1732 26 142 1733 3 142 1734 26 142 1735 68 142 1736 68 142 1737 26 142 1738 61 142 1739 5 142 1740 9 142 1741 1 142 1742 1 384 1743 9 384 1744 13 384 1745 1 142 1746 13 142 1747 32 142 1748 32 142 1749 13 142 1750 139 142 1751 32 142 1752 139 142 1753 104 142 1754 104 142 1755 139 142 1756 142 142 1757 104 142 1758 142 142 1759 112 142 1760 142 388 1761 139 388 1762 150 388 1763 150 142 1764 139 142 1765 147 142 1766 150 389 1767 147 389 1768 153 389 1769 153 387 1770 159 387 1771 150 387 1772 112 142 1773 114 142 1774 104 142 1775 104 142 1776 106 142 1777 32 142 1778 37 142 1779 18 142 1780 32 142 1781 32 142 1782 18 142 1783 1 142 1784 18 142 1785 22 142 1786 1 142 1787 1 142 1788 22 142 1789 24 142 1790 22 142 1791 45 142 1792 24 142 1793 24 142 1794 45 142 1795 51 142 1796 68 142 1797 108 142 1798 110 142 1799 182 143 1800 160 143 1801 176 143 1802 176 143 1803 160 143 1804 163 143 1805 176 143 1806 163 143 1807 173 143 1808 184 143 1809 308 143 1810 182 143 1811 182 143 1812 308 143 1813 306 143 1814 182 143 1815 306 143 1816 342 143 1817 342 143 1818 306 143 1819 344 143 1820 344 143 1821 306 143 1822 320 143 1823 320 143 1824 306 143 1825 312 143 1826 320 143 1827 312 143 1828 316 143 1829 348 143 1830 346 143 1831 342 143 1832 342 143 1833 346 143 1834 324 143 1835 342 143 1836 324 143 1837 182 143 1838 182 143 1839 324 143 1840 180 143 1841 182 143 1842 180 143 1843 154 143 1844 154 390 1845 180 390 1846 152 390 1847 154 391 1848 152 391 1849 148 391 1850 148 392 1851 152 392 1852 146 392 1853 148 393 1854 146 393 1855 140 393 1856 140 394 1857 146 394 1858 138 394 1859 140 143 1860 138 143 1861 0 143 1862 0 143 1863 138 143 1864 12 143 1865 0 143 1866 12 143 1867 4 143 1868 4 395 1869 12 395 1870 8 395 1871 180 143 1872 324 143 1873 304 143 1874 304 143 1875 324 143 1876 322 143 1877 304 143 1878 322 143 1879 318 143 1880 314 143 1881 310 143 1882 318 143 1883 318 143 1884 310 143 1885 304 143 1886 302 143 1887 178 143 1888 304 143 1889 304 143 1890 178 143 1891 180 143 1892 152 143 1893 180 143 1894 158 143 1895 158 143 1896 180 143 1897 174 143 1898 158 143 1899 174 143 1900 162 143 1901 162 143 1902 174 143 1903 172 143 1904 0 143 1905 2 143 1906 140 143 1907 140 143 1908 2 143 1909 14 143 1910 14 143 1911 2 143 1912 6 143 1913 14 143 1914 6 143 1915 10 143 1916 154 143 1917 160 143 1918 182 143 1919 120 145 1920 123 145 1921 121 145 1922 121 145 1923 123 145 1924 124 145 1925 121 145 1926 124 145 1927 117 145 1928 117 145 1929 124 145 1930 127 145 1931 117 145 1932 127 145 1933 133 145 1934 133 145 1935 127 145 1936 129 145 1937 133 145 1938 129 145 1939 132 145 1940 120 145 1941 122 145 1942 123 145 1943 127 145 1944 126 145 1945 129 145 1946 129 396 1947 126 396 1948 128 396 1949 128 145 1950 126 145 1951 125 145 1952 117 145 1953 116 145 1954 121 145 1955 94 147 1956 92 147 1957 95 147 1958 95 147 1959 92 147 1960 93 147 1961 95 147 1962 93 147 1963 96 147 1964 96 147 1965 93 147 1966 91 147 1967 96 147 1968 91 147 1969 99 147 1970 99 147 1971 91 147 1972 103 147 1973 99 147 1974 103 147 1975 101 147 1976 101 147 1977 103 147 1978 102 147 1979 93 147 1980 90 147 1981 91 147 1982 99 147 1983 101 147 1984 98 147 1985 98 147 1986 101 147 1987 100 147 1988 98 147 1989 100 147 1990 97 147 1991 120 146 1992 121 146 1993 92 146 1994 92 146 1995 121 146 1996 93 146 1997 121 143 1998 116 143 1999 93 143 2000 93 143 2001 116 143 2002 90 143 2003 116 146 2004 117 146 2005 90 146 2006 90 146 2007 117 146 2008 91 146 2009 117 142 2010 133 142 2011 91 142 2012 91 142 2013 133 142 2014 103 142 2015 133 60 2016 132 60 2017 103 60 2018 103 60 2019 132 60 2020 102 60 2021 132 143 2022 129 143 2023 102 143 2024 102 143 2025 129 143 2026 101 143 2027 129 60 2028 128 60 2029 101 60 2030 101 60 2031 128 60 2032 100 60 2033 126 146 2034 127 146 2035 98 146 2036 98 146 2037 127 146 2038 99 146 2039 127 143 2040 124 143 2041 99 143 2042 99 143 2043 124 143 2044 96 143 2045 95 60 2046 96 60 2047 123 60 2048 123 60 2049 96 60 2050 124 60 2051 122 146 2052 330 146 2053 123 146 2054 123 146 2055 330 146 2056 331 146 2057 97 60 2058 86 60 2059 98 60 2060 98 60 2061 86 60 2062 87 60 2063</p>
        </triangles>
        <triangles material="_45_245_245-material" count="94">
          <input semantic="VERTEX" source="#EMROX-Argo_IPA-HN_V1_02_03_Simu_EMROX_IPA-HN_Aufbau_Dummy_V1_02-mesh-vertices" offset="0"/>
          <input semantic="NORMAL" source="#EMROX-Argo_IPA-HN_V1_02_03_Simu_EMROX_IPA-HN_Aufbau_Dummy_V1_02-mesh-normals" offset="1"/>
          <input semantic="TEXCOORD" source="#EMROX-Argo_IPA-HN_V1_02_03_Simu_EMROX_IPA-HN_Aufbau_Dummy_V1_02-mesh-map-0" offset="2" set="0"/>
          <p>348 60 918 342 60 919 349 60 920 349 60 921 342 60 922 343 60 923 346 145 924 348 145 925 347 145 926 347 145 927 348 145 928 349 145 929 324 146 930 346 146 931 325 146 932 325 146 933 346 146 934 347 146 935 325 142 936 347 142 937 343 142 938 343 142 939 347 142 940 349 142 941 184 147 942 182 147 943 185 147 944 185 147 945 182 147 946 183 147 947 219 60 948 231 60 949 224 60 950 224 60 951 231 60 952 230 60 953 224 60 954 230 60 955 218 60 956 218 197 957 230 197 958 238 197 959 218 60 960 238 60 961 210 60 962 210 198 963 238 198 964 246 198 965 210 199 966 246 199 967 184 199 968 184 200 969 246 200 970 278 200 971 184 201 972 278 201 973 286 201 974 231 60 975 219 60 976 239 60 977 239 60 978 219 60 979 211 60 980 239 60 981 211 60 982 247 60 983 247 60 984 211 60 985 279 60 986 247 60 987 279 60 988 271 60 989 279 202 990 211 202 991 185 202 992 185 203 993 211 203 994 203 203 995 185 60 996 203 60 997 195 60 998 195 60 999 188 60 1000 185 60 1001 185 60 1002 188 60 1003 194 60 1004 185 60 1005 194 60 1006 184 60 1007 184 60 1008 194 60 1009 202 60 1010 184 204 1011 202 204 1012 210 204 1013 255 60 1014 271 60 1015 260 60 1016 260 60 1017 271 60 1018 264 60 1019 260 60 1020 264 60 1021 270 60 1022 255 60 1023 247 60 1024 271 60 1025 278 60 1026 246 60 1027 270 60 1028 270 60 1029 246 60 1030 254 60 1031 270 205 1032 254 205 1033 260 205 1034 294 60 1035 300 60 1036 309 60 1037 309 206 1038 300 206 1039 295 206 1040 309 60 1041 295 60 1042 287 60 1043 309 60 1044 287 60 1045 185 60 1046 185 207 1047 287 207 1048 279 207 1049 184 60 1050 286 60 1051 308 60 1052 308 60 1053 286 60 1054 294 60 1055 308 60 1056 294 60 1057 309 60 1058 306 145 1059 308 145 1060 307 145 1061 307 145 1062 308 145 1063 309 145 1064 309 142 1065 185 142 1066 307 142 1067 307 142 1068 185 142 1069 183 142 1070 302 145 1071 304 145 1072 303 145 1073 303 145 1074 304 145 1075 305 145 1076 293 146 1077 299 146 1078 303 146 1079 303 208 1080 299 208 1081 292 208 1082 303 146 1083 292 146 1084 302 146 1085 302 146 1086 292 146 1087 284 146 1088 302 146 1089 284 146 1090 178 146 1091 178 209 1092 284 209 1093 276 209 1094 178 210 1095 276 210 1096 244 210 1097 244 146 1098 276 146 1099 268 146 1100 244 146 1101 268 146 1102 252 146 1103 252 146 1104 268 146 1105 259 146 1106 259 146 1107 268 146 1108 263 146 1109 259 146 1110 263 146 1111 269 146 1112 277 146 1113 245 146 1114 269 146 1115 269 146 1116 245 146 1117 253 146 1118 269 211 1119 253 211 1120 259 211 1121 285 146 1122 179 146 1123 277 146 1124 277 212 1125 179 212 1126 209 212 1127 277 146 1128 209 146 1129 245 146 1130 245 146 1131 209 146 1132 237 146 1133 237 146 1134 209 146 1135 217 146 1136 237 146 1137 217 146 1138 229 146 1139 229 146 1140 217 146 1141 223 146 1142 229 146 1143 223 146 1144 228 146 1145 228 146 1146 223 146 1147 216 146 1148 228 146 1149 216 146 1150 236 146 1151 236 146 1152 216 146 1153 208 146 1154 236 146 1155 208 146 1156 244 146 1157 244 146 1158 208 146 1159 178 146 1160 179 146 1161 285 146 1162 303 146 1163 303 146 1164 285 146 1165 293 146 1166 208 213 1167 200 213 1168 178 213 1169 178 146 1170 200 146 1171 192 146 1172 178 146 1173 192 146 1174 179 146 1175 179 146 1176 192 146 1177 187 146 1178 179 146 1179 187 146 1180 193 146 1181 193 146 1182 201 146 1183 179 146 1184 179 214 1185 201 214 1186 209 214 1187 180 147 1188 178 147 1189 181 147 1190 181 147 1191 178 147 1192 179 147 1193 179 142 1194 303 142 1195 181 142 1196 181 142 1197 303 142 1198 305 142 1199</p>
        </triangles>
        <triangles material="_53_153_153-material" count="16">
          <input semantic="VERTEX" source="#EMROX-Argo_IPA-HN_V1_02_03_Simu_EMROX_IPA-HN_Aufbau_Dummy_V1_02-mesh-vertices" offset="0"/>
          <input semantic="NORMAL" source="#EMROX-Argo_IPA-HN_V1_02_03_Simu_EMROX_IPA-HN_Aufbau_Dummy_V1_02-mesh-normals" offset="1"/>
          <input semantic="TEXCOORD" source="#EMROX-Argo_IPA-HN_V1_02_03_Simu_EMROX_IPA-HN_Aufbau_Dummy_V1_02-mesh-map-0" offset="2" set="0"/>
          <p>48 147 2064 49 147 2065 54 147 2066 54 147 2067 49 147 2068 55 147 2069 76 145 2070 77 145 2071 74 145 2072 74 145 2073 77 145 2074 75 145 2075 43 143 2076 48 143 2077 74 143 2078 74 143 2079 48 143 2080 54 143 2081 74 143 2082 54 143 2083 76 143 2084 76 143 2085 54 143 2086 57 143 2087 57 60 2088 58 60 2089 76 60 2090 76 60 2091 58 60 2092 77 60 2093 58 142 2094 55 142 2095 77 142 2096 77 142 2097 55 142 2098 49 142 2099 77 142 2100 49 142 2101 75 142 2102 75 142 2103 49 142 2104 44 142 2105 44 146 2106 43 146 2107 75 146 2108 75 146 2109 43 146 2110 74 146 2111</p>
        </triangles>
      </mesh>
    </geometry>
  </library_geometries>
  <library_visual_scenes>
    <visual_scene id="Scene" name="Scene">
      <node id="EMROX-Argo_IPA-HN_V1_02_03_Simu_EMROX_IPA-HN_Aufbau_Dummy_V1_02" name="EMROX-Argo IPA-HN V1.02.03 Simu_EMROX IPA-HN Aufbau_Dummy V1.02" type="NODE">
        <matrix sid="transform">-4.37114e-8 1 0 0 -1 -4.37114e-8 0 0 0 0 1 0 0 0 0 1</matrix>
        <instance_geometry url="#EMROX-Argo_IPA-HN_V1_02_03_Simu_EMROX_IPA-HN_Aufbau_Dummy_V1_02-mesh" name="EMROX-Argo IPA-HN V1.02.03 Simu_EMROX IPA-HN Aufbau_Dummy V1.02">
          <bind_material>
            <technique_common>
              <instance_material symbol="_78_0_0-material" target="#_78_0_0-material">
                <bind_vertex_input semantic="UVMap" input_semantic="TEXCOORD" input_set="0"/>
              </instance_material>
              <instance_material symbol="__0_0_001-material" target="#__0_0_001-material">
                <bind_vertex_input semantic="UVMap" input_semantic="TEXCOORD" input_set="0"/>
              </instance_material>
              <instance_material symbol="_29_229_229-material" target="#_29_229_229-material">
                <bind_vertex_input semantic="UVMap" input_semantic="TEXCOORD" input_set="0"/>
              </instance_material>
              <instance_material symbol="_45_245_245-material" target="#_45_245_245-material">
                <bind_vertex_input semantic="UVMap" input_semantic="TEXCOORD" input_set="0"/>
              </instance_material>
              <instance_material symbol="_53_153_153-material" target="#_53_153_153-material">
                <bind_vertex_input semantic="UVMap" input_semantic="TEXCOORD" input_set="0"/>
              </instance_material>
            </technique_common>
          </bind_material>
        </instance_geometry>
      </node>
    </visual_scene>
  </library_visual_scenes>
  <scene>
    <instance_visual_scene url="#Scene"/>
  </scene>
</COLLADA>