<?xml version="1.0" encoding="utf-8"?>
<COLLADA xmlns="http://www.collada.org/2005/11/COLLADASchema" version="1.4.1" xmlns:xsi="http://www.w3.org/2001/XMLSchema-instance">
  <asset>
    <contributor>
      <author>Blender User</author>
      <authoring_tool>Blender 4.2.18 LTS commit date:2026-02-16, commit time:13:37, hash:d71e3422e438</authoring_tool>
    </contributor>
    <created>2026-02-25T22:38:31</created>
    <modified>2026-02-25T22:38:31</modified>
    <unit name="meter" meter="1"/>
    <up_axis>Z_UP</up_axis>
  </asset>
  <library_effects>
    <effect id="__0_0-effect">
      <profile_COMMON>
        <technique sid="common">
          <lambert>
            <emission>
              <color sid="emission">0 0 0 1</color>
            </emission>
            <diffuse>
              <color sid="diffuse">0 0 0 1</color>
            </diffuse>
            <index_of_refraction>
              <float sid="ior">1.5</float>
            </index_of_refraction>
          </lambert>
        </technique>
      </profile_COMMON>
    </effect>
    <effect id="_54_254_255-effect">
      <profile_COMMON>
        <technique sid="common">
          <lambert>
            <emission>
              <color sid="emission">0 0 0 1</color>
            </emission>
            <diffuse>
              <color sid="diffuse">0.996078 0.996078 1 1</color>
            </diffuse>
            <index_of_refraction>
              <float sid="ior">1.5</float>
            </index_of_refraction>
          </lambert>
        </technique>
      </profile_COMMON>
    </effect>
  </library_effects>
  <library_images/>
  <library_materials>
    <material id="__0_0-material" name="0,0,0">
      <instance_effect url="#__0_0-effect"/>
    </material>
    <material id="_54_254_255-material" name="254,254,255">
      <instance_effect url="#_54_254_255-effect"/>
    </material>
  </library_materials>
  <library_geometries>
    <geometry id="EMROX-Argo_IPA-HN_V1_02_03_Simu_EMROX_IPA-HN_Aufbau_Hubachse2_V-mesh" name="EMROX-Argo IPA-HN V1.02.03 Simu_EMROX IPA-HN Aufbau Hubachse2 V">
      <mesh>
        <source id="EMROX-Argo_IPA-HN_V1_02_03_Simu_EMROX_IPA-HN_Aufbau_Hubachse2_V-mesh-positions">
          <float_array id="EMROX-Argo_IPA-HN_V1_02_03_Simu_EMROX_IPA-HN_Aufbau_Hubachse2_V-mesh-positions-array" count="390">-67 411.5 1652 -67 411.5 1672 -52 411.5 1644 -52 411.5 1652 52 411.5 1644 52 411.5 1652 67 411.5 1652 67 411.5 1672 -59.35518 409.5729 1644 59.35518 409.5729 1644 -59.5 409.4904 1652 59.5 409.4904 1652 -64.82049 404.2868 1644 64.82049 404.2868 1644 -64.99038 404 1652 64.99038 404 1652 -112 397 335 -112 397 365 -112 397 1611 -112 397 1644 -66.99166 397 1644 66.99166 397 1644 112 397 335 112 397 365 112 397 1611 112 397 1644 -66.99629 396.8334 1644 66.99629 396.8334 1644 -66.99907 396.6667 1644 66.99907 396.6667 1644 -67 396.5 1644 -67 396.5 1652 67 396.5 1644 67 396.5 1652 -67 391.5 1652 -67 391.5 1672 -19.82423 391.5 1652 -19.82423 391.5 1672 -19.82423 391.5 1683 19.82423 391.5 1652 19.82423 391.5 1672 19.82423 391.5 1683 67 391.5 1652 67 391.5 1672 -80 389.7 365 -80 389.7 1611 -60 389.7 365 -60 389.7 1611 60 389.7 365 60 389.7 1611 80 389.7 365 80 389.7 1611 -35.27467 384.4623 1652 -35.27467 384.4623 1683 35.27467 384.4623 1652 35.27467 384.4623 1683 -48.46007 373.7669 1652 -48.46007 373.7669 1683 48.46007 373.7669 1652 48.46007 373.7669 1683 -110 370.7 365 -110 370.7 1611 -80 370.7 365 -80 370.7 1611 -60 370.7 365 -60 370.7 1611 60 370.7 365 60 370.7 1611 80 370.7 365 80 370.7 1611 110 370.7 365 110 370.7 1611 -58.53376 360.1006 1652 -58.53376 360.1006 1683 58.53376 360.1006 1652 58.53376 360.1006 1683 -64.84891 344.341 1652 -64.84891 344.341 1683 64.84891 344.341 1652 64.84891 344.341 1683 -67 327.5 1652 -67 327.5 1683 67 327.5 1652 67 327.5 1683 -112 306 335 -112 306 365 -112 306 1611 -112 306 1644 -110 306 365 -110 306 1611 -67 306 1644 67 306 1644 110 306 365 110 306 1611 112 306 335 112 306 365 112 306 1611 112 306 1644 -40 272.5 1381 -40 272.5 1644 40 272.5 1381 40 272.5 1644 -67 232.5 1644 -67 232.5 1683 67 232.5 1644 67 232.5 1683 -64.28603 213.6239 1644 -64.28603 213.6239 1683 64.28603 213.6239 1644 64.28603 213.6239 1683 -56.36399 196.277 1644 -56.36399 196.277 1683 56.36399 196.277 1644 56.36399 196.277 1683 -40 192.5 1381 -40 192.5 1644 40 192.5 1381 40 192.5 1644 -43.87567 181.8648 1644 -43.87567 181.8648 1683 43.87567 181.8648 1644 43.87567 181.8648 1683 -27.83281 171.5547 1644 -27.83281 171.5547 1683 27.83281 171.5547 1644 27.83281 171.5547 1683 -9.535095 166.182 1644 -9.535095 166.182 1683 9.535095 166.182 1644 9.535095 166.182 1683</float_array>
          <technique_common>
            <accessor source="#EMROX-Argo_IPA-HN_V1_02_03_Simu_EMROX_IPA-HN_Aufbau_Hubachse2_V-mesh-positions-array" count="130" stride="3">
              <param name="X" type="float"/>
              <param name="Y" type="float"/>
              <param name="Z" type="float"/>
            </accessor>
          </technique_common>
        </source>
        <source id="EMROX-Argo_IPA-HN_V1_02_03_Simu_EMROX_IPA-HN_Aufbau_Hubachse2_V-mesh-normals">
          <float_array id="EMROX-Argo_IPA-HN_V1_02_03_Simu_EMROX_IPA-HN_Aufbau_Hubachse2_V-mesh-normals-array" count="648">0 1 0 -1 0 0 0 -1 0 1 0 0 0 0 -1 -0.2959327 0.9552088 6.05011e-6 -0.5264819 0.8501864 3.64333e-6 -0.2959327 0.9552088 -4.99177e-6 -0.2958905 0.955222 -5.66989e-6 -0.526485 0.8501845 4.99364e-6 -0.5264851 0.8501845 5.61029e-6 -0.2958914 0.9552217 -5.61029e-6 -0.5264452 0.8502092 -9.16022e-6 -0.2958914 0.9552216 -6.08107e-6 -0.526529 0.8501572 -6.0788e-6 -0.526529 0.8501572 -8.20309e-6 -0.7232452 0.6905913 2.49512e-6 -0.7232506 0.6905857 8.19936e-6 -0.5265357 0.850153 -2.49512e-6 -0.7232507 0.6905856 6.0788e-6 -0.7232875 0.6905471 -6.08107e-6 -0.7232875 0.6905471 -8.24779e-6 -0.8736123 0.4866229 2.52532e-6 -0.8736123 0.4866229 8.24407e-6 -0.7232875 0.6905471 -2.52627e-6 -0.8736123 0.4866229 6.07879e-6 -0.8736404 0.4865722 -6.08107e-6 -0.8736404 0.4865722 -8.17329e-6 -0.9678809 0.2514097 2.55552e-6 -0.9678809 0.2514097 8.17329e-6 -0.8736404 0.4865722 -2.55648e-6 -0.9678809 0.2514097 6.07879e-6 -0.9678955 0.2513535 -6.08107e-6 -0.9678954 0.2513535 -8.19564e-6 -1 5.29885e-5 2.49513e-6 -1 5.25042e-5 8.19191e-6 -0.9678956 0.251353 3.78296e-5 -1 5.24968e-5 6.07879e-6 1 5.34654e-5 -6.07879e-6 1 5.34505e-5 -8.19191e-6 0.9678953 0.2513539 2.49606e-6 0.9678957 0.2513526 8.19564e-6 1 5.20199e-5 -2.49513e-6 0.9678957 0.2513526 6.08107e-6 0.9678809 0.2514097 -6.07879e-6 0.9678809 0.2514097 -8.17329e-6 0.8736404 0.4865722 2.55648e-6 0.8736404 0.4865722 8.17329e-6 0.9678809 0.2514097 -2.55552e-6 0.8736404 0.4865722 6.08107e-6 0.8736123 0.4866229 -6.07879e-6 0.8736123 0.4866229 -8.24407e-6 0.7232875 0.6905471 2.52627e-6 0.7232875 0.6905471 8.24779e-6 0.8736123 0.4866229 -2.52532e-6 0.7232875 0.6905471 6.08107e-6 0.7232473 0.6905891 -6.07879e-6 0.7232473 0.6905891 -8.20309e-6 0.5265315 0.8501557 2.49513e-6 0.5265331 0.8501546 8.20309e-6 0.7232486 0.6905878 -2.49513e-6 0.5265331 0.8501546 6.07879e-6 0.5264836 0.8501854 5.77498e-6 0.5264836 0.8501854 -1.93715e-7 0.2958887 0.9552224 -1.21817e-6 0.2959327 0.9552088 1.93715e-7 0.5264819 0.8501864 -7.44086e-7 0.2959327 0.9552088 6.07879e-6 0.2958914 0.9552216 -5.77498e-6 0.2958914 0.9552216 -6.05237e-6 0.5264452 0.8502092 -1.10678e-5 0 0 1 0 2.14565e-7 1 0 -6.80627e-6 1 0 -1.83645e-5 1 0 -9.09095e-7 1 0 -4.80175e-7 1 0 -1.36125e-5 1 0 5.94724e-6 1 0 2.35308e-5 1 0 -3.74079e-5 -1 0 -1.97044e-5 1 0 1.22884e-5 -1 0 5.16879e-6 -1 0 -2.85005e-6 -1 0 -1.70756e-5 -1 -1 -3.88622e-5 -6.82891e-6 -1 -3.8892e-5 7.63684e-7 -0.9595042 -0.2816946 -3.16711e-6 -0.9595041 -0.281695 -7.15256e-7 -1 -3.92646e-5 4.80449e-5 -0.9595041 -0.281695 6.82891e-6 -0.9594817 -0.2817711 -6.82891e-6 -0.9594817 -0.2817712 7.22706e-7 -0.8412742 -0.5406088 -3.23496e-6 -0.8412752 -0.5406072 -7.26432e-7 -0.9594822 -0.2817693 3.23496e-6 -0.8412752 -0.5406071 6.82891e-6 -0.8412305 -0.5406768 -6.82891e-6 -0.8412305 -0.5406768 7.48783e-7 -0.6548876 -0.7557263 -4.8045e-5 -0.6548922 -0.7557225 -7.45058e-7 -0.8412337 -0.5406718 3.16712e-6 -0.6548922 -0.7557225 6.82891e-6 -0.654831 -0.7557754 -6.82891e-6 -0.6548309 -0.7557753 7.7486e-7 -0.4154505 -0.9096158 -3.16711e-6 -0.4154495 -0.9096163 -7.63684e-7 -0.65483 -0.7557762 3.16711e-6 -0.4154495 -0.9096163 6.82891e-6 -0.41538 -0.9096481 -6.82891e-6 -0.41538 -0.9096481 7.59959e-7 -0.1423544 -0.9898158 -3.16711e-6 -0.1423528 -0.9898161 -7.56234e-7 -0.4153786 -0.9096487 3.16711e-6 -0.1423528 -0.9898161 6.82891e-6 -0.142276 -0.989827 -6.82891e-6 -0.142276 -0.989827 7.71135e-7 0.142276 -0.989827 -3.16711e-6 0.142276 -0.989827 -7.71135e-7 -0.142276 -0.989827 3.16711e-6 0.142276 -0.989827 6.82891e-6 0.1423544 -0.9898158 -6.82891e-6 0.1423543 -0.9898158 7.6741e-7 0.41538 -0.9096481 -3.16711e-6 0.4153786 -0.9096487 -7.63685e-7 0.1423528 -0.9898161 3.16712e-6 0.4153786 -0.9096487 6.82891e-6 0.4154495 -0.9096163 -6.82891e-6 0.4154495 -0.9096163 7.63684e-7 0.65483 -0.7557762 -3.16711e-6 0.6548309 -0.7557753 -7.7486e-7 0.4154505 -0.9096158 3.16711e-6 0.654831 -0.7557754 6.82891e-6 0.654889 -0.7557252 -6.82892e-6 0.6548891 -0.7557251 7.33882e-7 0.8412314 -0.5406754 -3.16711e-6 0.8412327 -0.5406734 -7.41333e-7 0.6548908 -0.7557236 7.05008e-5 0.8412327 -0.5406734 6.82891e-6 0.8412739 -0.5406092 -6.82892e-6 0.841274 -0.5406092 7.26432e-7 0.9594815 -0.2817718 -3.23495e-6 0.9594823 -0.2817688 -7.22706e-7 0.8412756 -0.5406066 3.23496e-6 0.9594824 -0.2817688 6.82892e-6 0.9595041 -0.281695 -6.82891e-6 0.9595041 -0.281695 7.15256e-7 1 -3.92646e-5 -4.80449e-5 1 -3.8892e-5 -7.63684e-7 0.9595042 -0.2816946 3.16711e-6 1 -3.88622e-5 6.82891e-6 -5.69821e-5 1 1.21047e-5 -0.4902898 0.8715595 7.16746e-6 -5.70268e-5 1 -2.60782e-7 -5.33313e-5 1 -3.09944e-6 -0.4903194 0.8715429 -3.17721e-6 -0.4999426 0.8660587 9.07853e-6 -0.5000474 0.8659981 5.73928e-6 -0.4903824 0.8715075 -7.46734e-6 -0.8546803 0.5191549 -3.96371e-6 -0.5000545 0.865994 1.2368e-5 -0.8546722 0.5191682 -5.74999e-6 -0.8659939 0.5000546 1.07884e-5 -0.8660542 0.4999502 1.54274e-5 -0.8547348 0.519065 -6.67106e-6 -0.9994423 0.03339207 1.21444e-5 -0.8660527 0.4999528 -2.17557e-6 -0.9994428 0.03337991 1.24238e-5 -1 5.28939e-5 -2.15322e-6 -1 -9.73791e-6 6.64615e-7 -0.999444 0.03334558 -1.51631e-6 -0.9997532 0.02221798 -1.94646e-7 -1 2.60193e-5 -4.34054e-7 -0.9997534 0.02221322 6.38553e-7 -0.9999384 0.01110279 -5.16404e-7 -0.9999384 0.01109665 3.02788e-7 -1 -2.48123e-5 2.69207e-7 -1 -2.48118e-5 0 1 -2.48123e-5 2.67937e-7 0.9999384 0.01109665 4.25258e-7 1 -2.48123e-5 0 1 2.60193e-5 -3.25381e-7 0.9999384 0.01110279 -3.93353e-7 0.9997534 0.02221322 8.3854e-7 1 -9.74536e-6 8.95816e-7 0.9997532 0.02221792 0 0.999444 0.03334552 -2.0868e-6 1 5.76526e-5 -1.29063e-5 0.9994426 0.03338456 2.81632e-6 0.8660502 0.4999571 8.52719e-6 0.8660536 0.4999513 -1.32322e-5 0.9994423 0.03339165 2.0368e-6 0.854735 0.5190647 2.2212e-6 0.8660117 0.5000239 -4.12576e-7 0.8546668 0.519177 2.33129e-5 0.5000432 0.8660005 2.27438e-5 0.5000469 0.8659985 -2.42144e-5 0.8546803 0.5191546 -1.45598e-5 0.4903824 0.8715074 -1.95811e-6 0.4999438 0.8660578 3.43937e-6 0.4903213 0.8715417 2.73362e-5 5.48116e-5 1 7.78353e-6 5.70268e-5 1 -3.15607e-5 0.4902898 0.8715595 -3.66303e-6 5.69821e-5 1 1.21621e-5 0 2.94397e-6 1 0 -4.22688e-5 1 0 -4.19617e-5 1 0 -4.25727e-5 1 0 -9.72464e-5 1 0 -9.74785e-5 1 0 -9.70065e-5 1 0 5.89262e-5 1 0 5.88974e-5 1 0 5.89566e-5 1</float_array>
          <technique_common>
            <accessor source="#EMROX-Argo_IPA-HN_V1_02_03_Simu_EMROX_IPA-HN_Aufbau_Hubachse2_V-mesh-normals-array" count="216" stride="3">
              <param name="X" type="float"/>
              <param name="Y" type="float"/>
              <param name="Z" type="float"/>
            </accessor>
          </technique_common>
        </source>
        <source id="EMROX-Argo_IPA-HN_V1_02_03_Simu_EMROX_IPA-HN_Aufbau_Hubachse2_V-mesh-map-0">
          <float_array id="EMROX-Argo_IPA-HN_V1_02_03_Simu_EMROX_IPA-HN_Aufbau_Hubachse2_V-mesh-map-0-array" count="1536">0 0 8 0 0 26.3 0 26.3 8 0 8 26.3 0 0 8 0 0 26.3 0 26.3 8 0 8 26.3 0 0 8 0 0 26.3 0 26.3 8 0 8 26.3 0 0 8 0 0 26.3 0 26.3 8 0 8 26.3 4 4 -4 4 4 -4 4 -4 -4 4 -4 -4 0 2 3.964845 2 0 3.1 0 3.1 3.964845 2 3.964845 3.1 0 0 0 1.702357 -2 0 -2 0 0 1.702357 -3.1 1.702357 -2 0 -3.1 1.702357 -3.1 0 -3.1 1.702357 0 1.702357 -3.1 3.404713 -3.1 3.404713 0 1.702357 0 3.404713 -3.1 3.404713 0 3.404713 -3.1 5.10707 -3.1 5.10707 0 3.404713 0 5.10707 -3.1 5.10707 0 5.10707 -3.1 6.809427 -3.1 6.809427 0 5.10707 0 6.809427 -3.1 6.809427 0 6.809427 -3.1 8.511784 -3.1 8.511784 0 6.809427 0 8.511784 -3.1 0 0 0 -3.1 1.702357 -3.1 1.702357 0 0 0 1.702357 -3.1 1.702357 0 1.702357 -3.1 3.404713 -3.1 3.404713 0 1.702357 0 3.404713 -3.1 3.404713 0 3.404713 -3.1 5.10707 -3.1 5.10707 0 3.404713 0 5.10707 -3.1 5.10707 0 5.10707 -3.1 6.809427 -3.1 6.809427 0 5.10707 0 6.809427 -3.1 6.809427 0 6.809427 -2 8.511784 -2 8.511784 0 6.809427 0 8.511784 -2 8.511784 -3.1 8.511784 -3.1 6.809427 -4.9 6.7 -11.3 1.982423 4.6 6.7 4.6 6.7 -11.3 1.982423 10.69453 2.783281 4.6 6.7 10.69453 2.783281 9.663522 4.387567 -6.584099 6.484891 -8.160059 5.853376 -4.9 6.7 -4.9 6.7 -8.160059 5.853376 -9.526686 4.846007 -4.9 6.7 -9.526686 4.846007 -10.59622 3.527467 -10.59622 3.527467 -11.3 1.982423 -4.9 6.7 10.69453 2.783281 -11.3 1.982423 11.2318 0.953509 11.2318 0.953509 -11.3 1.982423 -11.3 -1.982423 11.2318 0.953509 -11.3 -1.982423 11.2318 -0.953509 11.2318 -0.953509 -11.3 -1.982423 10.69453 -2.783281 10.69453 -2.783281 -11.3 -1.982423 4.6 -6.7 10.69453 -2.783281 4.6 -6.7 9.663522 -4.387567 9.663522 -4.387567 4.6 -6.7 8.222294 -5.636399 8.222294 -5.636399 4.6 -6.7 6.487608 -6.428603 4.6 -6.7 -11.3 -1.982423 -4.9 -6.7 -4.9 -6.7 -11.3 -1.982423 -10.59622 -3.527467 -4.9 -6.7 -10.59622 -3.527467 -9.526686 -4.846007 -9.526686 -4.846007 -8.160059 -5.853376 -4.9 -6.7 -4.9 -6.7 -8.160059 -5.853376 -6.584099 -6.484891 9.663522 4.387567 8.222294 5.636399 4.6 6.7 4.6 6.7 8.222294 5.636399 6.487608 6.428603 -3.9 -6.7 -5.584099 -6.484891 -10.3 -6.7 -10.3 -6.7 -5.584099 -6.484891 -7.160059 -5.853376 -10.3 -6.7 -7.160059 -5.853376 -8.526686 -4.846007 -8.526686 -4.846007 -9.596225 -3.527467 -10.3 -6.7 -10.3 -6.7 -9.596225 -3.527467 -10.3 -1.982423 4.717577 2 0 2 4.717577 0 4.717577 0 0 2 0 0 -0.5 6.7 0.25 6.499038 1 6.7 1 6.7 0.25 6.499038 0.799038 5.95 1 6.7 0.799038 5.95 1 5.2 8.682423 0 13.4 0 8.682423 2 8.682423 2 13.4 0 13.4 2 1 -6.7 1 -1.982423 -1 -6.7 -1 -6.7 1 -1.982423 1 1.982423 -1 -6.7 1 1.982423 -1 6.7 -1 6.7 1 1.982423 1 6.7 1 -5.2 0.799038 -5.95 1 -6.7 1 -6.7 0.799038 -5.95 0.25 -6.499038 1 -6.7 0.25 -6.499038 -0.5 -6.7 -1.6 -4 1.75 -6.7 -1.6 4 -1.6 4 1.75 -6.7 1.75 6.7 -1.6 4 1.75 6.7 -5.6 6.7 1.75 -6.7 -1.6 -4 -5.6 -6.7 -5.6 -6.7 -1.6 -4 -9.600001 -4 -5.6 -6.7 -9.600001 -4 -7.487608 -6.428603 -7.487608 -6.428603 -9.600001 -4 -9.222294 -5.636399 -9.222294 -5.636399 -9.600001 -4 -10.66352 -4.387567 -10.66352 -4.387567 -9.600001 -4 -11.69453 -2.783281 -11.69453 -2.783281 -9.600001 -4 -12.2318 -0.953509 -12.2318 -0.953509 -9.600001 -4 -12.2318 0.953509 -12.2318 0.953509 -9.600001 -4 -9.600001 4 -12.2318 0.953509 -9.600001 4 -11.69453 2.783281 -11.69453 2.783281 -9.600001 4 -10.66352 4.387567 -10.66352 4.387567 -9.600001 4 -9.222294 5.636399 -9.222294 5.636399 -9.600001 4 -7.487608 6.428603 -7.487608 6.428603 -9.600001 4 -5.6 6.7 -5.6 6.7 -9.600001 4 -1.6 4 10.85 6.699166 10.85 -6.699166 11.57868 6.482049 11.57868 6.482049 10.85 -6.699166 11.57868 -6.482049 11.57868 6.482049 11.57868 -6.482049 12.10729 -5.935518 11.57868 6.482049 12.10729 -5.935518 12.10729 5.935518 12.10729 5.935518 12.10729 -5.935518 12.3 -5.2 12.10729 5.935518 12.3 -5.2 12.3 5.2 0 3.9 0 0 9.5 0.8 9.5 0.8 0 0 7.35 0 9.5 0.8 7.35 0 16.4 0 9.5 0.8 16.4 0 15.9 0.8 15.9 0.8 16.4 0 16.4 0.8 15.9 0.8 16.4 0.8 15.9 2.8 15.9 2.8 16.4 0.8 17.9 2.8 17.9 2.8 16.4 0.8 17.9 0.8 9.5 0.8 9.5 3.9 0 3.9 -3.9 0 0 0 -3.9 1.913515 -3.9 1.913515 0 0 0 1.913515 -3.9 1.913515 0 1.913515 -3.9 3.827031 -3.9 3.827031 0 1.913515 0 3.827031 -3.9 3.827031 0 3.827031 -3.9 5.740546 -3.9 5.740546 0 3.827031 0 5.740546 -3.9 5.740546 0 5.740546 -3.9 7.654062 -3.9 7.654062 0 5.740546 0 7.654062 -3.9 7.654062 0 7.654062 -3.9 9.567578 -3.9 9.567578 0 7.654062 0 9.567578 -3.9 9.567578 0 9.567578 -3.9 11.48109 -3.9 11.48109 0 9.567578 0 11.48109 -3.9 11.48109 0 11.48109 -3.9 13.39461 -3.9 13.39461 0 11.48109 0 13.39461 -3.9 13.39461 0 13.39461 -3.9 15.30812 -3.9 15.30812 0 13.39461 0 15.30812 -3.9 15.30812 0 15.30812 -3.9 17.22164 -3.9 17.22164 0 15.30812 0 17.22164 -3.9 17.22164 0 17.22164 -3.9 19.13516 -3.9 19.13516 0 17.22164 0 19.13516 -3.9 19.13516 0 19.13516 -3.9 21.04867 -3.9 21.04867 0 19.13516 0 21.04867 9.050001 0 6.9 0.8 0 0 0 0 6.9 0.8 0.5 0.8 0 0 0.5 0.8 0 0.8 0 0.8 0.5 0.8 0.5 2.8 0 0.8 0.5 2.8 -1.5 2.8 9.050001 0 16.4 0 6.9 0.8 6.9 0.8 16.4 0 16.4 3.9 6.9 0.8 16.4 3.9 6.9 3.9 -1.5 2.8 -1.5 0.8 0 0.8 0 0 0 0.768728 -0.8 0 -0.8 0 0 0.768728 -0.8 0.785398 -0.8 0.785398 0 0.768728 0 1.537457 -0.8 0.785398 0 1.537457 -0.8 1.570796 -0.8 1.570796 0 1.537457 0 2.306185 -0.8 1.570796 0 2.306185 -0.8 2.356194 -0.8 2.356194 0 2.306185 0 2.322855 -0.8 2.356194 0 2.322855 0 2.339525 0 2.339525 0 2.356194 -0.8 2.356194 0 0 10.4 0 0 0.8 0 0.8 10.4 0 10.4 0.8 0 0.8 10.4 0.8 -1.5 2.8 -1.5 2.8 10.4 0.8 11.9 2.8 11.9 2.8 10.4 0.8 11.9 0.8 -1.5 2.8 -1.5 0.8 0 0.8 0 0 0 0.01666998 -0.8 0 -0.8 0 0 0.01666998 0 0.03333997 -0.8 0 0 0.03333997 0 0.05000895 -0.8 0 0 0.05000895 -0.8 0.785398 -0.8 0.785398 0 0.05000895 0 0.818738 -0.8 0.785398 0 0.818738 -0.8 1.570796 -0.8 1.570796 0 0.818738 0 1.587466 -0.8 1.570796 0 1.587466 -0.8 2.356194 -0.8 2.356194 0 1.587466 0 2.356194 -10.3 1.982423 -9.596225 3.527467 -10.3 6.7 -10.3 6.7 -9.596225 3.527467 -8.526686 4.846007 -10.3 6.7 -8.526686 4.846007 -7.160059 5.853376 -7.160059 5.853376 -5.584099 6.484891 -10.3 6.7 -10.3 6.7 -5.584099 6.484891 -3.9 6.7 -4.516669 -6.699907 -4.55 -11.2 -4.5 -6.7 -4.5 -6.7 -4.55 -11.2 4.55 -11.2 -4.5 -6.7 4.55 -11.2 4.55 -6.7 -4.516669 -6.699907 -4.533337 -6.699629 -4.55 -11.2 -4.55 -11.2 -4.533337 -6.699629 -4.55 -6.699166 -4.55 6.699166 -4.533337 6.699629 -4.55 11.2 -4.55 11.2 -4.533337 6.699629 -4.516669 6.699907 -4.55 11.2 -4.516669 6.699907 -4.5 6.7 4.55 6.7 4.55 11.2 -4.5 6.7 -4.5 6.7 4.55 11.2 -4.55 11.2 0 0 9.100001 0 0 3.3 0 3.3 9.100001 0 9.100001 3.3 0 3.3 0 0 4.500834 3.3 4.500834 3.3 0 0 22.4 0 4.500834 3.3 22.4 0 17.89917 3.3 17.89917 3.3 22.4 0 22.4 3.3 0 0 9.100001 0 0 3.3 0 3.3 9.100001 0 9.100001 3.3 -4.55 -11 -4.55 -11.2 1.92 -11 1.92 -11 -4.55 -11.2 4.55 -11.2 1.92 -11 4.55 -11.2 3.82 -8 3.82 -8 4.55 -11.2 3.82 -6 3.82 -6 4.55 -11.2 3.82 6 3.82 -6 3.82 6 1.92 6 4.55 -11.2 4.55 11.2 3.82 6 3.82 6 4.55 11.2 3.82 8 3.82 8 4.55 11.2 1.92 11 3.82 8 1.92 11 1.92 8 4.55 11.2 -4.55 11.2 1.92 11 1.92 11 -4.55 11.2 -4.55 11 1.92 6 1.92 -6 3.82 -6 3.82 -8 1.92 -8 1.92 -11 0 0 6.47 0 0 124.6 0 124.6 6.47 0 6.47 124.6 0 0 3 0 0 124.6 0 124.6 3 0 3 124.6 0 0 1.9 0 0 124.6 0 124.6 1.9 0 1.9 124.6 0 0 2 0 0 124.6 0 124.6 2 0 2 124.6 0 0 1.9 0 0 124.6 0 124.6 1.9 0 1.9 124.6 0 0 12 0 0 124.6 0 124.6 12 0 12 124.6 0 0 1.9 0 0 124.6 0 124.6 1.9 0 1.9 124.6 0 0 2 0 0 124.6 0 124.6 2 0 2 124.6 0 0 1.9 0 0 124.6 0 124.6 1.9 0 1.9 124.6 0 0 3 0 0 124.6 0 124.6 3 0 3 124.6 0 0 6.47 0 0 124.6 0 124.6 6.47 0 6.47 124.6 0 0 22.4 0 0 3 0 3 22.4 0 22.4 3 0 0 9.100001 0 0 3 0 3 9.100001 0 9.100001 3 0 3 0 0 0.2 3 0.2 3 0 0 22.4 0 0.2 3 22.4 0 22.2 3 22.2 3 22.4 0 22.4 3 22.2 127.6 17.9 130.9 22.2 3 22.2 3 17.9 130.9 4.5 130.9 22.2 3 4.5 130.9 0.2 3 0.2 3 4.5 130.9 0.2 127.6 0.2 127.6 4.5 130.9 0 130.9 0.2 127.6 0 130.9 0 127.6 22.4 127.6 22.4 130.9 22.2 127.6 22.2 127.6 22.4 130.9 17.9 130.9 0 0 9.100001 0 0 3 0 3 9.100001 0 9.100001 3 4.55 11 4.55 11.2 -1.92 11 -1.92 11 4.55 11.2 -4.55 11.2 -1.92 11 -4.55 11.2 -3.82 8 -3.82 8 -4.55 11.2 -3.82 6 -3.82 6 -4.55 11.2 -4.55 -11.2 -3.82 6 -4.55 -11.2 -3.82 -6 -3.82 -6 -4.55 -11.2 -3.82 -8 -3.82 -8 -4.55 -11.2 -1.92 -11 -3.82 -8 -1.92 -11 -1.92 -8 -4.55 -11.2 4.55 -11.2 -1.92 -11 -1.92 -11 4.55 -11.2 4.55 -11 -3.82 -6 -1.92 -6 -3.82 6 -3.82 6 -1.92 -6 -1.92 6 -3.82 8 -1.92 8 -1.92 11 -4.55 -11.2 4.55 -11.2 -4.55 11.2 -4.55 11.2 4.55 -11.2 4.55 11.2</float_array>
          <technique_common>
            <accessor source="#EMROX-Argo_IPA-HN_V1_02_03_Simu_EMROX_IPA-HN_Aufbau_Hubachse2_V-mesh-map-0-array" count="768" stride="2">
              <param name="S" type="float"/>
              <param name="T" type="float"/>
            </accessor>
          </technique_common>
        </source>
        <vertices id="EMROX-Argo_IPA-HN_V1_02_03_Simu_EMROX_IPA-HN_Aufbau_Hubachse2_V-mesh-vertices">
          <input semantic="POSITION" source="#EMROX-Argo_IPA-HN_V1_02_03_Simu_EMROX_IPA-HN_Aufbau_Hubachse2_V-mesh-positions"/>
        </vertices>
        <triangles material="__0_0-material" count="10">
          <input semantic="VERTEX" source="#EMROX-Argo_IPA-HN_V1_02_03_Simu_EMROX_IPA-HN_Aufbau_Hubachse2_V-mesh-vertices" offset="0"/>
          <input semantic="NORMAL" source="#EMROX-Argo_IPA-HN_V1_02_03_Simu_EMROX_IPA-HN_Aufbau_Hubachse2_V-mesh-normals" offset="1"/>
          <input semantic="TEXCOORD" source="#EMROX-Argo_IPA-HN_V1_02_03_Simu_EMROX_IPA-HN_Aufbau_Hubachse2_V-mesh-map-0" offset="2" set="0"/>
          <p>99 0 0 101 0 1 98 0 2 98 0 3 101 0 4 100 0 5 115 1 6 99 1 7 114 1 8 114 1 9 99 1 10 98 1 11 117 2 12 115 2 13 116 2 14 116 2 15 115 2 16 114 2 17 101 3 18 117 3 19 100 3 20 100 3 21 117 3 22 116 3 23 100 4 24 116 4 25 98 4 26 98 4 27 116 4 28 114 4 29</p>
        </triangles>
        <triangles material="_54_254_255-material" count="246">
          <input semantic="VERTEX" source="#EMROX-Argo_IPA-HN_V1_02_03_Simu_EMROX_IPA-HN_Aufbau_Hubachse2_V-mesh-vertices" offset="0"/>
          <input semantic="NORMAL" source="#EMROX-Argo_IPA-HN_V1_02_03_Simu_EMROX_IPA-HN_Aufbau_Hubachse2_V-mesh-normals" offset="1"/>
          <input semantic="TEXCOORD" source="#EMROX-Argo_IPA-HN_V1_02_03_Simu_EMROX_IPA-HN_Aufbau_Hubachse2_V-mesh-map-0" offset="2" set="0"/>
          <p>40 0 30 37 0 31 41 0 32 41 0 33 37 0 34 38 0 35 36 5 36 52 6 37 37 7 38 37 8 39 52 9 40 53 10 41 37 11 42 53 12 43 38 13 44 53 14 45 52 15 46 57 16 47 57 17 48 52 18 49 56 19 50 57 20 51 56 21 52 73 22 53 73 23 54 56 24 55 72 25 56 73 26 57 72 27 58 77 28 59 77 29 60 72 30 61 76 31 62 77 32 63 76 33 64 81 34 65 81 35 66 76 36 67 80 37 68 83 38 69 82 39 70 79 40 71 79 41 72 82 42 73 78 43 74 79 44 75 78 45 76 75 46 77 75 47 78 78 48 79 74 49 80 75 50 81 74 51 82 59 52 83 59 53 84 74 54 85 58 55 86 59 56 87 58 57 88 55 58 89 55 59 90 58 60 91 54 61 92 55 62 93 54 63 94 40 64 95 40 65 96 54 66 97 39 67 98 40 68 99 41 69 100 55 70 101 83 71 102 41 71 103 105 71 104 105 72 105 41 72 106 125 72 107 105 73 108 125 73 109 121 73 110 79 71 111 75 71 112 83 71 113 83 74 114 75 74 115 59 74 116 83 71 117 59 71 118 55 71 119 55 71 120 41 71 121 83 71 122 125 71 123 41 71 124 129 71 125 129 71 126 41 71 127 38 71 128 129 75 129 38 75 130 127 75 131 127 76 132 38 76 133 123 76 134 123 71 135 38 71 136 103 71 137 123 77 138 103 77 139 119 77 140 119 71 141 103 71 142 111 71 143 111 71 144 103 71 145 107 71 146 103 71 147 38 71 148 81 71 149 81 78 150 38 78 151 53 78 152 81 71 153 53 71 154 57 71 155 57 74 156 73 74 157 81 74 158 81 71 159 73 71 160 77 71 161 121 71 162 113 71 163 105 71 164 105 71 165 113 71 166 109 71 167 80 71 168 76 71 169 34 71 170 34 71 171 76 71 172 72 71 173 34 71 174 72 71 175 56 71 176 56 71 177 52 71 178 34 71 179 34 79 180 52 79 181 36 79 182 37 2 183 35 2 184 36 2 185 36 2 186 35 2 187 34 2 188 33 4 189 15 4 190 6 4 191 6 80 192 15 80 193 11 80 194 6 4 195 11 4 196 5 4 197 39 2 198 42 2 199 40 2 200 40 2 201 42 2 202 43 2 203 35 71 204 37 71 205 1 71 206 1 81 207 37 81 208 40 81 209 1 71 210 40 71 211 7 71 212 7 71 213 40 71 214 43 71 215 3 4 216 10 4 217 0 4 218 0 80 219 10 80 220 14 80 221 0 4 222 14 4 223 31 4 224 99 4 225 90 4 226 101 4 227 101 4 228 90 4 229 91 4 230 101 4 231 91 4 232 104 4 233 90 4 234 99 4 235 102 4 236 102 4 237 99 4 238 115 4 239 102 4 240 115 4 241 106 4 242 106 4 243 115 4 244 110 4 245 110 4 246 115 4 247 118 4 248 118 4 249 115 4 250 122 4 251 122 4 252 115 4 253 126 4 254 126 4 255 115 4 256 128 4 257 128 4 258 115 4 259 117 4 260 128 82 261 117 82 262 124 82 263 124 4 264 117 4 265 120 4 266 120 4 267 117 4 268 112 4 269 112 4 270 117 4 271 108 4 272 108 4 273 117 4 274 104 4 275 104 4 276 117 4 277 101 4 278 21 4 279 20 4 280 13 4 281 13 83 282 20 83 283 12 83 284 13 84 285 12 84 286 8 84 287 13 4 288 8 4 289 9 4 290 9 85 291 8 85 292 2 85 293 9 4 294 2 4 295 4 4 296 105 3 297 104 3 298 82 3 299 82 3 300 104 3 301 91 3 302 82 3 303 91 3 304 32 3 305 82 3 306 32 3 307 42 3 308 42 3 309 32 3 310 33 3 311 42 3 312 33 3 313 43 3 314 43 3 315 33 3 316 7 3 317 7 3 318 33 3 319 6 3 320 82 3 321 83 3 322 105 3 323 103 86 324 102 87 325 107 88 326 107 89 327 102 90 328 106 91 329 107 92 330 106 93 331 111 94 332 111 95 333 106 96 334 110 97 335 111 98 336 110 99 337 119 100 338 119 101 339 110 102 340 118 103 341 119 104 342 118 105 343 123 106 344 123 107 345 118 108 346 122 109 347 123 110 348 122 111 349 127 112 350 127 113 351 122 114 352 126 115 353 127 116 354 126 117 355 129 118 356 129 119 357 126 120 358 128 121 359 129 122 360 128 123 361 125 124 362 125 125 363 128 126 364 124 127 365 125 128 366 124 129 367 121 130 368 121 131 369 124 132 370 120 133 371 121 134 372 120 135 373 113 136 374 113 137 375 120 138 376 112 139 377 113 140 378 112 141 379 109 142 380 109 143 381 112 144 382 108 145 383 109 146 384 108 147 385 105 148 386 105 149 387 108 150 388 104 151 389 90 1 390 80 1 391 30 1 392 30 1 393 80 1 394 34 1 395 30 1 396 34 1 397 31 1 398 31 1 399 34 1 400 35 1 401 31 1 402 35 1 403 1 1 404 90 1 405 102 1 406 80 1 407 80 1 408 102 1 409 103 1 410 80 1 411 103 1 412 81 1 413 1 1 414 0 1 415 31 1 416 2 152 417 8 153 418 3 154 419 3 155 420 8 156 421 10 157 422 10 158 423 8 159 424 12 160 425 10 161 426 12 162 427 14 163 428 14 164 429 12 165 430 20 166 431 14 167 432 20 168 433 31 169 434 31 170 435 20 171 436 26 172 437 31 173 438 26 174 439 28 175 440 28 176 441 30 177 442 31 178 443 4 0 444 2 0 445 5 0 446 5 0 447 2 0 448 3 0 449 5 0 450 3 0 451 7 0 452 7 0 453 3 0 454 1 0 455 1 0 456 3 0 457 0 0 458 7 0 459 6 0 460 5 0 461 32 179 462 29 180 463 33 181 464 33 182 465 29 183 466 27 184 467 33 185 468 27 186 469 21 187 470 33 188 471 21 189 472 15 190 473 15 191 474 21 192 475 13 193 476 15 194 477 13 195 478 11 196 479 11 197 480 13 198 481 9 199 482 11 200 483 9 201 484 5 202 485 5 203 486 9 204 487 4 205 488 39 79 489 54 79 490 42 79 491 42 71 492 54 71 493 58 71 494 42 71 495 58 71 496 74 71 497 74 206 498 78 206 499 42 206 500 42 71 501 78 71 502 82 71 503 28 71 504 19 71 505 30 71 506 30 71 507 19 71 508 87 71 509 30 71 510 87 71 511 90 71 512 28 71 513 26 71 514 19 71 515 19 207 516 26 208 517 20 209 518 21 71 519 27 71 520 25 71 521 25 210 522 27 211 523 29 212 524 25 213 525 29 214 526 32 215 527 91 71 528 97 71 529 32 71 530 32 71 531 97 71 532 25 71 533 18 1 534 86 1 535 19 1 536 19 1 537 86 1 538 87 1 539 25 0 540 24 0 541 21 0 542 21 0 543 24 0 544 18 0 545 21 0 546 18 0 547 20 0 548 20 0 549 18 0 550 19 0 551 96 3 552 24 3 553 97 3 554 97 3 555 24 3 556 25 3 557 89 4 558 86 4 559 61 4 560 61 4 561 86 4 562 18 4 563 61 4 564 18 4 565 45 4 566 45 4 567 18 4 568 47 4 569 47 4 570 18 4 571 49 4 572 47 4 573 49 4 574 67 4 575 18 4 576 24 4 577 49 4 578 49 4 579 24 4 580 51 4 581 51 4 582 24 4 583 71 4 584 51 4 585 71 4 586 69 4 587 24 4 588 96 4 589 71 4 590 71 4 591 96 4 592 93 4 593 67 4 594 65 4 595 47 4 596 45 4 597 63 4 598 61 4 599 60 1 600 88 1 601 61 1 602 61 1 603 88 1 604 89 1 605 62 0 606 60 0 607 63 0 608 63 0 609 60 0 610 61 0 611 44 1 612 62 1 613 45 1 614 45 1 615 62 1 616 63 1 617 46 0 618 44 0 619 47 0 620 47 0 621 44 0 622 45 0 623 64 3 624 46 3 625 65 3 626 65 3 627 46 3 628 47 3 629 66 0 630 64 0 631 67 0 632 67 0 633 64 0 634 65 0 635 48 1 636 66 1 637 49 1 638 49 1 639 66 1 640 67 1 641 50 0 642 48 0 643 51 0 644 51 0 645 48 0 646 49 0 647 68 3 648 50 3 649 69 3 650 69 3 651 50 3 652 51 3 653 70 0 654 68 0 655 71 0 656 71 0 657 68 0 658 69 0 659 92 3 660 70 3 661 93 3 662 93 3 663 70 3 664 71 3 665 22 0 666 16 0 667 23 0 668 23 0 669 16 0 670 17 0 671 94 3 672 22 3 673 95 3 674 95 3 675 22 3 676 23 3 677 85 2 678 84 2 679 88 2 680 88 2 681 84 2 682 94 2 683 88 2 684 94 2 685 92 2 686 92 2 687 94 2 688 95 2 689 93 2 690 91 2 691 92 2 692 92 2 693 91 2 694 90 2 695 92 2 696 90 2 697 88 2 698 88 2 699 90 2 700 89 2 701 89 2 702 90 2 703 87 2 704 89 2 705 87 2 706 86 2 707 96 2 708 97 2 709 93 2 710 93 2 711 97 2 712 91 2 713 16 1 714 84 1 715 17 1 716 17 1 717 84 1 718 85 1 719 92 71 720 95 71 721 70 71 722 70 71 723 95 71 724 23 71 725 70 71 726 23 71 727 50 71 728 50 71 729 23 71 730 48 71 731 48 71 732 23 71 733 17 71 734 48 71 735 17 71 736 46 71 737 46 71 738 17 71 739 44 71 740 44 71 741 17 71 742 60 71 743 44 71 744 60 71 745 62 71 746 17 71 747 85 71 748 60 71 749 60 71 750 85 71 751 88 71 752 46 71 753 64 71 754 48 71 755 48 71 756 64 71 757 66 71 758 50 71 759 68 71 760 70 71 761 84 4 762 16 4 763 94 4 764 94 4 765 16 4 766 22 4 767</p>
        </triangles>
      </mesh>
    </geometry>
  </library_geometries>
  <library_visual_scenes>
    <visual_scene id="Scene" name="Scene">
      <node id="EMROX-Argo_IPA-HN_V1_02_03_Simu_EMROX_IPA-HN_Aufbau_Hubachse2_V" name="EMROX-Argo IPA-HN V1.02.03 Simu_EMROX IPA-HN Aufbau Hubachse2 V" type="NODE">
        <matrix sid="transform">-4.37114e-8 1 0 0 -1 -4.37114e-8 0 0 0 0 1 0 0 0 0 1</matrix>
        <instance_geometry url="#EMROX-Argo_IPA-HN_V1_02_03_Simu_EMROX_IPA-HN_Aufbau_Hubachse2_V-mesh" name="EMROX-Argo IPA-HN V1.02.03 Simu_EMROX IPA-HN Aufbau Hubachse2 V">
          <bind_material>
            <technique_common>
              <instance_material symbol="__0_0-material" target="#__0_0-material">
                <bind_vertex_input semantic="UVMap" input_semantic="TEXCOORD" input_set="0"/>
              </instance_material>
              <instance_material symbol="_54_254_255-material" target="#_54_254_255-material">
                <bind_vertex_input semantic="UVMap" input_semantic="TEXCOORD" input_set="0"/>
              </instance_material>
            </technique_common>
          </bind_material>
        </instance_geometry>
      </node>
    </visual_scene>
  </library_visual_scenes>
  <scene>
    <instance_visual_scene url="#Scene"/>
  </scene>
</COLLADA>