<?xml version="1.0" encoding="utf-8"?>
<COLLADA xmlns="http://www.collada.org/2005/11/COLLADASchema" version="1.4.1" xmlns:xsi="http://www.w3.org/2001/XMLSchema-instance">
  <asset>
    <contributor>
      <author>Blender User</author>
      <authoring_tool>Blender 4.2.18 LTS commit date:2026-02-16, commit time:13:37, hash:d71e3422e438</authoring_tool>
    </contributor>
    <created>2026-02-25T22:39:05</created>
    <modified>2026-02-25T22:39:05</modified>
    <unit name="meter" meter="1"/>
    <up_axis>Z_UP</up_axis>
  </asset>
  <library_effects>
    <effect id="_54_254_255_001-effect">
      <profile_COMMON>
        <technique sid="common">
          <lambert>
            <emission>
              <color sid="emission">0 0 0 1</color>
            </emission>
            <diffuse>
              <color sid="diffuse">0.996078 0.996078 1 1</color>
            </diffuse>
            <index_of_refraction>
              <float sid="ior">1.5</float>
            </index_of_refraction>
          </lambert>
        </technique>
      </profile_COMMON>
    </effect>
  </library_effects>
  <library_images/>
  <library_materials>
    <material id="_54_254_255_001-material" name="254,254,255.001">
      <instance_effect url="#_54_254_255_001-effect"/>
    </material>
  </library_materials>
  <library_geometries>
    <geometry id="EMROX-Argo_IPA-HN_V1_02_03_Simu_EMROX_IPA-HN_Schlitten_V1_02_03-mesh" name="EMROX-Argo IPA-HN V1.02.03 Simu_EMROX IPA-HN Schlitten V1.02.03">
      <mesh>
        <source id="EMROX-Argo_IPA-HN_V1_02_03_Simu_EMROX_IPA-HN_Schlitten_V1_02_03-mesh-positions">
          <float_array id="EMROX-Argo_IPA-HN_V1_02_03_Simu_EMROX_IPA-HN_Schlitten_V1_02_03-mesh-positions-array" count="978">204.2154 443.4006 913.875 204.2154 457.5994 913.875 203.1573 429.3605 915.7077 203.1573 471.6395 915.7077 201.0648 415.7926 919.3321 201.0648 485.2074 919.3321 197.9845 403 924.6673 197.9845 498 924.6673 195.5808 444.121 908.8306 195.521 458.4605 908.9343 194.5608 429.9269 910.5972 194.3826 472.6186 910.9059 193.9853 391.2685 931.5942 193.9853 509.7315 931.5942 192.5 322.5 860.9173 192.5 342.5 860.9173 192.5 342.5 861.9173 192.5 425.5 861.9173 192.5 342.5 900.9173 192.5 417.5 900.9173 192.5 417.5 913.6308 192.5 425.5 913.6308 192.5 322.5 993.9173 192.5 342.5 993.9173 192.4842 416.2015 914.194 192.4696 417.5 913.9781 192.4696 425.5 913.9781 192.3794 417.5 914.3149 192.3794 425.5 914.3149 192.366 342.5 861.4173 192.366 425.5 861.4173 192.2321 417.5 914.6308 192.2321 425.5 914.6308 192.1918 486.2727 914.7006 192 342.5 861.0513 192 425.5 861.0513 191.5 342.5 860.9173 191.5 425.5 860.9173 189.3983 403.2577 919.539 189.1565 380.8601 939.9579 189.1565 520.1399 939.9579 188.9983 499.1117 920.2319 185.3735 391.3902 926.5102 184.8749 510.8431 927.3738 183.606 372.0073 949.5716 183.606 528.9927 949.5716 180.5013 380.8696 934.949 179.9156 521.1996 935.9635 177.4577 364.908 960.2207 177.4577 536.0921 960.2207 176.188 425.5 942.4199 176.188 525.5 942.4199 174.893 371.9355 944.663 174.2335 529.9452 945.8053 170.8491 359.7206 971.6671 170.8491 541.2794 971.6671 170.188 425.5 952.8122 170.188 525.5 952.8122 168.6761 364.7915 955.4309 167.9578 536.8807 956.675 167.5278 525.5 937.4199 163.9278 356.5611 983.6552 163.9278 544.4389 983.6552 161.9924 359.6003 967.0074 161.5278 525.5 947.8122 161.2317 541.848 968.325 156.8483 355.5 995.9173 156.8483 545.5 995.9173 154.9942 356.4803 979.1287 154.2085 544.7338 980.4896 152.5 322.5 860.9173 152.5 417.5 860.9173 152.5 342.5 900.9173 152.5 417.5 900.9173 152.5 322.5 993.9173 152.5 342.5 993.9173 149.7688 356.5611 1008.179 149.7688 544.4389 1008.179 147.8409 355.5025 991.5186 147.048 545.4727 992.8919 142.8474 359.7206 1020.168 142.8474 541.2794 1020.168 140.6955 356.6893 1003.895 139.9135 544.0475 1005.249 136.2388 364.908 1031.614 136.2388 536.0921 1031.614 133.7208 360.0135 1015.975 132.9676 540.4909 1017.28 130.0906 372.0073 1042.263 130.0906 528.9927 1042.263 127.0758 365.3995 1027.485 126.3684 534.8838 1028.71 126.188 425.5 1029.022 126.188 525.5 1029.022 124.5401 380.8601 1051.877 124.5401 520.1399 1051.877 120.9118 372.7245 1038.161 120.2664 527.354 1039.279 120.188 425.5 1039.415 120.188 525.5 1039.415 119.7113 391.2685 1060.24 119.7113 509.7315 1060.24 117.5278 525.5 1024.022 115.7121 403 1067.167 115.7121 498 1067.167 115.3693 381.8216 1047.761 114.8006 518.0731 1048.746 112.6318 415.7926 1072.503 112.6318 485.2074 1072.503 111.5278 525.5 1034.415 110.5746 392.4835 1056.066 110.5392 429.3605 1076.127 110.5392 471.6395 1076.127 110.0956 507.2526 1056.895 109.4811 443.4006 1077.96 109.4811 457.5994 1077.96 106.6369 404.4673 1062.886 106.2584 495.139 1063.541 103.6459 417.5 1068.067 103.3767 482.0083 1068.533 103.35 419.1437 1068.579 103.0693 420.798 1069.065 102.8039 417.5 1069.525 102.8039 422.4624 1069.525 102.4189 425.5 1070.322 102.3623 425.5 1070.29 102.3618 417.5 1070.473 102.1874 425.5 1071.037 102.0912 417.5 1071.483 102.047 425.5 1071.775 102 376 860.9173 102 417.5 860.9173 102 417.5 1072.525 102 425.5 1072.525 102 417.5 1158.917 102 425.5 1158.917 102 376 1160.917 102 417.5 1160.917 101.7321 417.5 1159.917 101.7321 425.5 1159.917 101.5159 468.1596 1071.756 101.0029 439.5799 1072.644 101 417.5 1160.649 101 425.5 1160.649 100.7186 453.9086 1073.137 100 417.5 1160.917 100 425.5 1160.917 80 376 860.9173 80 389.7 860.9173 80 376 1160.917 80 389.7 1160.917 60 376 860.9173 60 389.7 860.9173 60 376 1160.917 60 389.7 1160.917 46.28421 425.5 867.4199 46.28421 435.5 867.4199 40.28421 425.5 877.8122 40.28421 435.5 877.8122 39.58548 425.5 979.0224 39.58548 435.5 979.0224 33.58548 425.5 989.4147 33.58548 435.5 989.4147 -33.58548 425.5 989.4147 -33.58548 435.5 989.4147 -39.58548 425.5 979.0224 -39.58548 435.5 979.0224 -40.28421 425.5 877.8122 -40.28421 435.5 877.8122 -46.28421 425.5 867.4199 -46.28421 435.5 867.4199 -60 376 860.9173 -60 389.7 860.9173 -60 376 1160.917 -60 389.7 1160.917 -80 376 860.9173 -80 389.7 860.9173 -80 376 1160.917 -80 389.7 1160.917 -100 417.5 1160.917 -100 425.5 1160.917 -100.7186 453.9086 1073.137 -101 417.5 1160.649 -101 425.5 1160.649 -101.0029 439.5799 1072.644 -101.5159 468.1596 1071.756 -101.7321 417.5 1159.917 -101.7321 425.5 1159.917 -102 376 860.9173 -102 417.5 860.9173 -102 417.5 1072.525 -102 425.5 1072.525 -102 417.5 1158.917 -102 425.5 1158.917 -102 376 1160.917 -102 417.5 1160.917 -102.047 425.5 1071.775 -102.0912 417.5 1071.483 -102.1874 425.5 1071.037 -102.3623 425.5 1070.29 -102.3618 417.5 1070.473 -102.4189 425.5 1070.322 -102.8039 417.5 1069.525 -102.8039 422.4624 1069.525 -103.0693 420.798 1069.065 -103.35 419.1437 1068.579 -103.3767 482.0083 1068.533 -103.6459 417.5 1068.067 -106.2584 495.139 1063.541 -106.6369 404.4673 1062.886 -109.4811 443.4006 1077.96 -109.4811 457.5994 1077.96 -110.0956 507.2526 1056.895 -110.5392 429.3605 1076.127 -110.5392 471.6395 1076.127 -110.5746 392.4835 1056.066 -111.5278 525.5 1034.415 -112.6318 415.7926 1072.503 -112.6318 485.2074 1072.503 -114.8006 518.0731 1048.746 -115.3693 381.8216 1047.761 -115.7121 403 1067.167 -115.7121 498 1067.167 -117.5278 525.5 1024.022 -119.7113 391.2685 1060.24 -119.7113 509.7315 1060.24 -120.188 425.5 1039.415 -120.188 525.5 1039.415 -120.2664 527.354 1039.279 -120.9118 372.7245 1038.161 -124.5401 380.8601 1051.877 -124.5401 520.1399 1051.877 -126.188 425.5 1029.022 -126.188 525.5 1029.022 -126.3684 534.8838 1028.71 -127.0758 365.3995 1027.485 -130.0906 372.0073 1042.263 -130.0906 528.9927 1042.263 -132.9676 540.4909 1017.28 -133.7208 360.0135 1015.975 -136.2388 364.908 1031.614 -136.2388 536.0921 1031.614 -139.9135 544.0475 1005.249 -140.6955 356.6893 1003.895 -142.8474 359.7206 1020.168 -142.8474 541.2794 1020.168 -147.048 545.4727 992.8919 -147.8409 355.5025 991.5186 -149.7688 356.5611 1008.179 -149.7688 544.4389 1008.179 -152.5 322.5 860.9173 -152.5 417.5 860.9173 -152.5 342.5 900.9173 -152.5 417.5 900.9173 -152.5 322.5 993.9173 -152.5 342.5 993.9173 -154.2085 544.7338 980.4896 -154.9942 356.4803 979.1287 -156.8483 355.5 995.9173 -156.8483 545.5 995.9173 -161.2317 541.848 968.325 -161.5278 525.5 947.8122 -161.9924 359.6003 967.0074 -163.9278 356.5611 983.6552 -163.9278 544.4389 983.6552 -167.5278 525.5 937.4199 -167.9578 536.8807 956.675 -168.6761 364.7915 955.4309 -170.188 425.5 952.8122 -170.188 525.5 952.8122 -170.8491 359.7206 971.6671 -170.8491 541.2794 971.6671 -174.2335 529.9452 945.8053 -174.893 371.9355 944.663 -176.188 425.5 942.4199 -176.188 525.5 942.4199 -177.4577 364.908 960.2207 -177.4577 536.0921 960.2207 -179.9156 521.1996 935.9635 -180.5013 380.8696 934.949 -183.606 372.0073 949.5716 -183.606 528.9927 949.5716 -184.8749 510.8431 927.3738 -185.3735 391.3902 926.5102 -188.9983 499.1117 920.2319 -189.1565 380.8601 939.9579 -189.1565 520.1399 939.9579 -189.3983 403.2577 919.539 -191.5 342.5 860.9173 -191.5 425.5 860.9173 -192 342.5 861.0513 -192 425.5 861.0513 -192.1918 486.2727 914.7006 -192.2321 417.5 914.6308 -192.2321 425.5 914.6308 -192.366 342.5 861.4173 -192.366 425.5 861.4173 -192.3794 417.5 914.3149 -192.3794 425.5 914.3149 -192.4696 417.5 913.9781 -192.4696 425.5 913.9781 -192.4842 416.2015 914.194 -192.5 322.5 860.9173 -192.5 342.5 860.9173 -192.5 342.5 861.9173 -192.5 425.5 861.9173 -192.5 342.5 900.9173 -192.5 417.5 900.9173 -192.5 417.5 913.6308 -192.5 425.5 913.6308 -192.5 322.5 993.9173 -192.5 342.5 993.9173 -193.9853 391.2685 931.5942 -193.9853 509.7315 931.5942 -194.3826 472.6186 910.9059 -194.5608 429.9269 910.5972 -195.521 458.4605 908.9343 -195.5808 444.121 908.8306 -197.9845 403 924.6673 -197.9845 498 924.6673 -201.0648 415.7926 919.3321 -201.0648 485.2074 919.3321 -203.1573 429.3605 915.7077 -203.1573 471.6395 915.7077 -204.2154 443.4006 913.875 -204.2154 457.5994 913.875</float_array>
          <technique_common>
            <accessor source="#EMROX-Argo_IPA-HN_V1_02_03_Simu_EMROX_IPA-HN_Schlitten_V1_02_03-mesh-positions-array" count="326" stride="3">
              <param name="X" type="float"/>
              <param name="Y" type="float"/>
              <param name="Z" type="float"/>
            </accessor>
          </technique_common>
        </source>
        <source id="EMROX-Argo_IPA-HN_V1_02_03_Simu_EMROX_IPA-HN_Schlitten_V1_02_03-mesh-normals">
          <float_array id="EMROX-Argo_IPA-HN_V1_02_03_Simu_EMROX_IPA-HN_Schlitten_V1_02_03-mesh-normals-array" count="2778">0 1 0 0 0 1 0 -1 0 1 0 0 -1 0 0 2.76128e-6 -1 0 -8.55277e-6 -1 0 1.05978e-4 -1 0 1.05973e-4 -1 0 1.05983e-4 -1 0 0.4823562 -0.2631844 0.8355036 0.4874595 -0.2225286 0.8443129 0.4777307 -0.2951279 0.8274497 0.477725 -0.2951273 0.8274532 0.4874565 -0.2225332 0.8443135 0.4654275 -0.3653045 0.8061823 0.477707 -0.2951384 0.8274596 0.4654427 -0.3653374 0.8061586 0.4749295 -0.3126515 0.8226124 0.474914 -0.3126661 0.8226158 0.4654441 -0.3653414 0.8061559 0.471972 -0.330059 0.8174984 0.471974 -0.3300809 0.8174883 0.4654398 -0.3653438 0.8061575 0.4688563 -0.3473529 0.8121082 0.4688535 -0.3473908 0.8120935 0.4654374 -0.3653359 0.8061624 0.4373989 -0.484513 0.7575812 0.4373836 -0.4845445 0.7575699 0.4654316 -0.3653697 0.8061504 0.4330102 -0.4999943 0.7500052 0.4373813 -0.4845595 0.7575616 0.4330102 -0.5000087 0.7499957 0.3959429 -0.6106923 0.6857727 0.3959311 -0.6106973 0.685775 0.4329921 -0.5000335 0.7499896 0.3909221 -0.6234848 0.6770869 0.3959222 -0.6107262 0.6857544 0.3909116 -0.6235142 0.6770658 0.3454775 -0.7229048 0.5983762 0.3454721 -0.7229079 0.5983756 0.3909001 -0.623521 0.6770662 0.3401002 -0.7330313 0.5890645 0.3454526 -0.7229411 0.5983467 0.340087 -0.733063 0.5890327 0.2871311 -0.8186756 0.4973188 0.287119 -0.8186857 0.4973093 0.3400778 -0.733063 0.589038 0.2816724 -0.8262171 0.4878792 0.2871137 -0.8186986 0.497291 0.281654 -0.8262561 0.4878235 0.2222414 -0.895792 0.3849228 0.2222353 -0.895788 0.3849357 0.2816427 -0.826255 0.4878321 0.2169473 -0.9009577 0.3757782 0.2222226 -0.8958001 0.3849145 0.2169384 -0.9009692 0.3757556 0.1522896 -0.9524863 0.263776 0.1522886 -0.9524866 0.2637755 0.216923 -0.9009833 0.3757308 0.1473971 -0.9555613 0.2552977 0.1522775 -0.9524962 0.2637473 0.1473813 -0.9555706 0.2552716 0.0788815 -0.9874792 0.1366118 0.07887631 -0.9874791 0.1366146 0.1473769 -0.955574 0.2552614 0.07452267 -0.9888296 0.1290831 0.07885432 -0.9874867 0.1365731 0.07450741 -0.9888367 0.129038 0.003672838 -0.9999731 0.006360232 0.003659248 -0.9999731 0.006362318 0.07449942 -0.9888356 0.1290509 1.69054e-5 -1 3.24249e-5 0.003642737 -0.9999735 0.006318271 -2.42516e-6 -1 -1.06401e-5 -0.07163041 -0.9896832 -0.124082 -0.07163327 -0.9896843 -0.124072 -1.31829e-5 -1 -1.48597e-5 -0.07450932 -0.9888354 -0.129047 -0.07164454 -0.9896801 -0.124099 -0.07452321 -0.9888309 -0.1290728 -0.1453062 -0.9568394 -0.2516838 -0.1453025 -0.9568441 -0.2516679 -0.07454222 -0.9888265 -0.1290953 -0.1473702 -0.9555802 -0.2552419 -0.1453092 -0.9568399 -0.2516798 -0.1473913 -0.9555619 -0.2552983 -0.2156547 -0.9022023 -0.3735292 -0.2156547 -0.9022074 -0.3735168 -0.1473748 -0.955572 -0.2552704 -0.2169235 -0.9009835 -0.37573 -0.2156678 -0.9021878 -0.3735569 -0.2169496 -0.9009634 -0.3757629 -0.2810941 -0.8270086 -0.4868707 -0.2810878 -0.8270072 -0.4868765 -0.2169562 -0.9009599 -0.3757678 -0.2816545 -0.8262517 -0.4878308 -0.281102 -0.8269948 -0.4868895 -0.2816629 -0.8262393 -0.487847 -0.3401381 -0.732952 -0.5891413 -0.3401322 -0.7329622 -0.589132 -0.2816643 -0.8262273 -0.4878664 -0.3400822 -0.7330599 -0.5890393 -0.3401435 -0.7329442 -0.5891479 -0.340093 -0.733042 -0.5890554 -0.3909136 -0.6235035 -0.6770746 0.4823816 -0.2631517 0.8354994 0.4823794 -0.26316 0.8354981 0.4874618 -0.2225189 0.8443141 0.4874635 -0.2225183 0.8443134 0.4823828 -0.2631508 0.835499 0.4966995 -0.114991 0.8602713 0.4874524 -0.2225002 0.8443245 0.4966953 -0.1149419 0.8602803 0.4986018 -0.07472735 0.8636042 0.498609 -0.07471615 0.863601 0.4967061 -0.1149185 0.8602772 0.499686 0.03583711 0.8654651 0.4985986 -0.07471036 0.8636075 0.4996697 0.0358603 0.8654735 0.4985964 0.07471102 0.8636086 0.4986042 0.07472789 0.8636028 0.4996837 0.03588187 0.8654645 0.4913039 0.1858515 0.8509289 0.4985984 0.07474631 0.8636045 0.4912915 0.1858979 0.8509258 0.4874644 0.2225241 0.8443112 0.4874649 0.2225205 0.844312 0.4912989 0.1858995 0.8509211 0.4717007 0.3316732 0.8170014 0.4874594 0.222544 0.844309 0.4716926 0.3316586 0.8170121 0.4654353 0.36534 0.8061618 0.4654466 0.3653585 0.8061468 0.4716989 0.3316814 0.8169991 0.4413566 0.4698806 0.7644715 0.4654282 0.365365 0.8061546 0.4413588 0.4698764 0.7644729 0.4330089 0.499992 0.7500076 0.4330113 0.5000112 0.7499934 0.4413661 0.4698961 0.7644566 0.4009725 0.597391 0.6945107 0.4330102 0.5000072 0.7499967 0.4009693 0.5973943 0.6945096 0.3909146 0.6234632 0.6771111 0.3909189 0.6235039 0.6770712 0.4009666 0.5974017 0.6945049 0.3514652 0.7112843 0.6087257 0.3909075 0.6234966 0.6770845 0.3514444 0.7112952 0.608725 0.3400973 0.7330203 0.58908 0.3400905 0.7330504 0.5890463 0.3514443 0.7113281 0.6086865 0.2939181 0.808976 0.5090876 0.3400827 0.7330538 0.5890468 0.293906 0.8089817 0.5090854 0.2816627 0.8262335 0.4878569 0.2816583 0.8262478 0.4878352 0.2939108 0.8089948 0.5090617 0.2296902 0.8882412 0.3978317 0.2816491 0.8262457 0.4878442 0.2296745 0.8882539 0.3978123 0.2169354 0.9009662 0.3757644 0.2169464 0.900967 0.3757562 0.2296808 0.8882562 0.3978034 0.1602266 0.9472681 0.2775077 0.2169409 0.9009748 0.3757408 0.1602127 0.9472746 0.2774938 0.1473838 0.9555684 0.2552787 0.147383 0.9555698 0.255274 0.1602243 0.9472754 0.2774846 0.08711338 0.9847071 0.1508749 0.1473585 0.9555806 0.2552476 0.08710205 0.9847096 0.1508648 0.07452559 0.9888286 0.1290888 0.07452207 0.9888309 0.1290742 0.08710265 0.9847121 0.1508483 0.01201599 0.9997113 0.02080905 0.07450616 0.9888358 0.1290449 0.01200121 0.9997121 0.02077704 1.04988e-5 1 2.44137e-5 7.32578e-6 1 6.44475e-6 0.01199948 0.9997127 0.02075523 -0.06335896 0.9919376 -0.1097518 -2.52649e-5 1 -2.89623e-5 -0.06337386 0.9919344 -0.109772 -0.07451635 0.9888361 -0.1290373 -0.07451677 0.9888323 -0.1290661 -0.06337445 0.991931 -0.1098025 -0.1372918 0.9615648 -0.2377901 -0.0745241 0.9888312 -0.12907 -0.1373017 0.9615619 -0.2377965 -0.1473745 0.9555752 -0.2552581 -0.1473751 0.9555712 -0.255273 -0.1373025 0.9615581 -0.2378112 -0.2081013 0.9092681 -0.3604517 -0.1473892 0.9555655 -0.2552863 -0.2081012 0.9092705 -0.3604459 -0.2169378 0.9009769 -0.3757374 -0.2169416 0.9009695 -0.3757532 -0.2080979 0.9092633 -0.3604656 -0.2741653 0.8362687 -0.4748559 -0.2169414 0.900968 -0.3757571 -0.2741654 0.8362647 -0.4748629 -0.2816566 0.8262585 -0.4878182 -0.2816671 0.826218 -0.4878805 -0.2741643 0.8362507 -0.4748879 -0.3339583 0.7442301 -0.5784406 -0.28167 0.8262251 -0.4878671 -0.3339704 0.7442212 -0.5784451 -0.3400837 0.733065 -0.5890322 -0.3400884 0.7330417 -0.5890585 -0.3339688 0.7441987 -0.5784749 -0.3861753 0.6351941 -0.6688776 -0.3400829 0.7330483 -0.5890533 -0.3861771 0.6352017 -0.6688693 -0.3909152 0.623497 -0.6770796 -0.3909168 0.6234913 -0.677084 -0.3861868 0.6351595 -0.6689037 -0.4295843 0.5116959 -0.7440596 -0.3909136 0.6234899 -0.677087 -0.4295765 0.5117152 -0.7440509 -0.4330165 0.4999979 -0.7499993 -0.433007 0.4999921 -0.7500086 -0.4295843 0.5116676 -0.7440791 -0.4632009 0.376576 -0.8022689 -0.4330106 0.4999997 -0.7500016 -0.4632025 0.3765833 -0.8022646 -0.4654433 0.3653362 -0.8061587 -0.4654418 0.3653273 -0.8061638 -0.4631999 0.3765308 -0.8022909 -0.486256 0.2328584 -0.8422187 -0.4654507 0.3652999 -0.806171 -0.4862607 0.2328542 -0.842217 -0.4874677 0.2225331 -0.844307 -0.4874585 0.2225185 -0.8443163 -0.486258 0.232793 -0.8422355 -0.498241 0.0838297 -0.8629766 -0.4874625 0.2225 -0.8443188 -0.4982418 0.08381706 -0.8629773 -0.4986019 0.07475131 -0.8636021 -0.4986029 0.0747261 -0.8636037 -0.4982391 0.08379185 -0.8629813 -0.4988712 -0.06714522 -0.8640712 -0.4986047 0.07473117 -0.8636021 -0.4988667 -0.06715571 -0.864073 -0.4986016 -0.07473093 -0.863604 -0.4985955 -0.07475394 -0.8636054 -0.4988676 -0.06717938 -0.8640707 -0.488136 -0.2165372 -0.8454791 -0.4986014 -0.07476538 -0.8636011 -0.4881368 -0.2165361 -0.8454789 -0.4874724 -0.222486 -0.8443167 -0.4874626 -0.2225224 -0.8443127 -0.4881341 -0.2165729 -0.845471 -0.4662847 -0.3610212 -0.8076151 -0.4874624 -0.2225164 -0.8443145 -0.4662866 -0.3610235 -0.8076131 -0.4654436 -0.3653152 -0.8061682 -0.4654393 -0.3653455 -0.8061569 -0.4662793 -0.3610536 -0.8076038 -0.4337929 -0.4972782 -0.7513577 -0.465442 -0.3653396 -0.806158 -0.4338002 -0.4972559 -0.7513682 -0.4330096 -0.4999995 -0.7500022 -0.4330064 -0.5000069 -0.7499991 -0.4337812 -0.4973048 -0.7513467 -0.3914364 -0.6221826 -0.6779871 -0.4329965 -0.5000274 -0.7499912 -0.391431 -0.6222001 -0.6779741 -0.3909195 -0.6234754 -0.677097 -0.3909176 -0.6234866 -0.6770879 -0.3914258 -0.6222115 -0.6779667 -0.3401377 -0.73295 -0.5891439 -0.8660259 0 0.4999992 -0.8660264 0 0.4999983 -0.8660261 0 0.4999991 -0.8660254 0 0.5000001 -0.8660249 0 0.5000011 -0.8660254 0 0.5 -0.8660259 0 0.4999993 -0.8660271 0 0.499997 -0.866026 0 0.4999991 -0.866025 0 0.5000007 -0.866023 0 0.5000043 -0.8660234 0 0.5000036 -0.8660277 0 0.4999961 -0.8660274 0 0.4999968 -0.8660256 0 0.4999997 -0.8660266 0 0.4999979 -0.866024 0 0.5000026 -0.8660241 0 0.5000025 -0.8660218 0 0.5000066 -0.8660249 0 0.5000008 -0.8660356 0 0.4999824 -0.8660352 0 0.4999832 -0.8660244 0 0.5000019 -0.8660234 0 0.5000036 -0.8660266 0 0.4999981 -0.8660262 0 0.4999988 -0.8660252 0 0.5000005 -0.8660262 0 0.4999988 -0.8660245 0 0.5000018 -0.8660238 0 0.5000028 -0.8660248 0 0.5000011 -0.8660262 0 0.4999989 -0.8660273 0 0.4999969 -0.8660278 0 0.499996 -0.8660249 0 0.5000012 -0.8660284 0 0.4999949 -0.8660231 0 0.5000042 -0.8660282 0 0.4999954 -0.8660315 0 0.4999893 0.8660264 -6.76689e-6 -0.4999985 0.8660239 1.81337e-6 -0.5000028 0.8660265 -9.85852e-7 -0.4999982 0.8660246 -8.70985e-6 -0.5000014 0.8660268 1.22312e-5 -0.4999976 0.8660237 -2.10124e-6 -0.5000031 0.8660271 -6.56012e-6 -0.4999973 0.8660252 1.97016e-6 -0.5000005 0.8660263 -1.22044e-6 -0.4999985 0.8660248 6.28324e-6 -0.5000011 0.8660289 -2.12291e-6 -0.4999942 0.8660245 -3.06331e-6 -0.5000016 0.8660236 0 -0.5000033 0.8660259 1.77383e-5 -0.4999992 0.8660267 0 -0.4999977 0.8660252 -8.39448e-6 -0.5000005 0.8660166 0 -0.5000153 0.8660299 0 -0.4999925 0.8660262 2.13861e-6 -0.4999986 0.8660253 0 -0.5000004 0.866025 -1.21602e-6 -0.5000008 0.866026 0 -0.4999992 0.8660258 0 -0.4999994 0.8660238 -6.1104e-7 -0.5000028 0.8660267 1.61394e-6 -0.4999979 0.8660252 0 -0.5000004 0.8660232 -2.82608e-5 -0.5000038 0.8660198 0 -0.5000098 0.8660269 0 -0.4999976 0.8660275 0 -0.4999963 0.8660281 0 -0.4999954 0.8660208 1.09765e-5 -0.500008 0.8660258 3.8778e-6 -0.4999994 0.8660255 0 -0.5 0.8660256 -6.58772e-7 -0.4999998 0.8660254 0 -0.5 0.8660249 8.66016e-6 -0.500001 0.8660256 6.10247e-6 -0.4999996 0.8660248 -8.016e-6 -0.5000011 0.8660237 0 -0.500003 0.8660244 1.57746e-5 -0.5000017 0.8660296 0 -0.4999929 0.8660272 0 -0.4999969 0.866025 1.97742e-6 -0.5000007 0.8660261 1.12003e-6 -0.499999 0.8660252 -5.09172e-6 -0.5000005 0.8660267 3.61194e-6 -0.4999979 0.866024 6.91482e-6 -0.5000026 0.8660269 -1.44197e-5 -0.4999973 0.8660256 5.8364e-6 -0.4999998 -0.8660424 -2.49389e-6 0.4999707 -0.8660424 -2.55276e-6 0.4999707 -0.9301899 1.38395e-6 0.367079 -0.9301905 1.09104e-6 0.3670774 -0.8660347 4.38886e-7 0.4999841 -0.9396778 9.09204e-7 0.3420612 -0.9301939 2.83285e-6 0.3670685 -0.9396973 -1.38371e-6 0.3420075 -0.9687617 2.79804e-6 0.2479937 -0.9687675 1.89006e-6 0.2479708 -0.9396998 2.12388e-6 0.3420007 -0.984806 -4.46104e-6 0.1736581 -0.9687731 3.48315e-6 0.2479492 -0.984809 8.02975e-7 0.1736414 -0.9921624 -5.01506e-6 0.1249558 -0.9921649 5.57152e-6 0.1249362 -0.9848073 5.9423e-6 0.1736506 -1 2.15136e-7 5.17815e-6 -0.9921665 2.75765e-6 0.1249223 -1 1.16428e-6 3.43099e-5 -1 0 3.44962e-5 -0.4967021 -0.1149832 0.8602708 -0.4823861 -0.2631452 0.8354989 -0.4874649 -0.2225128 0.8443141 -0.4874637 -0.2225068 0.8443162 -0.4823816 -0.2631477 0.8355007 -0.482384 -0.2631394 0.8355019 -0.4874492 -0.2225524 0.8443127 -0.4823655 -0.2631738 0.8355018 -0.4777185 -0.2951149 0.8274614 -0.4874569 -0.2225369 0.8443123 -0.4777247 -0.2951293 0.8274527 -0.4654374 -0.3653039 0.8061769 -0.4654416 -0.3653405 0.8061579 -0.4777277 -0.2951296 0.8274508 -0.4749112 -0.312639 0.8226278 -0.4654378 -0.3653379 0.8061612 -0.4749275 -0.3126536 0.8226127 -0.4719865 -0.3300787 0.8174821 -0.4719737 -0.3300808 0.8174886 -0.4688565 -0.3473529 0.8121082 -0.4654407 -0.3653436 0.8061569 -0.4654441 -0.3653344 0.8061592 -0.4688646 -0.347389 0.812088 -0.4373967 -0.4845126 0.7575829 -0.4654344 -0.365367 0.80615 -0.4373772 -0.4845431 0.7575746 -0.4330096 -0.4999917 0.7500073 -0.4330089 -0.500009 0.7499963 -0.4373828 -0.4845594 0.757561 -0.39593 -0.6106905 0.6857818 -0.4330104 -0.4999979 0.7500027 -0.3959306 -0.6107019 0.6857714 -0.3909186 -0.6234896 0.6770845 -0.3909163 -0.6235139 0.6770634 -0.3959312 -0.6107258 0.6857495 -0.3454723 -0.7229053 0.5983785 -0.3909239 -0.6234838 0.6770868 -0.3454658 -0.7229085 0.5983785 -0.3400895 -0.7330322 0.5890696 -0.3400852 -0.7330646 0.5890318 -0.3454641 -0.7229414 0.5983397 -0.287128 -0.8186768 0.4973188 -0.3400783 -0.7330664 0.5890334 -0.2871181 -0.8186882 0.4973056 -0.2816681 -0.8262198 0.487877 -0.2816531 -0.8262563 0.487824 -0.2871162 -0.8186984 0.4972898 -0.2222288 -0.8957912 0.3849319 -0.2816463 -0.8262548 0.4878303 -0.2222377 -0.8957876 0.384935 -0.2169462 -0.9009575 0.3757791 -0.216947 -0.9009687 0.3757518 -0.2222254 -0.8958 0.3849132 -0.1522876 -0.9524862 0.2637774 -0.2169255 -0.9009841 0.3757275 -0.1522896 -0.9524871 0.2637734 -0.1473947 -0.9555617 0.2552972 -0.1473803 -0.9555709 0.2552713 -0.1522801 -0.9524964 0.2637453 -0.07887911 -0.9874792 0.1366125 -0.147378 -0.9555746 0.2552585 -0.07887601 -0.9874795 0.1366129 -0.07451891 -0.98883 0.129083 -0.07450687 -0.9888367 0.1290383 -0.07885736 -0.9874866 0.1365716 -0.00367099 -0.9999731 0.006361544 -0.07450276 -0.9888356 0.1290491 -0.003660917 -0.9999731 0.006361663 -1.54264e-5 -1 3.3445e-5 2.79583e-6 -1 -1.05985e-5 -0.003645718 -0.9999735 0.006316661 0.07163226 -0.9896832 -0.1240808 4.26173e-6 -1 -2.34614e-5 0.07163691 -0.9896839 -0.1240722 0.0745061 -0.988835 -0.129051 0.07452368 -0.9888308 -0.1290734 0.0716421 -0.9896799 -0.1241011 0.1453083 -0.9568391 -0.2516832 0.07453876 -0.9888267 -0.1290963 0.145301 -0.9568443 -0.2516678 0.1473709 -0.9555805 -0.2552406 0.1473907 -0.9555622 -0.2552974 0.1453063 -0.9568402 -0.25168 0.2156559 -0.9022029 -0.3735271 0.1473808 -0.9555726 -0.2552651 0.2156518 -0.9022081 -0.3735171 0.2169315 -0.9009841 -0.3757242 0.2169502 -0.9009627 -0.3757644 0.2156668 -0.902187 -0.3735592 0.2810965 -0.8270075 -0.4868709 0.216945 -0.9009595 -0.375775 0.2810899 -0.8270069 -0.4868758 0.2816478 -0.8262514 -0.4878352 0.2816633 -0.8262381 -0.4878488 0.2811019 -0.8269936 -0.4868915 0.3401405 -0.7329506 -0.5891417 0.2816627 -0.8262271 -0.4878679 0.3401328 -0.7329618 -0.5891321 0.3400819 -0.7330595 -0.5890399 0.3400928 -0.733042 -0.5890555 0.3401428 -0.7329443 -0.5891484 0.3909152 -0.6235035 -0.6770736 0.390918 -0.6234866 -0.6770877 0.3401361 -0.7329501 -0.5891449 0.3914269 -0.6222115 -0.6779661 0.3909252 -0.6234804 -0.6770892 0.3914282 -0.622205 -0.6779713 0.4330074 -0.5000327 -0.7499813 0.4330066 -0.5000069 -0.7499989 0.3914346 -0.6221826 -0.677988 0.4337831 -0.4973049 -0.7513456 0.4330071 -0.4999995 -0.7500035 0.4337992 -0.4972559 -0.7513687 0.4654431 -0.3653396 -0.8061573 0.4654393 -0.3653455 -0.8061569 0.4337911 -0.4972782 -0.7513586 0.4662723 -0.3610532 -0.807608 0.4654514 -0.365309 -0.8061665 0.4662873 -0.361017 -0.8076155 0.487461 -0.2225561 -0.8443049 0.4874625 -0.2225224 -0.8443129 0.4662829 -0.3610213 -0.8076162 0.4881274 -0.2165725 -0.845475 0.4874706 -0.2224857 -0.8443178 0.4881379 -0.2165358 -0.8454784 0.4986042 -0.07476496 -0.8635995 0.4985952 -0.07475394 -0.8636057 0.4881341 -0.2165374 -0.8454801 0.4988704 -0.06717962 -0.8640691 0.4985981 -0.07473069 -0.863606 0.4988663 -0.06715577 -0.8640733 0.498606 0.07473129 -0.8636014 0.4986023 0.07472616 -0.863604 0.4988692 -0.0671454 -0.8640723 0.4982421 0.08379155 -0.8629797 0.4985988 0.07475149 -0.8636039 0.4982419 0.08381688 -0.8629773 0.4874642 0.2225001 -0.8443178 0.4874578 0.2225185 -0.8443166 0.4982389 0.08382952 -0.8629778 0.4862609 0.2327927 -0.8422338 0.4874651 0.2225265 -0.8443102 0.4862615 0.2328473 -0.8422185 0.465441 0.3653379 -0.8061595 0.4654409 0.3653274 -0.8061643 0.4862539 0.2328581 -0.84222 0.4632025 0.3765304 -0.8022894 0.4654365 0.3653429 -0.8061597 0.4632028 0.3765453 -0.8022822 0.4330243 0.4999646 -0.7500171 0.433015 0.499991 -0.7500047 0.4631879 0.3765743 -0.8022773 0.4295867 0.5116673 -0.744078 0.4330056 0.5000035 -0.7500019 0.4295787 0.5117194 -0.7440467 0.3909364 0.6234568 -0.6771044 0.3909156 0.6234914 -0.6770845 0.4295822 0.5116955 -0.7440611 0.3861889 0.6351593 -0.6689027 0.3909161 0.623496 -0.6770802 0.3861809 0.6352005 -0.6688683 0.340088 0.7330475 -0.5890515 0.3400959 0.7330407 -0.5890554 0.3861731 0.6351938 -0.6688791 0.3339807 0.7441974 -0.5784696 0.340081 0.7330662 -0.5890322 0.3339619 0.7442232 -0.5784474 0.2816711 0.8262262 -0.4878645 0.2816658 0.8262181 -0.487881 0.3339561 0.7442299 -0.5784422 0.2741656 0.8362507 -0.4748874 0.281652 0.8262591 -0.4878197 0.2741634 0.836265 -0.4748636 0.2169402 0.9009684 -0.3757564 0.2169402 0.9009696 -0.3757537 0.2741528 0.8362672 -0.4748656 0.2081094 0.9092625 -0.3604611 0.2169292 0.9009774 -0.3757413 0.2080968 0.9092708 -0.3604475 0.1473941 0.9555654 -0.2552837 0.147382 0.9555707 -0.2552708 0.208099 0.9092679 -0.3604535 0.1373029 0.9615581 -0.237811 0.1473767 0.9555746 -0.2552593 0.1372973 0.9615617 -0.2377996 0.07452899 0.9888309 -0.1290692 0.07452344 0.9888321 -0.1290642 0.1372795 0.961564 -0.2378004 0.06338518 0.9919308 -0.1097987 0.07450187 0.9888368 -0.1290407 0.06337165 0.9919347 -0.1097712 2.37441e-5 1 -2.65799e-5 -8.41916e-7 1 8.10018e-6 0.06335669 0.9919376 -0.1097538 -0.01198911 0.9997127 0.02075886 -1.52439e-5 1 2.5034e-5 -0.01200479 0.9997121 0.02077764 -0.0744993 0.9888349 0.1290556 -0.07451581 0.9888312 0.1290757 -0.01202821 0.9997115 0.02079832 -0.08709257 0.9847126 0.1508517 -0.07453346 0.9888287 0.1290845 -0.08710628 0.9847096 0.1508626 -0.1473541 0.9555809 0.2552489 -0.147377 0.9555703 0.2552754 -0.0871157 0.9847072 0.1508728 -0.1602146 0.947276 0.2774879 -0.1473814 0.9555693 0.2552766 -0.1602262 0.9472603 0.2775347 -0.2169276 0.9009746 0.3757488 -0.2169407 0.9009679 0.3757575 -0.160229 0.9472684 0.2775055 -0.2296715 0.8882572 0.3978067 -0.216943 0.9009656 0.3757616 -0.2296786 0.8882533 0.3978114 -0.2816451 0.8262456 0.4878466 -0.2816601 0.8262475 0.4878348 -0.2296926 0.8882415 0.3978297 -0.2939018 0.8089962 0.5090649 -0.28167 0.8262328 0.4878541 -0.2939099 0.8089808 0.5090847 -0.3400786 0.7330536 0.5890492 -0.3400853 0.7330518 0.5890476 -0.2939304 0.8089781 0.5090768 -0.3514357 0.7113296 0.6086897 -0.3401024 0.7330228 0.5890739 -0.3514531 0.7112957 0.6087194 -0.3909018 0.6235005 0.6770842 -0.3909207 0.6235033 0.6770707 -0.3514677 0.7112848 0.6087236 -0.4009692 0.5974012 0.6945039 -0.3909245 0.6234568 0.6771113 -0.4009692 0.5973901 0.6945134 -0.433009 0.5000012 0.7500015 -0.433013 0.5000106 0.7499929 -0.4009751 0.5973916 0.6945086 -0.4413581 0.469898 0.76446 -0.4330155 0.4999958 0.7500013 -0.4413622 0.4698802 0.7644686 -0.4654245 0.3653705 0.8061543 -0.4654423 0.3653606 0.8061483 -0.4413593 0.4698814 0.7644695 -0.4716911 0.3316835 0.8170028 -0.4654415 0.3653381 0.8061591 -0.4716954 0.3316566 0.8170114 -0.4874551 0.2225432 0.8443117 -0.4874609 0.2225227 0.8443137 -0.4717035 0.331674 0.8169996 -0.4912914 0.1859017 0.850925 -0.4874557 0.2224797 0.844328 -0.491295 0.1858956 0.8509243 -0.4985952 0.07474529 0.8636063 -0.4986005 0.07473021 0.8636047 -0.4913067 0.1858524 0.8509269 -0.4996764 0.03588414 0.8654686 -0.4986038 0.07470875 0.8636047 -0.4996732 0.03585803 0.8654715 -0.4985956 -0.07471126 0.8636091 -0.4986103 -0.0747171 0.8636001 -0.4996889 0.03583806 0.8654634 -0.496699 -0.1149162 0.8602816 -0.4985966 -0.07476168 0.8636043 -0.4966797 -0.1149746 0.8602849 -0.4874508 -0.2224873 0.8443288 0.8660252 0 0.5000004 0.8660262 0 0.4999988 0.8660261 0 0.4999991 0.8660263 0 0.4999985 0.8660244 0 0.5000019 0.8660237 0 0.5000031 0.8660266 0 0.4999981 0.8660262 0 0.4999988 0.8660252 0 0.5000005 0.8660262 0 0.4999988 0.8660244 0 0.5000019 0.8660237 0 0.5000029 0.866025 0 0.5000008 0.8660259 0 0.4999992 0.8660274 0 0.4999966 0.8660276 0 0.4999962 0.866024 0 0.5000026 0.8660249 0 0.5000012 0.8660282 0 0.4999953 0.8660234 0 0.5000036 0.8660282 0 0.4999954 0.8660315 0 0.4999893 0.8660243 0 0.5000022 0.8660259 0 0.4999991 0.8660259 0 0.4999993 0.8660271 0 0.499997 0.866026 0 0.4999991 0.866025 0 0.5000007 0.8660231 0 0.5000042 0.8660233 0 0.5000038 0.8660269 0 0.4999973 0.8660277 0 0.4999963 0.8660255 0 0.4999999 0.8660268 0 0.4999976 0.8660241 0 0.5000025 0.8660218 0 0.5000066 0.8660249 0 0.5000008 0.8660356 0 0.4999824 0.8660352 0 0.4999832 -0.8660254 7.78187e-6 -0.5000001 -0.8660271 -1.35184e-5 -0.4999972 -0.866024 6.91482e-6 -0.5000026 -0.8660269 5.7791e-6 -0.4999975 -0.8660252 -3.81879e-6 -0.5000005 -0.8660261 1.12003e-6 -0.499999 -0.8660247 1.97741e-6 -0.5000013 -0.8660272 0 -0.4999969 -0.8660296 0 -0.4999929 -0.8660277 0 -0.499996 -0.8660237 0 -0.500003 -0.8660248 -8.016e-6 -0.5000011 -0.8660256 0 -0.4999996 -0.8660249 8.66016e-6 -0.500001 -0.8660255 -6.58772e-7 -0.5 -0.8660256 0 -0.4999998 -0.8660258 3.8778e-6 -0.4999994 -0.8660215 1.09765e-5 -0.500007 -0.866029 -3.72904e-6 -0.4999937 -0.8660275 0 -0.4999963 -0.8660258 0 -0.4999995 -0.8660198 0 -0.5000098 -0.8660232 -2.82608e-5 -0.5000038 -0.8660252 0 -0.5000007 -0.8660267 1.61394e-6 -0.4999979 -0.8660238 -6.1104e-7 -0.5000028 -0.8660258 0 -0.4999994 -0.866026 0 -0.4999992 -0.866025 -1.21602e-6 -0.5000008 -0.8660254 8.17192e-7 -0.5 -0.8660262 2.13861e-6 -0.4999986 -0.8660299 0 -0.4999925 -0.8660166 0 -0.5000153 -0.8660258 0 -0.4999996 -0.8660267 0 -0.4999977 -0.8660259 1.77383e-5 -0.4999992 -0.8660228 -4.85202e-6 -0.5000045 -0.8660249 0 -0.5000011 -0.8660289 -2.12291e-6 -0.4999942 -0.8660237 7.85406e-6 -0.5000031 -0.8660264 0 -0.4999984 -0.8660252 1.97016e-6 -0.5000005 -0.866027 -4.10007e-6 -0.4999973 -0.8660235 0 -0.5000034 -0.8660268 1.22312e-5 -0.4999976 -0.8660246 -6.53239e-6 -0.5000014 -0.8660239 1.81337e-6 -0.5000028 -0.8660262 -6.76689e-6 -0.4999988 -0.8660254 0 -0.5 1.19218e-4 1 0 -1.09567e-6 1 0 1.17965e-5 1 0 -9.12869e-5 1 0 1.09567e-6 1 0 -2.21946e-7 1 0 -2.54932e-7 1 0 1.47964e-7 1 0 0.4683103 0.8411783 -0.2703787 0.468311 0.841178 -0.2703783 -0.5000008 0 -0.8660249 -0.5 0 -0.8660255 -0.5 0 -0.8660254 0.8660248 0 -0.5000011 0.8660271 0 -0.4999972 -0.4683118 0.8411775 -0.2703785 -0.4999992 0 0.866026 -0.5000001 0 0.8660255 -0.5000001 0 0.8660254 -0.8660251 0 -0.5000008 -0.8660268 0 -0.4999976 0.6123685 0.7071116 -0.3535507 0.6123794 0.7070975 -0.3535599 -0.5 0 -0.8660255 -0.5000007 0 -0.8660252 0.8660251 0 -0.5000008 0.8660273 0 -0.4999969 -0.6123786 0.7070984 -0.3535594 -0.6123685 0.7071116 -0.3535507 -0.5 0 0.8660255 -0.4999994 1.57828e-6 0.8660258 -0.5 0 0.8660254 -0.8660253 0 -0.5000004 -0.8660271 0 -0.4999972 0.5 0 0.8660254 0.4999994 1.57828e-6 0.8660258 0.5 0 0.8660255 0.5 0 -0.8660255 0.5000007 0 -0.8660252 0.5000001 0 0.8660254 0.5000001 0 0.8660255 0.4999992 0 0.866026 0.5 0 -0.8660254 0.5 0 -0.8660255 0.5000008 0 -0.8660249 0.8660271 -4.18014e-6 0.4999971 0.8660276 -5.98608e-7 0.4999961 0.9396811 -2.19018e-6 0.3420521 0.9396921 5.16418e-7 0.3420214 0.8660439 2.74927e-5 0.499968 0.9396926 4.18243e-6 0.3420205 0.9397016 -4.18238e-6 0.3419957 0.9397016 -2.29105e-7 0.3419957 0.9848059 -2.85381e-6 0.1736593 0.9848059 2.29105e-7 0.1736593 0.9397016 2.85381e-6 0.3419957 0.9848059 4.18238e-6 0.1736593 0.9848123 -4.18461e-6 0.1736225 0.9848121 -5.02448e-7 0.1736236 1 -2.43701e-6 1.11535e-5 1 5.02216e-7 3.8147e-6 0.9848135 2.43701e-6 0.1736164 1 4.18461e-6 4.96209e-6 0.8660215 4.40981e-5 0.5000069 0.8660305 -2.2357e-5 0.4999911 0.8660466 0 0.4999634 0.8660424 6.4075e-7 0.4999707 0.9301899 -1.50595e-6 0.367079 0.8660424 -4.91509e-7 0.4999706 0.8660346 -4.00282e-6 0.499984 0.9301904 -1.75892e-6 0.3670775 0.9396778 1.9304e-6 0.3420612 0.9396973 -4.9267e-7 0.3420075 0.9301939 1.44297e-6 0.3670685 0.9687617 5.5898e-6 0.2479937 0.9396998 0 0.3420006 0.9687675 3.34438e-6 0.2479709 0.9848061 1.01631e-6 0.1736581 0.9848089 1.73185e-6 0.1736416 0.968773 -3.83472e-7 0.2479492 0.9921623 4.88316e-6 0.1249561 0.9848074 3.03518e-6 0.1736506 0.9921649 -3.58559e-7 0.1249358 1 4.0275e-6 5.06866e-6 1 -3.48315e-7 3.43062e-5 0.9921665 0 0.1249223 1 0 3.44962e-5 5.15729e-5 -1.24201e-5 1 5.14388e-5 8.27759e-6 1 0.4999479 4.04921e-6 0.8660556 0.4999444 -8.28132e-6 0.8660576 4.73857e-5 -4.04921e-6 1 0.4999442 1.24201e-5 0.8660576 0.5000163 -1.24223e-5 0.866016 0.5000575 8.24779e-6 0.8659922 0.8660029 4.11091e-6 0.500039 0.8659975 -8.25152e-6 0.5000485 0.500048 -4.11091e-6 0.8659977 0.8659973 1.24201e-5 0.5000488 0.8660557 -1.24201e-5 0.4999477 0.8660557 8.28505e-6 0.4999477 1 4.1726e-6 5.1409e-5 1 -8.28505e-6 5.1409e-5 0.8660557 -4.1726e-6 0.4999477 1 1.24201e-5 5.1409e-5 0 -4.68375e-6 1 0 -2.63463e-5 1 -1 -1.24201e-5 5.1409e-5 -1 8.28505e-6 5.1409e-5 -0.8660557 4.1726e-6 0.4999477 -0.8660557 -8.28505e-6 0.4999477 -1 -4.1726e-6 5.1409e-5 -0.8660557 1.24201e-5 0.4999477 -0.8659973 -1.24201e-5 0.5000488 -0.8659975 8.25152e-6 0.5000485 -0.500048 4.11091e-6 0.8659977 -0.5000575 -8.24779e-6 0.8659922 -0.8660029 -4.11091e-6 0.500039 -0.5000163 1.24223e-5 0.866016 -0.4999442 -1.24201e-5 0.8660576 -0.4999444 8.28132e-6 0.8660576 -4.73857e-5 4.04921e-6 1 -5.14388e-5 -8.27759e-6 1 -0.4999479 -4.04921e-6 0.8660556 -5.15729e-5 1.24201e-5 1 -0.8660466 0 0.4999634 -0.8660305 -2.2357e-5 0.4999911 -0.8660243 4.40977e-5 0.5000021 -1 -4.18461e-6 4.96209e-6 -1 -5.02216e-7 3.8147e-6 -0.9848135 -2.43701e-6 0.1736164 -0.9848121 5.02448e-7 0.1736236 -1 2.43701e-6 1.11535e-5 -0.9848123 4.18461e-6 0.1736225 -0.9848059 -4.18238e-6 0.1736593 -0.9848059 -2.29105e-7 0.1736593 -0.9397016 -2.85381e-6 0.3419957 -0.9397016 2.29105e-7 0.3419957 -0.9848059 2.85381e-6 0.1736593 -0.9397016 4.18238e-6 0.3419957 -0.9396926 -4.18243e-6 0.3420205 -0.9396921 -5.16418e-7 0.3420214 -0.8660439 -2.74927e-5 0.499968 -0.8660276 5.98608e-7 0.4999961 -0.9396811 2.19018e-6 0.3420521 -0.8660271 4.18014e-6 0.4999971 -1 1.24202e-5 -3.80129e-5 -1 -1.35517e-5 -3.9041e-5 -0.8660385 8.08564e-5 -0.4999776 -0.8660399 1.35516e-5 -0.499975 -1 -6.31652e-6 -3.7685e-5 -0.8660385 -1.24202e-5 -0.4999772 -0.8660091 1.24201e-5 -0.5000283 -0.8660091 -1.35306e-5 -0.5000284 -0.5000271 6.31658e-6 -0.8660098 -0.500027 1.3533e-5 -0.8660098 -0.8660091 -6.31545e-6 -0.5000283 -0.5000271 -1.24223e-5 -0.8660098 -0.4999787 1.24223e-5 -0.8660378 -0.4999789 -1.35998e-5 -0.8660376 -3.93391e-5 8.09658e-5 -1 -5.14239e-5 1.35977e-5 -1 -0.4999483 -6.43886e-6 -0.8660554 -5.202e-5 -1.24201e-5 -1 0 1.93379e-5 -1 0 0 -1 0 -1.67847e-6 -1 0 7.02564e-6 -1 0 -4.13273e-6 -1 0 3.86757e-5 -1 0 -2.03982e-5 -1 0 9.57414e-6 -1 5.202e-5 1.24201e-5 -1 5.14239e-5 -1.35977e-5 -1 0.4999483 6.43886e-6 -0.8660554 0.4999789 1.35998e-5 -0.8660376 3.93391e-5 -8.09658e-5 -1 0.4999787 -1.24223e-5 -0.8660378 0.5000271 1.24223e-5 -0.8660098 0.500027 -1.3533e-5 -0.8660098 0.8660091 6.31545e-6 -0.5000283 0.8660091 1.35306e-5 -0.5000284 0.5000271 -6.31658e-6 -0.8660098 0.8660091 -1.24201e-5 -0.5000283 0.8660385 1.24202e-5 -0.4999772 0.8660399 -1.35516e-5 -0.499975 1 6.31652e-6 -3.7685e-5 1 1.35517e-5 -3.9041e-5 0.8660385 -8.08564e-5 -0.4999776 1 -1.24202e-5 -3.80129e-5</float_array>
          <technique_common>
            <accessor source="#EMROX-Argo_IPA-HN_V1_02_03_Simu_EMROX_IPA-HN_Schlitten_V1_02_03-mesh-normals-array" count="926" stride="3">
              <param name="X" type="float"/>
              <param name="Y" type="float"/>
              <param name="Z" type="float"/>
            </accessor>
          </technique_common>
        </source>
        <source id="EMROX-Argo_IPA-HN_V1_02_03_Simu_EMROX_IPA-HN_Schlitten_V1_02_03-mesh-map-0">
          <float_array id="EMROX-Argo_IPA-HN_V1_02_03_Simu_EMROX_IPA-HN_Schlitten_V1_02_03-mesh-map-0-array" count="3888">2 -6.55 1.986603 -6.6 2 -6.65 2 -6.65 1.986603 -6.6 1.95 -6.636602 2 -6.65 1.95 -6.636602 1.9 -6.65 -2 -2.65 2 -2.65 -2 6.65 -2 6.65 2 -2.65 2 6.65 0 0 4 0 0 2 0 2 4 0 4 2 2 6.65 -2 6.65 2 -6.65 2 -6.65 -2 6.65 -2 -6.65 -1.9 -6.65 -1.95 -6.636602 -2 -6.65 -2 -6.65 -1.95 -6.636602 -1.986603 -6.6 -2 -6.65 -1.986603 -6.6 -2 -6.55 -2 -2.65 2 -2.65 -2 6.65 -2 6.65 2 -2.65 2 6.65 0 0 4 0 0 2 0 2 4 0 4 2 2 6.65 -2 6.65 2 -6.65 2 -6.65 -2 6.65 -2 -6.65 0 0 4 0 0 7.5 0 7.5 4 0 4 7.5 4 0 4 7.5 0 0 0 0 4 7.5 0 9.5 0 9.5 4 7.5 13.3 9.5 13.3 9.5 4 7.5 13.3 7.5 0 0 4 0 0 7.5 0 7.5 4 0 4 9.5 0 7.5 4 9.5 -9.300001 9.5 -9.300001 9.5 -9.300001 7.5 0 7.5 0 0 4 0 0 7.5 0 7.5 4 0 4 7.5 -19.25 -9.728651 -19.25 -11 -19.22321 -9.62865 -19.22321 -9.62865 -19.25 -11 -15.25 -11 -19.22321 -9.62865 -15.25 -11 -10.36459 5.714921 -10.36459 5.714921 -15.25 -11 -10.2 -15 -10.36459 5.714921 -10.2 -15 -10.28038 5.86077 -10.28038 5.86077 -10.2 -15 -10.23618 5.955557 -10.23618 5.955557 -10.2 -15 -10.20911 6.056581 -10.20911 6.056581 -10.2 -15 -10.2 6.160769 -15.25 -11 -15.25 -15 -10.2 -15 -19.22321 -9.62865 -19.23794 -9.660246 -19.25 -9.728651 -19.25 -9.728651 -19.23794 -9.660246 -19.24696 -9.693921 15.25 -15 15.25 -11 10.2 -15 10.2 -15 15.25 -11 10.36459 5.714921 10.2 -15 10.36459 5.714921 10.28038 5.86077 10.36459 5.714921 15.25 -11 19.22321 -9.62865 19.22321 -9.62865 15.25 -11 19.25 -11 19.22321 -9.62865 19.25 -11 19.25 -9.728651 19.24696 -9.693921 19.23794 -9.660246 19.25 -9.728651 19.25 -9.728651 19.23794 -9.660246 19.22321 -9.62865 10.28038 5.86077 10.23618 5.955557 10.2 -15 10.2 -15 10.23618 5.955557 10.20911 6.056581 10.2 -15 10.20911 6.056581 10.2 6.160769 0.006534993 17.45236 1 17.05436 0 17.76871 0 17.76871 1 17.05436 1 18.47556 0 17.76871 1 18.47556 0 17.94341 0 17.94341 1 18.47556 0 18.11812 0 18.11812 1 18.47556 0 18.29282 0 18.29282 1 18.47556 0 19.72818 0 19.72818 1 18.47556 1 19.89675 0 19.72818 1 19.89675 0 21.16354 0 21.16354 1 19.89675 1 21.31795 0 21.16354 1 21.31795 0 22.5989 0 22.5989 1 21.31795 1 22.73915 0 22.5989 1 22.73915 0 24.03426 0 24.03426 1 22.73915 1 24.16034 0 24.03426 1 24.16034 0 25.46962 0 25.46962 1 24.16034 1 25.58154 0 25.46962 1 25.58154 0 26.90498 0 26.90498 1 25.58154 1 27.00274 0 26.90498 1 27.00274 0 28.34034 0 28.34034 1 27.00274 1 28.42393 0 28.34034 1 28.42393 0 29.77571 0 29.77571 1 28.42393 1 29.84513 0 29.77571 1 29.84513 0 31.21107 0 -28.4792 1 -29.84513 1 -28.42393 0 -28.4792 1 -28.42393 0 -27.04383 0 -27.04383 1 -28.42393 1 -27.00274 0 -27.04383 1 -27.00274 0 -25.60847 0 -25.60847 1 -27.00274 1 -25.58154 0 -25.60847 1 -25.58154 0 -24.17311 0 -24.17311 1 -25.58154 1 -24.16034 0 -24.17311 1 -24.16034 0 -22.73775 0 -22.73775 1 -24.16034 1 -22.73915 0 -22.73775 1 -22.73915 1 -21.31795 0.006534993 17.45236 0 17.45236 1 17.05436 1 17.05436 0 17.45236 0 16.017 1 17.05436 0 16.017 1 15.63316 1 15.63316 0 16.017 0 14.58164 1 15.63316 0 14.58164 1 14.21197 1 14.21197 0 14.58164 0 13.14627 1 14.21197 0 13.14627 1 12.79077 1 12.79077 0 13.14627 0 11.71091 1 12.79077 0 11.71091 1 11.36957 1 11.36957 0 11.71091 0 10.27555 1 11.36957 0 10.27555 1 9.948377 1 9.948377 0 10.27555 0 8.840192 1 9.948377 0 8.840192 1 8.52718 1 8.52718 0 8.840192 0 7.404831 1 8.52718 0 7.404831 1 7.105983 1 7.105983 0 7.404831 0 5.96947 1 7.105983 0 5.96947 1 5.684787 1 5.684787 0 5.96947 0 4.534109 1 5.684787 0 4.534109 1 4.26359 1 4.26359 0 4.534109 0 3.098748 1 4.26359 0 3.098748 1 2.842393 1 2.842393 0 3.098748 0 1.663387 1 2.842393 0 1.663387 1 1.421197 1 1.421197 0 1.663387 0 0.228026 1 1.421197 0 0.228026 1 0 1 0 0 0.228026 0 -1.207335 1 0 0 -1.207335 1 -1.421197 1 -1.421197 0 -1.207335 0 -2.642696 1 -1.421197 0 -2.642696 1 -2.842393 1 -2.842393 0 -2.642696 0 -4.078057 1 -2.842393 0 -4.078057 1 -4.26359 1 -4.26359 0 -4.078057 0 -5.513418 1 -4.26359 0 -5.513418 1 -5.684787 1 -5.684787 0 -5.513418 0 -6.948779 1 -5.684787 0 -6.948779 1 -7.105983 1 -7.105983 0 -6.948779 0 -8.38414 1 -7.105983 0 -8.38414 1 -8.52718 1 -8.52718 0 -8.38414 0 -9.819501 1 -8.52718 0 -9.819501 1 -9.948377 1 -9.948377 0 -9.819501 0 -11.25486 1 -9.948377 0 -11.25486 1 -11.36957 1 -11.36957 0 -11.25486 0 -12.69022 1 -11.36957 0 -12.69022 1 -12.79077 1 -12.79077 0 -12.69022 0 -14.12558 1 -12.79077 0 -14.12558 1 -14.21197 1 -14.21197 0 -14.12558 0 -15.56095 1 -14.21197 0 -15.56095 1 -15.63316 1 -15.63316 0 -15.56095 0 -16.99631 1 -15.63316 0 -16.99631 1 -17.05436 1 -17.05436 0 -16.99631 0 -18.43167 1 -17.05436 0 -18.43167 1 -18.47556 1 -18.47556 0 -18.43167 0 -19.86703 1 -18.47556 0 -19.86703 1 -19.89675 1 -19.89675 0 -19.86703 0 -21.30239 1 -19.89675 0 -21.30239 1 -21.31795 1 -21.31795 0 -21.30239 0 -22.73775 -9.393894 -1.415902 9.393894 -1.415902 -9.5 0 -9.5 0 9.393894 -1.415902 9.5 0 -9.5 0 9.5 0 -9.393894 1.415902 -9.393894 1.415902 9.5 0 9.393894 1.415902 -9.393894 1.415902 9.393894 1.415902 -9.077942 2.800174 -9.077942 2.800174 9.393894 1.415902 9.077942 2.800174 -9.077942 2.800174 9.077942 2.800174 -8.559205 4.121895 -8.559205 4.121895 9.077942 2.800174 8.559205 4.121895 -8.559205 4.121895 8.559205 4.121895 -7.849268 5.351541 -7.849268 5.351541 8.559205 4.121895 7.849268 5.351541 -7.849268 5.351541 7.849268 5.351541 -6.963993 6.461641 -6.963993 6.461641 7.849268 5.351541 6.963993 6.461641 -6.963993 6.461641 6.963993 6.461641 -5.923153 7.427399 -5.923153 7.427399 6.963993 6.461641 5.923153 7.427399 -5.923153 7.427399 5.923153 7.427399 -4.75 8.227243 -4.75 8.227243 5.923153 7.427399 4.75 8.227243 -4.75 8.227243 4.75 8.227243 -3.47074 8.843301 -3.47074 8.843301 4.75 8.227243 3.47074 8.843301 -3.47074 8.843301 3.47074 8.843301 -2.113949 9.261816 -2.113949 9.261816 3.47074 8.843301 2.113949 9.261816 -2.113949 9.261816 2.113949 9.261816 -0.709936 9.473437 -0.709936 9.473437 2.113949 9.261816 0.709936 9.473437 9.393894 -1.415902 -9.393894 -1.415902 9.077942 -2.800174 9.077942 -2.800174 -9.393894 -1.415902 -9.077942 -2.800174 9.077942 -2.800174 -9.077942 -2.800174 8.559205 -4.121895 8.559205 -4.121895 -9.077942 -2.800174 -8.559205 -4.121895 8.559205 -4.121895 -8.559205 -4.121895 7.849268 -5.351541 7.849268 -5.351541 -8.559205 -4.121895 -7.849268 -5.351541 7.849268 -5.351541 -7.849268 -5.351541 6.963993 -6.461641 6.963993 -6.461641 -7.849268 -5.351541 -6.963993 -6.461641 6.963993 -6.461641 -6.963993 -6.461641 5.923153 -7.427399 5.923153 -7.427399 -6.963993 -6.461641 -5.923153 -7.427399 5.923153 -7.427399 -5.923153 -7.427399 4.75 -8.227243 4.75 -8.227243 -5.923153 -7.427399 -4.75 -8.227243 4.75 -8.227243 -4.75 -8.227243 3.47074 -8.843301 3.47074 -8.843301 -4.75 -8.227243 -3.47074 -8.843301 3.47074 -8.843301 -3.47074 -8.843301 2.113949 -9.261816 2.113949 -9.261816 -3.47074 -8.843301 -2.113949 -9.261816 2.113949 -9.261816 -2.113949 -9.261816 0.709936 -9.473437 0.709936 -9.473437 -2.113949 -9.261816 -0.709936 -9.473437 -3.3 8.908424 -4.603269 8.31023 -3.3 -8.808806 -3.3 -8.808806 -4.603269 8.31023 -5.801652 7.522688 -3.3 -8.808806 -5.801652 7.522688 -6.867845 6.563742 -6.867845 6.563742 -7.777554 5.455241 -3.3 -8.808806 -3.3 -8.808806 -7.777554 5.455241 -8.510052 4.222442 -3.3 -8.808806 -8.510052 4.222442 -9.048648 2.893435 -9.048648 2.893435 -9.381072 1.498502 -3.3 -8.808806 -3.3 -8.808806 -9.381072 1.498502 -9.499747 0.06942498 -3.3 -8.808806 -9.499747 0.06942498 -9.40197 -1.361234 -9.40197 -1.361234 -9.089971 -2.760877 -3.3 -8.808806 -3.3 -8.808806 -9.089971 -2.760877 -8.570856 -4.097614 -3.3 -8.808806 -8.570856 -4.097614 -7.856454 -5.340986 -7.856454 -5.340986 -6.963043 -6.462665 -3.3 -8.808806 -3.3 -8.808806 -6.963043 -6.462665 -5.910979 -7.437091 -3.3 -8.808806 -5.910979 -7.437091 -4.724234 -8.242065 -4.724234 -8.242065 -3.429847 -8.859241 -3.3 -8.808806 -3.3 -8.808806 -3.429847 -8.859241 -2.057312 -9.27456 -3.3 -8.808806 -2.057312 -9.27456 -2.5 -8.808806 -2.5 -8.808806 -2.057312 -9.27456 -0.6379 -9.478559 -2.5 -8.808806 -0.6379 -9.478559 -2.5 -5.6 -2.5 -5.6 -0.6379 -9.478559 0.796046 -9.466589 -2.5 -5.6 0.796046 -9.466589 2.211854 -9.238924 2.211854 -9.238924 3.577266 -8.800748 -2.5 -5.6 -2.5 -5.6 3.577266 -8.800748 4.861169 -8.162049 -2.5 -5.6 4.861169 -8.162049 6.03431 -7.337377 -2.5 -5.6 6.03431 -7.337377 7.5 -5.6 7.5 -5.6 6.03431 -7.337377 7.069961 -6.345523 7.5 -5.6 7.069961 -6.345523 7.944521 -5.209086 7.5 -5.6 7.944521 -5.209086 7.5 -4.4 7.5 -4.4 7.944521 -5.209086 8.638067 -3.953961 7.5 -4.4 8.638067 -3.953961 9.134794 -2.608744 9.134794 -2.608744 9.423385 -1.204088 7.5 -4.4 7.5 -4.4 9.423385 -1.204088 9.497264 0.228004 7.5 -4.4 9.497264 0.228004 -2.5 -4.4 -2.5 -4.4 9.497264 0.228004 7.5 4.4 -2.5 -4.4 7.5 4.4 -2.5 4.4 9.497264 0.228004 9.354748 1.654901 7.5 4.4 7.5 4.4 9.354748 1.654901 8.999085 3.044091 7.5 4.4 8.999085 3.044091 8.438377 4.363921 8.438377 4.363921 7.6854 5.584319 7.5 4.4 7.5 4.4 7.6854 5.584319 7.5 5.6 7.5 5.6 7.6854 5.584319 6.757313 6.677479 7.5 5.6 6.757313 6.677479 -2.5 5.6 -2.5 5.6 6.757313 6.677479 5.67526 7.618492 -2.5 5.6 5.67526 7.618492 4.463896 8.385919 4.463896 8.385919 3.150823 8.962272 -2.5 5.6 -2.5 5.6 3.150823 8.962272 1.765958 9.334421 -2.5 5.6 1.765958 9.334421 0.340856 9.493884 0.340856 9.493884 -1.092013 9.437029 -2.5 5.6 -2.5 5.6 -1.092013 9.437029 -2.5 9.165152 0.49624 -1.570796 0 -1.570796 0.8 -1.659435 0.8 -1.659435 0 -1.570796 0 -1.675516 0.8 -1.659435 0 -1.675516 0.8 -1.734609 0.8 -1.734609 0 -1.675516 0 -1.780236 0.8 -1.734609 0 -1.780236 0.8 -1.809782 0.8 -1.809782 0 -1.780236 0 -1.884956 0.8 -1.809782 0 -1.884956 0.8 -1.884956 0 16.017 0 17.45236 -1 17.05436 -1 17.05436 0 17.45236 -0.006534993 17.45236 -1 17.05436 -0.006534993 17.45236 0 17.76871 -1 17.05436 0 17.76871 -1 18.47556 -1 18.47556 0 17.76871 0 17.94341 -1 18.47556 0 17.94341 0 18.11812 0 18.11812 0 18.29282 -1 18.47556 -1 18.47556 0 18.29282 0 19.72818 -1 18.47556 0 19.72818 -1 19.89675 -1 19.89675 0 19.72818 0 21.16354 -1 19.89675 0 21.16354 -1 21.31795 -1 21.31795 0 21.16354 0 22.5989 -1 21.31795 0 22.5989 -1 22.73915 -1 22.73915 0 22.5989 0 24.03426 -1 22.73915 0 24.03426 -1 24.16034 -1 24.16034 0 24.03426 0 25.46962 -1 24.16034 0 25.46962 -1 25.58154 -1 25.58154 0 25.46962 0 26.90498 -1 25.58154 0 26.90498 -1 27.00274 -1 27.00274 0 26.90498 0 28.34034 -1 27.00274 0 28.34034 -1 28.42393 -1 28.42393 0 28.34034 0 29.77571 -1 28.42393 0 29.77571 -1 29.84513 -1 -29.84513 0 -29.91456 0 -28.4792 -1 -29.84513 0 -28.4792 -1 -28.42393 -1 -28.42393 0 -28.4792 0 -27.04383 -1 -28.42393 0 -27.04383 -1 -27.00274 -1 -27.00274 0 -27.04383 0 -25.60847 -1 -27.00274 0 -25.60847 -1 -25.58154 -1 -25.58154 0 -25.60847 0 -24.17311 -1 -25.58154 0 -24.17311 -1 -24.16034 -1 -24.16034 0 -24.17311 0 -22.73775 -1 -24.16034 0 -22.73775 -1 -22.73915 -1 -22.73915 0 -22.73775 -1 -21.31795 -1 -21.31795 0 -22.73775 0 -21.30239 -1 -21.31795 0 -21.30239 -1 -19.89675 -1 -19.89675 0 -21.30239 0 -19.86703 -1 -19.89675 0 -19.86703 -1 -18.47556 -1 -18.47556 0 -19.86703 0 -18.43167 -1 -18.47556 0 -18.43167 -1 -17.05436 -1 -17.05436 0 -18.43167 0 -16.99631 -1 -17.05436 0 -16.99631 -1 -15.63316 -1 -15.63316 0 -16.99631 0 -15.56095 -1 -15.63316 0 -15.56095 -1 -14.21197 -1 -14.21197 0 -15.56095 0 -14.12558 -1 -14.21197 0 -14.12558 -1 -12.79077 -1 -12.79077 0 -14.12558 0 -12.69022 -1 -12.79077 0 -12.69022 -1 -11.36957 -1 -11.36957 0 -12.69022 0 -11.25486 -1 -11.36957 0 -11.25486 -1 -9.948377 -1 -9.948377 0 -11.25486 0 -9.819501 -1 -9.948377 0 -9.819501 -1 -8.52718 -1 -8.52718 0 -9.819501 0 -8.38414 -1 -8.52718 0 -8.38414 -1 -7.105983 -1 -7.105983 0 -8.38414 0 -6.948779 -1 -7.105983 0 -6.948779 -1 -5.684787 -1 -5.684787 0 -6.948779 0 -5.513418 -1 -5.684787 0 -5.513418 -1 -4.26359 -1 -4.26359 0 -5.513418 0 -4.078057 -1 -4.26359 0 -4.078057 -1 -2.842393 -1 -2.842393 0 -4.078057 0 -2.642696 -1 -2.842393 0 -2.642696 -1 -1.421197 -1 -1.421197 0 -2.642696 0 -1.207335 -1 -1.421197 0 -1.207335 -1 0 -1 0 0 -1.207335 0 0.228026 -1 0 0 0.228026 -1 1.421197 -1 1.421197 0 0.228026 0 1.663387 -1 1.421197 0 1.663387 -1 2.842393 -1 2.842393 0 1.663387 0 3.098748 -1 2.842393 0 3.098748 -1 4.26359 -1 4.26359 0 3.098748 0 4.534109 -1 4.26359 0 4.534109 -1 5.684787 -1 5.684787 0 4.534109 0 5.96947 -1 5.684787 0 5.96947 -1 7.105983 -1 7.105983 0 5.96947 0 7.404831 -1 7.105983 0 7.404831 -1 8.52718 -1 8.52718 0 7.404831 0 8.840192 -1 8.52718 0 8.840192 -1 9.948377 -1 9.948377 0 8.840192 0 10.27555 -1 9.948377 0 10.27555 -1 11.36957 -1 11.36957 0 10.27555 0 11.71091 -1 11.36957 0 11.71091 -1 12.79077 -1 12.79077 0 11.71091 0 13.14627 -1 12.79077 0 13.14627 -1 14.21197 -1 14.21197 0 13.14627 0 14.58164 -1 14.21197 0 14.58164 -1 15.63316 -1 15.63316 0 14.58164 0 16.017 -1 15.63316 0 16.017 -1 17.05436 9.393894 1.415902 -9.393894 1.415902 9.5 0 9.5 0 -9.393894 1.415902 -9.5 0 9.5 0 -9.5 0 9.393894 -1.415902 9.393894 -1.415902 -9.5 0 -9.393894 -1.415902 9.393894 -1.415902 -9.393894 -1.415902 9.077942 -2.800174 9.077942 -2.800174 -9.393894 -1.415902 -9.077942 -2.800174 9.077942 -2.800174 -9.077942 -2.800174 8.559205 -4.121895 8.559205 -4.121895 -9.077942 -2.800174 -8.559205 -4.121895 8.559205 -4.121895 -8.559205 -4.121895 7.849268 -5.351541 7.849268 -5.351541 -8.559205 -4.121895 -7.849268 -5.351541 7.849268 -5.351541 -7.849268 -5.351541 6.963993 -6.461641 6.963993 -6.461641 -7.849268 -5.351541 -6.963993 -6.461641 6.963993 -6.461641 -6.963993 -6.461641 5.923153 -7.427399 5.923153 -7.427399 -6.963993 -6.461641 -5.923153 -7.427399 5.923153 -7.427399 -5.923153 -7.427399 4.75 -8.227243 4.75 -8.227243 -5.923153 -7.427399 -4.75 -8.227243 4.75 -8.227243 -4.75 -8.227243 3.47074 -8.843301 3.47074 -8.843301 -4.75 -8.227243 -3.47074 -8.843301 3.47074 -8.843301 -3.47074 -8.843301 2.113949 -9.261816 2.113949 -9.261816 -3.47074 -8.843301 -2.113949 -9.261816 2.113949 -9.261816 -2.113949 -9.261816 0.709936 -9.473437 0.709936 -9.473437 -2.113949 -9.261816 -0.709936 -9.473437 -9.393894 1.415902 9.393894 1.415902 -9.077942 2.800174 -9.077942 2.800174 9.393894 1.415902 9.077942 2.800174 -9.077942 2.800174 9.077942 2.800174 -8.559205 4.121895 -8.559205 4.121895 9.077942 2.800174 8.559205 4.121895 -8.559205 4.121895 8.559205 4.121895 -7.849268 5.351541 -7.849268 5.351541 8.559205 4.121895 7.849268 5.351541 -7.849268 5.351541 7.849268 5.351541 -6.963993 6.461641 -6.963993 6.461641 7.849268 5.351541 6.963993 6.461641 -6.963993 6.461641 6.963993 6.461641 -5.923153 7.427399 -5.923153 7.427399 6.963993 6.461641 5.923153 7.427399 -5.923153 7.427399 5.923153 7.427399 -4.75 8.227243 -4.75 8.227243 5.923153 7.427399 4.75 8.227243 -4.75 8.227243 4.75 8.227243 -3.47074 8.843301 -3.47074 8.843301 4.75 8.227243 3.47074 8.843301 -3.47074 8.843301 3.47074 8.843301 -2.113949 9.261816 -2.113949 9.261816 3.47074 8.843301 2.113949 9.261816 -2.113949 9.261816 2.113949 9.261816 -0.709936 9.473437 -0.709936 9.473437 2.113949 9.261816 0.709936 9.473437 2.5 9.165152 1.092013 9.437029 2.5 5.6 2.5 5.6 1.092013 9.437029 -0.340856 9.493884 2.5 5.6 -0.340856 9.493884 -1.765958 9.334421 -1.765958 9.334421 -3.150823 8.962272 2.5 5.6 2.5 5.6 -3.150823 8.962272 -4.463896 8.385919 2.5 5.6 -4.463896 8.385919 -5.67526 7.618492 -5.67526 7.618492 -6.757313 6.677479 2.5 5.6 2.5 5.6 -6.757313 6.677479 -7.5 5.6 -7.5 5.6 -6.757313 6.677479 -7.6854 5.584319 -7.5 5.6 -7.6854 5.584319 -7.5 4.4 -7.5 4.4 -7.6854 5.584319 -8.438377 4.363921 -7.5 4.4 -8.438377 4.363921 -8.999085 3.044091 -8.999085 3.044091 -9.354748 1.654901 -7.5 4.4 -7.5 4.4 -9.354748 1.654901 -9.497264 0.228004 -7.5 4.4 -9.497264 0.228004 2.5 -4.4 2.5 -4.4 -9.497264 0.228004 -7.5 -4.4 -7.5 -4.4 -9.497264 0.228004 -9.423385 -1.204088 -7.5 -4.4 -9.423385 -1.204088 -9.134794 -2.608744 -9.134794 -2.608744 -8.638067 -3.953961 -7.5 -4.4 -7.5 -4.4 -8.638067 -3.953961 -7.944521 -5.209086 -7.5 -4.4 -7.944521 -5.209086 -7.5 -5.6 -7.5 -5.6 -7.944521 -5.209086 -7.069961 -6.345523 -7.5 -5.6 -7.069961 -6.345523 -6.03431 -7.337377 -7.5 -5.6 -6.03431 -7.337377 2.5 -5.6 2.5 -5.6 -6.03431 -7.337377 -4.861169 -8.162049 2.5 -5.6 -4.861169 -8.162049 -3.577266 -8.800748 -3.577266 -8.800748 -2.211854 -9.238924 2.5 -5.6 2.5 -5.6 -2.211854 -9.238924 -0.796046 -9.466589 2.5 -5.6 -0.796046 -9.466589 0.6379 -9.478559 2.5 -5.6 0.6379 -9.478559 2.5 -8.808806 2.5 -8.808806 0.6379 -9.478559 2.057312 -9.27456 2.5 -8.808806 2.057312 -9.27456 3.3 -8.808806 3.3 -8.808806 2.057312 -9.27456 3.429847 -8.859241 3.3 -8.808806 3.429847 -8.859241 4.724234 -8.242065 4.724234 -8.242065 5.910979 -7.437091 3.3 -8.808806 3.3 -8.808806 5.910979 -7.437091 6.963043 -6.462665 3.3 -8.808806 6.963043 -6.462665 7.856454 -5.340986 7.856454 -5.340986 8.570856 -4.097614 3.3 -8.808806 3.3 -8.808806 8.570856 -4.097614 9.089971 -2.760877 3.3 -8.808806 9.089971 -2.760877 9.40197 -1.361234 9.40197 -1.361234 9.499747 0.06942498 3.3 -8.808806 3.3 -8.808806 9.499747 0.06942498 9.381072 1.498502 3.3 -8.808806 9.381072 1.498502 9.048648 2.893435 9.048648 2.893435 8.510052 4.222442 3.3 -8.808806 3.3 -8.808806 8.510052 4.222442 7.777554 5.455241 3.3 -8.808806 7.777554 5.455241 6.867845 6.563742 6.867845 6.563742 5.801652 7.522688 3.3 -8.808806 3.3 -8.808806 5.801652 7.522688 4.603269 8.31023 3.3 -8.808806 4.603269 8.31023 3.3 8.908424 2.5 -4.4 2.5 4.4 -7.5 4.4 10.24189 5.940522 10.21874 6.011991 10.23623 5.937254 10.23623 5.937254 10.21874 6.011991 3.358548 -2.150258 10.23623 5.937254 3.358548 -2.150258 12.0188 2.849742 10.21874 6.011991 10.2047 6.085793 3.358548 -2.150258 3.358548 -2.150258 10.2047 6.085793 -10.2047 6.085793 3.358548 -2.150258 -10.2047 6.085793 -3.358548 -2.150258 -3.358548 -2.150258 -10.2047 6.085793 -10.21874 6.011991 -3.358548 -2.150258 -10.21874 6.011991 -10.23623 5.937254 -10.23623 5.937254 -10.21874 6.011991 -10.24189 5.940522 -10.2047 6.085793 10.2047 6.085793 -10.2 6.160769 -10.2 6.160769 10.2047 6.085793 10.2 6.160769 -10.2 6.160769 10.2 6.160769 -10 15 -10 15 10.2 6.160769 10 15 10 15 10.2 6.160769 10.2 14.8 10 15 10.2 14.8 10.17321 14.9 10.17321 14.9 10.1 14.9732 10 15 -10.1 14.9732 -10.17321 14.9 -10 15 -10 15 -10.17321 14.9 -10.2 14.8 -10 15 -10.2 14.8 -10.2 6.160769 -10.23623 5.937254 -12.0188 2.849742 -3.358548 -2.150258 3.358548 -2.150258 -3.358548 -2.150258 3.958548 -3.189488 3.958548 -3.189488 -3.358548 -2.150258 -3.958548 -3.189488 3.958548 -3.189488 -3.958548 -3.189488 4.028421 -13.31051 4.028421 -13.31051 -3.958548 -3.189488 -4.028421 -13.31051 4.028421 -13.31051 -4.028421 -13.31051 4.628421 -14.34974 4.628421 -14.34974 -4.028421 -13.31051 -4.628421 -14.34974 4.628421 -14.34974 -4.628421 -14.34974 19.15 -15 19.15 -15 -4.628421 -14.34974 -19.15 -15 -19.15 -15 -4.628421 -14.34974 -19.25 -9.728651 -19.15 -15 -19.25 -9.728651 -19.25 -14.9 -12.6188 1.810512 -17.0188 -5.810512 -3.958548 -3.189488 -3.958548 -3.189488 -17.0188 -5.810512 -4.028421 -13.31051 -17.6188 -6.849742 -19.22321 -9.62865 -4.628421 -14.34974 -4.628421 -14.34974 -19.22321 -9.62865 -19.25 -9.728651 -19.23794 -9.660246 -19.24696 -9.693921 -19.22321 -9.62865 -19.22321 -9.62865 -19.24696 -9.693921 -19.25 -9.728651 -19.25 -14.9 -19.2366 -14.95 -19.15 -15 -19.15 -15 -19.2366 -14.95 -19.2 -14.9866 19.2 -14.9866 19.2366 -14.95 19.15 -15 19.15 -15 19.2366 -14.95 19.25 -14.9 19.15 -15 19.25 -14.9 19.25 -9.728651 19.24696 -9.693921 19.22321 -9.62865 19.25 -9.728651 19.25 -9.728651 19.22321 -9.62865 4.628421 -14.34974 19.25 -9.728651 4.628421 -14.34974 19.15 -15 19.24696 -9.693921 19.23794 -9.660246 19.22321 -9.62865 19.22321 -9.62865 17.6188 -6.849742 4.628421 -14.34974 4.028421 -13.31051 17.0188 -5.810512 3.958548 -3.189488 3.958548 -3.189488 17.0188 -5.810512 12.6188 1.810512 -7.092401 -4.444981 7.87875 2.825828 -7.616633 -3.365546 -7.616633 -3.365546 7.87875 2.825828 7.354517 3.905263 15 10 14 10 15 0 15 0 14 10 0 1 15 0 0 1 0 0 1.2 1 0 1 1.2 0 1.2 0 0 1 0 0 -7.092401 4.444981 -7.616633 3.365546 7.87875 -2.825828 7.87875 -2.825828 -7.616633 3.365546 7.354517 -3.905263 15 10 14 10 15 0 15 0 14 10 0 1 15 0 0 1 0 0 1.2 1 0 1 1.2 0 1.2 0 0 1 0 0 -5.551715 -3.238589 6.232051 1.572113 -6.005272 -2.127605 -6.005272 -2.127605 6.232051 1.572113 5.778494 2.683097 10 10 9 10 10 0 10 0 9 10 0 1 10 0 0 1 0 0 1.2 1 0 1 1.2 0 1.2 0 0 1 0 0 -5.551715 3.238589 -6.005272 2.127605 6.232051 -1.572113 6.232051 -1.572113 -6.005272 2.127605 5.778494 -2.683097 10 10 9 10 10 0 10 0 9 10 0 1 10 0 0 1 0 0 1.2 1 0 1 1.2 0 1.2 0 0 1 0 0 10 0 10 1 0 0 0 0 10 1 1 10 0 0 1 10 0 10 3.164102 2.519615 3.764102 1.480385 4.030127 3.019615 4.030127 3.019615 3.764102 1.480385 4.630127 1.980385 10 0 10 1 0 0 0 0 10 1 1 10 0 0 1 10 0 10 -3.164102 2.519615 -4.030127 3.019615 -3.764102 1.480385 -3.764102 1.480385 -4.030127 3.019615 -4.630127 1.980385 15 0 15 1 0 0 0 0 15 1 1 10 0 0 1 10 0 10 5.329165 3.769615 5.929165 2.730385 6.19519 4.269615 6.19519 4.269615 5.929165 2.730385 6.79519 3.230385 15 0 15 1 0 0 0 0 15 1 1 10 0 0 1 10 0 10 -5.329165 3.769615 -6.19519 4.269615 -5.929165 2.730385 -5.929165 2.730385 -6.19519 4.269615 -6.79519 3.230385 20.4 0.2 20.37321 0.1 20.4 0 20.4 0 20.37321 0.1 20.3 0.02679497 20.4 0 20.3 0.02679497 20.2 0 0 0 2.2 0 0 30 0 30 2.2 0 2.2 30 0 0 1.37 0 0 30 0 30 1.37 0 1.37 30 0 0 2 0 0 30 0 30 2 0 2 30 0 0 1.37 0 0 30 0 30 1.37 0 1.37 30 0 0 12 0 0 30 0 30 12 0 12 30 0 0 1.37 0 0 30 0 30 1.37 0 1.37 30 0 0 2 0 0 30 0 30 2 0 2 30 0 0 1.37 0 0 30 0 30 1.37 0 1.37 30 0 0 2.2 0 0 30 0 30 2.2 0 2.2 30 0.2 0 0.1 0.02679497 0 0 0 0 0.1 0.02679497 0.02679497 0.1 0 0 0.02679497 0.1 0 0.2 -0.8 0 0 0 -0.8 0.03490698 -0.8 0.03490698 0 0 0 0.03490698 -0.8 0.03490698 0 0.03490698 -0.8 0.06981295 -0.8 0.06981295 0 0.03490698 0 0.06981295 -0.8 0.06981295 0 0.06981295 -0.8 0.1047199 -0.8 0.1047199 0 0.06981295 0 0.1047199 0.168412 0 0.109236 0.164372 0 0 0 0 0.109236 0.164372 0.053092 0.329804 0 0 0.053092 0.329804 0 0.49624 0.49624 -1.884956 0.8 -1.796317 0 -1.884956 0 -1.884956 0.8 -1.796317 0 -1.780236 0 -1.780236 0.8 -1.796317 0.8 -1.721143 0 -1.780236 0.8 -1.721143 0 -1.675516 0 -1.675516 0.8 -1.721143 0.8 -1.64597 0 -1.675516 0.8 -1.64597 0 -1.570796 0 -1.570796 0.8 -1.64597 0.8 -1.570796 8.639231 0.8 0 0.8 8.639231 0 8.639231 0 0 0.8 0 0 8.639231 0 0 0 -0.2 -4.15 -0.2 -4.15 0 0 -0.2 0 -0.2 -4.15 29.8 -4.15 8.639231 0 8.639231 0 29.8 -4.15 29.8 0 -0.8 0 0 0 -0.8 0.1047199 -0.8 0.1047199 0 0 0 0.1047199 -0.8 0.1047199 0 0.1047199 -0.8 0.2094399 -0.8 0.2094399 0 0.1047199 0 0.2094399 -0.8 0.2094399 0 0.2094399 -0.8 0.314159 -0.8 0.314159 0 0.2094399 0 0.314159 20 0.8 0 0.8 20 0 20 0 0 0.8 0 0 20 0 0 0 16 -2.78 16 -2.78 0 0 4 -2.78 16 -2.78 4 -2.78 16 -4.15 16 -4.15 4 -2.78 4 -4.15 4 -2.78 0 0 2 -2.78 2 -2.78 0 0 -0.2 0 2 -2.78 -0.2 0 -0.2 -4.15 -0.2 -4.15 2 -4.15 2 -2.78 16 -2.78 18 -2.78 20 0 20 0 18 -2.78 20.2 0 20.2 0 18 -2.78 20.2 -4.15 20.2 -4.15 18 -2.78 18 -4.15 -0.8 0 0 0 -0.8 0.1047199 -0.8 0.1047199 0 0 0 0.1047199 -0.8 0.1047199 0 0.1047199 -0.8 0.2094399 -0.8 0.2094399 0 0.1047199 0 0.2094399 -0.8 0.2094399 0 0.2094399 -0.8 0.314159 -0.8 0.314159 0 0.2094399 0 0.314159 8.639231 0.8 0 0.8 8.639231 0 8.639231 0 0 0.8 0 0 8.639231 0 0 0 8.839231 -4.15 8.839231 -4.15 0 0 -21.16077 -4.15 -21.16077 -4.15 0 0 -21.16077 0 8.839231 -4.15 8.839231 0 8.639231 0 17.88564 0.49624 17.83255 0.329804 17.88564 0 17.88564 0 17.83255 0.329804 17.77641 0.164372 17.88564 0 17.77641 0.164372 17.71723 0 -0.8 0 0 0 -0.8 0.03490698 -0.8 0.03490698 0 0 0 0.03490698 -0.8 0.03490698 0 0.03490698 -0.8 0.06981295 -0.8 0.06981295 0 0.03490698 0 0.06981295 -0.8 0.06981295 0 0.06981295 -0.8 0.1047199 -0.8 0.1047199 0 0.06981295 0 0.1047199 5.17135 0 5.17135 0.8 3.9 0 3.9 0 5.17135 0.8 0 0.8 3.9 0 0 0.8 0 -7.5 -0.1 -7.5 -0.1 -9.5 0 -7.5 0 -7.5 -0.1 -9.5 3.9 -7.5 0 -7.5 3.9 -7.5 3.9 0 -0.1 -9.5 13.2 -9.5 3.9 -7.5 3.9 -7.5 13.2 -9.5 13.2 -7.5 7.5 0.1570799 -0.8 0.1570799 7.5 0.1047199 7.5 0.1047199 -0.8 0.1570799 -0.8 0.1047199 7.5 0.1047199 -0.8 0.1047199 7.5 0.05235999 7.5 0.05235999 -0.8 0.1047199 -0.8 0.05235999 7.5 0.05235999 -0.8 0.05235999 7.5 0 7.5 0 -0.8 0.05235999 -0.8 0 8.95 0 0 0.8 3.9 0 3.9 0 0 0.8 0 -7.5 3.9 0 0 -7.5 3.9 -9.5 3.9 -9.5 0 -7.5 -0.1 -9.5 -0.1 -9.5 0 -7.5 -0.1 -7.5 8.95 -4.15 11.15 -2.78 8.95 0 8.95 0 11.15 -2.78 13.15 -2.78 8.95 0 13.15 -2.78 25.15 -2.78 25.15 -2.78 13.15 -2.78 25.15 -4.15 25.15 -4.15 13.15 -2.78 13.15 -4.15 8.95 -4.15 11.15 -4.15 11.15 -2.78 8.95 0 25.15 -2.78 29.35 0 29.35 0 25.15 -2.78 27.15 -2.78 29.35 0 27.15 -2.78 29.35 -4.15 29.35 -4.15 27.15 -2.78 27.15 -4.15 34.4 0 38.3 0.8 29.35 0 29.35 0 38.3 0.8 0 0.8 29.35 0 0 0.8 8.95 0 38.3 0.8 34.4 0 38.3 -7.5 38.3 -7.5 34.4 0 34.4 -9.5 38.3 -7.5 34.4 -9.5 38.4 -9.5 38.4 -9.5 38.4 -7.5 38.3 -7.5 7.5 0.1570799 -0.8 0.1570799 7.5 0.1047199 7.5 0.1047199 -0.8 0.1570799 -0.8 0.1047199 7.5 0.1047199 -0.8 0.1047199 7.5 0.05235999 7.5 0.05235999 -0.8 0.1047199 -0.8 0.05235999 7.5 0.05235999 -0.8 0.05235999 7.5 0 7.5 0 -0.8 0.05235999 -0.8 0 0 0 1.27135 0 0 0.8 0 0.8 1.27135 0 5.17135 0.8 5.17135 0.8 1.27135 0 5.17135 -7.5 5.17135 -7.5 1.27135 0 1.27135 -7.5 5.17135 -7.5 1.27135 -7.5 5.27135 -9.5 5.27135 -9.5 1.27135 -7.5 -8.02865 -9.5 -8.02865 -9.5 1.27135 -7.5 -8.02865 -7.5 5.27135 -9.5 5.27135 -7.5 5.17135 -7.5</float_array>
          <technique_common>
            <accessor source="#EMROX-Argo_IPA-HN_V1_02_03_Simu_EMROX_IPA-HN_Schlitten_V1_02_03-mesh-map-0-array" count="1944" stride="2">
              <param name="S" type="float"/>
              <param name="T" type="float"/>
            </accessor>
          </technique_common>
        </source>
        <vertices id="EMROX-Argo_IPA-HN_V1_02_03_Simu_EMROX_IPA-HN_Schlitten_V1_02_03-mesh-vertices">
          <input semantic="POSITION" source="#EMROX-Argo_IPA-HN_V1_02_03_Simu_EMROX_IPA-HN_Schlitten_V1_02_03-mesh-positions"/>
        </vertices>
        <triangles material="_54_254_255_001-material" count="648">
          <input semantic="VERTEX" source="#EMROX-Argo_IPA-HN_V1_02_03_Simu_EMROX_IPA-HN_Schlitten_V1_02_03-mesh-vertices" offset="0"/>
          <input semantic="NORMAL" source="#EMROX-Argo_IPA-HN_V1_02_03_Simu_EMROX_IPA-HN_Schlitten_V1_02_03-mesh-normals" offset="1"/>
          <input semantic="TEXCOORD" source="#EMROX-Argo_IPA-HN_V1_02_03_Simu_EMROX_IPA-HN_Schlitten_V1_02_03-mesh-map-0" offset="2" set="0"/>
          <p>304 0 0 295 0 1 303 0 2 303 0 3 295 0 4 290 0 5 303 0 6 290 0 7 288 0 8 252 0 9 306 0 10 255 0 11 255 0 12 306 0 13 311 0 14 255 1 15 311 1 16 254 1 17 254 1 18 311 1 19 310 1 20 254 2 21 310 2 22 250 2 23 250 2 24 310 2 25 302 2 26 36 0 27 34 0 28 15 0 29 15 0 30 34 0 31 29 0 32 15 0 33 29 0 34 16 0 35 18 0 36 72 0 37 23 0 38 23 0 39 72 0 40 75 0 41 23 1 42 75 1 43 22 1 44 22 1 45 75 1 46 74 1 47 22 2 48 74 2 49 14 2 50 14 2 51 74 2 52 70 2 53 253 1 54 307 1 55 252 1 56 252 1 57 307 1 58 306 1 59 253 3 60 252 3 61 251 3 62 251 3 63 252 3 64 250 3 65 250 3 66 252 3 67 254 3 68 254 3 69 252 3 70 255 3 71 73 4 72 71 4 73 72 4 74 72 4 75 71 4 76 70 4 77 72 4 78 70 4 79 74 4 80 74 4 81 75 4 82 72 4 83 19 1 84 73 1 85 18 1 86 18 1 87 73 1 88 72 1 89 308 2 90 307 2 91 293 2 92 293 2 93 307 2 94 253 2 95 293 2 96 253 2 97 207 2 98 207 2 99 253 2 100 189 2 101 207 2 102 189 2 103 202 2 104 202 2 105 189 2 106 200 2 107 200 2 108 189 2 109 197 2 110 197 2 111 189 2 112 190 2 113 253 2 114 251 2 115 189 2 116 293 2 117 297 2 118 308 2 119 308 2 120 297 2 121 299 2 122 71 2 123 73 2 124 131 2 125 131 2 126 73 2 127 118 2 128 131 5 129 118 5 130 122 5 131 118 2 132 73 2 133 31 2 134 31 2 135 73 2 136 19 2 137 31 2 138 19 2 139 20 2 140 25 2 141 27 2 142 20 2 143 20 2 144 27 2 145 31 2 146 122 2 147 126 2 148 131 2 149 131 6 150 126 6 151 128 6 152 131 7 153 128 8 154 132 9 155 201 10 156 213 11 157 203 12 158 203 13 159 213 14 160 217 15 161 203 16 162 217 17 163 204 18 164 204 19 165 217 20 166 205 21 167 205 22 168 217 23 169 207 24 170 207 25 171 217 26 172 209 27 173 209 28 174 217 29 175 221 30 176 209 31 177 221 32 178 215 33 179 215 34 180 221 35 181 224 36 182 215 37 183 224 38 184 220 39 185 220 40 186 224 41 187 230 42 188 220 43 189 230 44 190 229 45 191 229 46 192 230 47 193 236 48 194 229 49 195 236 50 196 235 51 197 235 52 198 236 53 199 240 54 200 235 55 201 240 56 202 239 57 203 239 58 204 240 59 205 244 60 206 239 61 207 244 62 208 243 63 209 243 64 210 244 65 211 248 66 212 243 67 213 248 68 214 247 69 215 247 70 216 248 71 217 258 72 218 247 73 219 258 74 220 257 75 221 257 76 222 258 77 223 263 78 224 257 79 225 263 80 226 262 81 227 262 82 228 263 83 229 270 84 230 262 85 231 270 86 232 267 87 233 267 88 234 270 89 235 276 90 236 267 91 237 276 92 238 273 93 239 273 94 240 276 95 241 280 96 242 273 97 243 280 98 244 279 99 245 279 100 246 280 101 247 285 102 248 279 103 249 285 104 250 312 105 251 201 106 252 199 107 253 213 108 254 213 109 255 199 110 256 184 111 257 213 112 258 184 113 259 210 114 260 210 115 261 184 116 262 181 117 263 210 118 264 181 119 265 211 120 266 211 121 267 181 122 268 185 123 269 211 124 270 185 125 271 214 126 272 214 127 273 185 128 274 206 129 275 214 130 276 206 131 277 218 132 278 218 133 279 206 134 280 208 135 281 218 136 282 208 137 283 222 138 284 222 139 285 208 140 286 212 141 287 222 142 288 212 143 289 225 144 290 225 145 291 212 146 292 219 147 293 225 148 294 219 149 295 231 150 296 231 151 297 219 152 298 228 153 299 231 154 300 228 155 301 237 156 302 237 157 303 228 158 304 234 159 305 237 160 306 234 161 307 241 162 308 241 163 309 234 164 310 238 165 311 241 166 312 238 167 313 245 168 314 245 169 315 238 170 316 242 171 317 245 172 318 242 173 319 249 174 320 249 175 321 242 176 322 246 177 323 249 178 324 246 179 325 259 180 326 259 181 327 246 182 328 256 183 329 259 184 330 256 185 331 264 186 332 264 187 333 256 188 334 260 189 335 264 190 336 260 191 337 271 192 338 271 193 339 260 194 340 266 195 341 271 196 342 266 197 343 277 198 344 277 199 345 266 200 346 272 201 347 277 202 348 272 203 349 281 204 350 281 205 351 272 206 352 278 207 353 281 208 354 278 209 355 286 210 356 286 211 357 278 212 358 282 213 359 286 214 360 282 215 361 313 216 362 313 217 363 282 218 364 284 219 365 313 220 366 284 221 367 319 222 368 319 223 369 284 224 370 292 225 371 319 226 372 292 227 373 321 228 374 321 229 375 292 230 376 314 231 377 321 232 378 314 233 379 323 234 380 323 235 381 314 236 382 316 237 383 323 238 384 316 239 385 325 240 386 325 241 387 316 242 388 317 243 389 325 244 390 317 245 391 324 246 392 324 247 393 317 248 394 315 249 395 324 250 396 315 251 397 322 252 398 322 253 399 315 254 400 301 255 401 322 256 402 301 257 403 320 258 404 320 259 405 301 260 406 287 261 407 320 262 408 287 263 409 318 264 410 318 265 411 287 266 412 283 267 413 318 268 414 283 269 415 312 270 416 312 271 417 283 272 418 279 273 419 264 274 420 263 274 421 259 274 422 259 275 423 263 275 424 258 275 425 259 276 426 258 276 427 249 276 428 249 277 429 258 277 430 248 277 431 249 278 432 248 278 433 245 278 434 245 279 435 248 279 436 244 279 437 245 280 438 244 280 439 241 280 440 241 281 441 244 281 442 240 281 443 241 282 444 240 282 445 237 282 446 237 283 447 240 283 448 236 283 449 237 284 450 236 284 451 231 284 452 231 285 453 236 285 454 230 285 455 231 286 456 230 286 457 225 286 458 225 287 459 230 287 460 224 287 461 225 288 462 224 288 463 222 288 464 222 289 465 224 289 466 221 289 467 222 290 468 221 290 469 218 290 470 218 291 471 221 291 472 217 291 473 218 292 474 217 292 475 214 292 476 214 293 477 217 293 478 213 293 479 214 294 480 213 294 481 211 294 482 211 295 483 213 295 484 210 295 485 263 296 486 264 296 487 270 296 488 270 297 489 264 297 490 271 297 491 270 298 492 271 298 493 276 298 494 276 299 495 271 299 496 277 299 497 276 300 498 277 300 499 280 300 500 280 301 501 277 301 502 281 301 503 280 302 504 281 302 505 285 302 506 285 303 507 281 303 508 286 303 509 285 304 510 286 304 511 312 304 512 312 305 513 286 305 514 313 305 515 312 306 516 313 306 517 318 306 518 318 307 519 313 307 520 319 307 521 318 290 522 319 290 523 320 290 524 320 308 525 319 308 526 321 308 527 320 309 528 321 309 529 322 309 530 322 310 531 321 310 532 323 310 533 322 311 534 323 311 535 324 311 536 324 312 537 323 312 538 325 312 539 207 313 540 209 313 541 293 313 542 293 314 543 209 314 544 215 314 545 293 315 546 215 315 547 220 315 548 220 316 549 229 316 550 293 316 551 293 317 552 229 317 553 235 317 554 293 318 555 235 318 556 239 318 557 239 319 558 243 319 559 293 319 560 293 320 561 243 320 562 247 320 563 293 321 564 247 321 565 257 321 566 257 322 567 262 322 568 293 322 569 293 323 570 262 323 571 267 323 572 293 324 573 267 324 574 273 324 575 273 325 576 279 325 577 293 325 578 293 326 579 279 326 580 283 326 581 293 327 582 283 327 583 287 327 584 287 328 585 301 328 586 293 328 587 293 329 588 301 329 589 315 329 590 293 330 591 315 330 592 294 330 593 294 331 594 315 331 595 317 331 596 294 332 597 317 332 598 274 332 599 274 333 600 317 333 601 316 333 602 274 334 603 316 334 604 314 334 605 314 335 606 292 335 607 274 335 608 274 336 609 292 336 610 284 336 611 274 337 612 284 337 613 282 337 614 274 338 615 282 338 616 275 338 617 275 339 618 282 339 619 278 339 620 275 340 621 278 340 622 272 340 623 275 341 624 272 341 625 269 341 626 269 342 627 272 342 628 266 342 629 269 343 630 266 343 631 260 343 632 260 344 633 256 344 634 269 344 635 269 345 636 256 345 637 246 345 638 269 346 639 246 346 640 268 346 641 268 347 642 246 347 643 233 347 644 268 348 645 233 348 646 232 348 647 246 349 648 242 349 649 233 349 650 233 350 651 242 350 652 238 350 653 233 351 654 238 351 655 234 351 656 234 352 657 228 352 658 233 352 659 233 353 660 228 353 661 227 353 662 227 354 663 228 354 664 219 354 665 227 355 666 219 355 667 226 355 668 226 356 669 219 356 670 212 356 671 226 357 672 212 357 673 208 357 674 208 358 675 206 358 676 226 358 677 226 359 678 206 359 679 185 359 680 226 360 681 185 360 682 181 360 683 181 361 684 184 361 685 226 361 686 226 362 687 184 362 688 199 362 689 203 363 690 202 364 691 201 365 692 201 366 693 202 367 694 200 368 695 201 369 696 200 370 697 198 371 698 198 372 699 200 373 700 197 374 701 198 375 702 197 376 703 196 377 704 196 378 705 197 379 706 190 380 707 196 381 708 190 382 709 191 383 710 141 384 711 125 385 712 111 386 713 111 387 714 125 388 715 124 389 716 111 390 717 124 391 718 123 392 719 111 393 720 123 394 721 107 395 722 107 396 723 123 397 724 121 398 725 107 399 726 121 400 727 120 401 728 120 402 729 118 403 730 107 404 731 107 405 732 118 406 733 116 407 734 107 408 735 116 409 736 103 410 737 103 411 738 116 412 739 110 413 740 103 414 741 110 415 742 100 416 743 100 417 744 110 418 745 105 419 746 100 420 747 105 421 748 94 422 749 94 423 750 105 424 751 96 425 752 94 426 753 96 427 754 88 428 755 88 429 756 96 430 757 90 431 758 88 432 759 90 433 760 84 434 761 84 435 762 90 436 763 86 437 764 84 438 765 86 439 766 80 440 767 80 441 768 86 442 769 82 443 770 80 444 771 82 445 772 76 446 773 76 447 774 82 448 775 78 449 776 76 450 777 78 451 778 66 452 779 66 453 780 78 454 781 68 455 782 66 456 783 68 457 784 61 458 785 61 459 786 68 460 787 63 461 788 61 462 789 63 463 790 54 464 791 54 465 792 63 466 793 58 467 794 54 468 795 58 469 796 48 470 797 48 471 798 58 472 799 52 473 800 48 474 801 52 475 802 44 476 803 44 477 804 52 478 805 46 479 806 44 480 807 46 481 808 39 482 809 39 483 810 46 484 811 12 485 812 12 486 813 46 487 814 42 488 815 12 489 816 42 490 817 6 491 818 6 492 819 42 493 820 38 494 821 6 495 822 38 496 823 4 497 824 4 498 825 38 499 826 24 500 827 4 501 828 24 502 829 2 503 830 2 504 831 24 505 832 10 506 833 2 507 834 10 508 835 0 509 836 0 510 837 10 511 838 8 512 839 0 513 840 8 514 841 1 515 842 1 516 843 8 517 844 9 518 845 1 519 846 9 520 847 3 521 848 3 522 849 9 523 850 11 524 851 3 525 852 11 526 853 5 527 854 5 528 855 11 529 856 33 530 857 5 531 858 33 532 859 7 533 860 7 534 861 33 535 862 41 536 863 7 537 864 41 538 865 13 539 866 13 540 867 41 541 868 43 542 869 13 543 870 43 544 871 40 545 872 40 546 873 43 547 874 47 548 875 40 549 876 47 550 877 45 551 878 45 552 879 47 553 880 53 554 881 45 555 882 53 556 883 49 557 884 49 558 885 53 559 886 59 560 887 49 561 888 59 562 889 55 563 890 55 564 891 59 565 892 65 566 893 55 567 894 65 568 895 62 569 896 62 570 897 65 571 898 69 572 899 62 573 900 69 574 901 67 575 902 67 576 903 69 577 904 79 578 905 67 579 906 79 580 907 77 581 908 77 582 909 79 583 910 83 584 911 77 585 912 83 586 913 81 587 914 81 588 915 83 589 916 87 590 917 81 591 918 87 592 919 85 593 920 85 594 921 87 595 922 91 596 923 85 597 924 91 598 925 89 599 926 89 600 927 91 601 928 97 602 929 89 603 930 97 604 931 95 605 932 95 606 933 97 607 934 106 608 935 95 609 936 106 610 937 101 611 938 101 612 939 106 613 940 113 614 941 101 615 942 113 616 943 104 617 944 104 618 945 113 619 946 117 620 947 104 621 948 117 622 949 108 623 950 108 624 951 117 625 952 119 626 953 108 627 954 119 628 955 112 629 956 112 630 957 119 631 958 140 632 959 112 633 960 140 634 961 115 635 962 115 636 963 140 637 964 144 638 965 115 639 966 144 640 967 114 641 968 114 642 969 144 643 970 141 644 971 114 645 972 141 646 973 111 647 974 77 648 975 76 648 976 67 648 977 67 649 978 76 649 979 66 649 980 67 650 981 66 650 982 62 650 983 62 651 984 66 651 985 61 651 986 62 652 987 61 652 988 55 652 989 55 653 990 61 653 991 54 653 992 55 654 993 54 654 994 49 654 995 49 655 996 54 655 997 48 655 998 49 656 999 48 656 1000 45 656 1001 45 657 1002 48 657 1003 44 657 1004 45 658 1005 44 658 1006 40 658 1007 40 659 1008 44 659 1009 39 659 1010 40 660 1011 39 660 1012 13 660 1013 13 661 1014 39 661 1015 12 661 1016 13 662 1017 12 662 1018 7 662 1019 7 663 1020 12 663 1021 6 663 1022 7 664 1023 6 664 1024 5 664 1025 5 665 1026 6 665 1027 4 665 1028 5 666 1029 4 666 1030 3 666 1031 3 667 1032 4 667 1033 2 667 1034 3 668 1035 2 668 1036 1 668 1037 1 669 1038 2 669 1039 0 669 1040 76 670 1041 77 670 1042 80 670 1043 80 671 1044 77 671 1045 81 671 1046 80 672 1047 81 672 1048 84 672 1049 84 673 1050 81 673 1051 85 673 1052 84 674 1053 85 674 1054 88 674 1055 88 675 1056 85 675 1057 89 675 1058 88 676 1059 89 676 1060 94 676 1061 94 677 1062 89 677 1063 95 677 1064 94 678 1065 95 678 1066 100 678 1067 100 679 1068 95 679 1069 101 679 1070 100 680 1071 101 680 1072 103 680 1073 103 681 1074 101 681 1075 104 681 1076 103 664 1077 104 664 1078 107 664 1079 107 682 1080 104 682 1081 108 682 1082 107 683 1083 108 683 1084 111 683 1085 111 684 1086 108 684 1087 112 684 1088 111 685 1089 112 685 1090 114 685 1091 114 686 1092 112 686 1093 115 686 1094 125 687 1095 141 687 1096 98 687 1097 98 688 1098 141 688 1099 144 688 1100 98 689 1101 144 689 1102 140 689 1103 140 690 1104 119 690 1105 98 690 1106 98 691 1107 119 691 1108 117 691 1109 98 692 1110 117 692 1111 113 692 1112 113 693 1113 106 693 1114 98 693 1115 98 694 1116 106 694 1117 99 694 1118 99 695 1119 106 695 1120 97 695 1121 99 696 1122 97 696 1123 93 696 1124 93 697 1125 97 697 1126 91 697 1127 93 698 1128 91 698 1129 87 698 1130 87 699 1131 83 699 1132 93 699 1133 93 700 1134 83 700 1135 79 700 1136 93 701 1137 79 701 1138 56 701 1139 56 702 1140 79 702 1141 57 702 1142 57 703 1143 79 703 1144 69 703 1145 57 704 1146 69 704 1147 65 704 1148 65 705 1149 59 705 1150 57 705 1151 57 706 1152 59 706 1153 53 706 1154 57 707 1155 53 707 1156 51 707 1157 51 708 1158 53 708 1159 47 708 1160 51 709 1161 47 709 1162 43 709 1163 51 710 1164 43 710 1165 50 710 1166 50 711 1167 43 711 1168 41 711 1169 50 712 1170 41 712 1171 33 712 1172 33 713 1173 11 713 1174 50 713 1175 50 714 1176 11 714 1177 9 714 1178 50 715 1179 9 715 1180 8 715 1181 50 716 1182 8 716 1183 32 716 1184 32 717 1185 8 717 1186 10 717 1187 32 718 1188 10 718 1189 31 718 1190 31 719 1191 10 719 1192 24 719 1193 31 720 1194 24 720 1195 38 720 1196 38 721 1197 42 721 1198 31 721 1199 31 722 1200 42 722 1201 46 722 1202 31 723 1203 46 723 1204 52 723 1205 52 724 1206 58 724 1207 31 724 1208 31 725 1209 58 725 1210 63 725 1211 31 726 1212 63 726 1213 68 726 1214 68 727 1215 78 727 1216 31 727 1217 31 728 1218 78 728 1219 82 728 1220 31 729 1221 82 729 1222 86 729 1223 86 730 1224 90 730 1225 31 730 1226 31 731 1227 90 731 1228 96 731 1229 31 732 1230 96 732 1231 105 732 1232 105 721 1233 110 721 1234 31 721 1235 31 733 1236 110 733 1237 116 733 1238 31 734 1239 116 734 1240 118 734 1241 56 735 1242 92 735 1243 93 735 1244 201 0 1245 198 0 1246 199 0 1247 199 736 1248 198 736 1249 163 736 1250 199 737 1251 163 737 1252 226 737 1253 198 0 1254 196 0 1255 163 0 1256 163 0 1257 196 0 1258 129 0 1259 163 0 1260 129 0 1261 161 0 1262 161 738 1263 129 738 1264 127 738 1265 161 739 1266 127 739 1267 125 739 1268 125 0 1269 127 0 1270 124 0 1271 129 0 1272 196 0 1273 133 0 1274 133 0 1275 196 0 1276 191 0 1277 133 0 1278 191 0 1279 146 0 1280 146 0 1281 191 0 1282 180 0 1283 180 0 1284 191 0 1285 193 0 1286 180 0 1287 193 0 1288 187 0 1289 187 0 1290 183 0 1291 180 0 1292 143 0 1293 139 0 1294 146 0 1295 146 0 1296 139 0 1297 135 0 1298 146 0 1299 135 0 1300 133 0 1301 125 740 1302 98 740 1303 161 740 1304 163 0 1305 161 0 1306 165 0 1307 165 0 1308 161 0 1309 159 0 1310 165 0 1311 159 0 1312 167 0 1313 167 0 1314 159 0 1315 157 0 1316 167 0 1317 157 0 1318 169 0 1319 169 0 1320 157 0 1321 155 0 1322 169 0 1323 155 0 1324 289 0 1325 289 0 1326 155 0 1327 37 0 1328 37 0 1329 155 0 1330 21 0 1331 37 0 1332 21 0 1333 17 0 1334 92 741 1335 56 741 1336 159 741 1337 159 0 1338 56 0 1339 157 0 1340 50 0 1341 32 0 1342 155 0 1343 155 0 1344 32 0 1345 21 0 1346 28 0 1347 26 0 1348 32 0 1349 32 0 1350 26 0 1351 21 0 1352 17 0 1353 30 0 1354 37 0 1355 37 0 1356 30 0 1357 35 0 1358 291 0 1359 296 0 1360 289 0 1361 289 0 1362 296 0 1363 305 0 1364 289 0 1365 305 0 1366 309 0 1367 300 0 1368 294 0 1369 309 0 1370 309 0 1371 294 0 1372 169 0 1373 309 742 1374 169 742 1375 289 742 1376 300 0 1377 298 0 1378 294 0 1379 294 0 1380 274 0 1381 169 0 1382 167 743 1383 268 743 1384 165 743 1385 165 0 1386 268 0 1387 232 0 1388 170 744 1389 265 744 1390 168 744 1391 168 745 1392 265 745 1393 261 745 1394 275 746 1395 265 746 1396 274 746 1397 274 747 1398 265 747 1399 170 747 1400 274 748 1401 170 748 1402 169 748 1403 170 749 1404 168 749 1405 169 749 1406 169 750 1407 168 750 1408 167 750 1409 64 751 1410 60 751 1411 158 751 1412 158 751 1413 60 751 1414 156 751 1415 57 752 1416 64 752 1417 56 752 1418 56 753 1419 64 753 1420 158 753 1421 56 754 1422 158 754 1423 157 754 1424 158 755 1425 156 755 1426 157 755 1427 157 756 1428 156 756 1429 155 756 1430 166 757 1431 223 757 1432 164 757 1433 164 758 1434 223 758 1435 216 758 1436 233 759 1437 223 759 1438 232 759 1439 232 760 1440 223 760 1441 166 760 1442 232 759 1443 166 759 1444 165 759 1445 166 761 1446 164 761 1447 165 761 1448 165 762 1449 164 762 1450 163 762 1451 109 763 1452 102 763 1453 162 763 1454 162 764 1455 102 764 1456 160 764 1457 99 765 1458 109 765 1459 98 765 1460 98 766 1461 109 766 1462 162 766 1463 98 767 1464 162 767 1465 161 767 1466 162 768 1467 160 768 1468 161 768 1469 161 769 1470 160 769 1471 159 769 1472 163 770 1473 164 770 1474 226 770 1475 226 771 1476 164 771 1477 216 771 1478 226 772 1479 216 772 1480 227 772 1481 216 0 1482 223 0 1483 227 0 1484 227 0 1485 223 0 1486 233 0 1487 159 773 1488 160 773 1489 92 773 1490 92 774 1491 160 774 1492 102 774 1493 92 773 1494 102 773 1495 93 773 1496 109 0 1497 99 0 1498 102 0 1499 102 0 1500 99 0 1501 93 0 1502 167 775 1503 168 775 1504 268 775 1505 268 776 1506 168 776 1507 261 776 1508 268 777 1509 261 777 1510 269 777 1511 261 0 1512 265 0 1513 269 0 1514 269 0 1515 265 0 1516 275 0 1517 155 778 1518 156 778 1519 50 778 1520 50 779 1521 156 779 1522 60 779 1523 50 780 1524 60 780 1525 51 780 1526 64 0 1527 57 0 1528 60 0 1529 60 0 1530 57 0 1531 51 0 1532 134 0 1533 138 0 1534 137 0 1535 137 0 1536 138 0 1537 142 0 1538 137 0 1539 142 0 1540 145 0 1541 177 2 1542 194 2 1543 175 2 1544 175 2 1545 194 2 1546 188 2 1547 178 3 1548 177 3 1549 176 3 1550 176 3 1551 177 3 1552 175 3 1553 174 2 1554 178 2 1555 172 2 1556 172 2 1557 178 2 1558 176 2 1559 173 4 1560 174 4 1561 171 4 1562 171 4 1563 174 4 1564 172 4 1565 153 2 1566 173 2 1567 151 2 1568 151 2 1569 173 2 1570 171 2 1571 154 3 1572 153 3 1573 152 3 1574 152 3 1575 153 3 1576 151 3 1577 150 2 1578 154 2 1579 148 2 1580 148 2 1581 154 2 1582 152 2 1583 149 4 1584 150 4 1585 147 4 1586 147 4 1587 150 4 1588 148 4 1589 136 2 1590 149 2 1591 130 2 1592 130 2 1593 149 2 1594 147 2 1595 179 0 1596 182 0 1597 195 0 1598 195 0 1599 182 0 1600 186 0 1601 195 0 1602 186 0 1603 192 0 1604 32 781 1605 31 782 1606 28 783 1607 28 784 1608 31 785 1609 27 786 1610 28 787 1611 27 788 1612 26 789 1613 26 790 1614 27 791 1615 25 792 1616 26 793 1617 25 794 1618 21 795 1619 21 796 1620 25 797 1621 20 798 1622 118 799 1623 120 799 1624 122 799 1625 122 800 1626 120 800 1627 121 800 1628 122 801 1629 121 801 1630 123 801 1631 123 802 1632 124 803 1633 122 804 1634 122 805 1635 124 806 1636 126 807 1637 126 808 1638 124 809 1639 127 810 1640 126 811 1641 127 812 1642 128 813 1643 128 814 1644 127 815 1645 129 816 1646 128 817 1647 129 818 1648 132 819 1649 132 820 1650 129 821 1651 133 822 1652 133 3 1653 135 3 1654 132 3 1655 132 3 1656 135 3 1657 134 3 1658 132 3 1659 134 3 1660 136 3 1661 136 3 1662 134 3 1663 137 3 1664 136 3 1665 130 3 1666 132 3 1667 132 3 1668 130 3 1669 131 3 1670 146 823 1671 145 824 1672 143 825 1673 143 826 1674 145 827 1675 142 828 1676 143 829 1677 142 830 1678 139 831 1679 139 832 1680 142 833 1681 138 834 1682 139 835 1683 138 836 1684 135 837 1685 135 838 1686 138 839 1687 134 840 1688 146 1 1689 180 1 1690 145 1 1691 145 1 1692 180 1 1693 179 1 1694 145 1 1695 179 1 1696 154 1 1697 154 841 1698 179 841 1699 174 841 1700 154 1 1701 174 1 1702 153 1 1703 153 1 1704 174 1 1705 173 1 1706 174 1 1707 179 1 1708 178 1 1709 178 842 1710 179 842 1711 195 842 1712 178 1 1713 195 1 1714 194 1 1715 194 1 1716 177 1 1717 178 1 1718 154 1 1719 150 1 1720 145 1 1721 145 1 1722 150 1 1723 137 1 1724 137 1 1725 150 1 1726 136 1 1727 136 1 1728 150 1 1729 149 1 1730 193 843 1731 192 844 1732 187 845 1733 187 846 1734 192 847 1735 186 848 1736 187 849 1737 186 850 1738 183 851 1739 183 852 1740 186 853 1741 182 854 1742 183 855 1743 182 856 1744 180 857 1745 180 858 1746 182 859 1747 179 860 1748 193 4 1749 191 4 1750 192 4 1751 192 4 1752 191 4 1753 190 4 1754 192 4 1755 190 4 1756 194 4 1757 194 4 1758 190 4 1759 188 4 1760 188 4 1761 190 4 1762 189 4 1763 194 4 1764 195 4 1765 192 4 1766 203 861 1767 204 861 1768 202 861 1769 202 862 1770 204 862 1771 205 862 1772 202 863 1773 205 863 1774 207 863 1775 309 864 1776 308 865 1777 300 866 1778 300 867 1779 308 868 1780 299 869 1781 300 870 1782 299 871 1783 298 872 1784 298 873 1785 299 874 1786 297 875 1787 298 876 1788 297 877 1789 294 878 1790 294 879 1791 297 880 1792 293 881 1793 308 4 1794 309 4 1795 307 4 1796 307 4 1797 309 4 1798 305 4 1799 307 4 1800 305 4 1801 304 4 1802 303 4 1803 302 4 1804 304 4 1805 304 4 1806 302 4 1807 306 4 1808 304 4 1809 306 4 1810 307 4 1811 302 4 1812 310 4 1813 306 4 1814 306 4 1815 310 4 1816 311 4 1817 304 882 1818 305 883 1819 295 884 1820 295 885 1821 305 886 1822 296 887 1823 295 888 1824 296 889 1825 290 890 1826 290 891 1827 296 892 1828 291 893 1829 290 894 1830 291 895 1831 288 896 1832 288 897 1833 291 898 1834 289 899 1835 131 900 1836 37 900 1837 71 900 1838 71 901 1839 37 901 1840 36 901 1841 71 901 1842 36 901 1843 70 901 1844 70 902 1845 36 902 1846 14 902 1847 14 901 1848 36 901 1849 15 901 1850 130 901 1851 148 901 1852 131 901 1853 131 903 1854 148 903 1855 152 903 1856 131 901 1857 152 901 1858 172 901 1859 172 901 1860 152 901 1861 171 901 1862 171 901 1863 152 901 1864 151 901 1865 130 901 1866 147 901 1867 148 901 1868 131 904 1869 172 904 1870 189 904 1871 189 903 1872 172 903 1873 176 903 1874 189 901 1875 176 901 1876 188 901 1877 188 901 1878 176 901 1879 175 901 1880 251 905 1881 289 905 1882 189 905 1883 189 906 1884 289 906 1885 37 906 1886 189 907 1887 37 907 1888 131 907 1889 289 901 1890 251 901 1891 288 901 1892 288 901 1893 251 901 1894 250 901 1895 288 901 1896 250 901 1897 302 901 1898 302 901 1899 303 901 1900 288 901 1901 36 908 1902 37 909 1903 34 910 1904 34 911 1905 37 912 1906 35 913 1907 34 914 1908 35 915 1909 29 916 1910 29 917 1911 35 918 1912 30 919 1913 29 920 1914 30 921 1915 16 922 1916 16 923 1917 30 924 1918 17 925 1919 20 3 1920 19 3 1921 21 3 1922 21 3 1923 19 3 1924 17 3 1925 17 3 1926 19 3 1927 16 3 1928 16 3 1929 19 3 1930 18 3 1931 16 3 1932 18 3 1933 14 3 1934 14 3 1935 18 3 1936 22 3 1937 22 3 1938 18 3 1939 23 3 1940 14 3 1941 15 3 1942 16 3 1943</p>
        </triangles>
      </mesh>
    </geometry>
  </library_geometries>
  <library_visual_scenes>
    <visual_scene id="Scene" name="Scene">
      <node id="EMROX-Argo_IPA-HN_V1_02_03_Simu_EMROX_IPA-HN_Schlitten_V1_02_03" name="EMROX-Argo IPA-HN V1.02.03 Simu_EMROX IPA-HN Schlitten V1.02.03" type="NODE">
        <matrix sid="transform">-4.37114e-8 1 0 0 -1 -4.37114e-8 0 0 0 0 1 0 0 0 0 1</matrix>
        <instance_geometry url="#EMROX-Argo_IPA-HN_V1_02_03_Simu_EMROX_IPA-HN_Schlitten_V1_02_03-mesh" name="EMROX-Argo IPA-HN V1.02.03 Simu_EMROX IPA-HN Schlitten V1.02.03">
          <bind_material>
            <technique_common>
              <instance_material symbol="_54_254_255_001-material" target="#_54_254_255_001-material">
                <bind_vertex_input semantic="UVMap" input_semantic="TEXCOORD" input_set="0"/>
              </instance_material>
            </technique_common>
          </bind_material>
        </instance_geometry>
      </node>
    </visual_scene>
  </library_visual_scenes>
  <scene>
    <instance_visual_scene url="#Scene"/>
  </scene>
</COLLADA>