<?xml version="1.0" encoding="utf-8"?>
<COLLADA xmlns="http://www.collada.org/2005/11/COLLADASchema" version="1.4.1" xmlns:xsi="http://www.w3.org/2001/XMLSchema-instance">
  <asset>
    <contributor>
      <author>Blender User</author>
      <authoring_tool>Blender 4.2.18 LTS commit date:2026-02-16, commit time:13:37, hash:d71e3422e438</authoring_tool>
    </contributor>
    <created>2026-02-25T22:39:20</created>
    <modified>2026-02-25T22:39:20</modified>
    <unit name="meter" meter="1"/>
    <up_axis>Z_UP</up_axis>
  </asset>
  <library_effects>
    <effect id="_05_105_105-effect">
      <profile_COMMON>
        <technique sid="common">
          <lambert>
            <emission>
              <color sid="emission">0 0 0 1</color>
            </emission>
            <diffuse>
              <color sid="diffuse">0.411765 0.411765 0.411765 1</color>
            </diffuse>
            <index_of_refraction>
              <float sid="ior">1.5</float>
            </index_of_refraction>
          </lambert>
        </technique>
      </profile_COMMON>
    </effect>
  </library_effects>
  <library_images/>
  <library_materials>
    <material id="_05_105_105-material" name="105,105,105">
      <instance_effect url="#_05_105_105-effect"/>
    </material>
  </library_materials>
  <library_geometries>
    <geometry id="EMROX-Argo_IPA-HN_V1_02_03_Simu_RoX_Simple_Argo_Argodrive_Schem-mesh" name="EMROX-Argo IPA-HN V1.02.03 Simu_RoX Simple Argo Argodrive Schem">
      <mesh>
        <source id="EMROX-Argo_IPA-HN_V1_02_03_Simu_RoX_Simple_Argo_Argodrive_Schem-mesh-positions">
          <float_array id="EMROX-Argo_IPA-HN_V1_02_03_Simu_RoX_Simple_Argo_Argodrive_Schem-mesh-positions-array" count="303">-209 243.1742 20 -209 243.1742 123 -209 281.7189 49.50196 -209 281.8546 51.48484 -209 282.1233 47.55602 -209 282.5202 53.35759 -209 283.0377 45.79133 -209 283.6663 54.98133 -209 284.3943 44.33879 -209 285.208 56.23563 -209 286.0924 43.30611 -209 287.031 57.02745 -209 288.0063 42.76989 -209 289 57.29808 -209 289.9938 42.76989 -209 290.969 57.02745 -209 291.9076 43.30611 -209 292.792 56.23563 -209 293.6058 44.33879 -209 294.3337 54.98133 -209 294.9623 45.79133 -209 295.4799 53.35759 -209 295.8767 47.55602 -209 296.1455 51.48484 -209 296.2811 49.50196 -209 334.8258 20 -209 334.8258 123 -204.2904 245.5324 20 -204.2904 245.5324 123 -204.2904 332.4676 20 -204.2904 332.4676 123 -199.8549 248.3728 20 -199.8549 248.3728 123 -199.8549 329.6271 20 -199.8549 329.6271 123 -195.7429 251.6641 20 -195.7429 251.6641 123 -195.7429 326.3359 20 -195.7429 326.3359 123 -191.9999 255.3697 20 -191.9999 255.3697 123 -191.9999 322.6303 20 -191.9999 322.6303 123 -188.6675 259.4486 20 -188.6675 259.4486 123 -188.6675 318.5515 20 -188.6675 318.5515 123 -185.7826 263.8552 20 -185.7826 263.8552 123 -185.7826 314.1448 20 -185.7826 314.1448 123 -183.3773 268.541 20 -183.3773 268.541 123 -183.3773 309.4591 20 -183.3773 309.4591 123 -181.4783 273.4537 20 -181.4783 273.4537 123 -181.4783 304.5463 20 -181.4783 304.5463 123 -180.1066 278.539 20 -180.1066 278.539 123 -180.1066 299.461 20 -180.1066 299.461 123 -179.5355 281.7019 50 -179.5355 296.2981 50 -179.5151 281.8403 48.59557 -179.5151 281.8403 51.40443 -179.5151 296.1597 48.59557 -179.5151 296.1597 51.40443 -179.4566 282.2582 47.20534 -179.4566 282.2582 52.79465 -179.4566 295.7418 47.20534 -179.4566 295.7418 52.79465 -179.368 282.9458 45.92807 -179.368 282.9458 54.07193 -179.368 295.0542 45.92807 -179.368 295.0542 54.07193 -179.2774 283.7403 20 -179.2774 283.7403 123 -179.2774 294.2597 20 -179.2774 294.2597 123 -179.267 283.8395 44.8395 -179.267 283.8395 55.16049 -179.267 294.1606 44.8395 -179.267 294.1606 55.16049 -179.1663 284.928 43.94588 -179.1663 284.928 56.05412 -179.1663 293.072 43.94588 -179.1663 293.072 56.05412 -179.0782 286.2053 43.25821 -179.0782 286.2053 56.74179 -179.0782 291.7947 43.25821 -179.0782 291.7947 56.74179 -179.0202 287.5956 42.84033 -179.0202 287.5956 57.15966 -179.0202 290.4045 42.84033 -179.0202 290.4045 57.15966 -179 289 20 -179 289 42.70191 -179 289 57.29808 -179 289 123</float_array>
          <technique_common>
            <accessor source="#EMROX-Argo_IPA-HN_V1_02_03_Simu_RoX_Simple_Argo_Argodrive_Schem-mesh-positions-array" count="101" stride="3">
              <param name="X" type="float"/>
              <param name="Y" type="float"/>
              <param name="Z" type="float"/>
            </accessor>
          </technique_common>
        </source>
        <source id="EMROX-Argo_IPA-HN_V1_02_03_Simu_RoX_Simple_Argo_Argodrive_Schem-mesh-normals">
          <float_array id="EMROX-Argo_IPA-HN_V1_02_03_Simu_RoX_Simple_Argo_Argodrive_Schem-mesh-normals-array" count="1227">1.26084e-6 -0.9812995 -0.1924871 1.11386e-6 -0.9790883 -0.2034355 7.95e-7 -1 -2.54425e-5 5.51343e-6 -1 1.2517e-6 0.001713991 -0.9790869 -0.2034354 1.90106e-6 -0.9976702 0.06822329 -4.59142e-7 -1 1.27032e-5 -9.10892e-7 -0.9976691 0.06823742 5.37094e-6 -0.9813043 0.192463 -2.01253e-6 -0.9813009 0.1924805 -5.40283e-6 -0.997667 0.06826812 7.22334e-6 -0.9422741 0.3348426 1.47289e-6 -0.9812928 0.1925216 1.77475e-7 -0.9422657 0.3348663 4.60027e-6 -0.9237821 0.3829188 4.76558e-6 -0.9237665 0.3829565 0.001394271 -0.9422535 0.3348979 2.21888e-6 -0.8169795 0.5766668 2.79723e-6 -0.923771 0.3829455 -5.49189e-6 -0.816977 0.5766704 -8.18539e-6 -0.8297885 0.5580781 4.22937e-7 -0.8297578 0.5581238 -3.46592e-6 -0.8169728 0.5766763 -8.91509e-6 -0.7071341 0.7070795 -1.79547e-6 -0.7071015 0.7071121 1.0604e-5 -0.816955 0.5767014 -5.10784e-6 -0.6311166 0.7756881 1.0042e-6 -0.7071 0.7071135 -2.29353e-7 -0.6310906 0.7757093 -8.75443e-6 -0.5581175 0.8297621 -1.6659e-7 -0.5581037 0.8297713 1.07128e-5 -0.6310626 0.775732 -3.45567e-6 -0.3984233 0.9172018 5.14928e-6 -0.5580844 0.8297843 2.6465e-6 -0.3984399 0.9171946 3.38256e-6 -0.3829511 0.9237687 1.79649e-6 -0.3828932 0.9237927 -9.70997e-6 -0.3983823 0.9172195 -8.36793e-7 -0.1925342 0.9812904 2.15601e-6 -0.1925032 0.9812964 0.00142014 -0.398387 0.9172164 4.13763e-6 -0.1361879 0.9906831 -3.20142e-7 -0.1924425 0.9813084 -2.18861e-7 -0.1361718 0.9906853 -1.53529e-6 -3.76671e-5 1 1.27572e-5 0 1 -3.00794e-6 -0.1361336 0.9906906 -7.3011e-6 0.1361336 0.9906906 2.29385e-6 3.76925e-5 1 3.12633e-7 0.1361718 0.9906852 3.74245e-4 0.1924379 0.9813092 2.82889e-7 0.1925033 0.9812964 0.001419663 0.1361802 0.9906831 -1.12732e-5 0.3983803 0.9172204 3.65684e-6 0.192534 0.9812904 -8.07797e-6 0.3983822 0.9172195 7.10599e-7 0.3828929 0.9237928 -7.13163e-6 0.3829511 0.9237687 1.30339e-6 0.3984398 0.9171945 1.94507e-6 0.5580844 0.8297843 7.07805e-7 0.5581037 0.8297712 1.62551e-6 0.3984231 0.9172018 7.50856e-6 0.6310625 0.7757321 -4.60516e-6 0.5581175 0.829762 -2.86935e-7 0.6310906 0.7757093 0 0.7071 0.7071135 3.04758e-6 0.7071012 0.7071124 -2.66661e-6 0.6311165 0.7756882 4.70597e-6 0.816955 0.5767015 -4.07873e-6 0.7071343 0.7070794 -1.95098e-6 0.8169453 0.5767154 7.47386e-7 0.8297579 0.5581237 -3.27226e-6 0.8297885 0.5580782 -6.16349e-6 0.816977 0.5766704 -3.7672e-7 0.9237709 0.3829455 5.22705e-6 0.9237665 0.3829565 0.001393258 0.8169745 0.5766723 -2.6304e-6 0.9422519 0.3349051 -5.65511e-6 0.9237821 0.3829188 -2.02795e-7 0.9422657 0.3348662 2.28477e-6 0.9812929 0.1925215 -1.80298e-6 0.9813009 0.1924805 -7.97491e-6 0.9422742 0.3348424 -9.46084e-6 0.9976671 0.06826823 -4.14904e-6 0.9813042 0.1924632 2.28989e-7 0.9976692 0.06823748 3.42596e-4 1 1.70842e-5 4.31866e-6 1 1.22935e-6 0.001713991 0.997668 0.0682342 -1.31656e-5 0.9790907 -0.2034247 4.05498e-6 1 -2.54139e-5 2.56483e-6 0.9790883 -0.2034355 -0.001167833 0.9813007 -0.1924774 0 0.9812982 -0.1924944 4.57931e-6 0.979077 -0.20349 -6.26594e-6 0.9237895 -0.3829008 4.67408e-6 0.923791 -0.3828974 -4.99829e-6 0.9790773 -0.203489 2.44076e-6 0.8878961 -0.4600442 1.15554e-6 0.9237723 -0.3829423 9.02539e-7 0.887888 -0.4600597 -2.74274e-6 0.8297972 -0.5580652 0 0.8297801 -0.5580906 -1.04913e-6 0.8878731 -0.4600885 -1.08564e-5 0.7308613 -0.682526 2.94554e-6 0.8297643 -0.5581142 -2.07202e-6 0.7308617 -0.6825257 -6.57979e-6 0.7071436 -0.7070701 7.49598e-7 0.707091 -0.7071226 -1.70195e-5 0.7308108 -0.6825802 -4.52902e-6 0.558103 -0.8297718 8.28458e-6 0.5581189 -0.829761 0.001193106 0.7308239 -0.682565 -5.88293e-6 0.5195988 -0.8544104 -7.27596e-7 0.558074 -0.8297913 -7.19668e-6 0.5195518 -0.854439 -3.84357e-6 0.3829458 -0.9237709 3.76342e-6 0.3829597 -0.9237652 6.255e-6 0.5195554 -0.8544368 6.13416e-6 0.2698275 -0.9629088 5.34114e-7 0.382903 -0.9237887 -9.04023e-7 0.2697985 -0.9629169 -4.42285e-6 0.1925097 -0.9812951 -7.05826e-7 0.1924965 -0.9812977 0.00178802 0.2697831 -0.9629195 3.09059e-6 2.6986e-5 -1 3.76534e-6 0.1924718 -0.9813026 8.09106e-6 9.20147e-6 -1 -4.34287e-6 9.38351e-6 -1 -2.71338e-6 -9.38028e-6 -1 -1.18711e-5 -9.19402e-6 -1 7.83359e-7 -0.1924718 -0.9813026 0 -0.1924965 -0.9812977 0.001787781 -1.4931e-5 -0.9999985 -4.09014e-6 -0.2697718 -0.9629243 -4.0466e-7 -0.1925097 -0.9812951 -1.3439e-6 -0.2697984 -0.9629169 1.6354e-6 -0.3829028 -0.9237887 2.95183e-6 -0.3829597 -0.9237652 9.55211e-6 -0.2698274 -0.9629088 1.12737e-6 -0.5195554 -0.8544368 1.35764e-6 -0.3829457 -0.923771 -5.58904e-6 -0.5195516 -0.8544391 -8.20961e-7 -0.5580739 -0.8297913 6.54382e-6 -0.558119 -0.829761 0.001193106 -0.5195938 -0.8544126 -1.20699e-6 -0.7308207 -0.6825695 -9.37376e-7 -0.558103 -0.8297717 1.00108e-5 -0.7308108 -0.6825801 3.92087e-7 -0.707091 -0.7071226 -1.67009e-6 -0.7071436 -0.70707 -2.30712e-6 -0.7308617 -0.6825257 1.77789e-6 -0.8297642 -0.5581142 -6.01227e-7 -0.8297801 -0.5580906 -7.10273e-6 -0.7308613 -0.6825261 -5.87292e-6 -0.8878731 -0.4600885 9.03383e-7 -0.8297972 -0.5580651 3.79048e-7 -0.887888 -0.4600597 -9.46689e-7 -0.9237723 -0.3829423 5.80179e-6 -0.9237909 -0.3828974 7.50192e-6 -0.8878962 -0.4600441 -8.15e-6 -0.9790772 -0.2034892 -1.75415e-6 -0.9237895 -0.3829008 5.80377e-6 -0.979077 -0.2034901 3.3516e-6 -0.9812982 -0.1924945 0.9896948 0.1431928 -2.14693e-6 0.994452 0.1051917 6.11134e-6 0.9892908 0.1459577 3.32249e-6 0.9892887 0.1459729 -1.90322e-6 0.9944511 0.1052008 -3.56115e-6 0.9778705 0.2092114 3.90131e-6 0.9892928 0.1459455 -2.69827e-6 0.9778735 0.2091972 1.61409e-6 0.9778735 0.2091972 -3.48827e-6 0.9778667 0.2092291 -2.52755e-6 0.9778667 0.2092291 -3.53204e-7 0.950438 0.3109145 -3.45726e-6 0.950438 0.3109145 3.53204e-7 0.9778667 0.2092291 3.45726e-6 0.950438 0.3109145 2.52755e-6 0.9504321 0.3109323 -2.52755e-6 0.9504321 0.3109324 -3.53903e-7 0.912459 0.4091683 -3.45725e-6 0.9124557 0.4091755 3.53903e-7 0.9504296 0.3109399 3.45725e-6 0.9124557 0.4091755 2.52755e-6 0.9124499 0.4091884 -2.52755e-6 0.9124499 0.4091885 -3.50876e-7 0.8643536 0.5028848 -3.45725e-6 0.8643519 0.5028876 3.50876e-7 0.9124485 0.4091915 3.45725e-6 0.8643518 0.5028876 2.52755e-6 0.8643409 0.5029065 -2.52755e-6 0.8643409 0.5029065 -3.67872e-7 0.8066546 0.5910232 -2.6408e-5 0.806657 0.5910199 3.67872e-7 0.8643429 0.502903 3.4447e-6 0.806657 0.5910199 2.52755e-6 0.8066462 0.5910347 -2.52755e-6 0.8066462 0.5910347 -3.50876e-7 0.7400112 0.6725946 -3.45725e-6 0.740005 0.6726014 3.50876e-7 0.8066408 0.5910421 3.45725e-6 0.740005 0.6726015 2.52756e-6 0.7399969 0.6726104 -2.52755e-6 0.7399969 0.6726104 -3.55067e-7 0.6651519 0.7467082 -3.45725e-6 0.6651518 0.7467082 3.55067e-7 0.7399969 0.6726104 3.45726e-6 0.6651519 0.7467082 2.52755e-6 0.6651301 0.7467275 -2.52755e-6 0.6651301 0.7467275 -3.59258e-7 0.5829051 0.8125402 -3.44471e-6 0.5829052 0.8125402 3.59025e-7 0.6651301 0.7467275 2.64079e-5 0.5829052 0.8125402 2.52755e-6 0.5828945 0.8125479 -2.52755e-6 0.5828945 0.8125479 -3.54368e-7 0.494203 0.8693466 -3.45725e-6 0.494203 0.8693466 3.54601e-7 0.5828945 0.8125479 3.45726e-6 0.494203 0.8693466 2.52755e-6 0.4941767 0.8693615 -2.52755e-6 0.4941768 0.8693614 -3.62517e-7 0.400002 0.9165143 -1.87494e-5 0.4000139 0.9165091 3.62517e-7 0.4941881 0.869355 3.44471e-6 0.400014 0.916509 2.52755e-6 0.989698 0.1431707 -4.19077e-5 0.9908645 0.1348615 -4.21345e-6 0.994453 0.1051828 2.16905e-6 0.9944522 0.1051896 5.79748e-7 0.9908708 0.1348149 -2.41236e-6 0.9926394 0.1211081 -1.58988e-6 0.994454 0.1051735 7.31015e-7 0.9926425 0.1210818 2.78465e-7 0.9946588 0.1032187 2.17497e-7 0.994659 0.1032164 -4.97326e-7 0.9966775 0.08145052 -8.43196e-7 0.9944542 0.1051712 1.53908e-7 0.994455 0.1051639 -3.39339e-6 0.9966773 0.08145195 1.44495e-6 0.9984375 0.05588042 1.29966e-6 0.9944516 0.105196 5.13904e-6 0.9984379 0.05587291 -1.53764e-5 1 -1.55428e-6 6.52857e-7 1 1.26213e-5 4.3218e-6 0.9984374 0.05588299 0 0.9996045 0.02812099 -5.32845e-6 1 1.30767e-5 1.857e-6 0.9996051 0.0281012 1.23167e-6 1 1.30767e-5 4.99505e-7 1 -1.34994e-5 -1.28755e-7 0.9996065 -0.02805376 -1.11689e-6 1 -1.34967e-5 -1.10981e-6 1 -1.17607e-5 3.68222e-6 0.9996046 -0.02812021 -4.68316e-6 0.9984374 -0.05588233 -1.58034e-6 1 1.43796e-6 2.67383e-6 0.9984379 -0.05587333 -1.58275e-5 0.9944516 -0.1051961 2.9495e-6 0.994455 -0.1051633 3.98606e-6 0.9984375 -0.05588006 1.91294e-6 0.9966774 -0.08145171 0 0.994454 -0.1051731 3.20491e-7 0.9966773 -0.08145236 3.08268e-7 0.9946588 -0.1032182 -8.30081e-7 0.994659 -0.103216 -1.47149e-7 0.9926429 -0.1210792 0 0.9944542 -0.1051708 -6.90476e-7 0.994452 -0.1051919 4.02797e-7 0.9926391 -0.1211104 -2.3297e-6 0.9908705 -0.1348173 -2.28855e-6 0.9944516 -0.1051955 -5.43427e-7 0.9908692 -0.1348267 1.96509e-6 0.9896975 -0.1431746 -3.4492e-5 0.9944509 -0.1052029 0 0.9896952 -0.1431904 1.10397e-6 0.9778709 -0.2092093 -4.9551e-6 0.9778673 -0.2092264 1.61631e-6 0.9896968 -0.143179 1.58919e-6 0.9892863 -0.145989 -1.71945e-6 0.9778735 -0.2091972 2.48873e-6 0.9892928 -0.1459455 1.67044e-6 0.9778735 -0.2091972 3.04099e-6 0.9778693 -0.209217 2.66614e-6 0.9892884 -0.1459742 7.14906e-7 0.989692 -0.1432124 2.64903e-6 0.9778724 -0.2092022 2.11201e-6 0.9896957 -0.1431872 1.38447e-7 0.99445 -0.1052109 -2.77581e-6 0.9944503 -0.1052076 2.44158e-6 0.9897033 -0.1431345 7.24511e-6 0.9908632 -0.134871 3.07567e-6 0.9944515 -0.1051959 -1.04069e-6 0.9908672 -0.1348416 0 0.9926397 -0.1211058 9.74374e-7 0.9926407 -0.1210976 -2.79862e-7 0.9946621 -0.1031867 4.66412e-7 0.9944522 -0.1051892 -1.35471e-7 0.9944513 -0.1051983 1.09386e-6 0.9946611 -0.1031958 2.02097e-7 0.9966791 -0.08142971 6.37738e-7 0.9944551 -0.1051622 -1.18162e-6 0.9966786 -0.08143639 3.12459e-7 0.9984357 -0.05591291 7.74628e-7 0.9944539 -0.1051738 -3.15788e-6 0.9984362 -0.05590385 -4.63954e-6 1 -2.07585e-5 3.92541e-6 1 -2.65837e-5 -2.98733e-6 0.9984377 -0.05587732 7.06175e-7 0.9996058 -0.02807515 -2.88157e-7 1 -1.27498e-5 9.01578e-7 0.9996052 -0.0281009 -9.17702e-7 1 -1.27489e-5 -4.99505e-7 1 1.45723e-5 1.28639e-7 0.9996051 0.02810275 -3.96103e-7 1 1.45668e-5 9.65808e-7 1 2.82116e-5 -2.76137e-6 0.9996058 0.02807682 -7.86502e-7 0.9984376 0.05587893 1.35682e-7 1 2.07983e-5 2.00723e-6 0.9984362 0.05590385 -4.70779e-6 0.9944539 0.1051738 -1.38383e-6 0.9944556 0.1051576 -1.53983e-6 0.998436 0.05590844 2.73809e-7 0.996679 0.08143186 0 0.9944521 0.1051908 9.44565e-7 0.9966798 0.0814222 -4.05125e-7 0.994657 0.103236 4.58585e-7 0.9946606 0.103201 -1.76486e-7 0.9926447 0.1210643 0 0.9944508 0.1052034 1.38952e-7 0.9944519 0.1051924 6.62199e-7 0.99264 0.1211023 9.0315e-7 0.9908677 0.1348381 0 0.9944512 0.1051997 -4.98781e-7 0.9908707 0.1348158 -2.21375e-6 0.9896976 0.1431738 2.11113e-6 0.9896919 0.1432129 1.87045e-6 0.9892885 0.145974 2.27625e-6 0.9944525 0.1051863 2.70735e-6 0.99445 0.105211 -2.94694e-6 0.9892927 0.1459456 -5.83474e-7 0.9778725 0.2092022 0 0.400008 -0.9165117 -2.52755e-6 0.400008 -0.9165117 -3.59025e-7 0.4941824 -0.8693584 -3.4447e-6 0.494188 -0.8693552 3.58792e-7 0.4000139 -0.916509 3.4447e-6 0.4941881 -0.8693552 2.52755e-6 0.4941977 -0.8693497 -2.52755e-6 0.4941978 -0.8693496 -3.58559e-7 0.5828896 -0.8125515 -3.4447e-6 0.5828945 -0.8125479 3.58792e-7 0.4942031 -0.8693465 3.4447e-6 0.5828946 -0.8125479 2.52755e-6 0.5829051 -0.8125402 -2.52756e-6 0.5829052 -0.8125402 -3.54368e-7 0.6651301 -0.7467276 -3.45725e-6 0.6651386 -0.74672 3.54601e-7 0.5829144 -0.8125336 3.45725e-6 0.6651387 -0.74672 2.52755e-6 0.665148 -0.7467116 -2.52755e-6 0.665148 -0.7467116 -3.55067e-7 0.7399934 -0.6726142 -1.87619e-5 0.7399935 -0.6726142 3.55067e-7 0.665148 -0.7467116 3.45726e-6 0.7399934 -0.6726142 2.52755e-6 0.7400112 -0.6725946 -2.52755e-6 0.7400112 -0.6725947 -3.51109e-7 0.8066463 -0.5910347 -3.45726e-6 0.8066462 -0.5910347 3.50876e-7 0.7400112 -0.6725946 3.45725e-6 0.8066462 -0.5910347 2.52755e-6 0.8066546 -0.5910232 -2.52755e-6 0.8066546 -0.5910232 -3.6764e-7 0.8643409 -0.5029065 -3.4447e-6 0.8643409 -0.5029065 3.67872e-7 0.8066546 -0.5910232 2.6408e-5 0.8643409 -0.5029065 2.52755e-6 0.8643518 -0.5028876 -2.52755e-6 0.8643519 -0.5028876 -3.50876e-7 0.9124485 -0.4091915 -3.45725e-6 0.9124499 -0.4091885 3.50876e-7 0.8643536 -0.5028848 3.45725e-6 0.9124499 -0.4091884 2.52755e-6 0.9124557 -0.4091755 -2.52755e-6 0.9124557 -0.4091755 -3.53903e-7 0.9504296 -0.3109399 -3.45725e-6 0.9504321 -0.3109324 3.53903e-7 0.912459 -0.4091683 3.45725e-6 0.9504321 -0.3109323 2.52755e-6 0.950438 -0.3109145 -2.52755e-6 0.950438 -0.3109145 -3.53204e-7 0.9778667 -0.2092291 -3.45726e-6 0.9778667 -0.2092291 3.53204e-7 0.950438 -0.3109145 3.45726e-6 0.9778667 -0.2092291 2.52755e-6 -1 0 0 -1 0 -1.37775e-5 -1 0 1.34833e-5 -1 0 -2.88846e-5 -1 0 1.62707e-5 -1 0 -1.3591e-5 -1 0 1.2548e-5 -1 0 -1.26011e-5 0 0 1 0 0 -1</float_array>
          <technique_common>
            <accessor source="#EMROX-Argo_IPA-HN_V1_02_03_Simu_RoX_Simple_Argo_Argodrive_Schem-mesh-normals-array" count="409" stride="3">
              <param name="X" type="float"/>
              <param name="Y" type="float"/>
              <param name="Z" type="float"/>
            </accessor>
          </technique_common>
        </source>
        <source id="EMROX-Argo_IPA-HN_V1_02_03_Simu_RoX_Simple_Argo_Argodrive_Schem-mesh-map-0">
          <float_array id="EMROX-Argo_IPA-HN_V1_02_03_Simu_RoX_Simple_Argo_Argodrive_Schem-mesh-map-0-array" count="1212">2.948494 -1.005018 0 -0.996853 2.946451 -1.14638 2.946451 -1.14638 0 -0.996853 0 -1.196223 2.946451 -1.14638 0 -1.196223 2.948494 -1.287743 2.948494 -1.287743 0 -1.196223 0 -1.395594 2.948494 -1.287743 0 -1.395594 2.95434 -1.43317 2.95434 -1.43317 0 -1.395594 0 -1.594964 2.95434 -1.43317 0 -1.594964 2.963202 -1.578491 2.963202 -1.578491 0 -1.594964 2.973297 -1.719566 2.973297 -1.719566 0 -1.594964 0 -1.794335 2.973297 -1.719566 0 -1.794335 2.983372 -1.860643 2.983372 -1.860643 0 -1.794335 0 -1.993705 2.983372 -1.860643 0 -1.993705 2.992184 -2.005967 2.992184 -2.005967 0 -1.993705 2.997979 -2.151397 2.997979 -2.151397 0 -1.993705 0 -2.193076 2.997979 -2.151397 0 -2.193076 3 -2.292761 3 2.292761 0 2.392446 0 2.193076 3 2.292761 0 2.193076 2.997979 2.151397 2.997979 2.151397 0 2.193076 0 1.993705 2.997979 2.151397 0 1.993705 2.992184 2.005967 2.992184 2.005967 0 1.993705 2.983372 1.860643 2.983372 1.860643 0 1.993705 0 1.794335 2.983372 1.860643 0 1.794335 2.973297 1.719566 2.973297 1.719566 0 1.794335 0 1.594964 2.973297 1.719566 0 1.594964 2.963202 1.578491 2.963202 1.578491 0 1.594964 2.95434 1.43317 2.95434 1.43317 0 1.594964 0 1.395594 2.95434 1.43317 0 1.395594 2.948494 1.287743 2.948494 1.287743 0 1.395594 0 1.196223 2.948494 1.287743 0 1.196223 2.946451 1.14638 2.946451 1.14638 0 1.196223 0 0.996853 2.946451 1.14638 0 0.996853 2.948494 1.005018 2.948494 1.005018 0 0.996853 2.95434 0.859591 2.95434 0.859591 0 0.996853 0 0.797482 2.95434 0.859591 0 0.797482 2.963202 0.71427 2.963202 0.71427 0 0.797482 0 0.598112 2.963202 0.71427 0 0.598112 2.973297 0.573195 2.973297 0.573195 0 0.598112 2.983372 0.432118 2.983372 0.432118 0 0.598112 0 0.398741 2.983372 0.432118 0 0.398741 2.992184 0.286794 2.992184 0.286794 0 0.398741 0 0.199371 2.992184 0.286794 0 0.199371 2.997979 0.141364 2.997979 0.141364 0 0.199371 0 0 2.997979 0.141364 0 0 3 0 3 0 0 0 2.997979 -0.141364 2.997979 -0.141364 0 0 0 -0.199371 2.997979 -0.141364 0 -0.199371 2.992184 -0.286794 2.992184 -0.286794 0 -0.199371 0 -0.398741 2.992184 -0.286794 0 -0.398741 2.983372 -0.432118 2.983372 -0.432118 0 -0.398741 0 -0.598112 2.983372 -0.432118 0 -0.598112 2.973297 -0.573195 2.973297 -0.573195 0 -0.598112 2.963202 -0.71427 2.963202 -0.71427 0 -0.598112 0 -0.797482 2.963202 -0.71427 0 -0.797482 2.95434 -0.859591 2.95434 -0.859591 0 -0.797482 0 -0.996853 2.95434 -0.859591 0 -0.996853 2.948494 -1.005018 -2.859558 6.514831 0 6.323343 -3 6.528822 -3 6.528822 0 6.323343 0 6.850288 -3 6.528822 0 6.850288 -10.3 6.850288 -10.3 6.850288 0 6.850288 -10.3 7.377233 -10.3 7.377233 0 6.850288 0 7.377233 -10.3 7.377233 0 7.377233 -10.3 7.904179 -10.3 7.904179 0 7.377233 0 7.904179 -10.3 7.904179 0 7.904179 -10.3 8.431124 -10.3 8.431124 0 7.904179 0 8.431124 -10.3 8.431124 0 8.431124 -10.3 8.958069 -10.3 8.958069 0 8.431124 0 8.958069 -10.3 8.958069 0 8.958069 -10.3 9.485014 -10.3 9.485014 0 8.958069 0 9.485014 -10.3 9.485014 0 9.485014 -10.3 10.01196 -10.3 10.01196 0 9.485014 0 10.01196 -10.3 10.01196 0 10.01196 -10.3 10.5389 -10.3 10.5389 0 10.01196 0 10.5389 -10.3 10.5389 0 10.5389 -10.3 11.06585 -10.3 11.06585 0 10.5389 0 11.06585 -10.3 11.06585 0 11.06585 -10.3 11.59279 -10.3 11.59279 0 11.06585 0 11.59279 -2.859558 6.514831 -2.720535 6.472638 0 6.323343 0 6.323343 -2.720535 6.472638 -2.592807 6.403304 0 6.323343 -2.592807 6.403304 -2.483951 6.313374 -2.483951 6.313374 -2.394588 6.20405 0 6.323343 0 6.323343 -2.394588 6.20405 -2.325821 6.076013 0 6.323343 -2.325821 6.076013 0 5.796397 0 5.796397 -2.325821 6.076013 -2.284034 5.936861 0 5.796397 -2.284034 5.936861 -2.270192 5.796397 -2.270192 5.796397 -2.284034 5.655933 0 5.796397 0 5.796397 -2.284034 5.655933 -2.325821 5.516782 0 5.796397 -2.325821 5.516782 0 5.269452 0 5.269452 -2.325821 5.516782 -2.394588 5.388745 0 5.269452 -2.394588 5.388745 -2.483951 5.279421 -2.483951 5.279421 -2.592807 5.18949 0 5.269452 0 5.269452 -2.592807 5.18949 -2.720535 5.120157 0 5.269452 -2.720535 5.120157 -2.859558 5.077964 0 5.269452 -2.859558 5.077964 0 4.742507 0 4.742507 -2.859558 5.077964 -3 5.063972 0 4.742507 -3 5.063972 -10.3 4.742507 -10.3 4.742507 -3 5.063972 -3.140443 5.077964 -10.3 4.742507 -3.140443 5.077964 -10.3 5.269452 -10.3 5.269452 -3.140443 5.077964 -3.279465 5.120157 -10.3 5.269452 -3.279465 5.120157 -3.407193 5.18949 -3.407193 5.18949 -3.516049 5.279421 -10.3 5.269452 -10.3 5.269452 -3.516049 5.279421 -3.605412 5.388745 -10.3 5.269452 -3.605412 5.388745 -3.674179 5.516782 -10.3 5.269452 -3.674179 5.516782 -10.3 5.796397 -10.3 5.796397 -3.674179 5.516782 -3.715966 5.655933 -10.3 5.796397 -3.715966 5.655933 -3.729808 5.796397 -3.729808 5.796397 -3.715966 5.936861 -10.3 5.796397 -10.3 5.796397 -3.715966 5.936861 -3.674179 6.076013 -10.3 5.796397 -3.674179 6.076013 -10.3 6.323343 -10.3 6.323343 -3.674179 6.076013 -3.605412 6.20405 -10.3 6.323343 -3.605412 6.20405 -3.516049 6.313374 -3.516049 6.313374 -3.407193 6.403304 -10.3 6.323343 -10.3 6.323343 -3.407193 6.403304 -3.279465 6.472638 -10.3 6.323343 -3.279465 6.472638 -3.140443 6.514831 -3.140443 6.514831 -3 6.528822 -10.3 6.323343 -10.3 6.323343 -3 6.528822 -10.3 6.850288 -10.3 0 0 0 -10.3 0.526945 -10.3 0.526945 0 0 0 0.526945 -10.3 0.526945 0 0.526945 -10.3 1.05389 -10.3 1.05389 0 0.526945 0 1.05389 -10.3 1.05389 0 1.05389 -10.3 1.580836 -10.3 1.580836 0 1.05389 0 1.580836 -10.3 1.580836 0 1.580836 -10.3 2.107781 -10.3 2.107781 0 1.580836 0 2.107781 -10.3 2.107781 0 2.107781 -10.3 2.634726 -10.3 2.634726 0 2.107781 0 2.634726 -10.3 2.634726 0 2.634726 -10.3 3.161671 -10.3 3.161671 0 2.634726 0 3.161671 -10.3 3.161671 0 3.161671 -10.3 3.688617 -10.3 3.688617 0 3.161671 0 3.688617 -10.3 3.688617 0 3.688617 -10.3 4.215562 -10.3 4.215562 0 3.688617 0 4.215562 -10.3 4.215562 0 4.215562 -10.3 4.742507 -10.3 4.742507 0 4.215562 0 4.742507 4.779476 3.702745 9.165152 10.3 4.582576 3.729808 4.582576 3.729808 9.165152 10.3 0 10.3 4.582576 3.729808 0 10.3 4.385676 3.702745 4.385676 3.702745 0 10.3 4.203379 3.623563 4.203379 3.623563 0 10.3 4.049205 3.498133 4.049205 3.498133 0 10.3 3.93459 3.335759 3.93459 3.335759 0 10.3 3.868032 3.148484 3.868032 3.148484 0 10.3 0 0 3.868032 3.148484 0 0 3.854469 2.950196 3.854469 2.950196 0 0 3.894906 2.755602 3.894906 2.755602 0 0 3.986344 2.579134 3.986344 2.579134 0 0 4.122003 2.433879 4.122003 2.433879 0 0 4.291819 2.330611 4.291819 2.330611 0 0 4.4832 2.276989 4.4832 2.276989 0 0 9.165152 0 4.4832 2.276989 9.165152 0 4.681951 2.276989 4.681951 2.276989 9.165152 0 4.873332 2.330611 4.873332 2.330611 9.165152 0 5.043149 2.433879 5.043149 2.433879 9.165152 0 5.178807 2.579134 5.178807 2.579134 9.165152 0 5.270246 2.755602 5.270246 2.755602 9.165152 0 5.310683 2.950196 5.310683 2.950196 9.165152 0 5.29712 3.148484 5.29712 3.148484 9.165152 0 9.165152 10.3 5.29712 3.148484 9.165152 10.3 5.230562 3.335759 5.230562 3.335759 9.165152 10.3 5.115946 3.498133 5.115946 3.498133 9.165152 10.3 4.961772 3.623563 4.961772 3.623563 9.165152 10.3 4.779476 3.702745 -1.5 4.582576 -1.5 -4.582576 -1.029037 4.346762 -1.029037 4.346762 -1.5 -4.582576 -1.029037 -4.346762 -1.029037 4.346762 -1.029037 -4.346762 -0.585493 -4.062715 -1.029037 4.346762 -0.585493 -4.062715 -0.585493 4.062715 -0.585493 4.062715 -0.585493 -4.062715 -0.17429 -3.733584 -0.585493 4.062715 -0.17429 -3.733584 -0.17429 3.733584 -0.17429 3.733584 -0.17429 -3.733584 0.200009 -3.363024 -0.17429 3.733584 0.200009 -3.363024 0.200009 3.363024 0.200009 3.363024 0.200009 -3.363024 0.53325 -2.955147 0.200009 3.363024 0.53325 -2.955147 0.53325 2.955147 0.53325 2.955147 0.53325 -2.955147 0.821737 -2.514477 0.53325 2.955147 0.821737 -2.514477 0.821737 2.514477 0.821737 2.514477 0.821737 -2.514477 1.062266 -2.045904 0.821737 2.514477 1.062266 -2.045904 1.062266 2.045904 1.062266 2.045904 1.062266 -2.045904 1.252171 -1.55463 1.062266 2.045904 1.252171 -1.55463 1.252171 1.55463 1.252171 1.55463 1.252171 -1.55463 1.389342 -1.046104 1.252171 1.55463 1.389342 -1.046104 1.389342 1.046104 1.389342 1.046104 1.389342 -1.046104 1.472259 -0.52597 1.389342 1.046104 1.472259 -0.52597 1.472259 0.52597 1.472259 0.52597 1.472259 -0.52597 1.5 0 1.5 4.582576 1.029037 4.346762 1.5 -4.582576 1.5 -4.582576 1.029037 4.346762 1.029037 -4.346762 1.029037 -4.346762 1.029037 4.346762 0.585493 -4.062715 0.585493 -4.062715 1.029037 4.346762 0.585493 4.062715 0.585493 -4.062715 0.585493 4.062715 0.17429 -3.733584 0.17429 -3.733584 0.585493 4.062715 0.17429 3.733584 0.17429 -3.733584 0.17429 3.733584 -0.200009 -3.363024 -0.200009 -3.363024 0.17429 3.733584 -0.200009 3.363024 -0.200009 -3.363024 -0.200009 3.363024 -0.53325 -2.955147 -0.53325 -2.955147 -0.200009 3.363024 -0.53325 2.955147 -0.53325 -2.955147 -0.53325 2.955147 -0.821737 -2.514477 -0.821737 -2.514477 -0.53325 2.955147 -0.821737 2.514477 -0.821737 -2.514477 -0.821737 2.514477 -1.062266 -2.045904 -1.062266 -2.045904 -0.821737 2.514477 -1.062266 2.045904 -1.062266 -2.045904 -1.062266 2.045904 -1.252171 -1.55463 -1.252171 -1.55463 -1.062266 2.045904 -1.252171 1.55463 -1.252171 -1.55463 -1.252171 1.55463 -1.389342 -1.046104 -1.389342 -1.046104 -1.252171 1.55463 -1.389342 1.046104 -1.389342 -1.046104 -1.389342 1.046104 -1.472259 -0.52597 -1.472259 -0.52597 -1.389342 1.046104 -1.472259 0.52597 -1.472259 -0.52597 -1.472259 0.52597 -1.5 0</float_array>
          <technique_common>
            <accessor source="#EMROX-Argo_IPA-HN_V1_02_03_Simu_RoX_Simple_Argo_Argodrive_Schem-mesh-map-0-array" count="606" stride="2">
              <param name="S" type="float"/>
              <param name="T" type="float"/>
            </accessor>
          </technique_common>
        </source>
        <vertices id="EMROX-Argo_IPA-HN_V1_02_03_Simu_RoX_Simple_Argo_Argodrive_Schem-mesh-vertices">
          <input semantic="POSITION" source="#EMROX-Argo_IPA-HN_V1_02_03_Simu_RoX_Simple_Argo_Argodrive_Schem-mesh-positions"/>
        </vertices>
        <triangles material="_05_105_105-material" count="202">
          <input semantic="VERTEX" source="#EMROX-Argo_IPA-HN_V1_02_03_Simu_RoX_Simple_Argo_Argodrive_Schem-mesh-vertices" offset="0"/>
          <input semantic="NORMAL" source="#EMROX-Argo_IPA-HN_V1_02_03_Simu_RoX_Simple_Argo_Argodrive_Schem-mesh-normals" offset="1"/>
          <input semantic="TEXCOORD" source="#EMROX-Argo_IPA-HN_V1_02_03_Simu_RoX_Simple_Argo_Argodrive_Schem-mesh-map-0" offset="2" set="0"/>
          <p>68 0 0 23 1 1 64 2 2 64 3 3 23 4 4 24 5 5 64 6 6 24 7 7 67 8 8 67 9 9 24 10 10 22 11 11 67 12 12 22 13 13 71 14 14 71 15 15 22 16 16 20 17 17 71 18 18 20 19 19 75 20 20 75 21 21 20 22 22 83 23 23 83 24 24 20 25 25 18 26 26 83 27 27 18 28 28 87 29 29 87 30 30 18 31 31 16 32 32 87 33 33 16 34 34 91 35 35 91 36 36 16 37 37 95 38 38 95 39 39 16 40 40 14 41 41 95 42 42 14 43 43 98 44 44 98 45 45 14 46 46 12 47 47 98 48 48 12 49 49 93 50 50 93 51 51 12 52 52 10 53 53 93 54 54 10 55 55 89 56 56 89 57 57 10 58 58 85 59 59 85 60 60 10 61 61 8 62 62 85 63 63 8 64 64 81 65 65 81 66 66 8 67 67 6 68 68 81 69 69 6 70 70 73 71 71 73 72 72 6 73 73 69 74 74 69 75 75 6 76 76 4 77 77 69 78 78 4 79 79 65 80 80 65 81 81 4 82 82 2 83 83 65 84 84 2 85 85 63 86 86 63 87 87 2 88 88 3 89 89 63 90 90 3 91 91 66 92 92 66 93 93 3 94 94 70 95 95 70 96 96 3 97 97 5 98 98 70 99 99 5 100 100 74 101 101 74 102 102 5 103 103 7 104 104 74 105 105 7 106 106 82 107 107 82 108 108 7 109 109 86 110 110 86 111 111 7 112 112 9 113 113 86 114 114 9 115 115 90 116 116 90 117 117 9 118 118 11 119 119 90 120 120 11 121 121 94 122 122 94 123 123 11 124 124 13 125 125 94 126 126 13 127 127 99 128 128 99 129 129 13 130 130 96 131 131 96 132 132 13 133 133 15 134 134 96 135 135 15 136 136 92 137 137 92 138 138 15 139 139 17 140 140 92 141 141 17 142 142 88 143 143 88 144 144 17 145 145 19 146 146 88 147 147 19 148 148 84 149 149 84 150 150 19 151 151 76 152 152 76 153 153 19 154 154 21 155 155 76 156 156 21 157 157 72 158 158 72 159 159 21 160 160 23 161 161 72 162 162 23 163 163 68 164 164 67 165 165 79 166 166 64 167 167 64 168 168 79 169 169 61 170 170 64 171 171 61 172 172 62 173 173 62 174 174 61 175 175 58 176 176 58 177 177 61 178 178 57 179 179 58 180 180 57 181 181 54 182 182 54 183 183 57 184 184 53 185 185 54 186 186 53 187 187 50 188 188 50 189 189 53 190 190 49 191 191 50 192 192 49 193 193 46 194 194 46 195 195 49 196 196 45 197 197 46 198 198 45 199 199 42 200 200 42 201 201 45 202 202 41 203 203 42 204 204 41 205 205 38 206 206 38 207 207 41 208 208 37 209 209 38 210 210 37 211 211 34 212 212 34 213 213 37 214 214 33 215 215 34 216 216 33 217 217 30 218 218 30 219 219 33 220 220 29 221 221 30 222 222 29 223 223 26 224 224 26 225 225 29 226 226 25 227 227 67 228 228 71 229 229 79 230 230 79 231 231 71 232 232 75 233 233 79 234 234 75 235 235 83 236 236 83 237 237 87 238 238 79 239 239 79 240 240 87 241 241 91 242 242 79 243 243 91 244 244 97 245 245 97 246 246 91 247 247 95 248 248 97 249 249 95 250 250 98 251 251 98 252 252 93 253 253 97 254 254 97 255 255 93 256 256 89 257 257 97 258 258 89 259 259 77 260 260 77 261 261 89 262 262 85 263 263 77 264 264 85 265 265 81 266 266 81 267 267 73 268 268 77 269 269 77 270 270 73 271 271 69 272 272 77 273 273 69 274 274 65 275 275 77 276 276 65 277 277 59 278 278 59 279 279 65 280 280 63 281 281 59 282 282 63 283 283 60 284 284 60 285 285 63 286 286 66 287 287 60 288 288 66 289 289 78 290 290 78 291 291 66 292 292 70 293 293 78 294 294 70 295 295 74 296 296 74 297 297 82 298 298 78 299 299 78 300 300 82 301 301 86 302 302 78 303 303 86 304 304 90 305 305 78 306 306 90 307 307 100 308 308 100 309 309 90 310 310 94 311 311 100 312 312 94 313 313 99 314 314 99 315 315 96 316 316 100 317 317 100 318 318 96 319 319 92 320 320 100 321 321 92 322 322 80 323 323 80 324 324 92 325 325 88 326 326 80 327 327 88 328 328 84 329 329 84 330 330 76 331 331 80 332 332 80 333 333 76 334 334 72 335 335 80 336 336 72 337 337 68 338 338 68 339 339 64 340 340 80 341 341 80 342 342 64 343 343 62 344 344 1 345 345 0 346 346 28 347 347 28 348 348 0 349 349 27 350 350 28 351 351 27 352 352 32 353 353 32 354 354 27 355 355 31 356 356 32 357 357 31 358 358 36 359 359 36 360 360 31 361 361 35 362 362 36 363 363 35 364 364 40 365 365 40 366 366 35 367 367 39 368 368 40 369 369 39 370 370 44 371 371 44 372 372 39 373 373 43 374 374 44 375 375 43 376 376 48 377 377 48 378 378 43 379 379 47 380 380 48 381 381 47 382 382 52 383 383 52 384 384 47 385 385 51 386 386 52 387 387 51 388 388 56 389 389 56 390 390 51 391 391 55 392 392 56 393 393 55 394 394 60 395 395 60 396 396 55 397 397 59 398 398 11 399 399 1 399 400 13 399 401 13 399 402 1 399 403 26 399 404 13 400 405 26 400 406 15 400 407 15 399 408 26 399 409 17 399 410 17 399 411 26 399 412 19 399 413 19 399 414 26 399 415 21 399 416 21 399 417 26 399 418 23 399 419 23 399 420 26 399 421 25 399 422 23 401 423 25 401 424 24 401 425 24 399 426 25 399 427 22 399 428 22 399 429 25 399 430 20 399 431 20 399 432 25 399 433 18 399 434 18 399 435 25 399 436 16 399 437 16 402 438 25 402 439 14 402 440 14 399 441 25 399 442 0 399 443 14 399 444 0 399 445 12 399 446 12 399 447 0 399 448 10 399 449 10 399 450 0 399 451 8 399 452 8 399 453 0 399 454 6 399 455 6 399 456 0 399 457 4 399 458 4 399 459 0 399 460 2 399 461 2 399 462 0 399 463 3 399 464 3 399 465 0 399 466 1 399 467 3 403 468 1 403 469 5 403 470 5 404 471 1 404 472 7 404 473 7 405 474 1 405 475 9 405 476 9 406 477 1 406 478 11 406 479 26 407 480 1 407 481 30 407 482 30 407 483 1 407 484 28 407 485 30 407 486 28 407 487 32 407 488 30 407 489 32 407 490 34 407 491 34 407 492 32 407 493 36 407 494 34 407 495 36 407 496 38 407 497 38 407 498 36 407 499 40 407 500 38 407 501 40 407 502 42 407 503 42 407 504 40 407 505 44 407 506 42 407 507 44 407 508 46 407 509 46 407 510 44 407 511 48 407 512 46 407 513 48 407 514 50 407 515 50 407 516 48 407 517 52 407 518 50 407 519 52 407 520 54 407 521 54 407 522 52 407 523 56 407 524 54 407 525 56 407 526 58 407 527 58 407 528 56 407 529 60 407 530 58 407 531 60 407 532 62 407 533 62 407 534 60 407 535 78 407 536 62 407 537 78 407 538 80 407 539 80 407 540 78 407 541 100 407 542 25 408 543 29 408 544 0 408 545 0 408 546 29 408 547 27 408 548 27 408 549 29 408 550 31 408 551 31 408 552 29 408 553 33 408 554 31 408 555 33 408 556 35 408 557 35 408 558 33 408 559 37 408 560 35 408 561 37 408 562 39 408 563 39 408 564 37 408 565 41 408 566 39 408 567 41 408 568 43 408 569 43 408 570 41 408 571 45 408 572 43 408 573 45 408 574 47 408 575 47 408 576 45 408 577 49 408 578 47 408 579 49 408 580 51 408 581 51 408 582 49 408 583 53 408 584 51 408 585 53 408 586 55 408 587 55 408 588 53 408 589 57 408 590 55 408 591 57 408 592 59 408 593 59 408 594 57 408 595 61 408 596 59 408 597 61 408 598 77 408 599 77 408 600 61 408 601 79 408 602 77 408 603 79 408 604 97 408 605</p>
        </triangles>
      </mesh>
    </geometry>
  </library_geometries>
  <library_visual_scenes>
    <visual_scene id="Scene" name="Scene">
      <node id="EMROX-Argo_IPA-HN_V1_02_03_Simu_RoX_Simple_Argo_Argodrive_Schem" name="EMROX-Argo IPA-HN V1.02.03 Simu_RoX Simple Argo Argodrive Schem" type="NODE">
        <matrix sid="transform">-4.37114e-8 1 0 0 -1 -4.37114e-8 0 0 0 0 1 0 0 0 0 1</matrix>
        <instance_geometry url="#EMROX-Argo_IPA-HN_V1_02_03_Simu_RoX_Simple_Argo_Argodrive_Schem-mesh" name="EMROX-Argo IPA-HN V1.02.03 Simu_RoX Simple Argo Argodrive Schem">
          <bind_material>
            <technique_common>
              <instance_material symbol="_05_105_105-material" target="#_05_105_105-material">
                <bind_vertex_input semantic="UVMap" input_semantic="TEXCOORD" input_set="0"/>
              </instance_material>
            </technique_common>
          </bind_material>
        </instance_geometry>
      </node>
    </visual_scene>
  </library_visual_scenes>
  <scene>
    <instance_visual_scene url="#Scene"/>
  </scene>
</COLLADA>